%FSLAX45Y45*%
G04 Gerber Fmt 4.5, Leading zero omitted, Abs format (unit mm)*
G04 Created by KiCad (PCBNEW (6.0.2)) date 2023-09-30 20:53:12*
%MOMM*%
%LPD*%
G01*
G04 APERTURE LIST*
%TA.AperFunction,Profile*%
%ADD10C,0.100000*%
%TD*%
%ADD11C,0.200000*%
%ADD12C,0.040000*%
G04 APERTURE END LIST*
D10*
X10312400Y-3302000D02*
X14706600Y-3302000D01*
X10312400Y-9398000D02*
X10312400Y-3302000D01*
X19913600Y-3302000D02*
X19913600Y-9398000D01*
X17754600Y-3302000D02*
X19913600Y-3302000D01*
X18618200Y-9398000D02*
X10312400Y-9398000D01*
X14706600Y-3302000D02*
X16027400Y-3302000D01*
X19913600Y-9398000D02*
X18618200Y-9398000D01*
X16027400Y-3302000D02*
X17754600Y-3302000D01*
D11*
D12*
X12243120Y-7960680D02*
X12283120Y-8000680D01*
X12283120Y-7960680D02*
X12243120Y-8000680D01*
X12248200Y-7193600D02*
X12288200Y-7233600D01*
X12288200Y-7193600D02*
X12248200Y-7233600D01*
X12248200Y-7574600D02*
X12288200Y-7614600D01*
X12288200Y-7574600D02*
X12248200Y-7614600D01*
X12248200Y-7706680D02*
X12288200Y-7746680D01*
X12288200Y-7706680D02*
X12248200Y-7746680D01*
X12253280Y-4658680D02*
X12293280Y-4698680D01*
X12293280Y-4658680D02*
X12253280Y-4698680D01*
X12253280Y-5674680D02*
X12293280Y-5714680D01*
X12293280Y-5674680D02*
X12253280Y-5714680D01*
X12253280Y-5928680D02*
X12293280Y-5968680D01*
X12293280Y-5928680D02*
X12253280Y-5968680D01*
X12253280Y-6182680D02*
X12293280Y-6222680D01*
X12293280Y-6182680D02*
X12253280Y-6222680D01*
X12253280Y-6944680D02*
X12293280Y-6984680D01*
X12293280Y-6944680D02*
X12253280Y-6984680D01*
X12260900Y-7066600D02*
X12300900Y-7106600D01*
X12300900Y-7066600D02*
X12260900Y-7106600D01*
X12395520Y-7452680D02*
X12435520Y-7492680D01*
X12435520Y-7452680D02*
X12395520Y-7492680D01*
X12527600Y-5288600D02*
X12567600Y-5328600D01*
X12567600Y-5288600D02*
X12527600Y-5328600D01*
X12527600Y-5504500D02*
X12567600Y-5544500D01*
X12567600Y-5504500D02*
X12527600Y-5544500D01*
X12558080Y-4528120D02*
X12598080Y-4568120D01*
X12598080Y-4528120D02*
X12558080Y-4568120D01*
X12648500Y-7978460D02*
X12688500Y-8018460D01*
X12688500Y-7978460D02*
X12648500Y-8018460D01*
X12654600Y-5034600D02*
X12694600Y-5074600D01*
X12694600Y-5034600D02*
X12654600Y-5074600D01*
X12654600Y-5504500D02*
X12694600Y-5544500D01*
X12694600Y-5504500D02*
X12654600Y-5544500D01*
X12674920Y-6731320D02*
X12714920Y-6771320D01*
X12714920Y-6731320D02*
X12674920Y-6771320D01*
X12743500Y-7790500D02*
X12783500Y-7830500D01*
X12783500Y-7790500D02*
X12743500Y-7830500D01*
X12801920Y-6619560D02*
X12841920Y-6659560D01*
X12841920Y-6619560D02*
X12801920Y-6659560D01*
X12807000Y-6086160D02*
X12847000Y-6126160D01*
X12847000Y-6086160D02*
X12807000Y-6126160D01*
X12857800Y-4533200D02*
X12897800Y-4573200D01*
X12897800Y-4533200D02*
X12857800Y-4573200D01*
X12959400Y-5263200D02*
X12999400Y-5303200D01*
X12999400Y-5263200D02*
X12959400Y-5303200D01*
X12959400Y-6086160D02*
X12999400Y-6126160D01*
X12999400Y-6086160D02*
X12959400Y-6126160D01*
X12959400Y-6187760D02*
X12999400Y-6227760D01*
X12999400Y-6187760D02*
X12959400Y-6227760D01*
X12959400Y-6578920D02*
X12999400Y-6618920D01*
X12999400Y-6578920D02*
X12959400Y-6618920D01*
X13025440Y-5893120D02*
X13065440Y-5933120D01*
X13065440Y-5893120D02*
X13025440Y-5933120D01*
X13237600Y-6191640D02*
X13277600Y-6231640D01*
X13277600Y-6191640D02*
X13237600Y-6231640D01*
X13304840Y-4714560D02*
X13344840Y-4754560D01*
X13344840Y-4714560D02*
X13304840Y-4754560D01*
X13326640Y-5891640D02*
X13366640Y-5931640D01*
X13366640Y-5891640D02*
X13326640Y-5931640D01*
X13457240Y-5644200D02*
X13497240Y-5684200D01*
X13497240Y-5644200D02*
X13457240Y-5684200D01*
X13505500Y-5326700D02*
X13545500Y-5366700D01*
X13545500Y-5326700D02*
X13505500Y-5366700D01*
X13523280Y-4089720D02*
X13563280Y-4129720D01*
X13563280Y-4089720D02*
X13523280Y-4129720D01*
X13614720Y-4775520D02*
X13654720Y-4815520D01*
X13654720Y-4775520D02*
X13614720Y-4815520D01*
X13614720Y-6243640D02*
X13654720Y-6283640D01*
X13654720Y-6243640D02*
X13614720Y-6283640D01*
X13638870Y-6980240D02*
X13678870Y-7020240D01*
X13678870Y-6980240D02*
X13638870Y-7020240D01*
X13665520Y-7102160D02*
X13705520Y-7142160D01*
X13705520Y-7102160D02*
X13665520Y-7142160D01*
X13707993Y-5757625D02*
X13747993Y-5797625D01*
X13747993Y-5757625D02*
X13707993Y-5797625D01*
X13716320Y-5227640D02*
X13756320Y-5267640D01*
X13756320Y-5227640D02*
X13716320Y-5267640D01*
X13726480Y-5120960D02*
X13766480Y-5160960D01*
X13766480Y-5120960D02*
X13726480Y-5160960D01*
X13785775Y-5835407D02*
X13825775Y-5875407D01*
X13825775Y-5835407D02*
X13785775Y-5875407D01*
X13812840Y-6131880D02*
X13852840Y-6171880D01*
X13852840Y-6131880D02*
X13812840Y-6171880D01*
X13812840Y-7107240D02*
X13852840Y-7147240D01*
X13852840Y-7107240D02*
X13812840Y-7147240D01*
X13843320Y-4668840D02*
X13883320Y-4708840D01*
X13883320Y-4668840D02*
X13843320Y-4708840D01*
X13924600Y-6086160D02*
X13964600Y-6126160D01*
X13964600Y-6086160D02*
X13924600Y-6126160D01*
X13938175Y-5910025D02*
X13978175Y-5950025D01*
X13978175Y-5910025D02*
X13938175Y-5950025D01*
X13995720Y-5115880D02*
X14035720Y-5155880D01*
X14035720Y-5115880D02*
X13995720Y-5155880D01*
X13995720Y-6543360D02*
X14035720Y-6583360D01*
X14035720Y-6543360D02*
X13995720Y-6583360D01*
X14005880Y-5989640D02*
X14045880Y-6029640D01*
X14045880Y-5989640D02*
X14005880Y-6029640D01*
X14010960Y-7097080D02*
X14050960Y-7137080D01*
X14050960Y-7097080D02*
X14010960Y-7137080D01*
X14153200Y-5720400D02*
X14193200Y-5760400D01*
X14193200Y-5720400D02*
X14153200Y-5760400D01*
X14168440Y-6507800D02*
X14208440Y-6547800D01*
X14208440Y-6507800D02*
X14168440Y-6547800D01*
X14285280Y-6482400D02*
X14325280Y-6522400D01*
X14325280Y-6482400D02*
X14285280Y-6522400D01*
X14290360Y-5806760D02*
X14330360Y-5846760D01*
X14330360Y-5806760D02*
X14290360Y-5846760D01*
X14295440Y-4699320D02*
X14335440Y-4739320D01*
X14335440Y-4699320D02*
X14295440Y-4739320D01*
X14325920Y-5258120D02*
X14365920Y-5298120D01*
X14365920Y-5258120D02*
X14325920Y-5298120D01*
X14341160Y-7340920D02*
X14381160Y-7380920D01*
X14381160Y-7340920D02*
X14341160Y-7380920D01*
X14412280Y-7137720D02*
X14452280Y-7177720D01*
X14452280Y-7137720D02*
X14412280Y-7177720D01*
X14442760Y-4089720D02*
X14482760Y-4129720D01*
X14482760Y-4089720D02*
X14442760Y-4129720D01*
X14452920Y-6142040D02*
X14492920Y-6182040D01*
X14492920Y-6142040D02*
X14452920Y-6182040D01*
X14488480Y-7432360D02*
X14528480Y-7472360D01*
X14528480Y-7432360D02*
X14488480Y-7472360D01*
X14564680Y-7137720D02*
X14604680Y-7177720D01*
X14604680Y-7137720D02*
X14564680Y-7177720D01*
X14564680Y-7269800D02*
X14604680Y-7309800D01*
X14604680Y-7269800D02*
X14564680Y-7309800D01*
X14701840Y-7351080D02*
X14741840Y-7391080D01*
X14741840Y-7351080D02*
X14701840Y-7391080D01*
X14717080Y-7137920D02*
X14757080Y-7177920D01*
X14757080Y-7137920D02*
X14717080Y-7177920D01*
X14729380Y-8683957D02*
X14769380Y-8723957D01*
X14769380Y-8683957D02*
X14729380Y-8723957D01*
X14811354Y-7579680D02*
X14851354Y-7619680D01*
X14851354Y-7579680D02*
X14811354Y-7619680D01*
X14879640Y-4008440D02*
X14919640Y-4048440D01*
X14919640Y-4008440D02*
X14879640Y-4048440D01*
X14905040Y-6167440D02*
X14945040Y-6207440D01*
X14945040Y-6167440D02*
X14905040Y-6207440D01*
X14915200Y-6396040D02*
X14955200Y-6436040D01*
X14955200Y-6396040D02*
X14915200Y-6436040D01*
X14915200Y-6507800D02*
X14955200Y-6547800D01*
X14955200Y-6507800D02*
X14915200Y-6547800D01*
X15025930Y-4018600D02*
X15065930Y-4058600D01*
X15065930Y-4018600D02*
X15025930Y-4058600D01*
X15047280Y-4346160D02*
X15087280Y-4386160D01*
X15087280Y-4346160D02*
X15047280Y-4386160D01*
X15062120Y-8861757D02*
X15102120Y-8901757D01*
X15102120Y-8861757D02*
X15062120Y-8901757D01*
X15093000Y-6162360D02*
X15133000Y-6202360D01*
X15133000Y-6162360D02*
X15093000Y-6202360D01*
X15094566Y-7578482D02*
X15134566Y-7618482D01*
X15134566Y-7578482D02*
X15094566Y-7618482D01*
X15108240Y-6055680D02*
X15148240Y-6095680D01*
X15148240Y-6055680D02*
X15108240Y-6095680D01*
X15156500Y-3739200D02*
X15196500Y-3779200D01*
X15196500Y-3739200D02*
X15156500Y-3779200D01*
X15158640Y-6809436D02*
X15198640Y-6849436D01*
X15198640Y-6809436D02*
X15158640Y-6849436D01*
X15184440Y-6970080D02*
X15224440Y-7010080D01*
X15224440Y-6970080D02*
X15184440Y-7010080D01*
X15220880Y-5070160D02*
X15260880Y-5110160D01*
X15260880Y-5070160D02*
X15220880Y-5110160D01*
X15234840Y-6745936D02*
X15274840Y-6785936D01*
X15274840Y-6745936D02*
X15234840Y-6785936D01*
X15255160Y-6588456D02*
X15295160Y-6628456D01*
X15295160Y-6588456D02*
X15255160Y-6628456D01*
X15275880Y-4069400D02*
X15315880Y-4109400D01*
X15315880Y-4069400D02*
X15275880Y-4109400D01*
X15275880Y-4562160D02*
X15315880Y-4602160D01*
X15315880Y-4562160D02*
X15275880Y-4602160D01*
X15318046Y-3690312D02*
X15358046Y-3730312D01*
X15358046Y-3690312D02*
X15318046Y-3730312D01*
X15330880Y-5070160D02*
X15370880Y-5110160D01*
X15370880Y-5070160D02*
X15330880Y-5110160D01*
X15374540Y-8861757D02*
X15414540Y-8901757D01*
X15414540Y-8861757D02*
X15374540Y-8901757D01*
X15415180Y-6568136D02*
X15455180Y-6608136D01*
X15455180Y-6568136D02*
X15415180Y-6608136D01*
X15504480Y-4343720D02*
X15544480Y-4383720D01*
X15544480Y-4343720D02*
X15504480Y-4383720D01*
X15512100Y-4018600D02*
X15552100Y-4058600D01*
X15552100Y-4018600D02*
X15512100Y-4058600D01*
X15529880Y-4628200D02*
X15569880Y-4668200D01*
X15569880Y-4628200D02*
X15529880Y-4668200D01*
X15529880Y-4724720D02*
X15569880Y-4764720D01*
X15569880Y-4724720D02*
X15529880Y-4764720D01*
X15532020Y-7352996D02*
X15572020Y-7392996D01*
X15572020Y-7352996D02*
X15532020Y-7392996D01*
X15540040Y-5231390D02*
X15580040Y-5271390D01*
X15580040Y-5231390D02*
X15540040Y-5271390D01*
X15573424Y-6870724D02*
X15613424Y-6910724D01*
X15613424Y-6870724D02*
X15573424Y-6910724D01*
X15636560Y-5303840D02*
X15676560Y-5343840D01*
X15676560Y-5303840D02*
X15636560Y-5343840D01*
X15671720Y-6852616D02*
X15711720Y-6892616D01*
X15711720Y-6852616D02*
X15671720Y-6892616D01*
X15672120Y-4008440D02*
X15712120Y-4048440D01*
X15712120Y-4008440D02*
X15672120Y-4048440D01*
X15686960Y-6380176D02*
X15726960Y-6420176D01*
X15726960Y-6380176D02*
X15686960Y-6420176D01*
X15694580Y-6237936D02*
X15734580Y-6277936D01*
X15734580Y-6237936D02*
X15694580Y-6277936D01*
X15702600Y-4785680D02*
X15742600Y-4825680D01*
X15742600Y-4785680D02*
X15702600Y-4825680D01*
X15750460Y-8861757D02*
X15790460Y-8901757D01*
X15790460Y-8861757D02*
X15750460Y-8901757D01*
X15778800Y-5461320D02*
X15818800Y-5501320D01*
X15818800Y-5461320D02*
X15778800Y-5501320D01*
X15808880Y-7855916D02*
X15848880Y-7895916D01*
X15848880Y-7855916D02*
X15808880Y-7895916D01*
X15811420Y-7073596D02*
X15851420Y-7113596D01*
X15851420Y-7073596D02*
X15811420Y-7113596D01*
X15811420Y-7352996D02*
X15851420Y-7392996D01*
X15851420Y-7352996D02*
X15811420Y-7392996D01*
X15811420Y-7632396D02*
X15851420Y-7672396D01*
X15851420Y-7632396D02*
X15811420Y-7672396D01*
X15976920Y-5766120D02*
X16016920Y-5806120D01*
X16016920Y-5766120D02*
X15976920Y-5806120D01*
X16027720Y-4343720D02*
X16067720Y-4383720D01*
X16067720Y-4343720D02*
X16027720Y-4383720D01*
X16073440Y-5024440D02*
X16113440Y-5064440D01*
X16113440Y-5024440D02*
X16073440Y-5064440D01*
X16090820Y-7352996D02*
X16130820Y-7392996D01*
X16130820Y-7352996D02*
X16090820Y-7392996D01*
X16124240Y-6990400D02*
X16164240Y-7030400D01*
X16164240Y-6990400D02*
X16124240Y-7030400D01*
X16149640Y-5766120D02*
X16189640Y-5806120D01*
X16189640Y-5766120D02*
X16149640Y-5806120D01*
X16151780Y-8861757D02*
X16191780Y-8901757D01*
X16191780Y-8861757D02*
X16151780Y-8901757D01*
X16175040Y-6765457D02*
X16215040Y-6805457D01*
X16215040Y-6765457D02*
X16175040Y-6805457D01*
X16184800Y-6237936D02*
X16224800Y-6277936D01*
X16224800Y-6237936D02*
X16184800Y-6277936D01*
X16200440Y-5024440D02*
X16240440Y-5064440D01*
X16240440Y-5024440D02*
X16200440Y-5064440D01*
X16225351Y-6515652D02*
X16265351Y-6555652D01*
X16265351Y-6515652D02*
X16225351Y-6555652D01*
X16225840Y-4044000D02*
X16265840Y-4084000D01*
X16265840Y-4044000D02*
X16225840Y-4084000D01*
X16227980Y-6415736D02*
X16267980Y-6455736D01*
X16267980Y-6415736D02*
X16227980Y-6455736D01*
X16236000Y-6848160D02*
X16276000Y-6888160D01*
X16276000Y-6848160D02*
X16236000Y-6888160D01*
X16241080Y-6975160D02*
X16281080Y-7015160D01*
X16281080Y-6975160D02*
X16241080Y-7015160D01*
X16347760Y-4369120D02*
X16387760Y-4409120D01*
X16387760Y-4369120D02*
X16347760Y-4409120D01*
X16469680Y-7198680D02*
X16509680Y-7238680D01*
X16509680Y-7198680D02*
X16469680Y-7238680D01*
X16475549Y-7098902D02*
X16515549Y-7138902D01*
X16515549Y-7098902D02*
X16475549Y-7138902D01*
X16541859Y-7024116D02*
X16581859Y-7064116D01*
X16581859Y-7024116D02*
X16541859Y-7064116D01*
X16550560Y-8861757D02*
X16590560Y-8901757D01*
X16590560Y-8861757D02*
X16550560Y-8901757D01*
X16550960Y-4983800D02*
X16590960Y-5023800D01*
X16590960Y-4983800D02*
X16550960Y-5023800D01*
X16550960Y-6223320D02*
X16590960Y-6263320D01*
X16590960Y-6223320D02*
X16550960Y-6263320D01*
X16652560Y-6228400D02*
X16692560Y-6268400D01*
X16692560Y-6228400D02*
X16652560Y-6268400D01*
X16652560Y-8920800D02*
X16692560Y-8960800D01*
X16692560Y-8920800D02*
X16652560Y-8960800D01*
X16764320Y-8905560D02*
X16804320Y-8945560D01*
X16804320Y-8905560D02*
X16764320Y-8945560D01*
X16769400Y-4084640D02*
X16809400Y-4124640D01*
X16809400Y-4084640D02*
X16769400Y-4124640D01*
X16794800Y-4374200D02*
X16834800Y-4414200D01*
X16834800Y-4374200D02*
X16794800Y-4414200D01*
X16799880Y-6218240D02*
X16839880Y-6258240D01*
X16839880Y-6218240D02*
X16799880Y-6258240D01*
X16865920Y-4186240D02*
X16905920Y-4226240D01*
X16905920Y-4186240D02*
X16865920Y-4226240D01*
X16891320Y-4826320D02*
X16931320Y-4866320D01*
X16931320Y-4826320D02*
X16891320Y-4866320D01*
X16896400Y-4374200D02*
X16936400Y-4414200D01*
X16936400Y-4374200D02*
X16896400Y-4414200D01*
X16962440Y-6380800D02*
X17002440Y-6420800D01*
X17002440Y-6380800D02*
X16962440Y-6420800D01*
X16998000Y-4374200D02*
X17038000Y-4414200D01*
X17038000Y-4374200D02*
X16998000Y-4414200D01*
X17048800Y-6472240D02*
X17088800Y-6512240D01*
X17088800Y-6472240D02*
X17048800Y-6512240D01*
X17048800Y-6573840D02*
X17088800Y-6613840D01*
X17088800Y-6573840D02*
X17048800Y-6613840D01*
X17048800Y-6680520D02*
X17088800Y-6720520D01*
X17088800Y-6680520D02*
X17048800Y-6720520D01*
X17048800Y-6780470D02*
X17088800Y-6820470D01*
X17088800Y-6780470D02*
X17048800Y-6820470D01*
X17048800Y-6883720D02*
X17088800Y-6923720D01*
X17088800Y-6883720D02*
X17048800Y-6923720D01*
X17094520Y-4826320D02*
X17134520Y-4866320D01*
X17134520Y-4826320D02*
X17094520Y-4866320D01*
X17099600Y-4374200D02*
X17139600Y-4414200D01*
X17139600Y-4374200D02*
X17099600Y-4414200D01*
X17190640Y-7914336D02*
X17230640Y-7954336D01*
X17230640Y-7914336D02*
X17190640Y-7954336D01*
X17201200Y-4374200D02*
X17241200Y-4414200D01*
X17241200Y-4374200D02*
X17201200Y-4414200D01*
X17205880Y-7165036D02*
X17245880Y-7205036D01*
X17245880Y-7165036D02*
X17205880Y-7205036D01*
X17231280Y-7342836D02*
X17271280Y-7382836D01*
X17271280Y-7342836D02*
X17231280Y-7382836D01*
X17297720Y-4826320D02*
X17337720Y-4866320D01*
X17337720Y-4826320D02*
X17297720Y-4866320D01*
X17302800Y-4374200D02*
X17342800Y-4414200D01*
X17342800Y-4374200D02*
X17302800Y-4414200D01*
X17381140Y-7706056D02*
X17421140Y-7746056D01*
X17421140Y-7706056D02*
X17381140Y-7746056D01*
X17565440Y-4745040D02*
X17605440Y-4785040D01*
X17605440Y-4745040D02*
X17565440Y-4785040D01*
X17569100Y-7487616D02*
X17609100Y-7527616D01*
X17609100Y-7487616D02*
X17569100Y-7527616D01*
X17589420Y-7175196D02*
X17629420Y-7215196D01*
X17629420Y-7175196D02*
X17589420Y-7215196D01*
X17691020Y-7302196D02*
X17731020Y-7342196D01*
X17731020Y-7302196D02*
X17691020Y-7342196D01*
X17753400Y-5054920D02*
X17793400Y-5094920D01*
X17793400Y-5054920D02*
X17753400Y-5094920D01*
X17927640Y-4912680D02*
X17967640Y-4952680D01*
X17967640Y-4912680D02*
X17927640Y-4952680D01*
X17932720Y-4658680D02*
X17972720Y-4698680D01*
X17972720Y-4658680D02*
X17932720Y-4698680D01*
X17932720Y-5166680D02*
X17972720Y-5206680D01*
X17972720Y-5166680D02*
X17932720Y-5206680D01*
X17932720Y-5420680D02*
X17972720Y-5460680D01*
X17972720Y-5420680D02*
X17932720Y-5460680D01*
X17932720Y-7706680D02*
X17972720Y-7746680D01*
X17972720Y-7706680D02*
X17932720Y-7746680D01*
X17937800Y-7960680D02*
X17977800Y-8000680D01*
X17977800Y-7960680D02*
X17937800Y-8000680D01*
D11*
X10565019Y-9713476D02*
X10565019Y-9513476D01*
X10612638Y-9513476D01*
X10641210Y-9523000D01*
X10660257Y-9542048D01*
X10669781Y-9561095D01*
X10679305Y-9599190D01*
X10679305Y-9627762D01*
X10669781Y-9665857D01*
X10660257Y-9684905D01*
X10641210Y-9703952D01*
X10612638Y-9713476D01*
X10565019Y-9713476D01*
X10765019Y-9713476D02*
X10765019Y-9580143D01*
X10765019Y-9618238D02*
X10774543Y-9599190D01*
X10784067Y-9589667D01*
X10803114Y-9580143D01*
X10822162Y-9580143D01*
X10888829Y-9713476D02*
X10888829Y-9580143D01*
X10888829Y-9513476D02*
X10879305Y-9523000D01*
X10888829Y-9532524D01*
X10898352Y-9523000D01*
X10888829Y-9513476D01*
X10888829Y-9532524D01*
X11012638Y-9713476D02*
X10993590Y-9703952D01*
X10984067Y-9684905D01*
X10984067Y-9513476D01*
X11117400Y-9713476D02*
X11098352Y-9703952D01*
X11088829Y-9684905D01*
X11088829Y-9513476D01*
X11345971Y-9713476D02*
X11345971Y-9513476D01*
X11412638Y-9656333D01*
X11479305Y-9513476D01*
X11479305Y-9713476D01*
X11660257Y-9713476D02*
X11660257Y-9608714D01*
X11650733Y-9589667D01*
X11631686Y-9580143D01*
X11593590Y-9580143D01*
X11574543Y-9589667D01*
X11660257Y-9703952D02*
X11641209Y-9713476D01*
X11593590Y-9713476D01*
X11574543Y-9703952D01*
X11565019Y-9684905D01*
X11565019Y-9665857D01*
X11574543Y-9646810D01*
X11593590Y-9637286D01*
X11641209Y-9637286D01*
X11660257Y-9627762D01*
X11755495Y-9580143D02*
X11755495Y-9780143D01*
X11755495Y-9589667D02*
X11774543Y-9580143D01*
X11812638Y-9580143D01*
X11831686Y-9589667D01*
X11841209Y-9599190D01*
X11850733Y-9618238D01*
X11850733Y-9675381D01*
X11841209Y-9694429D01*
X11831686Y-9703952D01*
X11812638Y-9713476D01*
X11774543Y-9713476D01*
X11755495Y-9703952D01*
X11936448Y-9694429D02*
X11945971Y-9703952D01*
X11936448Y-9713476D01*
X11926924Y-9703952D01*
X11936448Y-9694429D01*
X11936448Y-9713476D01*
X11936448Y-9589667D02*
X11945971Y-9599190D01*
X11936448Y-9608714D01*
X11926924Y-9599190D01*
X11936448Y-9589667D01*
X11936448Y-9608714D01*
D12*
X10267400Y-10023000D02*
X10307400Y-10063000D01*
X10307400Y-10023000D02*
X10267400Y-10063000D01*
D11*
X10603114Y-9933476D02*
X10622162Y-9933476D01*
X10641210Y-9943000D01*
X10650733Y-9952524D01*
X10660257Y-9971571D01*
X10669781Y-10009667D01*
X10669781Y-10057286D01*
X10660257Y-10095381D01*
X10650733Y-10114429D01*
X10641210Y-10123952D01*
X10622162Y-10133476D01*
X10603114Y-10133476D01*
X10584067Y-10123952D01*
X10574543Y-10114429D01*
X10565019Y-10095381D01*
X10555495Y-10057286D01*
X10555495Y-10009667D01*
X10565019Y-9971571D01*
X10574543Y-9952524D01*
X10584067Y-9943000D01*
X10603114Y-9933476D01*
X10755495Y-10114429D02*
X10765019Y-10123952D01*
X10755495Y-10133476D01*
X10745971Y-10123952D01*
X10755495Y-10114429D01*
X10755495Y-10133476D01*
X10936448Y-10000143D02*
X10936448Y-10133476D01*
X10888829Y-9923952D02*
X10841210Y-10066810D01*
X10965019Y-10066810D01*
X11079305Y-9933476D02*
X11098352Y-9933476D01*
X11117400Y-9943000D01*
X11126924Y-9952524D01*
X11136448Y-9971571D01*
X11145971Y-10009667D01*
X11145971Y-10057286D01*
X11136448Y-10095381D01*
X11126924Y-10114429D01*
X11117400Y-10123952D01*
X11098352Y-10133476D01*
X11079305Y-10133476D01*
X11060257Y-10123952D01*
X11050733Y-10114429D01*
X11041210Y-10095381D01*
X11031686Y-10057286D01*
X11031686Y-10009667D01*
X11041210Y-9971571D01*
X11050733Y-9952524D01*
X11060257Y-9943000D01*
X11079305Y-9933476D01*
X11269781Y-9933476D02*
X11288828Y-9933476D01*
X11307876Y-9943000D01*
X11317400Y-9952524D01*
X11326924Y-9971571D01*
X11336448Y-10009667D01*
X11336448Y-10057286D01*
X11326924Y-10095381D01*
X11317400Y-10114429D01*
X11307876Y-10123952D01*
X11288828Y-10133476D01*
X11269781Y-10133476D01*
X11250733Y-10123952D01*
X11241209Y-10114429D01*
X11231686Y-10095381D01*
X11222162Y-10057286D01*
X11222162Y-10009667D01*
X11231686Y-9971571D01*
X11241209Y-9952524D01*
X11250733Y-9943000D01*
X11269781Y-9933476D01*
X11422162Y-10133476D02*
X11422162Y-10000143D01*
X11422162Y-10019190D02*
X11431686Y-10009667D01*
X11450733Y-10000143D01*
X11479305Y-10000143D01*
X11498352Y-10009667D01*
X11507876Y-10028714D01*
X11507876Y-10133476D01*
X11507876Y-10028714D02*
X11517400Y-10009667D01*
X11536448Y-10000143D01*
X11565019Y-10000143D01*
X11584067Y-10009667D01*
X11593590Y-10028714D01*
X11593590Y-10133476D01*
X11688828Y-10133476D02*
X11688828Y-10000143D01*
X11688828Y-10019190D02*
X11698352Y-10009667D01*
X11717400Y-10000143D01*
X11745971Y-10000143D01*
X11765019Y-10009667D01*
X11774543Y-10028714D01*
X11774543Y-10133476D01*
X11774543Y-10028714D02*
X11784067Y-10009667D01*
X11803114Y-10000143D01*
X11831686Y-10000143D01*
X11850733Y-10009667D01*
X11860257Y-10028714D01*
X11860257Y-10133476D01*
X12250733Y-9923952D02*
X12079305Y-10181095D01*
X12507876Y-9933476D02*
X12526924Y-9933476D01*
X12545971Y-9943000D01*
X12555495Y-9952524D01*
X12565019Y-9971571D01*
X12574543Y-10009667D01*
X12574543Y-10057286D01*
X12565019Y-10095381D01*
X12555495Y-10114429D01*
X12545971Y-10123952D01*
X12526924Y-10133476D01*
X12507876Y-10133476D01*
X12488828Y-10123952D01*
X12479305Y-10114429D01*
X12469781Y-10095381D01*
X12460257Y-10057286D01*
X12460257Y-10009667D01*
X12469781Y-9971571D01*
X12479305Y-9952524D01*
X12488828Y-9943000D01*
X12507876Y-9933476D01*
X12660257Y-10114429D02*
X12669781Y-10123952D01*
X12660257Y-10133476D01*
X12650733Y-10123952D01*
X12660257Y-10114429D01*
X12660257Y-10133476D01*
X12793590Y-9933476D02*
X12812638Y-9933476D01*
X12831686Y-9943000D01*
X12841209Y-9952524D01*
X12850733Y-9971571D01*
X12860257Y-10009667D01*
X12860257Y-10057286D01*
X12850733Y-10095381D01*
X12841209Y-10114429D01*
X12831686Y-10123952D01*
X12812638Y-10133476D01*
X12793590Y-10133476D01*
X12774543Y-10123952D01*
X12765019Y-10114429D01*
X12755495Y-10095381D01*
X12745971Y-10057286D01*
X12745971Y-10009667D01*
X12755495Y-9971571D01*
X12765019Y-9952524D01*
X12774543Y-9943000D01*
X12793590Y-9933476D01*
X13050733Y-10133476D02*
X12936448Y-10133476D01*
X12993590Y-10133476D02*
X12993590Y-9933476D01*
X12974543Y-9962048D01*
X12955495Y-9981095D01*
X12936448Y-9990619D01*
X13231686Y-9933476D02*
X13136448Y-9933476D01*
X13126924Y-10028714D01*
X13136448Y-10019190D01*
X13155495Y-10009667D01*
X13203114Y-10009667D01*
X13222162Y-10019190D01*
X13231686Y-10028714D01*
X13241209Y-10047762D01*
X13241209Y-10095381D01*
X13231686Y-10114429D01*
X13222162Y-10123952D01*
X13203114Y-10133476D01*
X13155495Y-10133476D01*
X13136448Y-10123952D01*
X13126924Y-10114429D01*
X13307876Y-9933476D02*
X13441209Y-9933476D01*
X13355495Y-10133476D01*
X13507876Y-9933476D02*
X13507876Y-9971571D01*
X13584067Y-9933476D02*
X13584067Y-9971571D01*
X13879305Y-10209667D02*
X13869781Y-10200143D01*
X13850733Y-10171571D01*
X13841209Y-10152524D01*
X13831686Y-10123952D01*
X13822162Y-10076333D01*
X13822162Y-10038238D01*
X13831686Y-9990619D01*
X13841209Y-9962048D01*
X13850733Y-9943000D01*
X13869781Y-9914429D01*
X13879305Y-9904905D01*
X14060257Y-10133476D02*
X13945971Y-10133476D01*
X14003114Y-10133476D02*
X14003114Y-9933476D01*
X13984067Y-9962048D01*
X13965019Y-9981095D01*
X13945971Y-9990619D01*
X14231686Y-9933476D02*
X14193590Y-9933476D01*
X14174543Y-9943000D01*
X14165019Y-9952524D01*
X14145971Y-9981095D01*
X14136448Y-10019190D01*
X14136448Y-10095381D01*
X14145971Y-10114429D01*
X14155495Y-10123952D01*
X14174543Y-10133476D01*
X14212638Y-10133476D01*
X14231686Y-10123952D01*
X14241209Y-10114429D01*
X14250733Y-10095381D01*
X14250733Y-10047762D01*
X14241209Y-10028714D01*
X14231686Y-10019190D01*
X14212638Y-10009667D01*
X14174543Y-10009667D01*
X14155495Y-10019190D01*
X14145971Y-10028714D01*
X14136448Y-10047762D01*
X14422162Y-9933476D02*
X14384067Y-9933476D01*
X14365019Y-9943000D01*
X14355495Y-9952524D01*
X14336448Y-9981095D01*
X14326924Y-10019190D01*
X14326924Y-10095381D01*
X14336448Y-10114429D01*
X14345971Y-10123952D01*
X14365019Y-10133476D01*
X14403114Y-10133476D01*
X14422162Y-10123952D01*
X14431686Y-10114429D01*
X14441209Y-10095381D01*
X14441209Y-10047762D01*
X14431686Y-10028714D01*
X14422162Y-10019190D01*
X14403114Y-10009667D01*
X14365019Y-10009667D01*
X14345971Y-10019190D01*
X14336448Y-10028714D01*
X14326924Y-10047762D01*
X14679305Y-10133476D02*
X14679305Y-9933476D01*
X14765019Y-10133476D02*
X14765019Y-10028714D01*
X14755495Y-10009667D01*
X14736448Y-10000143D01*
X14707876Y-10000143D01*
X14688828Y-10009667D01*
X14679305Y-10019190D01*
X14888828Y-10133476D02*
X14869781Y-10123952D01*
X14860257Y-10114429D01*
X14850733Y-10095381D01*
X14850733Y-10038238D01*
X14860257Y-10019190D01*
X14869781Y-10009667D01*
X14888828Y-10000143D01*
X14917400Y-10000143D01*
X14936448Y-10009667D01*
X14945971Y-10019190D01*
X14955495Y-10038238D01*
X14955495Y-10095381D01*
X14945971Y-10114429D01*
X14936448Y-10123952D01*
X14917400Y-10133476D01*
X14888828Y-10133476D01*
X15069781Y-10133476D02*
X15050733Y-10123952D01*
X15041209Y-10104905D01*
X15041209Y-9933476D01*
X15222162Y-10123952D02*
X15203114Y-10133476D01*
X15165019Y-10133476D01*
X15145971Y-10123952D01*
X15136448Y-10104905D01*
X15136448Y-10028714D01*
X15145971Y-10009667D01*
X15165019Y-10000143D01*
X15203114Y-10000143D01*
X15222162Y-10009667D01*
X15231686Y-10028714D01*
X15231686Y-10047762D01*
X15136448Y-10066810D01*
X15307876Y-10123952D02*
X15326924Y-10133476D01*
X15365019Y-10133476D01*
X15384067Y-10123952D01*
X15393590Y-10104905D01*
X15393590Y-10095381D01*
X15384067Y-10076333D01*
X15365019Y-10066810D01*
X15336448Y-10066810D01*
X15317400Y-10057286D01*
X15307876Y-10038238D01*
X15307876Y-10028714D01*
X15317400Y-10009667D01*
X15336448Y-10000143D01*
X15365019Y-10000143D01*
X15384067Y-10009667D01*
X15460257Y-10209667D02*
X15469781Y-10200143D01*
X15488828Y-10171571D01*
X15498352Y-10152524D01*
X15507876Y-10123952D01*
X15517400Y-10076333D01*
X15517400Y-10038238D01*
X15507876Y-9990619D01*
X15498352Y-9962048D01*
X15488828Y-9943000D01*
X15469781Y-9914429D01*
X15460257Y-9904905D01*
M02*
