G04 #@! TF.GenerationSoftware,KiCad,Pcbnew,(6.0.2)*
G04 #@! TF.CreationDate,2023-09-30T20:52:37-07:00*
G04 #@! TF.ProjectId,comscicalc_compute,636f6d73-6369-4636-916c-635f636f6d70,rev?*
G04 #@! TF.SameCoordinates,Original*
G04 #@! TF.FileFunction,Copper,L2,Inr*
G04 #@! TF.FilePolarity,Positive*
%FSLAX46Y46*%
G04 Gerber Fmt 4.6, Leading zero omitted, Abs format (unit mm)*
G04 Created by KiCad (PCBNEW (6.0.2)) date 2023-09-30 20:52:37*
%MOMM*%
%LPD*%
G01*
G04 APERTURE LIST*
G04 #@! TA.AperFunction,ViaPad*
%ADD10C,0.800000*%
G04 #@! TD*
G04 #@! TA.AperFunction,Conductor*
%ADD11C,0.300000*%
G04 #@! TD*
G04 APERTURE END LIST*
D10*
X158314202Y-73729965D03*
X122732800Y-56946800D03*
X160934400Y-50444400D03*
X151786402Y-68294365D03*
X144729200Y-61620400D03*
X158314202Y-76523965D03*
X140157200Y-51358800D03*
X179527200Y-51866800D03*
X173177200Y-48463200D03*
X143459200Y-52781200D03*
X179527200Y-54406800D03*
X143154400Y-47193200D03*
X138633200Y-46888400D03*
X158288802Y-78759165D03*
X152751602Y-66084565D03*
X156917202Y-68726165D03*
X163677600Y-43891200D03*
X179527200Y-77266800D03*
X122732800Y-59486800D03*
X157226000Y-48056800D03*
X152548402Y-67659365D03*
X136347200Y-47955200D03*
X179578000Y-79806800D03*
X149352000Y-64160400D03*
X157145802Y-62579365D03*
X124155200Y-74726800D03*
X141732000Y-57404000D03*
X162204400Y-50444400D03*
X153945402Y-88817565D03*
X151130000Y-61823600D03*
X162479802Y-64357365D03*
X174011402Y-77260565D03*
X147493802Y-87039565D03*
X161950400Y-67854571D03*
X155520202Y-73729965D03*
X135432800Y-41097200D03*
X171145200Y-48463200D03*
X134772400Y-56642000D03*
X172106402Y-79343365D03*
X127635000Y-78105000D03*
X167843200Y-89255600D03*
X165705602Y-88817565D03*
X137464800Y-51409600D03*
X162458400Y-40640000D03*
X176094202Y-71951965D03*
X150672800Y-43661600D03*
X156921200Y-40284400D03*
X154351802Y-65881365D03*
X155244800Y-43637200D03*
X128778000Y-45532000D03*
X161717802Y-88817565D03*
X169113200Y-48463200D03*
X164896800Y-72186800D03*
X122732800Y-69646800D03*
X122732800Y-62026800D03*
X150821202Y-88817565D03*
X158314202Y-70935965D03*
X122682000Y-77266800D03*
X157988000Y-54813200D03*
X140309600Y-71170800D03*
X152958800Y-40894000D03*
X157069602Y-64001765D03*
X175891002Y-75076165D03*
X161108202Y-73729965D03*
X175854400Y-47650400D03*
X157704602Y-88817565D03*
X148996400Y-40284400D03*
X130454400Y-59131200D03*
X179527200Y-46786800D03*
X137363200Y-52476400D03*
X151282400Y-60756800D03*
X172258802Y-71850365D03*
X179476400Y-49326800D03*
X162453508Y-65356521D03*
X133466400Y-59116400D03*
X122631200Y-79806800D03*
X135255000Y-53467000D03*
X125780800Y-45481200D03*
X122732800Y-46786800D03*
X173228000Y-43942000D03*
X149250400Y-61874400D03*
X172512802Y-73628365D03*
X162048002Y-62579365D03*
X144627600Y-41097200D03*
X169164000Y-43942000D03*
X155934238Y-68907237D03*
X126685000Y-79984600D03*
X149352000Y-65278000D03*
X152044400Y-69900800D03*
X170180000Y-43942000D03*
X172212000Y-43942000D03*
X166725600Y-89408000D03*
X129794000Y-61061600D03*
X162560000Y-68681600D03*
X168148000Y-43942000D03*
X177734000Y-50749200D03*
X140157200Y-65633600D03*
X171196000Y-43942000D03*
X159969200Y-57861200D03*
X165709600Y-50038000D03*
X129794000Y-52832000D03*
X160477200Y-43637200D03*
X167894000Y-41046400D03*
X155498800Y-46482000D03*
X155498800Y-47447200D03*
X155321000Y-40386000D03*
X150459300Y-40386000D03*
X152958800Y-45821600D03*
X137279929Y-57776249D03*
X152408800Y-50901600D03*
X153508800Y-50901600D03*
X138057747Y-58554067D03*
X156565600Y-53238400D03*
X166725600Y-62484000D03*
X165709600Y-62433200D03*
X155600400Y-52513900D03*
X143103600Y-58267600D03*
X168198800Y-62382400D03*
X169824400Y-64008000D03*
X139581748Y-59300252D03*
X140258800Y-60096400D03*
X170688000Y-64922400D03*
X170688000Y-65938400D03*
X139446000Y-61061600D03*
X170688000Y-67005200D03*
X138328400Y-61518800D03*
X128270000Y-61061600D03*
X126949200Y-67513200D03*
X133248400Y-47345600D03*
X132576000Y-62116400D03*
X136347200Y-62636400D03*
X128219200Y-66395600D03*
X126746000Y-50546000D03*
X126746000Y-55245000D03*
X125476000Y-55245000D03*
X125476000Y-53086000D03*
X136588700Y-70002400D03*
X145846800Y-71577200D03*
X122809000Y-70866000D03*
X147370800Y-71579200D03*
X136855200Y-71221600D03*
X138328400Y-71272400D03*
X144322800Y-71577200D03*
X170688000Y-68004703D03*
X143052800Y-65024000D03*
X141884400Y-65278000D03*
X170688000Y-69037200D03*
X161442400Y-70104000D03*
X143611600Y-73609200D03*
X145084800Y-74523600D03*
X164955493Y-71189022D03*
X145846800Y-72898000D03*
X162610800Y-69951600D03*
X147218400Y-73710800D03*
X165618595Y-70441157D03*
X151145659Y-75984822D03*
X177110202Y-73221965D03*
X148313542Y-75996800D03*
X168859200Y-42062400D03*
X161696400Y-57861200D03*
X122682000Y-75946000D03*
X129794000Y-62077600D03*
X122682000Y-72136000D03*
X129794000Y-65989200D03*
X153380459Y-37103120D03*
X151765000Y-37592000D03*
D11*
X152958800Y-45821600D02*
X154838400Y-45821600D01*
X154495289Y-41211711D02*
X154495289Y-44285111D01*
X154838400Y-45821600D02*
X155498800Y-46482000D01*
X150459300Y-40386000D02*
X150700811Y-40144489D01*
X155079489Y-40144489D02*
X155321000Y-40386000D01*
X155321000Y-40386000D02*
X154495289Y-41211711D01*
X154495289Y-44285111D02*
X152958800Y-45821600D01*
X150700811Y-40144489D02*
X155079489Y-40144489D01*
G04 #@! TA.AperFunction,Conductor*
G36*
X198570121Y-33548002D02*
G01*
X198616614Y-33601658D01*
X198628000Y-33654000D01*
X198628000Y-93346000D01*
X198607998Y-93414121D01*
X198554342Y-93460614D01*
X198502000Y-93472000D01*
X103758000Y-93472000D01*
X103689879Y-93451998D01*
X103643386Y-93398342D01*
X103632000Y-93346000D01*
X103632000Y-89408000D01*
X165812096Y-89408000D01*
X165832058Y-89597928D01*
X165891073Y-89779556D01*
X165986560Y-89944944D01*
X166114347Y-90086866D01*
X166268848Y-90199118D01*
X166274876Y-90201802D01*
X166274878Y-90201803D01*
X166437281Y-90274109D01*
X166443312Y-90276794D01*
X166536712Y-90296647D01*
X166623656Y-90315128D01*
X166623661Y-90315128D01*
X166630113Y-90316500D01*
X166821087Y-90316500D01*
X166827539Y-90315128D01*
X166827544Y-90315128D01*
X166914488Y-90296647D01*
X167007888Y-90276794D01*
X167013919Y-90274109D01*
X167176322Y-90201803D01*
X167176324Y-90201802D01*
X167182352Y-90199118D01*
X167336853Y-90086866D01*
X167464640Y-89944944D01*
X167560127Y-89779556D01*
X167619142Y-89597928D01*
X167639104Y-89408000D01*
X167619142Y-89218072D01*
X167560127Y-89036444D01*
X167464640Y-88871056D01*
X167336853Y-88729134D01*
X167182352Y-88616882D01*
X167176324Y-88614198D01*
X167176322Y-88614197D01*
X167013919Y-88541891D01*
X167013918Y-88541891D01*
X167007888Y-88539206D01*
X166914487Y-88519353D01*
X166827544Y-88500872D01*
X166827539Y-88500872D01*
X166821087Y-88499500D01*
X166630113Y-88499500D01*
X166623661Y-88500872D01*
X166623656Y-88500872D01*
X166536713Y-88519353D01*
X166443312Y-88539206D01*
X166437282Y-88541891D01*
X166437281Y-88541891D01*
X166274878Y-88614197D01*
X166274876Y-88614198D01*
X166268848Y-88616882D01*
X166114347Y-88729134D01*
X165986560Y-88871056D01*
X165891073Y-89036444D01*
X165832058Y-89218072D01*
X165812096Y-89408000D01*
X103632000Y-89408000D01*
X103632000Y-79806800D01*
X121717696Y-79806800D01*
X121737658Y-79996728D01*
X121796673Y-80178356D01*
X121892160Y-80343744D01*
X122019947Y-80485666D01*
X122174448Y-80597918D01*
X122180476Y-80600602D01*
X122180478Y-80600603D01*
X122321672Y-80663466D01*
X122348912Y-80675594D01*
X122442313Y-80695447D01*
X122529256Y-80713928D01*
X122529261Y-80713928D01*
X122535713Y-80715300D01*
X122726687Y-80715300D01*
X122733139Y-80713928D01*
X122733144Y-80713928D01*
X122820087Y-80695447D01*
X122913488Y-80675594D01*
X122940728Y-80663466D01*
X123081922Y-80600603D01*
X123081924Y-80600602D01*
X123087952Y-80597918D01*
X123242453Y-80485666D01*
X123370240Y-80343744D01*
X123465727Y-80178356D01*
X123524742Y-79996728D01*
X123526017Y-79984600D01*
X125771496Y-79984600D01*
X125791458Y-80174528D01*
X125850473Y-80356156D01*
X125945960Y-80521544D01*
X126073747Y-80663466D01*
X126228248Y-80775718D01*
X126234276Y-80778402D01*
X126234278Y-80778403D01*
X126396681Y-80850709D01*
X126402712Y-80853394D01*
X126496113Y-80873247D01*
X126583056Y-80891728D01*
X126583061Y-80891728D01*
X126589513Y-80893100D01*
X126780487Y-80893100D01*
X126786939Y-80891728D01*
X126786944Y-80891728D01*
X126873887Y-80873247D01*
X126967288Y-80853394D01*
X126973319Y-80850709D01*
X127135722Y-80778403D01*
X127135724Y-80778402D01*
X127141752Y-80775718D01*
X127296253Y-80663466D01*
X127424040Y-80521544D01*
X127519527Y-80356156D01*
X127578542Y-80174528D01*
X127598504Y-79984600D01*
X127578542Y-79794672D01*
X127519527Y-79613044D01*
X127424040Y-79447656D01*
X127296253Y-79305734D01*
X127141752Y-79193482D01*
X127135724Y-79190798D01*
X127135722Y-79190797D01*
X126973319Y-79118491D01*
X126973318Y-79118491D01*
X126967288Y-79115806D01*
X126873888Y-79095953D01*
X126786944Y-79077472D01*
X126786939Y-79077472D01*
X126780487Y-79076100D01*
X126589513Y-79076100D01*
X126583061Y-79077472D01*
X126583056Y-79077472D01*
X126496112Y-79095953D01*
X126402712Y-79115806D01*
X126396682Y-79118491D01*
X126396681Y-79118491D01*
X126234278Y-79190797D01*
X126234276Y-79190798D01*
X126228248Y-79193482D01*
X126073747Y-79305734D01*
X125945960Y-79447656D01*
X125850473Y-79613044D01*
X125791458Y-79794672D01*
X125771496Y-79984600D01*
X123526017Y-79984600D01*
X123544704Y-79806800D01*
X123524742Y-79616872D01*
X123465727Y-79435244D01*
X123370240Y-79269856D01*
X123242453Y-79127934D01*
X123087952Y-79015682D01*
X123081924Y-79012998D01*
X123081922Y-79012997D01*
X122919519Y-78940691D01*
X122919518Y-78940691D01*
X122913488Y-78938006D01*
X122820087Y-78918153D01*
X122733144Y-78899672D01*
X122733139Y-78899672D01*
X122726687Y-78898300D01*
X122535713Y-78898300D01*
X122529261Y-78899672D01*
X122529256Y-78899672D01*
X122442313Y-78918153D01*
X122348912Y-78938006D01*
X122342882Y-78940691D01*
X122342881Y-78940691D01*
X122180478Y-79012997D01*
X122180476Y-79012998D01*
X122174448Y-79015682D01*
X122019947Y-79127934D01*
X121892160Y-79269856D01*
X121796673Y-79435244D01*
X121737658Y-79616872D01*
X121717696Y-79806800D01*
X103632000Y-79806800D01*
X103632000Y-75946000D01*
X121768496Y-75946000D01*
X121788458Y-76135928D01*
X121847473Y-76317556D01*
X121942960Y-76482944D01*
X121947378Y-76487851D01*
X121947379Y-76487852D01*
X122066325Y-76619955D01*
X122070747Y-76624866D01*
X122225248Y-76737118D01*
X122231276Y-76739802D01*
X122231278Y-76739803D01*
X122393681Y-76812109D01*
X122399712Y-76814794D01*
X122493112Y-76834647D01*
X122580056Y-76853128D01*
X122580061Y-76853128D01*
X122586513Y-76854500D01*
X122777487Y-76854500D01*
X122783939Y-76853128D01*
X122783944Y-76853128D01*
X122870888Y-76834647D01*
X122964288Y-76814794D01*
X122970319Y-76812109D01*
X123132722Y-76739803D01*
X123132724Y-76739802D01*
X123138752Y-76737118D01*
X123293253Y-76624866D01*
X123297675Y-76619955D01*
X123416621Y-76487852D01*
X123416622Y-76487851D01*
X123421040Y-76482944D01*
X123516527Y-76317556D01*
X123575542Y-76135928D01*
X123590165Y-75996800D01*
X147400038Y-75996800D01*
X147400728Y-76003365D01*
X147415321Y-76142206D01*
X147420000Y-76186728D01*
X147479015Y-76368356D01*
X147574502Y-76533744D01*
X147578920Y-76538651D01*
X147578921Y-76538652D01*
X147660045Y-76628749D01*
X147702289Y-76675666D01*
X147856790Y-76787918D01*
X147862818Y-76790602D01*
X147862820Y-76790603D01*
X148006336Y-76854500D01*
X148031254Y-76865594D01*
X148124655Y-76885447D01*
X148211598Y-76903928D01*
X148211603Y-76903928D01*
X148218055Y-76905300D01*
X148409029Y-76905300D01*
X148415481Y-76903928D01*
X148415486Y-76903928D01*
X148502429Y-76885447D01*
X148595830Y-76865594D01*
X148620748Y-76854500D01*
X148764264Y-76790603D01*
X148764266Y-76790602D01*
X148770294Y-76787918D01*
X148924795Y-76675666D01*
X148967039Y-76628749D01*
X149048163Y-76538652D01*
X149048164Y-76538651D01*
X149052582Y-76533744D01*
X149148069Y-76368356D01*
X149207084Y-76186728D01*
X149211764Y-76142206D01*
X149226356Y-76003365D01*
X149227046Y-75996800D01*
X149225787Y-75984822D01*
X150232155Y-75984822D01*
X150232845Y-75991387D01*
X150248697Y-76142206D01*
X150252117Y-76174750D01*
X150311132Y-76356378D01*
X150314435Y-76362100D01*
X150314436Y-76362101D01*
X150321352Y-76374079D01*
X150406619Y-76521766D01*
X150411037Y-76526673D01*
X150411038Y-76526674D01*
X150502947Y-76628749D01*
X150534406Y-76663688D01*
X150688907Y-76775940D01*
X150694935Y-76778624D01*
X150694937Y-76778625D01*
X150857340Y-76850931D01*
X150863371Y-76853616D01*
X150956772Y-76873469D01*
X151043715Y-76891950D01*
X151043720Y-76891950D01*
X151050172Y-76893322D01*
X151241146Y-76893322D01*
X151247598Y-76891950D01*
X151247603Y-76891950D01*
X151334546Y-76873469D01*
X151427947Y-76853616D01*
X151433978Y-76850931D01*
X151596381Y-76778625D01*
X151596383Y-76778624D01*
X151602411Y-76775940D01*
X151756912Y-76663688D01*
X151788371Y-76628749D01*
X151880280Y-76526674D01*
X151880281Y-76526673D01*
X151884699Y-76521766D01*
X151969966Y-76374079D01*
X151976882Y-76362101D01*
X151976883Y-76362100D01*
X151980186Y-76356378D01*
X152039201Y-76174750D01*
X152042622Y-76142206D01*
X152058473Y-75991387D01*
X152059163Y-75984822D01*
X152039201Y-75794894D01*
X151980186Y-75613266D01*
X151884699Y-75447878D01*
X151870493Y-75432100D01*
X151761334Y-75310867D01*
X151761333Y-75310866D01*
X151756912Y-75305956D01*
X151602411Y-75193704D01*
X151596383Y-75191020D01*
X151596381Y-75191019D01*
X151433978Y-75118713D01*
X151433977Y-75118713D01*
X151427947Y-75116028D01*
X151334547Y-75096175D01*
X151247603Y-75077694D01*
X151247598Y-75077694D01*
X151241146Y-75076322D01*
X151050172Y-75076322D01*
X151043720Y-75077694D01*
X151043715Y-75077694D01*
X150956771Y-75096175D01*
X150863371Y-75116028D01*
X150857341Y-75118713D01*
X150857340Y-75118713D01*
X150694937Y-75191019D01*
X150694935Y-75191020D01*
X150688907Y-75193704D01*
X150534406Y-75305956D01*
X150529985Y-75310866D01*
X150529984Y-75310867D01*
X150420826Y-75432100D01*
X150406619Y-75447878D01*
X150311132Y-75613266D01*
X150252117Y-75794894D01*
X150232155Y-75984822D01*
X149225787Y-75984822D01*
X149207084Y-75806872D01*
X149148069Y-75625244D01*
X149141154Y-75613266D01*
X149055883Y-75465574D01*
X149052582Y-75459856D01*
X149046946Y-75453596D01*
X148929217Y-75322845D01*
X148929216Y-75322844D01*
X148924795Y-75317934D01*
X148770294Y-75205682D01*
X148764266Y-75202998D01*
X148764264Y-75202997D01*
X148601861Y-75130691D01*
X148601860Y-75130691D01*
X148595830Y-75128006D01*
X148502429Y-75108153D01*
X148415486Y-75089672D01*
X148415481Y-75089672D01*
X148409029Y-75088300D01*
X148218055Y-75088300D01*
X148211603Y-75089672D01*
X148211598Y-75089672D01*
X148124655Y-75108153D01*
X148031254Y-75128006D01*
X148025224Y-75130691D01*
X148025223Y-75130691D01*
X147862820Y-75202997D01*
X147862818Y-75202998D01*
X147856790Y-75205682D01*
X147702289Y-75317934D01*
X147697868Y-75322844D01*
X147697867Y-75322845D01*
X147580139Y-75453596D01*
X147574502Y-75459856D01*
X147571201Y-75465574D01*
X147485931Y-75613266D01*
X147479015Y-75625244D01*
X147420000Y-75806872D01*
X147400038Y-75996800D01*
X123590165Y-75996800D01*
X123595504Y-75946000D01*
X123580312Y-75801457D01*
X123576232Y-75762635D01*
X123576232Y-75762633D01*
X123575542Y-75756072D01*
X123516527Y-75574444D01*
X123421040Y-75409056D01*
X123406038Y-75392394D01*
X123297675Y-75272045D01*
X123297674Y-75272044D01*
X123293253Y-75267134D01*
X123138752Y-75154882D01*
X123132724Y-75152198D01*
X123132722Y-75152197D01*
X122970319Y-75079891D01*
X122970318Y-75079891D01*
X122964288Y-75077206D01*
X122858999Y-75054826D01*
X122783944Y-75038872D01*
X122783939Y-75038872D01*
X122777487Y-75037500D01*
X122586513Y-75037500D01*
X122580061Y-75038872D01*
X122580056Y-75038872D01*
X122505001Y-75054826D01*
X122399712Y-75077206D01*
X122393682Y-75079891D01*
X122393681Y-75079891D01*
X122231278Y-75152197D01*
X122231276Y-75152198D01*
X122225248Y-75154882D01*
X122070747Y-75267134D01*
X122066326Y-75272044D01*
X122066325Y-75272045D01*
X121957963Y-75392394D01*
X121942960Y-75409056D01*
X121847473Y-75574444D01*
X121788458Y-75756072D01*
X121787768Y-75762633D01*
X121787768Y-75762635D01*
X121783688Y-75801457D01*
X121768496Y-75946000D01*
X103632000Y-75946000D01*
X103632000Y-73609200D01*
X142698096Y-73609200D01*
X142698786Y-73615765D01*
X142716124Y-73780724D01*
X142718058Y-73799128D01*
X142777073Y-73980756D01*
X142872560Y-74146144D01*
X143000347Y-74288066D01*
X143154848Y-74400318D01*
X143160876Y-74403002D01*
X143160878Y-74403003D01*
X143323281Y-74475309D01*
X143329312Y-74477994D01*
X143406844Y-74494474D01*
X143509656Y-74516328D01*
X143509661Y-74516328D01*
X143516113Y-74517700D01*
X143707087Y-74517700D01*
X143713539Y-74516328D01*
X143713544Y-74516328D01*
X143816356Y-74494474D01*
X143893888Y-74477994D01*
X143995886Y-74432582D01*
X144066252Y-74423148D01*
X144130549Y-74453254D01*
X144168363Y-74513343D01*
X144172443Y-74534515D01*
X144191258Y-74713528D01*
X144250273Y-74895156D01*
X144345760Y-75060544D01*
X144350178Y-75065451D01*
X144350179Y-75065452D01*
X144430702Y-75154882D01*
X144473547Y-75202466D01*
X144628048Y-75314718D01*
X144634076Y-75317402D01*
X144634078Y-75317403D01*
X144796481Y-75389709D01*
X144802512Y-75392394D01*
X144895913Y-75412247D01*
X144982856Y-75430728D01*
X144982861Y-75430728D01*
X144989313Y-75432100D01*
X145180287Y-75432100D01*
X145186739Y-75430728D01*
X145186744Y-75430728D01*
X145273687Y-75412247D01*
X145367088Y-75392394D01*
X145373119Y-75389709D01*
X145535522Y-75317403D01*
X145535524Y-75317402D01*
X145541552Y-75314718D01*
X145696053Y-75202466D01*
X145738898Y-75154882D01*
X145819421Y-75065452D01*
X145819422Y-75065451D01*
X145823840Y-75060544D01*
X145919327Y-74895156D01*
X145978342Y-74713528D01*
X145998304Y-74523600D01*
X145993511Y-74477994D01*
X145979032Y-74340235D01*
X145979032Y-74340233D01*
X145978342Y-74333672D01*
X145919327Y-74152044D01*
X145912620Y-74140426D01*
X145834803Y-74005644D01*
X145828946Y-73995500D01*
X145812208Y-73926505D01*
X145835428Y-73859413D01*
X145891235Y-73815526D01*
X145929225Y-73808204D01*
X145929118Y-73807190D01*
X145935685Y-73806500D01*
X145942287Y-73806500D01*
X145948739Y-73805128D01*
X145948744Y-73805128D01*
X146035687Y-73786647D01*
X146129088Y-73766794D01*
X146135115Y-73764111D01*
X146135123Y-73764108D01*
X146144227Y-73760054D01*
X146214594Y-73750619D01*
X146278891Y-73780724D01*
X146316705Y-73840813D01*
X146320786Y-73861987D01*
X146324858Y-73900728D01*
X146383873Y-74082356D01*
X146387176Y-74088078D01*
X146387177Y-74088079D01*
X146410857Y-74129093D01*
X146479360Y-74247744D01*
X146483778Y-74252651D01*
X146483779Y-74252652D01*
X146551077Y-74327394D01*
X146607147Y-74389666D01*
X146651882Y-74422168D01*
X146728720Y-74477994D01*
X146761648Y-74501918D01*
X146767676Y-74504602D01*
X146767678Y-74504603D01*
X146930081Y-74576909D01*
X146936112Y-74579594D01*
X147029512Y-74599447D01*
X147116456Y-74617928D01*
X147116461Y-74617928D01*
X147122913Y-74619300D01*
X147313887Y-74619300D01*
X147320339Y-74617928D01*
X147320344Y-74617928D01*
X147407288Y-74599447D01*
X147500688Y-74579594D01*
X147506719Y-74576909D01*
X147669122Y-74504603D01*
X147669124Y-74504602D01*
X147675152Y-74501918D01*
X147708081Y-74477994D01*
X147784918Y-74422168D01*
X147829653Y-74389666D01*
X147885723Y-74327394D01*
X147953021Y-74252652D01*
X147953022Y-74252651D01*
X147957440Y-74247744D01*
X148025943Y-74129093D01*
X148049623Y-74088079D01*
X148049624Y-74088078D01*
X148052927Y-74082356D01*
X148111942Y-73900728D01*
X148116014Y-73861991D01*
X148131214Y-73717365D01*
X148131904Y-73710800D01*
X148111942Y-73520872D01*
X148052927Y-73339244D01*
X147957440Y-73173856D01*
X147840968Y-73044500D01*
X147834075Y-73036845D01*
X147834074Y-73036844D01*
X147829653Y-73031934D01*
X147716191Y-72949499D01*
X147680494Y-72923563D01*
X147680493Y-72923562D01*
X147675152Y-72919682D01*
X147669124Y-72916998D01*
X147669122Y-72916997D01*
X147506719Y-72844691D01*
X147506718Y-72844691D01*
X147500688Y-72842006D01*
X147391273Y-72818749D01*
X147320344Y-72803672D01*
X147320339Y-72803672D01*
X147313887Y-72802300D01*
X147122913Y-72802300D01*
X147116461Y-72803672D01*
X147116456Y-72803672D01*
X147045527Y-72818749D01*
X146936112Y-72842006D01*
X146930085Y-72844689D01*
X146930077Y-72844692D01*
X146920973Y-72848746D01*
X146850606Y-72858181D01*
X146786309Y-72828076D01*
X146748495Y-72767987D01*
X146744413Y-72746809D01*
X146744023Y-72743091D01*
X146741767Y-72721630D01*
X146741032Y-72714636D01*
X146741032Y-72714635D01*
X146740342Y-72708072D01*
X146681327Y-72526444D01*
X146654292Y-72479618D01*
X146637554Y-72410623D01*
X146660774Y-72343531D01*
X146716582Y-72299644D01*
X146787257Y-72292895D01*
X146837472Y-72314682D01*
X146852473Y-72325581D01*
X146905954Y-72364437D01*
X146914048Y-72370318D01*
X146920076Y-72373002D01*
X146920078Y-72373003D01*
X147034519Y-72423955D01*
X147088512Y-72447994D01*
X147181912Y-72467847D01*
X147268856Y-72486328D01*
X147268861Y-72486328D01*
X147275313Y-72487700D01*
X147466287Y-72487700D01*
X147472739Y-72486328D01*
X147472744Y-72486328D01*
X147559688Y-72467847D01*
X147653088Y-72447994D01*
X147707081Y-72423955D01*
X147821522Y-72373003D01*
X147821524Y-72373002D01*
X147827552Y-72370318D01*
X147835647Y-72364437D01*
X147888649Y-72325928D01*
X147982053Y-72258066D01*
X148086050Y-72142566D01*
X148105421Y-72121052D01*
X148105422Y-72121051D01*
X148109840Y-72116144D01*
X148205327Y-71950756D01*
X148264342Y-71769128D01*
X148265455Y-71758544D01*
X148283614Y-71585765D01*
X148284304Y-71579200D01*
X148276894Y-71508698D01*
X148265032Y-71395835D01*
X148265032Y-71395833D01*
X148264342Y-71389272D01*
X148205327Y-71207644D01*
X148194576Y-71189022D01*
X164041989Y-71189022D01*
X164061951Y-71378950D01*
X164120966Y-71560578D01*
X164216453Y-71725966D01*
X164220871Y-71730873D01*
X164220872Y-71730874D01*
X164334373Y-71856930D01*
X164344240Y-71867888D01*
X164389080Y-71900466D01*
X164466175Y-71956479D01*
X164498741Y-71980140D01*
X164504769Y-71982824D01*
X164504771Y-71982825D01*
X164647948Y-72046571D01*
X164673205Y-72057816D01*
X164755818Y-72075376D01*
X164853549Y-72096150D01*
X164853554Y-72096150D01*
X164860006Y-72097522D01*
X165050980Y-72097522D01*
X165057432Y-72096150D01*
X165057437Y-72096150D01*
X165155168Y-72075376D01*
X165237781Y-72057816D01*
X165263038Y-72046571D01*
X165406215Y-71982825D01*
X165406217Y-71982824D01*
X165412245Y-71980140D01*
X165444812Y-71956479D01*
X165521906Y-71900466D01*
X165566746Y-71867888D01*
X165576613Y-71856930D01*
X165582524Y-71850365D01*
X171345298Y-71850365D01*
X171365260Y-72040293D01*
X171424275Y-72221921D01*
X171427578Y-72227643D01*
X171427579Y-72227644D01*
X171447385Y-72261949D01*
X171519762Y-72387309D01*
X171524180Y-72392216D01*
X171524181Y-72392217D01*
X171643127Y-72524320D01*
X171647549Y-72529231D01*
X171802050Y-72641483D01*
X171808078Y-72644167D01*
X171808080Y-72644168D01*
X171927236Y-72697219D01*
X171981331Y-72743199D01*
X172001981Y-72811126D01*
X171982629Y-72879434D01*
X171950050Y-72914261D01*
X171901549Y-72949499D01*
X171897128Y-72954409D01*
X171897127Y-72954410D01*
X171827232Y-73032037D01*
X171773762Y-73091421D01*
X171770461Y-73097139D01*
X171702183Y-73215400D01*
X171678275Y-73256809D01*
X171619260Y-73438437D01*
X171618570Y-73444998D01*
X171618570Y-73445000D01*
X171604711Y-73576866D01*
X171599298Y-73628365D01*
X171599988Y-73634930D01*
X171618200Y-73808204D01*
X171619260Y-73818293D01*
X171678275Y-73999921D01*
X171773762Y-74165309D01*
X171901549Y-74307231D01*
X172056050Y-74419483D01*
X172062078Y-74422167D01*
X172062080Y-74422168D01*
X172187468Y-74477994D01*
X172230514Y-74497159D01*
X172320697Y-74516328D01*
X172410858Y-74535493D01*
X172410863Y-74535493D01*
X172417315Y-74536865D01*
X172608289Y-74536865D01*
X172614741Y-74535493D01*
X172614746Y-74535493D01*
X172704907Y-74516328D01*
X172795090Y-74497159D01*
X172838136Y-74477994D01*
X172963524Y-74422168D01*
X172963526Y-74422167D01*
X172969554Y-74419483D01*
X173124055Y-74307231D01*
X173251842Y-74165309D01*
X173347329Y-73999921D01*
X173406344Y-73818293D01*
X173407405Y-73808204D01*
X173425616Y-73634930D01*
X173426306Y-73628365D01*
X173420893Y-73576866D01*
X173407034Y-73445000D01*
X173407034Y-73444998D01*
X173406344Y-73438437D01*
X173347329Y-73256809D01*
X173327212Y-73221965D01*
X176196698Y-73221965D01*
X176216660Y-73411893D01*
X176275675Y-73593521D01*
X176278978Y-73599243D01*
X176278979Y-73599244D01*
X176310266Y-73653434D01*
X176371162Y-73758909D01*
X176375580Y-73763816D01*
X176375581Y-73763817D01*
X176448439Y-73844734D01*
X176498949Y-73900831D01*
X176534286Y-73926505D01*
X176626684Y-73993636D01*
X176653450Y-74013083D01*
X176659478Y-74015767D01*
X176659480Y-74015768D01*
X176794924Y-74076071D01*
X176827914Y-74090759D01*
X176921315Y-74110612D01*
X177008258Y-74129093D01*
X177008263Y-74129093D01*
X177014715Y-74130465D01*
X177205689Y-74130465D01*
X177212141Y-74129093D01*
X177212146Y-74129093D01*
X177299089Y-74110612D01*
X177392490Y-74090759D01*
X177425480Y-74076071D01*
X177560924Y-74015768D01*
X177560926Y-74015767D01*
X177566954Y-74013083D01*
X177593721Y-73993636D01*
X177686118Y-73926505D01*
X177721455Y-73900831D01*
X177771965Y-73844734D01*
X177844823Y-73763817D01*
X177844824Y-73763816D01*
X177849242Y-73758909D01*
X177910138Y-73653434D01*
X177941425Y-73599244D01*
X177941426Y-73599243D01*
X177944729Y-73593521D01*
X178003744Y-73411893D01*
X178023706Y-73221965D01*
X178018134Y-73168948D01*
X178004434Y-73038600D01*
X178004434Y-73038598D01*
X178003744Y-73032037D01*
X177944729Y-72850409D01*
X177939086Y-72840634D01*
X177904951Y-72781511D01*
X177849242Y-72685021D01*
X177833220Y-72667226D01*
X177725877Y-72548010D01*
X177725876Y-72548009D01*
X177721455Y-72543099D01*
X177590555Y-72447994D01*
X177572296Y-72434728D01*
X177572295Y-72434727D01*
X177566954Y-72430847D01*
X177560926Y-72428163D01*
X177560924Y-72428162D01*
X177398521Y-72355856D01*
X177398520Y-72355856D01*
X177392490Y-72353171D01*
X177293858Y-72332206D01*
X177212146Y-72314837D01*
X177212141Y-72314837D01*
X177205689Y-72313465D01*
X177014715Y-72313465D01*
X177008263Y-72314837D01*
X177008258Y-72314837D01*
X176926546Y-72332206D01*
X176827914Y-72353171D01*
X176821884Y-72355856D01*
X176821883Y-72355856D01*
X176659480Y-72428162D01*
X176659478Y-72428163D01*
X176653450Y-72430847D01*
X176648109Y-72434727D01*
X176648108Y-72434728D01*
X176629849Y-72447994D01*
X176498949Y-72543099D01*
X176494528Y-72548009D01*
X176494527Y-72548010D01*
X176387185Y-72667226D01*
X176371162Y-72685021D01*
X176315453Y-72781511D01*
X176281319Y-72840634D01*
X176275675Y-72850409D01*
X176216660Y-73032037D01*
X176215970Y-73038598D01*
X176215970Y-73038600D01*
X176202270Y-73168948D01*
X176196698Y-73221965D01*
X173327212Y-73221965D01*
X173323422Y-73215400D01*
X173255143Y-73097139D01*
X173251842Y-73091421D01*
X173198373Y-73032037D01*
X173128477Y-72954410D01*
X173128476Y-72954409D01*
X173124055Y-72949499D01*
X172998367Y-72858181D01*
X172974896Y-72841128D01*
X172974895Y-72841127D01*
X172969554Y-72837247D01*
X172963526Y-72834563D01*
X172963524Y-72834562D01*
X172844368Y-72781511D01*
X172790273Y-72735531D01*
X172769623Y-72667604D01*
X172788975Y-72599296D01*
X172821554Y-72564469D01*
X172870055Y-72529231D01*
X172874477Y-72524320D01*
X172993423Y-72392217D01*
X172993424Y-72392216D01*
X172997842Y-72387309D01*
X173070219Y-72261949D01*
X173090025Y-72227644D01*
X173090026Y-72227643D01*
X173093329Y-72221921D01*
X173152344Y-72040293D01*
X173172306Y-71850365D01*
X173167394Y-71803626D01*
X173153034Y-71667000D01*
X173153034Y-71666998D01*
X173152344Y-71660437D01*
X173093329Y-71478809D01*
X173068642Y-71436049D01*
X173006731Y-71328818D01*
X172997842Y-71313421D01*
X172954996Y-71265835D01*
X172874477Y-71176410D01*
X172874476Y-71176409D01*
X172870055Y-71171499D01*
X172770959Y-71099501D01*
X172720896Y-71063128D01*
X172720895Y-71063127D01*
X172715554Y-71059247D01*
X172709526Y-71056563D01*
X172709524Y-71056562D01*
X172547121Y-70984256D01*
X172547120Y-70984256D01*
X172541090Y-70981571D01*
X172447690Y-70961718D01*
X172360746Y-70943237D01*
X172360741Y-70943237D01*
X172354289Y-70941865D01*
X172163315Y-70941865D01*
X172156863Y-70943237D01*
X172156858Y-70943237D01*
X172069914Y-70961718D01*
X171976514Y-70981571D01*
X171970484Y-70984256D01*
X171970483Y-70984256D01*
X171808080Y-71056562D01*
X171808078Y-71056563D01*
X171802050Y-71059247D01*
X171796709Y-71063127D01*
X171796708Y-71063128D01*
X171746645Y-71099501D01*
X171647549Y-71171499D01*
X171643128Y-71176409D01*
X171643127Y-71176410D01*
X171562609Y-71265835D01*
X171519762Y-71313421D01*
X171510873Y-71328818D01*
X171448963Y-71436049D01*
X171424275Y-71478809D01*
X171365260Y-71660437D01*
X171364570Y-71666998D01*
X171364570Y-71667000D01*
X171350210Y-71803626D01*
X171345298Y-71850365D01*
X165582524Y-71850365D01*
X165690114Y-71730874D01*
X165690115Y-71730873D01*
X165694533Y-71725966D01*
X165790020Y-71560578D01*
X165849035Y-71378950D01*
X165851874Y-71379873D01*
X165879503Y-71328818D01*
X165917686Y-71302470D01*
X166069314Y-71234962D01*
X166069321Y-71234958D01*
X166075347Y-71232275D01*
X166125844Y-71195587D01*
X166152238Y-71176410D01*
X166229848Y-71120023D01*
X166269312Y-71076194D01*
X166353216Y-70983009D01*
X166353217Y-70983008D01*
X166357635Y-70978101D01*
X166447895Y-70821766D01*
X166449818Y-70818436D01*
X166449819Y-70818435D01*
X166453122Y-70812713D01*
X166512137Y-70631085D01*
X166515569Y-70598437D01*
X166531409Y-70447722D01*
X166532099Y-70441157D01*
X166528861Y-70410352D01*
X166512827Y-70257792D01*
X166512827Y-70257790D01*
X166512137Y-70251229D01*
X166453122Y-70069601D01*
X166357635Y-69904213D01*
X166291717Y-69831003D01*
X166234270Y-69767202D01*
X166234269Y-69767201D01*
X166229848Y-69762291D01*
X166075347Y-69650039D01*
X166069319Y-69647355D01*
X166069317Y-69647354D01*
X165906914Y-69575048D01*
X165906913Y-69575048D01*
X165900883Y-69572363D01*
X165807483Y-69552510D01*
X165720539Y-69534029D01*
X165720534Y-69534029D01*
X165714082Y-69532657D01*
X165523108Y-69532657D01*
X165516656Y-69534029D01*
X165516651Y-69534029D01*
X165429707Y-69552510D01*
X165336307Y-69572363D01*
X165330277Y-69575048D01*
X165330276Y-69575048D01*
X165167873Y-69647354D01*
X165167871Y-69647355D01*
X165161843Y-69650039D01*
X165007342Y-69762291D01*
X165002921Y-69767201D01*
X165002920Y-69767202D01*
X164945474Y-69831003D01*
X164879555Y-69904213D01*
X164784068Y-70069601D01*
X164725053Y-70251229D01*
X164722214Y-70250306D01*
X164694585Y-70301361D01*
X164656402Y-70327709D01*
X164504774Y-70395217D01*
X164504767Y-70395221D01*
X164498741Y-70397904D01*
X164493400Y-70401784D01*
X164493399Y-70401785D01*
X164443906Y-70437744D01*
X164344240Y-70510156D01*
X164339819Y-70515066D01*
X164339818Y-70515067D01*
X164231627Y-70635226D01*
X164216453Y-70652078D01*
X164182777Y-70710406D01*
X164125681Y-70809300D01*
X164120966Y-70817466D01*
X164061951Y-70999094D01*
X164061261Y-71005655D01*
X164061261Y-71005657D01*
X164053445Y-71080024D01*
X164041989Y-71189022D01*
X148194576Y-71189022D01*
X148109840Y-71042256D01*
X148094658Y-71025394D01*
X147986475Y-70905245D01*
X147986471Y-70905241D01*
X147982053Y-70900334D01*
X147873914Y-70821766D01*
X147832894Y-70791963D01*
X147832893Y-70791962D01*
X147827552Y-70788082D01*
X147821524Y-70785398D01*
X147821522Y-70785397D01*
X147659119Y-70713091D01*
X147659118Y-70713091D01*
X147653088Y-70710406D01*
X147534250Y-70685146D01*
X147472744Y-70672072D01*
X147472739Y-70672072D01*
X147466287Y-70670700D01*
X147275313Y-70670700D01*
X147268861Y-70672072D01*
X147268856Y-70672072D01*
X147207350Y-70685146D01*
X147088512Y-70710406D01*
X147082482Y-70713091D01*
X147082481Y-70713091D01*
X146920078Y-70785397D01*
X146920076Y-70785398D01*
X146914048Y-70788082D01*
X146908707Y-70791962D01*
X146908706Y-70791963D01*
X146867686Y-70821766D01*
X146759547Y-70900334D01*
X146704236Y-70961763D01*
X146703336Y-70962763D01*
X146642890Y-71000002D01*
X146571906Y-70998650D01*
X146516064Y-70962762D01*
X146462475Y-70903245D01*
X146462471Y-70903241D01*
X146458053Y-70898334D01*
X146331556Y-70806428D01*
X146308894Y-70789963D01*
X146308893Y-70789962D01*
X146303552Y-70786082D01*
X146297524Y-70783398D01*
X146297522Y-70783397D01*
X146135119Y-70711091D01*
X146135118Y-70711091D01*
X146129088Y-70708406D01*
X146007846Y-70682635D01*
X145948744Y-70670072D01*
X145948739Y-70670072D01*
X145942287Y-70668700D01*
X145751313Y-70668700D01*
X145744861Y-70670072D01*
X145744856Y-70670072D01*
X145685754Y-70682635D01*
X145564512Y-70708406D01*
X145558482Y-70711091D01*
X145558481Y-70711091D01*
X145396078Y-70783397D01*
X145396076Y-70783398D01*
X145390048Y-70786082D01*
X145384707Y-70789962D01*
X145384706Y-70789963D01*
X145362044Y-70806428D01*
X145235547Y-70898334D01*
X145178435Y-70961764D01*
X145117990Y-70999002D01*
X145047006Y-70997650D01*
X144991166Y-70961764D01*
X144934053Y-70898334D01*
X144807556Y-70806428D01*
X144784894Y-70789963D01*
X144784893Y-70789962D01*
X144779552Y-70786082D01*
X144773524Y-70783398D01*
X144773522Y-70783397D01*
X144611119Y-70711091D01*
X144611118Y-70711091D01*
X144605088Y-70708406D01*
X144483846Y-70682635D01*
X144424744Y-70670072D01*
X144424739Y-70670072D01*
X144418287Y-70668700D01*
X144227313Y-70668700D01*
X144220861Y-70670072D01*
X144220856Y-70670072D01*
X144161754Y-70682635D01*
X144040512Y-70708406D01*
X144034482Y-70711091D01*
X144034481Y-70711091D01*
X143872078Y-70783397D01*
X143872076Y-70783398D01*
X143866048Y-70786082D01*
X143860707Y-70789962D01*
X143860706Y-70789963D01*
X143838044Y-70806428D01*
X143711547Y-70898334D01*
X143707129Y-70903241D01*
X143707125Y-70903245D01*
X143608752Y-71012500D01*
X143583760Y-71040256D01*
X143540542Y-71115112D01*
X143510229Y-71167616D01*
X143488273Y-71205644D01*
X143429258Y-71387272D01*
X143428568Y-71393833D01*
X143428568Y-71393835D01*
X143420239Y-71473086D01*
X143409296Y-71577200D01*
X143409986Y-71583765D01*
X143425448Y-71730874D01*
X143429258Y-71767128D01*
X143488273Y-71948756D01*
X143491576Y-71954478D01*
X143491577Y-71954479D01*
X143507943Y-71982825D01*
X143583760Y-72114144D01*
X143711547Y-72256066D01*
X143762238Y-72292895D01*
X143856053Y-72361056D01*
X143866048Y-72368318D01*
X143872076Y-72371002D01*
X143872078Y-72371003D01*
X143919726Y-72392217D01*
X144040512Y-72445994D01*
X144133913Y-72465847D01*
X144220856Y-72484328D01*
X144220861Y-72484328D01*
X144227313Y-72485700D01*
X144418287Y-72485700D01*
X144424739Y-72484328D01*
X144424744Y-72484328D01*
X144511687Y-72465847D01*
X144605088Y-72445994D01*
X144725874Y-72392217D01*
X144773522Y-72371003D01*
X144773524Y-72371002D01*
X144779552Y-72368318D01*
X144789548Y-72361056D01*
X144858117Y-72311237D01*
X144924985Y-72287379D01*
X144994136Y-72303459D01*
X145043616Y-72354373D01*
X145057716Y-72423955D01*
X145041297Y-72476173D01*
X145012273Y-72526444D01*
X144953258Y-72708072D01*
X144952568Y-72714633D01*
X144952568Y-72714635D01*
X144939681Y-72837247D01*
X144933296Y-72898000D01*
X144933986Y-72904565D01*
X144948694Y-73044500D01*
X144953258Y-73087928D01*
X145012273Y-73269556D01*
X145094452Y-73411893D01*
X145102654Y-73426100D01*
X145119392Y-73495095D01*
X145096172Y-73562187D01*
X145040365Y-73606074D01*
X145002375Y-73613396D01*
X145002482Y-73614410D01*
X144995915Y-73615100D01*
X144989313Y-73615100D01*
X144982861Y-73616472D01*
X144982856Y-73616472D01*
X144926906Y-73628365D01*
X144802512Y-73654806D01*
X144700514Y-73700218D01*
X144630148Y-73709652D01*
X144565851Y-73679546D01*
X144528037Y-73619457D01*
X144523956Y-73598281D01*
X144522796Y-73587236D01*
X144506789Y-73434944D01*
X144505832Y-73425835D01*
X144505832Y-73425833D01*
X144505142Y-73419272D01*
X144446127Y-73237644D01*
X144433285Y-73215400D01*
X144353941Y-73077974D01*
X144350640Y-73072256D01*
X144325649Y-73044500D01*
X144227275Y-72935245D01*
X144227274Y-72935244D01*
X144222853Y-72930334D01*
X144104969Y-72844686D01*
X144073694Y-72821963D01*
X144073693Y-72821962D01*
X144068352Y-72818082D01*
X144062324Y-72815398D01*
X144062322Y-72815397D01*
X143899919Y-72743091D01*
X143899918Y-72743091D01*
X143893888Y-72740406D01*
X143793929Y-72719159D01*
X143713544Y-72702072D01*
X143713539Y-72702072D01*
X143707087Y-72700700D01*
X143516113Y-72700700D01*
X143509661Y-72702072D01*
X143509656Y-72702072D01*
X143429271Y-72719159D01*
X143329312Y-72740406D01*
X143323282Y-72743091D01*
X143323281Y-72743091D01*
X143160878Y-72815397D01*
X143160876Y-72815398D01*
X143154848Y-72818082D01*
X143149507Y-72821962D01*
X143149506Y-72821963D01*
X143118231Y-72844686D01*
X143000347Y-72930334D01*
X142995926Y-72935244D01*
X142995925Y-72935245D01*
X142897552Y-73044500D01*
X142872560Y-73072256D01*
X142869259Y-73077974D01*
X142789916Y-73215400D01*
X142777073Y-73237644D01*
X142718058Y-73419272D01*
X142717368Y-73425833D01*
X142717368Y-73425835D01*
X142706690Y-73527435D01*
X142698096Y-73609200D01*
X103632000Y-73609200D01*
X103632000Y-72136000D01*
X121768496Y-72136000D01*
X121769186Y-72142565D01*
X121781734Y-72261949D01*
X121788458Y-72325928D01*
X121847473Y-72507556D01*
X121942960Y-72672944D01*
X121947378Y-72677851D01*
X121947379Y-72677852D01*
X122060668Y-72803672D01*
X122070747Y-72814866D01*
X122111799Y-72844692D01*
X122211318Y-72916997D01*
X122225248Y-72927118D01*
X122231276Y-72929802D01*
X122231278Y-72929803D01*
X122286547Y-72954410D01*
X122399712Y-73004794D01*
X122493112Y-73024647D01*
X122580056Y-73043128D01*
X122580061Y-73043128D01*
X122586513Y-73044500D01*
X122777487Y-73044500D01*
X122783939Y-73043128D01*
X122783944Y-73043128D01*
X122870888Y-73024647D01*
X122964288Y-73004794D01*
X123077453Y-72954410D01*
X123132722Y-72929803D01*
X123132724Y-72929802D01*
X123138752Y-72927118D01*
X123152683Y-72916997D01*
X123252201Y-72844692D01*
X123293253Y-72814866D01*
X123303332Y-72803672D01*
X123416621Y-72677852D01*
X123416622Y-72677851D01*
X123421040Y-72672944D01*
X123516527Y-72507556D01*
X123575542Y-72325928D01*
X123582267Y-72261949D01*
X123594814Y-72142565D01*
X123595504Y-72136000D01*
X123590711Y-72090394D01*
X123576232Y-71952635D01*
X123576232Y-71952633D01*
X123575542Y-71946072D01*
X123516527Y-71764444D01*
X123447440Y-71644782D01*
X123430703Y-71575790D01*
X123453923Y-71508698D01*
X123462924Y-71497475D01*
X123543621Y-71407852D01*
X123543622Y-71407851D01*
X123548040Y-71402944D01*
X123606314Y-71302010D01*
X123640223Y-71243279D01*
X123640224Y-71243278D01*
X123643527Y-71237556D01*
X123702542Y-71055928D01*
X123705092Y-71031672D01*
X123721814Y-70872565D01*
X123722504Y-70866000D01*
X123717505Y-70818436D01*
X123703232Y-70682635D01*
X123703232Y-70682633D01*
X123702542Y-70676072D01*
X123643527Y-70494444D01*
X123629838Y-70470733D01*
X123592632Y-70406291D01*
X123548040Y-70329056D01*
X123523104Y-70301361D01*
X123424675Y-70192045D01*
X123424674Y-70192044D01*
X123420253Y-70187134D01*
X123305829Y-70104000D01*
X123271094Y-70078763D01*
X123271093Y-70078762D01*
X123265752Y-70074882D01*
X123259724Y-70072198D01*
X123259722Y-70072197D01*
X123102954Y-70002400D01*
X135675196Y-70002400D01*
X135675886Y-70008965D01*
X135690479Y-70147806D01*
X135695158Y-70192328D01*
X135754173Y-70373956D01*
X135849660Y-70539344D01*
X135854078Y-70544251D01*
X135854079Y-70544252D01*
X135967368Y-70670072D01*
X135977447Y-70681266D01*
X135984913Y-70686691D01*
X135985844Y-70687897D01*
X135987698Y-70689567D01*
X135987393Y-70689906D01*
X136028265Y-70742912D01*
X136034340Y-70813648D01*
X136025957Y-70839873D01*
X136023975Y-70844325D01*
X136020673Y-70850044D01*
X136018633Y-70856324D01*
X136018632Y-70856325D01*
X136013355Y-70872565D01*
X135961658Y-71031672D01*
X135960968Y-71038233D01*
X135960968Y-71038235D01*
X135956576Y-71080024D01*
X135941696Y-71221600D01*
X135942386Y-71228165D01*
X135960009Y-71395835D01*
X135961658Y-71411528D01*
X136020673Y-71593156D01*
X136116160Y-71758544D01*
X136120578Y-71763451D01*
X136120579Y-71763452D01*
X136192925Y-71843800D01*
X136243947Y-71900466D01*
X136398448Y-72012718D01*
X136404476Y-72015402D01*
X136404478Y-72015403D01*
X136566881Y-72087709D01*
X136572912Y-72090394D01*
X136666312Y-72110247D01*
X136753256Y-72128728D01*
X136753261Y-72128728D01*
X136759713Y-72130100D01*
X136950687Y-72130100D01*
X136957139Y-72128728D01*
X136957144Y-72128728D01*
X137044088Y-72110247D01*
X137137488Y-72090394D01*
X137143519Y-72087709D01*
X137305922Y-72015403D01*
X137305924Y-72015402D01*
X137311952Y-72012718D01*
X137403293Y-71946355D01*
X137444871Y-71916146D01*
X137466453Y-71900466D01*
X137475293Y-71890648D01*
X137535739Y-71853408D01*
X137606723Y-71854760D01*
X137662565Y-71890646D01*
X137717147Y-71951266D01*
X137760584Y-71982825D01*
X137848323Y-72046571D01*
X137871648Y-72063518D01*
X137877676Y-72066202D01*
X137877678Y-72066203D01*
X138021194Y-72130100D01*
X138046112Y-72141194D01*
X138139512Y-72161047D01*
X138226456Y-72179528D01*
X138226461Y-72179528D01*
X138232913Y-72180900D01*
X138423887Y-72180900D01*
X138430339Y-72179528D01*
X138430344Y-72179528D01*
X138517288Y-72161047D01*
X138610688Y-72141194D01*
X138635606Y-72130100D01*
X138779122Y-72066203D01*
X138779124Y-72066202D01*
X138785152Y-72063518D01*
X138808478Y-72046571D01*
X138896216Y-71982825D01*
X138939653Y-71951266D01*
X138947572Y-71942471D01*
X139063021Y-71814252D01*
X139063022Y-71814251D01*
X139067440Y-71809344D01*
X139162927Y-71643956D01*
X139221942Y-71462328D01*
X139226622Y-71417806D01*
X139241214Y-71278965D01*
X139241904Y-71272400D01*
X139234888Y-71205644D01*
X139222632Y-71089035D01*
X139222632Y-71089033D01*
X139221942Y-71082472D01*
X139162927Y-70900844D01*
X139157381Y-70891237D01*
X139096669Y-70786082D01*
X139067440Y-70735456D01*
X139047303Y-70713091D01*
X138944075Y-70598445D01*
X138944074Y-70598444D01*
X138939653Y-70593534D01*
X138831653Y-70515067D01*
X138790494Y-70485163D01*
X138790493Y-70485162D01*
X138785152Y-70481282D01*
X138779124Y-70478598D01*
X138779122Y-70478597D01*
X138616719Y-70406291D01*
X138616718Y-70406291D01*
X138610688Y-70403606D01*
X138498121Y-70379679D01*
X138430344Y-70365272D01*
X138430339Y-70365272D01*
X138423887Y-70363900D01*
X138232913Y-70363900D01*
X138226461Y-70365272D01*
X138226456Y-70365272D01*
X138158679Y-70379679D01*
X138046112Y-70403606D01*
X138040082Y-70406291D01*
X138040081Y-70406291D01*
X137877678Y-70478597D01*
X137877676Y-70478598D01*
X137871648Y-70481282D01*
X137866307Y-70485162D01*
X137866306Y-70485163D01*
X137780313Y-70547641D01*
X137717147Y-70593534D01*
X137708307Y-70603352D01*
X137647861Y-70640592D01*
X137576877Y-70639240D01*
X137521035Y-70603354D01*
X137466453Y-70542734D01*
X137458987Y-70537309D01*
X137458056Y-70536103D01*
X137456202Y-70534433D01*
X137456507Y-70534094D01*
X137415635Y-70481088D01*
X137409560Y-70410352D01*
X137417943Y-70384127D01*
X137419925Y-70379675D01*
X137423227Y-70373956D01*
X137426495Y-70363900D01*
X137480202Y-70198606D01*
X137482242Y-70192328D01*
X137486922Y-70147806D01*
X137501514Y-70008965D01*
X137502204Y-70002400D01*
X137496175Y-69945035D01*
X137491526Y-69900800D01*
X151130896Y-69900800D01*
X151131586Y-69907365D01*
X151149193Y-70074882D01*
X151150858Y-70090728D01*
X151209873Y-70272356D01*
X151213176Y-70278078D01*
X151213177Y-70278079D01*
X151225952Y-70300206D01*
X151305360Y-70437744D01*
X151309778Y-70442651D01*
X151309779Y-70442652D01*
X151428725Y-70574755D01*
X151433147Y-70579666D01*
X151512560Y-70637363D01*
X151582114Y-70687897D01*
X151587648Y-70691918D01*
X151593676Y-70694602D01*
X151593678Y-70694603D01*
X151756081Y-70766909D01*
X151762112Y-70769594D01*
X151849091Y-70788082D01*
X151942456Y-70807928D01*
X151942461Y-70807928D01*
X151948913Y-70809300D01*
X152139887Y-70809300D01*
X152146339Y-70807928D01*
X152146344Y-70807928D01*
X152239709Y-70788082D01*
X152326688Y-70769594D01*
X152332719Y-70766909D01*
X152495122Y-70694603D01*
X152495124Y-70694602D01*
X152501152Y-70691918D01*
X152506687Y-70687897D01*
X152576240Y-70637363D01*
X152655653Y-70579666D01*
X152660075Y-70574755D01*
X152779021Y-70442652D01*
X152779022Y-70442651D01*
X152783440Y-70437744D01*
X152862848Y-70300206D01*
X152875623Y-70278079D01*
X152875624Y-70278078D01*
X152878927Y-70272356D01*
X152933630Y-70104000D01*
X160528896Y-70104000D01*
X160529586Y-70110565D01*
X160538180Y-70192328D01*
X160548858Y-70293928D01*
X160607873Y-70475556D01*
X160611176Y-70481278D01*
X160611177Y-70481279D01*
X160627849Y-70510156D01*
X160703360Y-70640944D01*
X160707778Y-70645851D01*
X160707779Y-70645852D01*
X160795172Y-70742912D01*
X160831147Y-70782866D01*
X160865642Y-70807928D01*
X160954607Y-70872565D01*
X160985648Y-70895118D01*
X160991676Y-70897802D01*
X160991678Y-70897803D01*
X161137582Y-70962763D01*
X161160112Y-70972794D01*
X161253512Y-70992647D01*
X161340456Y-71011128D01*
X161340461Y-71011128D01*
X161346913Y-71012500D01*
X161537887Y-71012500D01*
X161544339Y-71011128D01*
X161544344Y-71011128D01*
X161631288Y-70992647D01*
X161724688Y-70972794D01*
X161747218Y-70962763D01*
X161893122Y-70897803D01*
X161893124Y-70897802D01*
X161899152Y-70895118D01*
X161930194Y-70872565D01*
X162019158Y-70807928D01*
X162053653Y-70782866D01*
X162056162Y-70780080D01*
X162119211Y-70749820D01*
X162190766Y-70759066D01*
X162245415Y-70783397D01*
X162321936Y-70817466D01*
X162328512Y-70820394D01*
X162420153Y-70839873D01*
X162508856Y-70858728D01*
X162508861Y-70858728D01*
X162515313Y-70860100D01*
X162706287Y-70860100D01*
X162712739Y-70858728D01*
X162712744Y-70858728D01*
X162801447Y-70839873D01*
X162893088Y-70820394D01*
X162899119Y-70817709D01*
X163061522Y-70745403D01*
X163061524Y-70745402D01*
X163067552Y-70742718D01*
X163077548Y-70735456D01*
X163167923Y-70669794D01*
X163222053Y-70630466D01*
X163264297Y-70583549D01*
X163345421Y-70493452D01*
X163345422Y-70493451D01*
X163349840Y-70488544D01*
X163445327Y-70323156D01*
X163504342Y-70141528D01*
X163509022Y-70097006D01*
X163523614Y-69958165D01*
X163524304Y-69951600D01*
X163523540Y-69944328D01*
X163505032Y-69768235D01*
X163505032Y-69768233D01*
X163504342Y-69761672D01*
X163445327Y-69580044D01*
X163440893Y-69572363D01*
X163355889Y-69425134D01*
X163349840Y-69414656D01*
X163310670Y-69371153D01*
X163279954Y-69307147D01*
X163288719Y-69236694D01*
X163299072Y-69218562D01*
X163299040Y-69218544D01*
X163391223Y-69058879D01*
X163391224Y-69058878D01*
X163394527Y-69053156D01*
X163453542Y-68871528D01*
X163456092Y-68847272D01*
X163472814Y-68688165D01*
X163473504Y-68681600D01*
X163458828Y-68541966D01*
X163454232Y-68498235D01*
X163454232Y-68498233D01*
X163453542Y-68491672D01*
X163394527Y-68310044D01*
X163388981Y-68300437D01*
X163302341Y-68150374D01*
X163299040Y-68144656D01*
X163203406Y-68038443D01*
X163175675Y-68007645D01*
X163175674Y-68007644D01*
X163171253Y-68002734D01*
X163016752Y-67890482D01*
X163010724Y-67887798D01*
X163010722Y-67887797D01*
X162848319Y-67815491D01*
X162848318Y-67815491D01*
X162842288Y-67812806D01*
X162748888Y-67792953D01*
X162661944Y-67774472D01*
X162661939Y-67774472D01*
X162655487Y-67773100D01*
X162464513Y-67773100D01*
X162458061Y-67774472D01*
X162458056Y-67774472D01*
X162371112Y-67792953D01*
X162277712Y-67812806D01*
X162271682Y-67815491D01*
X162271681Y-67815491D01*
X162109278Y-67887797D01*
X162109276Y-67887798D01*
X162103248Y-67890482D01*
X161948747Y-68002734D01*
X161944326Y-68007644D01*
X161944325Y-68007645D01*
X161916595Y-68038443D01*
X161820960Y-68144656D01*
X161817659Y-68150374D01*
X161731020Y-68300437D01*
X161725473Y-68310044D01*
X161666458Y-68491672D01*
X161665768Y-68498233D01*
X161665768Y-68498235D01*
X161661172Y-68541966D01*
X161646496Y-68681600D01*
X161647186Y-68688165D01*
X161663909Y-68847272D01*
X161666458Y-68871528D01*
X161721632Y-69041335D01*
X161723660Y-69112301D01*
X161686997Y-69173099D01*
X161623285Y-69204425D01*
X161575601Y-69203516D01*
X161544351Y-69196873D01*
X161544342Y-69196872D01*
X161537887Y-69195500D01*
X161346913Y-69195500D01*
X161340461Y-69196872D01*
X161340456Y-69196872D01*
X161254406Y-69215163D01*
X161160112Y-69235206D01*
X161154082Y-69237891D01*
X161154081Y-69237891D01*
X160991678Y-69310197D01*
X160991676Y-69310198D01*
X160985648Y-69312882D01*
X160831147Y-69425134D01*
X160826726Y-69430044D01*
X160826725Y-69430045D01*
X160733098Y-69534029D01*
X160703360Y-69567056D01*
X160669836Y-69625121D01*
X160620328Y-69710872D01*
X160607873Y-69732444D01*
X160548858Y-69914072D01*
X160548168Y-69920633D01*
X160548168Y-69920635D01*
X160540264Y-69995835D01*
X160528896Y-70104000D01*
X152933630Y-70104000D01*
X152937942Y-70090728D01*
X152939608Y-70074882D01*
X152957214Y-69907365D01*
X152957904Y-69900800D01*
X152948964Y-69815737D01*
X152938632Y-69717435D01*
X152938632Y-69717433D01*
X152937942Y-69710872D01*
X152878927Y-69529244D01*
X152783440Y-69363856D01*
X152750313Y-69327064D01*
X152660075Y-69226845D01*
X152660074Y-69226844D01*
X152655653Y-69221934D01*
X152537776Y-69136291D01*
X152506494Y-69113563D01*
X152506493Y-69113562D01*
X152501152Y-69109682D01*
X152495124Y-69106998D01*
X152495122Y-69106997D01*
X152332719Y-69034691D01*
X152332718Y-69034691D01*
X152326688Y-69032006D01*
X152233288Y-69012153D01*
X152146344Y-68993672D01*
X152146339Y-68993672D01*
X152139887Y-68992300D01*
X151948913Y-68992300D01*
X151942461Y-68993672D01*
X151942456Y-68993672D01*
X151855512Y-69012153D01*
X151762112Y-69032006D01*
X151756082Y-69034691D01*
X151756081Y-69034691D01*
X151593678Y-69106997D01*
X151593676Y-69106998D01*
X151587648Y-69109682D01*
X151582307Y-69113562D01*
X151582306Y-69113563D01*
X151551024Y-69136291D01*
X151433147Y-69221934D01*
X151428726Y-69226844D01*
X151428725Y-69226845D01*
X151338488Y-69327064D01*
X151305360Y-69363856D01*
X151209873Y-69529244D01*
X151150858Y-69710872D01*
X151150168Y-69717433D01*
X151150168Y-69717435D01*
X151139836Y-69815737D01*
X151130896Y-69900800D01*
X137491526Y-69900800D01*
X137482932Y-69819035D01*
X137482932Y-69819033D01*
X137482242Y-69812472D01*
X137423227Y-69630844D01*
X137327740Y-69465456D01*
X137303436Y-69438463D01*
X137204375Y-69328445D01*
X137204374Y-69328444D01*
X137199953Y-69323534D01*
X137082076Y-69237891D01*
X137050794Y-69215163D01*
X137050793Y-69215162D01*
X137045452Y-69211282D01*
X137039424Y-69208598D01*
X137039422Y-69208597D01*
X136877019Y-69136291D01*
X136877018Y-69136291D01*
X136870988Y-69133606D01*
X136776694Y-69113563D01*
X136690644Y-69095272D01*
X136690639Y-69095272D01*
X136684187Y-69093900D01*
X136493213Y-69093900D01*
X136486761Y-69095272D01*
X136486756Y-69095272D01*
X136400706Y-69113563D01*
X136306412Y-69133606D01*
X136300382Y-69136291D01*
X136300381Y-69136291D01*
X136137978Y-69208597D01*
X136137976Y-69208598D01*
X136131948Y-69211282D01*
X136126607Y-69215162D01*
X136126606Y-69215163D01*
X136095324Y-69237891D01*
X135977447Y-69323534D01*
X135973026Y-69328444D01*
X135973025Y-69328445D01*
X135873965Y-69438463D01*
X135849660Y-69465456D01*
X135754173Y-69630844D01*
X135695158Y-69812472D01*
X135694468Y-69819033D01*
X135694468Y-69819035D01*
X135681225Y-69945035D01*
X135675196Y-70002400D01*
X123102954Y-70002400D01*
X123097319Y-69999891D01*
X123097318Y-69999891D01*
X123091288Y-69997206D01*
X122997888Y-69977353D01*
X122910944Y-69958872D01*
X122910939Y-69958872D01*
X122904487Y-69957500D01*
X122713513Y-69957500D01*
X122707061Y-69958872D01*
X122707056Y-69958872D01*
X122620112Y-69977353D01*
X122526712Y-69997206D01*
X122520682Y-69999891D01*
X122520681Y-69999891D01*
X122358278Y-70072197D01*
X122358276Y-70072198D01*
X122352248Y-70074882D01*
X122346907Y-70078762D01*
X122346906Y-70078763D01*
X122312171Y-70104000D01*
X122197747Y-70187134D01*
X122193326Y-70192044D01*
X122193325Y-70192045D01*
X122094897Y-70301361D01*
X122069960Y-70329056D01*
X122025368Y-70406291D01*
X121988163Y-70470733D01*
X121974473Y-70494444D01*
X121915458Y-70676072D01*
X121914768Y-70682633D01*
X121914768Y-70682635D01*
X121900495Y-70818436D01*
X121895496Y-70866000D01*
X121896186Y-70872565D01*
X121912909Y-71031672D01*
X121915458Y-71055928D01*
X121974473Y-71237556D01*
X122043560Y-71357218D01*
X122060297Y-71426210D01*
X122037077Y-71493302D01*
X122028076Y-71504525D01*
X121966750Y-71572635D01*
X121942960Y-71599056D01*
X121847473Y-71764444D01*
X121788458Y-71946072D01*
X121787768Y-71952633D01*
X121787768Y-71952635D01*
X121773289Y-72090394D01*
X121768496Y-72136000D01*
X103632000Y-72136000D01*
X103632000Y-68907237D01*
X155020734Y-68907237D01*
X155021424Y-68913802D01*
X155036071Y-69053156D01*
X155040696Y-69097165D01*
X155099711Y-69278793D01*
X155195198Y-69444181D01*
X155199616Y-69449088D01*
X155199617Y-69449089D01*
X155312217Y-69574144D01*
X155322985Y-69586103D01*
X155477486Y-69698355D01*
X155483514Y-69701039D01*
X155483516Y-69701040D01*
X155645919Y-69773346D01*
X155651950Y-69776031D01*
X155745350Y-69795884D01*
X155832294Y-69814365D01*
X155832299Y-69814365D01*
X155838751Y-69815737D01*
X156029725Y-69815737D01*
X156036177Y-69814365D01*
X156036182Y-69814365D01*
X156123126Y-69795884D01*
X156216526Y-69776031D01*
X156222557Y-69773346D01*
X156384960Y-69701040D01*
X156384962Y-69701039D01*
X156390990Y-69698355D01*
X156545491Y-69586103D01*
X156556259Y-69574144D01*
X156668859Y-69449089D01*
X156668860Y-69449088D01*
X156673278Y-69444181D01*
X156768765Y-69278793D01*
X156827780Y-69097165D01*
X156832406Y-69053156D01*
X156847052Y-68913802D01*
X156847742Y-68907237D01*
X156842129Y-68853835D01*
X156828470Y-68723872D01*
X156828470Y-68723870D01*
X156827780Y-68717309D01*
X156768765Y-68535681D01*
X156747146Y-68498235D01*
X156702166Y-68420328D01*
X156673278Y-68370293D01*
X156616292Y-68307003D01*
X156549913Y-68233282D01*
X156549912Y-68233281D01*
X156545491Y-68228371D01*
X156430268Y-68144656D01*
X156396332Y-68120000D01*
X156396331Y-68119999D01*
X156390990Y-68116119D01*
X156384962Y-68113435D01*
X156384960Y-68113434D01*
X156222557Y-68041128D01*
X156222556Y-68041128D01*
X156216526Y-68038443D01*
X156123126Y-68018590D01*
X156036182Y-68000109D01*
X156036177Y-68000109D01*
X156029725Y-67998737D01*
X155838751Y-67998737D01*
X155832299Y-68000109D01*
X155832294Y-68000109D01*
X155745350Y-68018590D01*
X155651950Y-68038443D01*
X155645920Y-68041128D01*
X155645919Y-68041128D01*
X155483516Y-68113434D01*
X155483514Y-68113435D01*
X155477486Y-68116119D01*
X155472145Y-68119999D01*
X155472144Y-68120000D01*
X155438208Y-68144656D01*
X155322985Y-68228371D01*
X155318564Y-68233281D01*
X155318563Y-68233282D01*
X155252185Y-68307003D01*
X155195198Y-68370293D01*
X155166310Y-68420328D01*
X155121331Y-68498235D01*
X155099711Y-68535681D01*
X155040696Y-68717309D01*
X155040006Y-68723870D01*
X155040006Y-68723872D01*
X155026347Y-68853835D01*
X155020734Y-68907237D01*
X103632000Y-68907237D01*
X103632000Y-67513200D01*
X126035696Y-67513200D01*
X126055658Y-67703128D01*
X126114673Y-67884756D01*
X126117976Y-67890478D01*
X126117977Y-67890479D01*
X126151886Y-67949210D01*
X126210160Y-68050144D01*
X126214578Y-68055051D01*
X126214579Y-68055052D01*
X126290840Y-68139748D01*
X126337947Y-68192066D01*
X126492448Y-68304318D01*
X126498476Y-68307002D01*
X126498478Y-68307003D01*
X126640631Y-68370293D01*
X126666912Y-68381994D01*
X126760312Y-68401847D01*
X126847256Y-68420328D01*
X126847261Y-68420328D01*
X126853713Y-68421700D01*
X127044687Y-68421700D01*
X127051139Y-68420328D01*
X127051144Y-68420328D01*
X127138088Y-68401847D01*
X127231488Y-68381994D01*
X127257769Y-68370293D01*
X127399922Y-68307003D01*
X127399924Y-68307002D01*
X127405952Y-68304318D01*
X127560453Y-68192066D01*
X127607560Y-68139748D01*
X127683821Y-68055052D01*
X127683822Y-68055051D01*
X127688240Y-68050144D01*
X127746514Y-67949210D01*
X127780423Y-67890479D01*
X127780424Y-67890478D01*
X127783727Y-67884756D01*
X127842742Y-67703128D01*
X127862704Y-67513200D01*
X127852388Y-67415049D01*
X127865160Y-67345211D01*
X127913662Y-67293364D01*
X127982495Y-67275970D01*
X128003895Y-67278632D01*
X128117256Y-67302728D01*
X128117261Y-67302728D01*
X128123713Y-67304100D01*
X128314687Y-67304100D01*
X128321139Y-67302728D01*
X128321144Y-67302728D01*
X128408088Y-67284247D01*
X128501488Y-67264394D01*
X128633951Y-67205418D01*
X128669922Y-67189403D01*
X128669924Y-67189402D01*
X128675952Y-67186718D01*
X128830453Y-67074466D01*
X128892820Y-67005200D01*
X128953821Y-66937452D01*
X128953822Y-66937451D01*
X128958240Y-66932544D01*
X129053727Y-66767156D01*
X129055189Y-66762655D01*
X129100721Y-66709091D01*
X129168649Y-66688443D01*
X129236956Y-66707797D01*
X129243906Y-66712501D01*
X129331906Y-66776437D01*
X129337248Y-66780318D01*
X129343276Y-66783002D01*
X129343278Y-66783003D01*
X129505681Y-66855309D01*
X129511712Y-66857994D01*
X129605112Y-66877847D01*
X129692056Y-66896328D01*
X129692061Y-66896328D01*
X129698513Y-66897700D01*
X129889487Y-66897700D01*
X129895939Y-66896328D01*
X129895944Y-66896328D01*
X129982888Y-66877847D01*
X130076288Y-66857994D01*
X130082319Y-66855309D01*
X130244722Y-66783003D01*
X130244724Y-66783002D01*
X130250752Y-66780318D01*
X130260990Y-66772880D01*
X130356645Y-66703382D01*
X130405253Y-66668066D01*
X130436980Y-66632830D01*
X130528621Y-66531052D01*
X130528622Y-66531051D01*
X130533040Y-66526144D01*
X130600789Y-66408800D01*
X130625223Y-66366479D01*
X130625224Y-66366478D01*
X130628527Y-66360756D01*
X130687542Y-66179128D01*
X130690570Y-66150324D01*
X130706814Y-65995765D01*
X130707504Y-65989200D01*
X130701475Y-65931835D01*
X130688232Y-65805835D01*
X130688232Y-65805833D01*
X130687542Y-65799272D01*
X130633711Y-65633600D01*
X139243696Y-65633600D01*
X139244386Y-65640165D01*
X139261109Y-65799272D01*
X139263658Y-65823528D01*
X139322673Y-66005156D01*
X139325976Y-66010878D01*
X139325977Y-66010879D01*
X139340127Y-66035387D01*
X139418160Y-66170544D01*
X139422578Y-66175451D01*
X139422579Y-66175452D01*
X139449789Y-66205672D01*
X139545947Y-66312466D01*
X139603762Y-66354471D01*
X139669407Y-66402165D01*
X139700448Y-66424718D01*
X139706476Y-66427402D01*
X139706478Y-66427403D01*
X139792731Y-66465805D01*
X139874912Y-66502394D01*
X139968313Y-66522247D01*
X140055256Y-66540728D01*
X140055261Y-66540728D01*
X140061713Y-66542100D01*
X140252687Y-66542100D01*
X140259139Y-66540728D01*
X140259144Y-66540728D01*
X140346087Y-66522247D01*
X140439488Y-66502394D01*
X140521669Y-66465805D01*
X140607922Y-66427403D01*
X140607924Y-66427402D01*
X140613952Y-66424718D01*
X140644994Y-66402165D01*
X140710638Y-66354471D01*
X140768453Y-66312466D01*
X140864611Y-66205672D01*
X140891821Y-66175452D01*
X140891822Y-66175451D01*
X140896240Y-66170544D01*
X140974273Y-66035387D01*
X140988423Y-66010879D01*
X140988424Y-66010878D01*
X140991727Y-66005156D01*
X141010442Y-65947556D01*
X141050516Y-65888952D01*
X141115913Y-65861315D01*
X141185869Y-65873422D01*
X141223909Y-65902181D01*
X141273147Y-65956866D01*
X141427648Y-66069118D01*
X141433676Y-66071802D01*
X141433678Y-66071803D01*
X141560636Y-66128328D01*
X141602112Y-66146794D01*
X141695512Y-66166647D01*
X141782456Y-66185128D01*
X141782461Y-66185128D01*
X141788913Y-66186500D01*
X141979887Y-66186500D01*
X141986339Y-66185128D01*
X141986344Y-66185128D01*
X142073288Y-66166647D01*
X142166688Y-66146794D01*
X142208164Y-66128328D01*
X142335122Y-66071803D01*
X142335124Y-66071802D01*
X142341152Y-66069118D01*
X142495653Y-65956866D01*
X142500064Y-65951967D01*
X142500073Y-65951959D01*
X142554235Y-65891805D01*
X142614681Y-65854565D01*
X142685664Y-65855917D01*
X142699115Y-65861006D01*
X142727002Y-65873422D01*
X142761883Y-65888952D01*
X142770512Y-65892794D01*
X142863912Y-65912647D01*
X142950856Y-65931128D01*
X142950861Y-65931128D01*
X142957313Y-65932500D01*
X143148287Y-65932500D01*
X143154739Y-65931128D01*
X143154744Y-65931128D01*
X143241688Y-65912647D01*
X143335088Y-65892794D01*
X143341119Y-65890109D01*
X143503522Y-65817803D01*
X143503524Y-65817802D01*
X143509552Y-65815118D01*
X143664053Y-65702866D01*
X143691576Y-65672299D01*
X143787421Y-65565852D01*
X143787422Y-65565851D01*
X143791840Y-65560944D01*
X143887327Y-65395556D01*
X143925524Y-65278000D01*
X148438496Y-65278000D01*
X148439186Y-65284565D01*
X148455909Y-65443672D01*
X148458458Y-65467928D01*
X148517473Y-65649556D01*
X148520776Y-65655278D01*
X148520777Y-65655279D01*
X148533677Y-65677622D01*
X148612960Y-65814944D01*
X148617378Y-65819851D01*
X148617379Y-65819852D01*
X148684292Y-65894166D01*
X148740747Y-65956866D01*
X148895248Y-66069118D01*
X148901276Y-66071802D01*
X148901278Y-66071803D01*
X149028236Y-66128328D01*
X149069712Y-66146794D01*
X149163112Y-66166647D01*
X149250056Y-66185128D01*
X149250061Y-66185128D01*
X149256513Y-66186500D01*
X149447487Y-66186500D01*
X149453939Y-66185128D01*
X149453944Y-66185128D01*
X149540888Y-66166647D01*
X149634288Y-66146794D01*
X149675764Y-66128328D01*
X149802722Y-66071803D01*
X149802724Y-66071802D01*
X149808752Y-66069118D01*
X149963253Y-65956866D01*
X150019708Y-65894166D01*
X150086621Y-65819852D01*
X150086622Y-65819851D01*
X150091040Y-65814944D01*
X150170323Y-65677622D01*
X150183223Y-65655279D01*
X150183224Y-65655278D01*
X150186527Y-65649556D01*
X150245542Y-65467928D01*
X150248092Y-65443672D01*
X150257251Y-65356521D01*
X161540004Y-65356521D01*
X161540694Y-65363086D01*
X161558184Y-65529491D01*
X161559966Y-65546449D01*
X161618981Y-65728077D01*
X161714468Y-65893465D01*
X161718886Y-65898372D01*
X161718887Y-65898373D01*
X161815035Y-66005156D01*
X161842255Y-66035387D01*
X161883340Y-66065237D01*
X161978818Y-66134606D01*
X161996756Y-66147639D01*
X162002784Y-66150323D01*
X162002786Y-66150324D01*
X162165189Y-66222630D01*
X162171220Y-66225315D01*
X162264621Y-66245168D01*
X162351564Y-66263649D01*
X162351569Y-66263649D01*
X162358021Y-66265021D01*
X162548995Y-66265021D01*
X162555447Y-66263649D01*
X162555452Y-66263649D01*
X162642395Y-66245168D01*
X162735796Y-66225315D01*
X162741827Y-66222630D01*
X162904230Y-66150324D01*
X162904232Y-66150323D01*
X162910260Y-66147639D01*
X162928199Y-66134606D01*
X163023676Y-66065237D01*
X163064761Y-66035387D01*
X163091981Y-66005156D01*
X163188129Y-65898373D01*
X163188130Y-65898372D01*
X163192548Y-65893465D01*
X163288035Y-65728077D01*
X163347050Y-65546449D01*
X163348833Y-65529491D01*
X163366322Y-65363086D01*
X163367012Y-65356521D01*
X163362158Y-65310334D01*
X163347740Y-65173156D01*
X163347740Y-65173154D01*
X163347050Y-65166593D01*
X163288035Y-64984965D01*
X163273417Y-64959645D01*
X163246328Y-64912726D01*
X163192548Y-64819577D01*
X163121848Y-64741056D01*
X163069183Y-64682566D01*
X163069182Y-64682565D01*
X163064761Y-64677655D01*
X162910260Y-64565403D01*
X162904232Y-64562719D01*
X162904230Y-64562718D01*
X162741827Y-64490412D01*
X162741826Y-64490412D01*
X162735796Y-64487727D01*
X162642396Y-64467874D01*
X162555452Y-64449393D01*
X162555447Y-64449393D01*
X162548995Y-64448021D01*
X162358021Y-64448021D01*
X162351569Y-64449393D01*
X162351564Y-64449393D01*
X162264620Y-64467874D01*
X162171220Y-64487727D01*
X162165190Y-64490412D01*
X162165189Y-64490412D01*
X162002786Y-64562718D01*
X162002784Y-64562719D01*
X161996756Y-64565403D01*
X161842255Y-64677655D01*
X161837834Y-64682565D01*
X161837833Y-64682566D01*
X161785169Y-64741056D01*
X161714468Y-64819577D01*
X161660688Y-64912726D01*
X161633600Y-64959645D01*
X161618981Y-64984965D01*
X161559966Y-65166593D01*
X161559276Y-65173154D01*
X161559276Y-65173156D01*
X161544858Y-65310334D01*
X161540004Y-65356521D01*
X150257251Y-65356521D01*
X150264814Y-65284565D01*
X150265504Y-65278000D01*
X150249223Y-65123091D01*
X150246232Y-65094635D01*
X150246232Y-65094633D01*
X150245542Y-65088072D01*
X150186527Y-64906444D01*
X150091040Y-64741056D01*
X150045744Y-64690749D01*
X149967675Y-64604045D01*
X149967674Y-64604044D01*
X149963253Y-64599134D01*
X149808752Y-64486882D01*
X149802724Y-64484198D01*
X149802722Y-64484197D01*
X149640319Y-64411891D01*
X149640318Y-64411891D01*
X149634288Y-64409206D01*
X149521721Y-64385279D01*
X149453944Y-64370872D01*
X149453939Y-64370872D01*
X149447487Y-64369500D01*
X149256513Y-64369500D01*
X149250061Y-64370872D01*
X149250056Y-64370872D01*
X149182279Y-64385279D01*
X149069712Y-64409206D01*
X149063682Y-64411891D01*
X149063681Y-64411891D01*
X148901278Y-64484197D01*
X148901276Y-64484198D01*
X148895248Y-64486882D01*
X148740747Y-64599134D01*
X148736326Y-64604044D01*
X148736325Y-64604045D01*
X148658257Y-64690749D01*
X148612960Y-64741056D01*
X148517473Y-64906444D01*
X148458458Y-65088072D01*
X148457768Y-65094633D01*
X148457768Y-65094635D01*
X148454777Y-65123091D01*
X148438496Y-65278000D01*
X143925524Y-65278000D01*
X143946342Y-65213928D01*
X143948008Y-65198082D01*
X143965614Y-65030565D01*
X143966304Y-65024000D01*
X143955626Y-64922400D01*
X143947032Y-64840635D01*
X143947032Y-64840633D01*
X143946342Y-64834072D01*
X143887327Y-64652444D01*
X143791840Y-64487056D01*
X143783890Y-64478226D01*
X143668475Y-64350045D01*
X143668471Y-64350041D01*
X143664053Y-64345134D01*
X143509552Y-64232882D01*
X143503524Y-64230198D01*
X143503522Y-64230197D01*
X143341119Y-64157891D01*
X143341118Y-64157891D01*
X143335088Y-64155206D01*
X143240794Y-64135163D01*
X143154744Y-64116872D01*
X143154739Y-64116872D01*
X143148287Y-64115500D01*
X142957313Y-64115500D01*
X142950861Y-64116872D01*
X142950856Y-64116872D01*
X142864806Y-64135163D01*
X142770512Y-64155206D01*
X142764482Y-64157891D01*
X142764481Y-64157891D01*
X142602078Y-64230197D01*
X142602076Y-64230198D01*
X142596048Y-64232882D01*
X142441547Y-64345134D01*
X142437136Y-64350033D01*
X142437127Y-64350041D01*
X142382965Y-64410195D01*
X142322519Y-64447435D01*
X142251536Y-64446083D01*
X142238085Y-64440994D01*
X142166688Y-64409206D01*
X142054121Y-64385279D01*
X141986344Y-64370872D01*
X141986339Y-64370872D01*
X141979887Y-64369500D01*
X141788913Y-64369500D01*
X141782461Y-64370872D01*
X141782456Y-64370872D01*
X141714679Y-64385279D01*
X141602112Y-64409206D01*
X141596082Y-64411891D01*
X141596081Y-64411891D01*
X141433678Y-64484197D01*
X141433676Y-64484198D01*
X141427648Y-64486882D01*
X141273147Y-64599134D01*
X141268726Y-64604044D01*
X141268725Y-64604045D01*
X141190657Y-64690749D01*
X141145360Y-64741056D01*
X141049873Y-64906444D01*
X141034183Y-64954734D01*
X141031158Y-64964043D01*
X140991084Y-65022648D01*
X140925687Y-65050285D01*
X140855731Y-65038178D01*
X140817691Y-65009419D01*
X140768453Y-64954734D01*
X140613952Y-64842482D01*
X140607924Y-64839798D01*
X140607922Y-64839797D01*
X140445519Y-64767491D01*
X140445518Y-64767491D01*
X140439488Y-64764806D01*
X140318246Y-64739035D01*
X140259144Y-64726472D01*
X140259139Y-64726472D01*
X140252687Y-64725100D01*
X140061713Y-64725100D01*
X140055261Y-64726472D01*
X140055256Y-64726472D01*
X139996154Y-64739035D01*
X139874912Y-64764806D01*
X139868882Y-64767491D01*
X139868881Y-64767491D01*
X139706478Y-64839797D01*
X139706476Y-64839798D01*
X139700448Y-64842482D01*
X139545947Y-64954734D01*
X139541529Y-64959641D01*
X139541525Y-64959645D01*
X139459913Y-65050285D01*
X139418160Y-65096656D01*
X139322673Y-65262044D01*
X139263658Y-65443672D01*
X139262968Y-65450233D01*
X139262968Y-65450235D01*
X139250712Y-65566844D01*
X139243696Y-65633600D01*
X130633711Y-65633600D01*
X130628527Y-65617644D01*
X130533040Y-65452256D01*
X130456636Y-65367400D01*
X130409675Y-65315245D01*
X130409674Y-65315244D01*
X130405253Y-65310334D01*
X130250752Y-65198082D01*
X130244724Y-65195398D01*
X130244722Y-65195397D01*
X130082319Y-65123091D01*
X130082318Y-65123091D01*
X130076288Y-65120406D01*
X129955046Y-65094635D01*
X129895944Y-65082072D01*
X129895939Y-65082072D01*
X129889487Y-65080700D01*
X129698513Y-65080700D01*
X129692061Y-65082072D01*
X129692056Y-65082072D01*
X129632954Y-65094635D01*
X129511712Y-65120406D01*
X129505682Y-65123091D01*
X129505681Y-65123091D01*
X129343278Y-65195397D01*
X129343276Y-65195398D01*
X129337248Y-65198082D01*
X129182747Y-65310334D01*
X129178326Y-65315244D01*
X129178325Y-65315245D01*
X129131365Y-65367400D01*
X129054960Y-65452256D01*
X128959473Y-65617644D01*
X128958011Y-65622145D01*
X128912479Y-65675709D01*
X128844551Y-65696357D01*
X128776244Y-65677003D01*
X128769294Y-65672299D01*
X128681294Y-65608363D01*
X128681293Y-65608362D01*
X128675952Y-65604482D01*
X128669924Y-65601798D01*
X128669922Y-65601797D01*
X128507519Y-65529491D01*
X128507518Y-65529491D01*
X128501488Y-65526806D01*
X128408088Y-65506953D01*
X128321144Y-65488472D01*
X128321139Y-65488472D01*
X128314687Y-65487100D01*
X128123713Y-65487100D01*
X128117261Y-65488472D01*
X128117256Y-65488472D01*
X128030312Y-65506953D01*
X127936912Y-65526806D01*
X127930882Y-65529491D01*
X127930881Y-65529491D01*
X127768478Y-65601797D01*
X127768476Y-65601798D01*
X127762448Y-65604482D01*
X127757107Y-65608362D01*
X127757106Y-65608363D01*
X127722371Y-65633600D01*
X127607947Y-65716734D01*
X127603526Y-65721644D01*
X127603525Y-65721645D01*
X127506137Y-65829806D01*
X127480160Y-65858656D01*
X127455030Y-65902183D01*
X127408581Y-65982635D01*
X127384673Y-66024044D01*
X127325658Y-66205672D01*
X127324968Y-66212233D01*
X127324968Y-66212235D01*
X127310019Y-66354471D01*
X127305696Y-66395600D01*
X127306386Y-66402165D01*
X127316012Y-66493751D01*
X127303240Y-66563589D01*
X127254738Y-66615436D01*
X127185905Y-66632830D01*
X127164505Y-66630168D01*
X127051144Y-66606072D01*
X127051139Y-66606072D01*
X127044687Y-66604700D01*
X126853713Y-66604700D01*
X126847261Y-66606072D01*
X126847256Y-66606072D01*
X126760313Y-66624553D01*
X126666912Y-66644406D01*
X126660882Y-66647091D01*
X126660881Y-66647091D01*
X126498478Y-66719397D01*
X126498476Y-66719398D01*
X126492448Y-66722082D01*
X126337947Y-66834334D01*
X126210160Y-66976256D01*
X126114673Y-67141644D01*
X126055658Y-67323272D01*
X126035696Y-67513200D01*
X103632000Y-67513200D01*
X103632000Y-64008000D01*
X168910896Y-64008000D01*
X168911586Y-64014565D01*
X168926224Y-64153834D01*
X168930858Y-64197928D01*
X168989873Y-64379556D01*
X169085360Y-64544944D01*
X169089778Y-64549851D01*
X169089779Y-64549852D01*
X169134153Y-64599134D01*
X169213147Y-64686866D01*
X169367648Y-64799118D01*
X169373676Y-64801802D01*
X169373678Y-64801803D01*
X169536081Y-64874109D01*
X169542112Y-64876794D01*
X169685360Y-64907242D01*
X169747832Y-64940970D01*
X169782154Y-65003120D01*
X169784472Y-65017318D01*
X169791909Y-65088072D01*
X169794458Y-65112328D01*
X169853473Y-65293956D01*
X169856776Y-65299678D01*
X169856777Y-65299679D01*
X169895876Y-65367400D01*
X169912614Y-65436395D01*
X169895876Y-65493400D01*
X169853473Y-65566844D01*
X169794458Y-65748472D01*
X169793768Y-65755033D01*
X169793768Y-65755035D01*
X169775260Y-65931128D01*
X169774496Y-65938400D01*
X169794458Y-66128328D01*
X169853473Y-66309956D01*
X169899130Y-66389035D01*
X169910541Y-66408800D01*
X169927279Y-66477795D01*
X169910541Y-66534799D01*
X169853473Y-66633644D01*
X169794458Y-66815272D01*
X169793768Y-66821833D01*
X169793768Y-66821835D01*
X169778054Y-66971348D01*
X169774496Y-67005200D01*
X169794458Y-67195128D01*
X169853473Y-67376756D01*
X169856776Y-67382478D01*
X169856777Y-67382479D01*
X169891114Y-67441952D01*
X169907852Y-67510947D01*
X169891115Y-67567950D01*
X169853473Y-67633147D01*
X169794458Y-67814775D01*
X169774496Y-68004703D01*
X169775186Y-68011268D01*
X169788690Y-68139748D01*
X169794458Y-68194631D01*
X169853473Y-68376259D01*
X169856776Y-68381981D01*
X169856777Y-68381982D01*
X169900638Y-68457952D01*
X169917376Y-68526948D01*
X169900638Y-68583952D01*
X169853473Y-68665644D01*
X169794458Y-68847272D01*
X169793768Y-68853833D01*
X169793768Y-68853835D01*
X169788155Y-68907237D01*
X169774496Y-69037200D01*
X169775186Y-69043765D01*
X169793558Y-69218562D01*
X169794458Y-69227128D01*
X169853473Y-69408756D01*
X169948960Y-69574144D01*
X169953378Y-69579051D01*
X169953379Y-69579052D01*
X170072070Y-69710872D01*
X170076747Y-69716066D01*
X170231248Y-69828318D01*
X170237276Y-69831002D01*
X170237278Y-69831003D01*
X170390688Y-69899305D01*
X170405712Y-69905994D01*
X170499113Y-69925847D01*
X170586056Y-69944328D01*
X170586061Y-69944328D01*
X170592513Y-69945700D01*
X170783487Y-69945700D01*
X170789939Y-69944328D01*
X170789944Y-69944328D01*
X170876887Y-69925847D01*
X170970288Y-69905994D01*
X170985312Y-69899305D01*
X171138722Y-69831003D01*
X171138724Y-69831002D01*
X171144752Y-69828318D01*
X171299253Y-69716066D01*
X171303930Y-69710872D01*
X171422621Y-69579052D01*
X171422622Y-69579051D01*
X171427040Y-69574144D01*
X171522527Y-69408756D01*
X171581542Y-69227128D01*
X171582443Y-69218562D01*
X171600814Y-69043765D01*
X171601504Y-69037200D01*
X171587845Y-68907237D01*
X171582232Y-68853835D01*
X171582232Y-68853833D01*
X171581542Y-68847272D01*
X171522527Y-68665644D01*
X171475362Y-68583952D01*
X171458624Y-68514957D01*
X171475362Y-68457952D01*
X171519223Y-68381982D01*
X171519224Y-68381981D01*
X171522527Y-68376259D01*
X171581542Y-68194631D01*
X171587311Y-68139748D01*
X171600814Y-68011268D01*
X171601504Y-68004703D01*
X171581542Y-67814775D01*
X171522527Y-67633147D01*
X171484886Y-67567951D01*
X171468148Y-67498956D01*
X171484885Y-67441953D01*
X171522527Y-67376756D01*
X171581542Y-67195128D01*
X171601504Y-67005200D01*
X171597946Y-66971348D01*
X171582232Y-66821835D01*
X171582232Y-66821833D01*
X171581542Y-66815272D01*
X171522527Y-66633644D01*
X171465459Y-66534799D01*
X171448721Y-66465805D01*
X171465459Y-66408800D01*
X171476871Y-66389035D01*
X171522527Y-66309956D01*
X171581542Y-66128328D01*
X171601504Y-65938400D01*
X171600740Y-65931128D01*
X171582232Y-65755035D01*
X171582232Y-65755033D01*
X171581542Y-65748472D01*
X171522527Y-65566844D01*
X171480124Y-65493400D01*
X171463386Y-65424405D01*
X171480124Y-65367400D01*
X171519223Y-65299679D01*
X171519224Y-65299678D01*
X171522527Y-65293956D01*
X171581542Y-65112328D01*
X171584092Y-65088072D01*
X171600814Y-64928965D01*
X171601504Y-64922400D01*
X171596711Y-64876794D01*
X171582232Y-64739035D01*
X171582232Y-64739033D01*
X171581542Y-64732472D01*
X171522527Y-64550844D01*
X171487637Y-64490412D01*
X171430341Y-64391174D01*
X171427040Y-64385456D01*
X171299253Y-64243534D01*
X171181376Y-64157891D01*
X171150094Y-64135163D01*
X171150093Y-64135162D01*
X171144752Y-64131282D01*
X171138724Y-64128598D01*
X171138722Y-64128597D01*
X170976319Y-64056291D01*
X170976318Y-64056291D01*
X170970288Y-64053606D01*
X170827040Y-64023158D01*
X170764568Y-63989430D01*
X170730246Y-63927280D01*
X170727928Y-63913082D01*
X170718632Y-63824635D01*
X170718632Y-63824633D01*
X170717942Y-63818072D01*
X170658927Y-63636444D01*
X170563440Y-63471056D01*
X170542824Y-63448159D01*
X170440075Y-63334045D01*
X170440074Y-63334044D01*
X170435653Y-63329134D01*
X170306750Y-63235480D01*
X170286494Y-63220763D01*
X170286493Y-63220762D01*
X170281152Y-63216882D01*
X170275124Y-63214198D01*
X170275122Y-63214197D01*
X170112719Y-63141891D01*
X170112718Y-63141891D01*
X170106688Y-63139206D01*
X169997273Y-63115949D01*
X169926344Y-63100872D01*
X169926339Y-63100872D01*
X169919887Y-63099500D01*
X169728913Y-63099500D01*
X169722461Y-63100872D01*
X169722456Y-63100872D01*
X169651527Y-63115949D01*
X169542112Y-63139206D01*
X169536082Y-63141891D01*
X169536081Y-63141891D01*
X169373678Y-63214197D01*
X169373676Y-63214198D01*
X169367648Y-63216882D01*
X169362307Y-63220762D01*
X169362306Y-63220763D01*
X169342050Y-63235480D01*
X169213147Y-63329134D01*
X169208726Y-63334044D01*
X169208725Y-63334045D01*
X169105977Y-63448159D01*
X169085360Y-63471056D01*
X168989873Y-63636444D01*
X168930858Y-63818072D01*
X168910896Y-64008000D01*
X103632000Y-64008000D01*
X103632000Y-61061600D01*
X127356496Y-61061600D01*
X127357186Y-61068165D01*
X127371873Y-61207900D01*
X127376458Y-61251528D01*
X127435473Y-61433156D01*
X127530960Y-61598544D01*
X127535378Y-61603451D01*
X127535379Y-61603452D01*
X127648668Y-61729272D01*
X127658747Y-61740466D01*
X127746680Y-61804353D01*
X127803253Y-61845456D01*
X127813248Y-61852718D01*
X127819276Y-61855402D01*
X127819278Y-61855403D01*
X127964802Y-61920194D01*
X127987712Y-61930394D01*
X128081113Y-61950247D01*
X128168056Y-61968728D01*
X128168061Y-61968728D01*
X128174513Y-61970100D01*
X128365487Y-61970100D01*
X128371939Y-61968728D01*
X128371944Y-61968728D01*
X128458887Y-61950247D01*
X128552288Y-61930394D01*
X128608404Y-61905410D01*
X128713469Y-61858632D01*
X128783836Y-61849198D01*
X128848133Y-61879305D01*
X128885947Y-61939393D01*
X128890028Y-61986909D01*
X128880496Y-62077600D01*
X128881186Y-62084165D01*
X128897909Y-62243272D01*
X128900458Y-62267528D01*
X128959473Y-62449156D01*
X128962776Y-62454878D01*
X128962777Y-62454879D01*
X128981874Y-62487956D01*
X129054960Y-62614544D01*
X129059378Y-62619451D01*
X129059379Y-62619452D01*
X129094315Y-62658252D01*
X129182747Y-62756466D01*
X129337248Y-62868718D01*
X129343276Y-62871402D01*
X129343278Y-62871403D01*
X129450956Y-62919344D01*
X129511712Y-62946394D01*
X129605112Y-62966247D01*
X129692056Y-62984728D01*
X129692061Y-62984728D01*
X129698513Y-62986100D01*
X129889487Y-62986100D01*
X129895939Y-62984728D01*
X129895944Y-62984728D01*
X129982888Y-62966247D01*
X130076288Y-62946394D01*
X130137044Y-62919344D01*
X130244722Y-62871403D01*
X130244724Y-62871402D01*
X130250752Y-62868718D01*
X130405253Y-62756466D01*
X130493685Y-62658252D01*
X130528621Y-62619452D01*
X130528622Y-62619451D01*
X130533040Y-62614544D01*
X130606126Y-62487956D01*
X130625223Y-62454879D01*
X130625224Y-62454878D01*
X130628527Y-62449156D01*
X130687542Y-62267528D01*
X130690092Y-62243272D01*
X130703426Y-62116400D01*
X131662496Y-62116400D01*
X131663186Y-62122965D01*
X131675831Y-62243272D01*
X131682458Y-62306328D01*
X131741473Y-62487956D01*
X131836960Y-62653344D01*
X131841378Y-62658251D01*
X131841379Y-62658252D01*
X131960325Y-62790355D01*
X131964747Y-62795266D01*
X132119248Y-62907518D01*
X132125276Y-62910202D01*
X132125278Y-62910203D01*
X132287681Y-62982509D01*
X132293712Y-62985194D01*
X132371230Y-63001671D01*
X132474056Y-63023528D01*
X132474061Y-63023528D01*
X132480513Y-63024900D01*
X132671487Y-63024900D01*
X132677939Y-63023528D01*
X132677944Y-63023528D01*
X132780770Y-63001671D01*
X132858288Y-62985194D01*
X132864319Y-62982509D01*
X133026722Y-62910203D01*
X133026724Y-62910202D01*
X133032752Y-62907518D01*
X133187253Y-62795266D01*
X133191675Y-62790355D01*
X133310621Y-62658252D01*
X133310622Y-62658251D01*
X133315040Y-62653344D01*
X133324823Y-62636400D01*
X135433696Y-62636400D01*
X135434386Y-62642965D01*
X135449094Y-62782900D01*
X135453658Y-62826328D01*
X135512673Y-63007956D01*
X135515976Y-63013678D01*
X135515977Y-63013679D01*
X135545693Y-63065149D01*
X135608160Y-63173344D01*
X135612578Y-63178251D01*
X135612579Y-63178252D01*
X135702215Y-63277803D01*
X135735947Y-63315266D01*
X135890448Y-63427518D01*
X135896476Y-63430202D01*
X135896478Y-63430203D01*
X136025990Y-63487865D01*
X136064912Y-63505194D01*
X136158313Y-63525047D01*
X136245256Y-63543528D01*
X136245261Y-63543528D01*
X136251713Y-63544900D01*
X136442687Y-63544900D01*
X136449139Y-63543528D01*
X136449144Y-63543528D01*
X136536087Y-63525047D01*
X136629488Y-63505194D01*
X136668410Y-63487865D01*
X136797922Y-63430203D01*
X136797924Y-63430202D01*
X136803952Y-63427518D01*
X136958453Y-63315266D01*
X136992185Y-63277803D01*
X137081821Y-63178252D01*
X137081822Y-63178251D01*
X137086240Y-63173344D01*
X137148707Y-63065149D01*
X137178423Y-63013679D01*
X137178424Y-63013678D01*
X137181727Y-63007956D01*
X137240742Y-62826328D01*
X137245307Y-62782900D01*
X137260014Y-62642965D01*
X137260704Y-62636400D01*
X137257806Y-62608826D01*
X137241432Y-62453035D01*
X137241432Y-62453033D01*
X137240742Y-62446472D01*
X137181727Y-62264844D01*
X137169273Y-62243272D01*
X137099813Y-62122965D01*
X137086240Y-62099456D01*
X137060264Y-62070606D01*
X136962875Y-61962445D01*
X136962874Y-61962444D01*
X136958453Y-61957534D01*
X136853065Y-61880965D01*
X136809294Y-61849163D01*
X136809293Y-61849162D01*
X136803952Y-61845282D01*
X136797924Y-61842598D01*
X136797922Y-61842597D01*
X136635519Y-61770291D01*
X136635518Y-61770291D01*
X136629488Y-61767606D01*
X136520073Y-61744349D01*
X136449144Y-61729272D01*
X136449139Y-61729272D01*
X136442687Y-61727900D01*
X136251713Y-61727900D01*
X136245261Y-61729272D01*
X136245256Y-61729272D01*
X136174327Y-61744349D01*
X136064912Y-61767606D01*
X136058882Y-61770291D01*
X136058881Y-61770291D01*
X135896478Y-61842597D01*
X135896476Y-61842598D01*
X135890448Y-61845282D01*
X135885107Y-61849162D01*
X135885106Y-61849163D01*
X135841335Y-61880965D01*
X135735947Y-61957534D01*
X135731526Y-61962444D01*
X135731525Y-61962445D01*
X135634137Y-62070606D01*
X135608160Y-62099456D01*
X135594587Y-62122965D01*
X135525128Y-62243272D01*
X135512673Y-62264844D01*
X135453658Y-62446472D01*
X135452968Y-62453033D01*
X135452968Y-62453035D01*
X135436594Y-62608826D01*
X135433696Y-62636400D01*
X133324823Y-62636400D01*
X133410527Y-62487956D01*
X133469542Y-62306328D01*
X133476170Y-62243272D01*
X133488814Y-62122965D01*
X133489504Y-62116400D01*
X133483341Y-62057765D01*
X133470232Y-61933035D01*
X133470232Y-61933033D01*
X133469542Y-61926472D01*
X133410527Y-61744844D01*
X133401537Y-61729272D01*
X133341678Y-61625594D01*
X133315040Y-61579456D01*
X133255749Y-61513606D01*
X133191675Y-61442445D01*
X133191674Y-61442444D01*
X133187253Y-61437534D01*
X133049508Y-61337456D01*
X133038094Y-61329163D01*
X133038093Y-61329162D01*
X133032752Y-61325282D01*
X133026724Y-61322598D01*
X133026722Y-61322597D01*
X132864319Y-61250291D01*
X132864318Y-61250291D01*
X132858288Y-61247606D01*
X132764888Y-61227753D01*
X132677944Y-61209272D01*
X132677939Y-61209272D01*
X132671487Y-61207900D01*
X132480513Y-61207900D01*
X132474061Y-61209272D01*
X132474056Y-61209272D01*
X132387112Y-61227753D01*
X132293712Y-61247606D01*
X132287682Y-61250291D01*
X132287681Y-61250291D01*
X132125278Y-61322597D01*
X132125276Y-61322598D01*
X132119248Y-61325282D01*
X132113907Y-61329162D01*
X132113906Y-61329163D01*
X132102492Y-61337456D01*
X131964747Y-61437534D01*
X131960326Y-61442444D01*
X131960325Y-61442445D01*
X131896252Y-61513606D01*
X131836960Y-61579456D01*
X131810322Y-61625594D01*
X131750464Y-61729272D01*
X131741473Y-61744844D01*
X131682458Y-61926472D01*
X131681768Y-61933033D01*
X131681768Y-61933035D01*
X131668659Y-62057765D01*
X131662496Y-62116400D01*
X130703426Y-62116400D01*
X130706814Y-62084165D01*
X130707504Y-62077600D01*
X130697972Y-61986910D01*
X130688232Y-61894235D01*
X130688232Y-61894233D01*
X130687542Y-61887672D01*
X130628527Y-61706044D01*
X130616073Y-61684472D01*
X130593839Y-61645962D01*
X130586124Y-61632600D01*
X130569386Y-61563605D01*
X130586124Y-61506600D01*
X130625223Y-61438879D01*
X130625224Y-61438878D01*
X130628527Y-61433156D01*
X130687542Y-61251528D01*
X130692128Y-61207900D01*
X130706814Y-61068165D01*
X130707504Y-61061600D01*
X130697446Y-60965900D01*
X130688232Y-60878235D01*
X130688232Y-60878233D01*
X130687542Y-60871672D01*
X130628527Y-60690044D01*
X130533040Y-60524656D01*
X130494678Y-60482050D01*
X130409675Y-60387645D01*
X130409671Y-60387641D01*
X130405253Y-60382734D01*
X130250752Y-60270482D01*
X130244724Y-60267798D01*
X130244722Y-60267797D01*
X130082319Y-60195491D01*
X130082318Y-60195491D01*
X130076288Y-60192806D01*
X129982888Y-60172953D01*
X129895944Y-60154472D01*
X129895939Y-60154472D01*
X129889487Y-60153100D01*
X129698513Y-60153100D01*
X129692061Y-60154472D01*
X129692056Y-60154472D01*
X129605112Y-60172953D01*
X129511712Y-60192806D01*
X129505682Y-60195491D01*
X129505681Y-60195491D01*
X129343278Y-60267797D01*
X129343276Y-60267798D01*
X129337248Y-60270482D01*
X129182747Y-60382734D01*
X129125635Y-60446164D01*
X129065190Y-60483402D01*
X128994206Y-60482050D01*
X128938366Y-60446164D01*
X128881253Y-60382734D01*
X128726752Y-60270482D01*
X128720724Y-60267798D01*
X128720722Y-60267797D01*
X128558319Y-60195491D01*
X128558318Y-60195491D01*
X128552288Y-60192806D01*
X128458888Y-60172953D01*
X128371944Y-60154472D01*
X128371939Y-60154472D01*
X128365487Y-60153100D01*
X128174513Y-60153100D01*
X128168061Y-60154472D01*
X128168056Y-60154472D01*
X128081112Y-60172953D01*
X127987712Y-60192806D01*
X127981682Y-60195491D01*
X127981681Y-60195491D01*
X127819278Y-60267797D01*
X127819276Y-60267798D01*
X127813248Y-60270482D01*
X127658747Y-60382734D01*
X127654329Y-60387641D01*
X127654325Y-60387645D01*
X127569323Y-60482050D01*
X127530960Y-60524656D01*
X127435473Y-60690044D01*
X127376458Y-60871672D01*
X127375768Y-60878233D01*
X127375768Y-60878235D01*
X127366554Y-60965900D01*
X127356496Y-61061600D01*
X103632000Y-61061600D01*
X103632000Y-59116400D01*
X132552896Y-59116400D01*
X132572858Y-59306328D01*
X132631873Y-59487956D01*
X132727360Y-59653344D01*
X132855147Y-59795266D01*
X133009648Y-59907518D01*
X133015676Y-59910202D01*
X133015678Y-59910203D01*
X133170465Y-59979118D01*
X133184112Y-59985194D01*
X133277512Y-60005047D01*
X133364456Y-60023528D01*
X133364461Y-60023528D01*
X133370913Y-60024900D01*
X133561887Y-60024900D01*
X133568339Y-60023528D01*
X133568344Y-60023528D01*
X133655288Y-60005047D01*
X133748688Y-59985194D01*
X133762335Y-59979118D01*
X133917122Y-59910203D01*
X133917124Y-59910202D01*
X133923152Y-59907518D01*
X134077653Y-59795266D01*
X134205440Y-59653344D01*
X134300927Y-59487956D01*
X134359942Y-59306328D01*
X134379904Y-59116400D01*
X134374124Y-59061403D01*
X134360632Y-58933035D01*
X134360632Y-58933033D01*
X134359942Y-58926472D01*
X134300927Y-58744844D01*
X134293146Y-58731366D01*
X134243212Y-58644879D01*
X134205440Y-58579456D01*
X134173470Y-58543949D01*
X134082075Y-58442445D01*
X134082074Y-58442444D01*
X134077653Y-58437534D01*
X133923152Y-58325282D01*
X133917124Y-58322598D01*
X133917122Y-58322597D01*
X133754719Y-58250291D01*
X133754718Y-58250291D01*
X133748688Y-58247606D01*
X133649256Y-58226471D01*
X133568344Y-58209272D01*
X133568339Y-58209272D01*
X133561887Y-58207900D01*
X133370913Y-58207900D01*
X133364461Y-58209272D01*
X133364456Y-58209272D01*
X133283544Y-58226471D01*
X133184112Y-58247606D01*
X133178082Y-58250291D01*
X133178081Y-58250291D01*
X133015678Y-58322597D01*
X133015676Y-58322598D01*
X133009648Y-58325282D01*
X132855147Y-58437534D01*
X132850726Y-58442444D01*
X132850725Y-58442445D01*
X132759331Y-58543949D01*
X132727360Y-58579456D01*
X132689588Y-58644879D01*
X132639655Y-58731366D01*
X132631873Y-58744844D01*
X132572858Y-58926472D01*
X132572168Y-58933033D01*
X132572168Y-58933035D01*
X132558676Y-59061403D01*
X132552896Y-59116400D01*
X103632000Y-59116400D01*
X103632000Y-57776249D01*
X136366425Y-57776249D01*
X136386387Y-57966177D01*
X136445402Y-58147805D01*
X136448705Y-58153527D01*
X136448706Y-58153528D01*
X136469068Y-58188796D01*
X136540889Y-58313193D01*
X136545307Y-58318100D01*
X136545308Y-58318101D01*
X136612233Y-58392429D01*
X136668676Y-58455115D01*
X136748368Y-58513015D01*
X136785601Y-58540066D01*
X136823177Y-58567367D01*
X136829205Y-58570051D01*
X136829207Y-58570052D01*
X136991610Y-58642358D01*
X136997641Y-58645043D01*
X137070869Y-58660608D01*
X137133342Y-58694336D01*
X137164505Y-58744918D01*
X137223220Y-58925623D01*
X137226523Y-58931345D01*
X137226524Y-58931346D01*
X137260433Y-58990077D01*
X137318707Y-59091011D01*
X137323125Y-59095918D01*
X137323126Y-59095919D01*
X137442072Y-59228022D01*
X137446494Y-59232933D01*
X137600995Y-59345185D01*
X137607023Y-59347869D01*
X137607025Y-59347870D01*
X137754773Y-59413651D01*
X137775459Y-59422861D01*
X137868859Y-59442714D01*
X137955803Y-59461195D01*
X137955808Y-59461195D01*
X137962260Y-59462567D01*
X138153234Y-59462567D01*
X138159686Y-59461195D01*
X138159691Y-59461195D01*
X138246635Y-59442714D01*
X138340035Y-59422861D01*
X138461019Y-59368996D01*
X138507451Y-59348323D01*
X138577818Y-59338889D01*
X138642115Y-59368996D01*
X138679929Y-59429084D01*
X138684010Y-59450259D01*
X138687312Y-59481671D01*
X138688206Y-59490180D01*
X138747221Y-59671808D01*
X138842708Y-59837196D01*
X138847126Y-59842103D01*
X138847127Y-59842104D01*
X138958397Y-59965682D01*
X138970495Y-59979118D01*
X138975837Y-59982999D01*
X138975839Y-59983001D01*
X139049714Y-60036674D01*
X139093068Y-60092896D01*
X139099143Y-60163632D01*
X139066012Y-60226424D01*
X139026903Y-60253716D01*
X138995283Y-60267795D01*
X138989248Y-60270482D01*
X138834747Y-60382734D01*
X138830329Y-60387641D01*
X138830325Y-60387645D01*
X138745323Y-60482050D01*
X138706960Y-60524656D01*
X138703659Y-60530374D01*
X138677749Y-60575251D01*
X138626367Y-60624244D01*
X138556653Y-60637680D01*
X138542435Y-60635498D01*
X138505399Y-60627626D01*
X138430344Y-60611672D01*
X138430339Y-60611672D01*
X138423887Y-60610300D01*
X138232913Y-60610300D01*
X138226461Y-60611672D01*
X138226456Y-60611672D01*
X138151401Y-60627626D01*
X138046112Y-60650006D01*
X138040082Y-60652691D01*
X138040081Y-60652691D01*
X137877678Y-60724997D01*
X137877676Y-60724998D01*
X137871648Y-60727682D01*
X137866307Y-60731562D01*
X137866306Y-60731563D01*
X137831571Y-60756800D01*
X137717147Y-60839934D01*
X137712726Y-60844844D01*
X137712725Y-60844845D01*
X137604363Y-60965194D01*
X137589360Y-60981856D01*
X137493873Y-61147244D01*
X137434858Y-61328872D01*
X137434168Y-61335433D01*
X137434168Y-61335435D01*
X137422921Y-61442445D01*
X137414896Y-61518800D01*
X137415586Y-61525365D01*
X137433193Y-61692882D01*
X137434858Y-61708728D01*
X137493873Y-61890356D01*
X137589360Y-62055744D01*
X137593778Y-62060651D01*
X137593779Y-62060652D01*
X137712470Y-62192472D01*
X137717147Y-62197666D01*
X137771277Y-62236994D01*
X137857674Y-62299765D01*
X137871648Y-62309918D01*
X137877676Y-62312602D01*
X137877678Y-62312603D01*
X138040081Y-62384909D01*
X138046112Y-62387594D01*
X138139513Y-62407447D01*
X138226456Y-62425928D01*
X138226461Y-62425928D01*
X138232913Y-62427300D01*
X138423887Y-62427300D01*
X138430339Y-62425928D01*
X138430344Y-62425928D01*
X138517287Y-62407447D01*
X138610688Y-62387594D01*
X138616719Y-62384909D01*
X138779122Y-62312603D01*
X138779124Y-62312602D01*
X138785152Y-62309918D01*
X138799127Y-62299765D01*
X138885523Y-62236994D01*
X138939653Y-62197666D01*
X138944330Y-62192472D01*
X139063021Y-62060652D01*
X139063022Y-62060651D01*
X139067440Y-62055744D01*
X139096651Y-62005149D01*
X139148033Y-61956156D01*
X139217747Y-61942720D01*
X139231965Y-61944902D01*
X139255521Y-61949909D01*
X139344056Y-61968728D01*
X139344061Y-61968728D01*
X139350513Y-61970100D01*
X139541487Y-61970100D01*
X139547939Y-61968728D01*
X139547944Y-61968728D01*
X139634887Y-61950247D01*
X139728288Y-61930394D01*
X139751198Y-61920194D01*
X139854054Y-61874400D01*
X148336896Y-61874400D01*
X148337586Y-61880965D01*
X148354556Y-62042421D01*
X148356858Y-62064328D01*
X148415873Y-62245956D01*
X148419176Y-62251678D01*
X148419177Y-62251679D01*
X148430407Y-62271129D01*
X148511360Y-62411344D01*
X148515778Y-62416251D01*
X148515779Y-62416252D01*
X148580342Y-62487956D01*
X148639147Y-62553266D01*
X148723489Y-62614544D01*
X148762607Y-62642965D01*
X148793648Y-62665518D01*
X148799676Y-62668202D01*
X148799678Y-62668203D01*
X148962081Y-62740509D01*
X148968112Y-62743194D01*
X149060021Y-62762730D01*
X149148456Y-62781528D01*
X149148461Y-62781528D01*
X149154913Y-62782900D01*
X149345887Y-62782900D01*
X149352339Y-62781528D01*
X149352344Y-62781528D01*
X149440779Y-62762730D01*
X149532688Y-62743194D01*
X149538719Y-62740509D01*
X149701122Y-62668203D01*
X149701124Y-62668202D01*
X149707152Y-62665518D01*
X149738194Y-62642965D01*
X149777311Y-62614544D01*
X149825731Y-62579365D01*
X161134498Y-62579365D01*
X161135188Y-62585930D01*
X161153450Y-62759679D01*
X161154460Y-62769293D01*
X161213475Y-62950921D01*
X161216778Y-62956643D01*
X161216779Y-62956644D01*
X161233786Y-62986100D01*
X161308962Y-63116309D01*
X161313380Y-63121216D01*
X161313381Y-63121217D01*
X161408631Y-63227003D01*
X161436749Y-63258231D01*
X161498872Y-63303366D01*
X161568792Y-63354166D01*
X161591250Y-63370483D01*
X161597278Y-63373167D01*
X161597280Y-63373168D01*
X161640701Y-63392500D01*
X161765714Y-63448159D01*
X161850345Y-63466148D01*
X161946058Y-63486493D01*
X161946063Y-63486493D01*
X161952515Y-63487865D01*
X162143489Y-63487865D01*
X162149941Y-63486493D01*
X162149946Y-63486493D01*
X162245659Y-63466148D01*
X162330290Y-63448159D01*
X162455303Y-63392500D01*
X162498724Y-63373168D01*
X162498726Y-63373167D01*
X162504754Y-63370483D01*
X162527213Y-63354166D01*
X162597132Y-63303366D01*
X162659255Y-63258231D01*
X162687373Y-63227003D01*
X162782623Y-63121217D01*
X162782624Y-63121216D01*
X162787042Y-63116309D01*
X162862218Y-62986100D01*
X162879225Y-62956644D01*
X162879226Y-62956643D01*
X162882529Y-62950921D01*
X162941544Y-62769293D01*
X162942555Y-62759679D01*
X162960816Y-62585930D01*
X162961506Y-62579365D01*
X162946143Y-62433200D01*
X164796096Y-62433200D01*
X164796786Y-62439765D01*
X164811379Y-62578606D01*
X164816058Y-62623128D01*
X164875073Y-62804756D01*
X164878376Y-62810478D01*
X164878377Y-62810479D01*
X164891152Y-62832606D01*
X164970560Y-62970144D01*
X164974978Y-62975051D01*
X164974979Y-62975052D01*
X165088268Y-63100872D01*
X165098347Y-63112066D01*
X165177586Y-63169637D01*
X165238918Y-63214197D01*
X165252848Y-63224318D01*
X165258876Y-63227002D01*
X165258878Y-63227003D01*
X165402394Y-63290900D01*
X165427312Y-63301994D01*
X165520712Y-63321847D01*
X165607656Y-63340328D01*
X165607661Y-63340328D01*
X165614113Y-63341700D01*
X165805087Y-63341700D01*
X165811539Y-63340328D01*
X165811544Y-63340328D01*
X165898488Y-63321847D01*
X165991888Y-63301994D01*
X165997915Y-63299311D01*
X165997923Y-63299308D01*
X166120094Y-63244914D01*
X166190461Y-63235480D01*
X166245402Y-63258083D01*
X166268848Y-63275118D01*
X166274876Y-63277802D01*
X166274878Y-63277803D01*
X166418394Y-63341700D01*
X166443312Y-63352794D01*
X166526532Y-63370483D01*
X166623656Y-63391128D01*
X166623661Y-63391128D01*
X166630113Y-63392500D01*
X166821087Y-63392500D01*
X166827539Y-63391128D01*
X166827544Y-63391128D01*
X166924668Y-63370483D01*
X167007888Y-63352794D01*
X167032806Y-63341700D01*
X167176322Y-63277803D01*
X167176324Y-63277802D01*
X167182352Y-63275118D01*
X167200251Y-63262114D01*
X167318496Y-63176203D01*
X167336853Y-63162866D01*
X167415772Y-63075217D01*
X167476217Y-63037979D01*
X167547201Y-63039331D01*
X167586980Y-63062047D01*
X167587547Y-63061266D01*
X167650708Y-63107155D01*
X167742048Y-63173518D01*
X167748076Y-63176202D01*
X167748078Y-63176203D01*
X167910481Y-63248509D01*
X167916512Y-63251194D01*
X168009912Y-63271047D01*
X168096856Y-63289528D01*
X168096861Y-63289528D01*
X168103313Y-63290900D01*
X168294287Y-63290900D01*
X168300739Y-63289528D01*
X168300744Y-63289528D01*
X168387688Y-63271047D01*
X168481088Y-63251194D01*
X168487119Y-63248509D01*
X168649522Y-63176203D01*
X168649524Y-63176202D01*
X168655552Y-63173518D01*
X168810053Y-63061266D01*
X168842797Y-63024900D01*
X168933421Y-62924252D01*
X168933422Y-62924251D01*
X168937840Y-62919344D01*
X169033327Y-62753956D01*
X169092342Y-62572328D01*
X169093938Y-62557149D01*
X169111614Y-62388965D01*
X169112304Y-62382400D01*
X169111614Y-62375835D01*
X169093032Y-62199035D01*
X169093032Y-62199033D01*
X169092342Y-62192472D01*
X169033327Y-62010844D01*
X168937840Y-61845456D01*
X168855794Y-61754334D01*
X168814475Y-61708445D01*
X168814471Y-61708441D01*
X168810053Y-61703534D01*
X168692176Y-61617891D01*
X168660894Y-61595163D01*
X168660893Y-61595162D01*
X168655552Y-61591282D01*
X168649524Y-61588598D01*
X168649522Y-61588597D01*
X168487119Y-61516291D01*
X168487118Y-61516291D01*
X168481088Y-61513606D01*
X168387687Y-61493753D01*
X168300744Y-61475272D01*
X168300739Y-61475272D01*
X168294287Y-61473900D01*
X168103313Y-61473900D01*
X168096861Y-61475272D01*
X168096856Y-61475272D01*
X168009913Y-61493753D01*
X167916512Y-61513606D01*
X167910482Y-61516291D01*
X167910481Y-61516291D01*
X167748078Y-61588597D01*
X167748076Y-61588598D01*
X167742048Y-61591282D01*
X167736707Y-61595162D01*
X167736706Y-61595163D01*
X167705424Y-61617891D01*
X167587547Y-61703534D01*
X167508628Y-61791183D01*
X167448183Y-61828421D01*
X167377199Y-61827069D01*
X167337420Y-61804353D01*
X167336853Y-61805134D01*
X167187694Y-61696763D01*
X167187693Y-61696762D01*
X167182352Y-61692882D01*
X167176324Y-61690198D01*
X167176322Y-61690197D01*
X167013919Y-61617891D01*
X167013918Y-61617891D01*
X167007888Y-61615206D01*
X166902599Y-61592826D01*
X166827544Y-61576872D01*
X166827539Y-61576872D01*
X166821087Y-61575500D01*
X166630113Y-61575500D01*
X166623661Y-61576872D01*
X166623656Y-61576872D01*
X166548601Y-61592826D01*
X166443312Y-61615206D01*
X166437285Y-61617889D01*
X166437277Y-61617892D01*
X166315106Y-61672286D01*
X166244739Y-61681720D01*
X166189799Y-61659117D01*
X166185509Y-61656000D01*
X166166352Y-61642082D01*
X166160324Y-61639398D01*
X166160322Y-61639397D01*
X165997919Y-61567091D01*
X165997918Y-61567091D01*
X165991888Y-61564406D01*
X165896060Y-61544037D01*
X165811544Y-61526072D01*
X165811539Y-61526072D01*
X165805087Y-61524700D01*
X165614113Y-61524700D01*
X165607661Y-61526072D01*
X165607656Y-61526072D01*
X165523140Y-61544037D01*
X165427312Y-61564406D01*
X165421282Y-61567091D01*
X165421281Y-61567091D01*
X165258878Y-61639397D01*
X165258876Y-61639398D01*
X165252848Y-61642082D01*
X165098347Y-61754334D01*
X165093926Y-61759244D01*
X165093925Y-61759245D01*
X165020720Y-61840548D01*
X164970560Y-61896256D01*
X164875073Y-62061644D01*
X164816058Y-62243272D01*
X164815368Y-62249833D01*
X164815368Y-62249835D01*
X164800889Y-62387594D01*
X164796096Y-62433200D01*
X162946143Y-62433200D01*
X162945379Y-62425928D01*
X162942234Y-62396000D01*
X162942234Y-62395998D01*
X162941544Y-62389437D01*
X162882529Y-62207809D01*
X162787042Y-62042421D01*
X162715032Y-61962445D01*
X162663677Y-61905410D01*
X162663676Y-61905409D01*
X162659255Y-61900499D01*
X162504754Y-61788247D01*
X162498726Y-61785563D01*
X162498724Y-61785562D01*
X162336321Y-61713256D01*
X162336320Y-61713256D01*
X162330290Y-61710571D01*
X162207505Y-61684472D01*
X162149946Y-61672237D01*
X162149941Y-61672237D01*
X162143489Y-61670865D01*
X161952515Y-61670865D01*
X161946063Y-61672237D01*
X161946058Y-61672237D01*
X161888499Y-61684472D01*
X161765714Y-61710571D01*
X161759684Y-61713256D01*
X161759683Y-61713256D01*
X161597280Y-61785562D01*
X161597278Y-61785563D01*
X161591250Y-61788247D01*
X161436749Y-61900499D01*
X161432328Y-61905409D01*
X161432327Y-61905410D01*
X161380973Y-61962445D01*
X161308962Y-62042421D01*
X161213475Y-62207809D01*
X161154460Y-62389437D01*
X161153770Y-62395998D01*
X161153770Y-62396000D01*
X161150625Y-62425928D01*
X161134498Y-62579365D01*
X149825731Y-62579365D01*
X149861653Y-62553266D01*
X149920458Y-62487956D01*
X149985021Y-62416252D01*
X149985022Y-62416251D01*
X149989440Y-62411344D01*
X150070393Y-62271129D01*
X150081623Y-62251679D01*
X150081624Y-62251678D01*
X150084927Y-62245956D01*
X150143942Y-62064328D01*
X150146245Y-62042421D01*
X150163214Y-61880965D01*
X150163904Y-61874400D01*
X150160346Y-61840548D01*
X150144632Y-61691035D01*
X150144632Y-61691033D01*
X150143942Y-61684472D01*
X150084927Y-61502844D01*
X149989440Y-61337456D01*
X149978479Y-61325282D01*
X149866075Y-61200445D01*
X149866074Y-61200444D01*
X149861653Y-61195534D01*
X149707152Y-61083282D01*
X149701124Y-61080598D01*
X149701122Y-61080597D01*
X149538719Y-61008291D01*
X149538718Y-61008291D01*
X149532688Y-61005606D01*
X149420954Y-60981856D01*
X149352344Y-60967272D01*
X149352339Y-60967272D01*
X149345887Y-60965900D01*
X149154913Y-60965900D01*
X149148461Y-60967272D01*
X149148456Y-60967272D01*
X149079846Y-60981856D01*
X148968112Y-61005606D01*
X148962082Y-61008291D01*
X148962081Y-61008291D01*
X148799678Y-61080597D01*
X148799676Y-61080598D01*
X148793648Y-61083282D01*
X148639147Y-61195534D01*
X148634726Y-61200444D01*
X148634725Y-61200445D01*
X148522322Y-61325282D01*
X148511360Y-61337456D01*
X148415873Y-61502844D01*
X148356858Y-61684472D01*
X148356168Y-61691033D01*
X148356168Y-61691035D01*
X148340454Y-61840548D01*
X148336896Y-61874400D01*
X139854054Y-61874400D01*
X139896722Y-61855403D01*
X139896724Y-61855402D01*
X139902752Y-61852718D01*
X139912748Y-61845456D01*
X139969320Y-61804353D01*
X140057253Y-61740466D01*
X140067332Y-61729272D01*
X140180621Y-61603452D01*
X140180622Y-61603451D01*
X140185040Y-61598544D01*
X140280527Y-61433156D01*
X140339542Y-61251528D01*
X140343984Y-61209272D01*
X140356150Y-61093513D01*
X140383163Y-61027857D01*
X140441385Y-60987227D01*
X140455263Y-60983437D01*
X140534631Y-60966567D01*
X140534636Y-60966566D01*
X140541088Y-60965194D01*
X140582564Y-60946728D01*
X140709522Y-60890203D01*
X140709524Y-60890202D01*
X140715552Y-60887518D01*
X140870053Y-60775266D01*
X140886680Y-60756800D01*
X150368896Y-60756800D01*
X150369586Y-60763365D01*
X150380310Y-60865394D01*
X150388858Y-60946728D01*
X150447873Y-61128356D01*
X150543360Y-61293744D01*
X150547778Y-61298651D01*
X150547779Y-61298652D01*
X150569339Y-61322597D01*
X150671147Y-61435666D01*
X150725660Y-61475272D01*
X150794607Y-61525365D01*
X150825648Y-61547918D01*
X150831676Y-61550602D01*
X150831678Y-61550603D01*
X150982813Y-61617892D01*
X151000112Y-61625594D01*
X151065050Y-61639397D01*
X151180456Y-61663928D01*
X151180461Y-61663928D01*
X151186913Y-61665300D01*
X151377887Y-61665300D01*
X151384339Y-61663928D01*
X151384344Y-61663928D01*
X151499750Y-61639397D01*
X151564688Y-61625594D01*
X151581987Y-61617892D01*
X151733122Y-61550603D01*
X151733124Y-61550602D01*
X151739152Y-61547918D01*
X151770194Y-61525365D01*
X151839140Y-61475272D01*
X151893653Y-61435666D01*
X151995461Y-61322597D01*
X152017021Y-61298652D01*
X152017022Y-61298651D01*
X152021440Y-61293744D01*
X152116927Y-61128356D01*
X152175942Y-60946728D01*
X152184491Y-60865394D01*
X152195214Y-60763365D01*
X152195904Y-60756800D01*
X152184680Y-60650006D01*
X152176632Y-60573435D01*
X152176632Y-60573433D01*
X152175942Y-60566872D01*
X152116927Y-60385244D01*
X152021440Y-60219856D01*
X151893653Y-60077934D01*
X151766008Y-59985194D01*
X151744494Y-59969563D01*
X151744493Y-59969562D01*
X151739152Y-59965682D01*
X151733124Y-59962998D01*
X151733122Y-59962997D01*
X151570719Y-59890691D01*
X151570718Y-59890691D01*
X151564688Y-59888006D01*
X151471288Y-59868153D01*
X151384344Y-59849672D01*
X151384339Y-59849672D01*
X151377887Y-59848300D01*
X151186913Y-59848300D01*
X151180461Y-59849672D01*
X151180456Y-59849672D01*
X151093512Y-59868153D01*
X151000112Y-59888006D01*
X150994082Y-59890691D01*
X150994081Y-59890691D01*
X150831678Y-59962997D01*
X150831676Y-59962998D01*
X150825648Y-59965682D01*
X150820307Y-59969562D01*
X150820306Y-59969563D01*
X150798792Y-59985194D01*
X150671147Y-60077934D01*
X150543360Y-60219856D01*
X150447873Y-60385244D01*
X150388858Y-60566872D01*
X150388168Y-60573433D01*
X150388168Y-60573435D01*
X150380120Y-60650006D01*
X150368896Y-60756800D01*
X140886680Y-60756800D01*
X140912898Y-60727682D01*
X140993421Y-60638252D01*
X140993422Y-60638251D01*
X140997840Y-60633344D01*
X141093327Y-60467956D01*
X141152342Y-60286328D01*
X141154008Y-60270482D01*
X141171614Y-60102965D01*
X141172304Y-60096400D01*
X141160616Y-59985194D01*
X141153032Y-59913035D01*
X141153032Y-59913033D01*
X141152342Y-59906472D01*
X141093327Y-59724844D01*
X140997840Y-59559456D01*
X140909366Y-59461195D01*
X140874475Y-59422445D01*
X140874474Y-59422444D01*
X140870053Y-59417534D01*
X140715552Y-59305282D01*
X140709524Y-59302598D01*
X140709522Y-59302597D01*
X140551449Y-59232219D01*
X140497353Y-59186239D01*
X140477388Y-59130284D01*
X140475980Y-59116888D01*
X140475980Y-59116887D01*
X140475290Y-59110324D01*
X140470610Y-59095919D01*
X140441514Y-59006372D01*
X140416275Y-58928696D01*
X140411367Y-58920194D01*
X140347429Y-58809452D01*
X140320788Y-58763308D01*
X140288375Y-58727309D01*
X140197423Y-58626297D01*
X140197422Y-58626296D01*
X140193001Y-58621386D01*
X140038500Y-58509134D01*
X140032472Y-58506450D01*
X140032470Y-58506449D01*
X139870067Y-58434143D01*
X139870066Y-58434143D01*
X139864036Y-58431458D01*
X139770636Y-58411605D01*
X139683692Y-58393124D01*
X139683687Y-58393124D01*
X139677235Y-58391752D01*
X139486261Y-58391752D01*
X139479809Y-58393124D01*
X139479804Y-58393124D01*
X139392860Y-58411605D01*
X139299460Y-58431458D01*
X139293430Y-58434143D01*
X139293429Y-58434143D01*
X139132044Y-58505996D01*
X139061677Y-58515430D01*
X138997380Y-58485323D01*
X138959566Y-58425235D01*
X138955485Y-58404060D01*
X138951979Y-58370702D01*
X138951979Y-58370700D01*
X138951289Y-58364139D01*
X138919921Y-58267600D01*
X142190096Y-58267600D01*
X142190786Y-58274165D01*
X142207957Y-58437534D01*
X142210058Y-58457528D01*
X142269073Y-58639156D01*
X142364560Y-58804544D01*
X142368978Y-58809451D01*
X142368979Y-58809452D01*
X142471194Y-58922973D01*
X142492347Y-58946466D01*
X142646848Y-59058718D01*
X142652876Y-59061402D01*
X142652878Y-59061403D01*
X142815281Y-59133709D01*
X142821312Y-59136394D01*
X142914712Y-59156247D01*
X143001656Y-59174728D01*
X143001661Y-59174728D01*
X143008113Y-59176100D01*
X143199087Y-59176100D01*
X143205539Y-59174728D01*
X143205544Y-59174728D01*
X143292488Y-59156247D01*
X143385888Y-59136394D01*
X143391919Y-59133709D01*
X143554322Y-59061403D01*
X143554324Y-59061402D01*
X143560352Y-59058718D01*
X143714853Y-58946466D01*
X143736006Y-58922973D01*
X143838221Y-58809452D01*
X143838222Y-58809451D01*
X143842640Y-58804544D01*
X143938127Y-58639156D01*
X143997142Y-58457528D01*
X143999244Y-58437534D01*
X144016414Y-58274165D01*
X144017104Y-58267600D01*
X144010829Y-58207900D01*
X143997832Y-58084235D01*
X143997832Y-58084233D01*
X143997142Y-58077672D01*
X143938127Y-57896044D01*
X143923852Y-57871318D01*
X143918010Y-57861200D01*
X159055696Y-57861200D01*
X159056386Y-57867765D01*
X159066040Y-57959614D01*
X159075658Y-58051128D01*
X159134673Y-58232756D01*
X159137976Y-58238478D01*
X159137977Y-58238479D01*
X159171886Y-58297210D01*
X159230160Y-58398144D01*
X159234578Y-58403051D01*
X159234579Y-58403052D01*
X159284953Y-58458998D01*
X159357947Y-58540066D01*
X159420033Y-58585174D01*
X159485682Y-58632871D01*
X159512448Y-58652318D01*
X159518476Y-58655002D01*
X159518478Y-58655003D01*
X159606822Y-58694336D01*
X159686912Y-58729994D01*
X159757124Y-58744918D01*
X159867256Y-58768328D01*
X159867261Y-58768328D01*
X159873713Y-58769700D01*
X160064687Y-58769700D01*
X160071139Y-58768328D01*
X160071144Y-58768328D01*
X160181276Y-58744918D01*
X160251488Y-58729994D01*
X160331578Y-58694336D01*
X160419922Y-58655003D01*
X160419924Y-58655002D01*
X160425952Y-58652318D01*
X160452719Y-58632871D01*
X160518367Y-58585174D01*
X160580453Y-58540066D01*
X160653447Y-58458998D01*
X160703821Y-58403052D01*
X160703822Y-58403051D01*
X160708240Y-58398144D01*
X160723682Y-58371399D01*
X160775063Y-58322406D01*
X160844776Y-58308969D01*
X160910687Y-58335356D01*
X160941918Y-58371398D01*
X160957360Y-58398144D01*
X160961778Y-58403051D01*
X160961779Y-58403052D01*
X161012153Y-58458998D01*
X161085147Y-58540066D01*
X161147233Y-58585174D01*
X161212882Y-58632871D01*
X161239648Y-58652318D01*
X161245676Y-58655002D01*
X161245678Y-58655003D01*
X161334022Y-58694336D01*
X161414112Y-58729994D01*
X161484324Y-58744918D01*
X161594456Y-58768328D01*
X161594461Y-58768328D01*
X161600913Y-58769700D01*
X161791887Y-58769700D01*
X161798339Y-58768328D01*
X161798344Y-58768328D01*
X161908476Y-58744918D01*
X161978688Y-58729994D01*
X162058778Y-58694336D01*
X162147122Y-58655003D01*
X162147124Y-58655002D01*
X162153152Y-58652318D01*
X162179919Y-58632871D01*
X162245567Y-58585174D01*
X162307653Y-58540066D01*
X162380647Y-58458998D01*
X162431021Y-58403052D01*
X162431022Y-58403051D01*
X162435440Y-58398144D01*
X162493714Y-58297210D01*
X162527623Y-58238479D01*
X162527624Y-58238478D01*
X162530927Y-58232756D01*
X162589942Y-58051128D01*
X162599561Y-57959614D01*
X162609214Y-57867765D01*
X162609904Y-57861200D01*
X162600285Y-57769684D01*
X162590632Y-57677835D01*
X162590632Y-57677833D01*
X162589942Y-57671272D01*
X162530927Y-57489644D01*
X162435440Y-57324256D01*
X162364099Y-57245023D01*
X162312075Y-57187245D01*
X162312074Y-57187244D01*
X162307653Y-57182334D01*
X162197488Y-57102294D01*
X162158494Y-57073963D01*
X162158493Y-57073962D01*
X162153152Y-57070082D01*
X162147124Y-57067398D01*
X162147122Y-57067397D01*
X161984719Y-56995091D01*
X161984718Y-56995091D01*
X161978688Y-56992406D01*
X161885287Y-56972553D01*
X161798344Y-56954072D01*
X161798339Y-56954072D01*
X161791887Y-56952700D01*
X161600913Y-56952700D01*
X161594461Y-56954072D01*
X161594456Y-56954072D01*
X161507513Y-56972553D01*
X161414112Y-56992406D01*
X161408082Y-56995091D01*
X161408081Y-56995091D01*
X161245678Y-57067397D01*
X161245676Y-57067398D01*
X161239648Y-57070082D01*
X161234307Y-57073962D01*
X161234306Y-57073963D01*
X161195312Y-57102294D01*
X161085147Y-57182334D01*
X161080726Y-57187244D01*
X161080725Y-57187245D01*
X161028702Y-57245023D01*
X160957360Y-57324256D01*
X160941918Y-57351001D01*
X160890537Y-57399994D01*
X160820824Y-57413431D01*
X160754913Y-57387044D01*
X160723682Y-57351002D01*
X160708240Y-57324256D01*
X160636899Y-57245023D01*
X160584875Y-57187245D01*
X160584874Y-57187244D01*
X160580453Y-57182334D01*
X160470288Y-57102294D01*
X160431294Y-57073963D01*
X160431293Y-57073962D01*
X160425952Y-57070082D01*
X160419924Y-57067398D01*
X160419922Y-57067397D01*
X160257519Y-56995091D01*
X160257518Y-56995091D01*
X160251488Y-56992406D01*
X160158087Y-56972553D01*
X160071144Y-56954072D01*
X160071139Y-56954072D01*
X160064687Y-56952700D01*
X159873713Y-56952700D01*
X159867261Y-56954072D01*
X159867256Y-56954072D01*
X159780313Y-56972553D01*
X159686912Y-56992406D01*
X159680882Y-56995091D01*
X159680881Y-56995091D01*
X159518478Y-57067397D01*
X159518476Y-57067398D01*
X159512448Y-57070082D01*
X159507107Y-57073962D01*
X159507106Y-57073963D01*
X159468112Y-57102294D01*
X159357947Y-57182334D01*
X159353526Y-57187244D01*
X159353525Y-57187245D01*
X159301502Y-57245023D01*
X159230160Y-57324256D01*
X159134673Y-57489644D01*
X159075658Y-57671272D01*
X159074968Y-57677833D01*
X159074968Y-57677835D01*
X159065315Y-57769684D01*
X159055696Y-57861200D01*
X143918010Y-57861200D01*
X143845941Y-57736374D01*
X143842640Y-57730656D01*
X143789171Y-57671272D01*
X143719275Y-57593645D01*
X143719274Y-57593644D01*
X143714853Y-57588734D01*
X143615757Y-57516736D01*
X143565694Y-57480363D01*
X143565693Y-57480362D01*
X143560352Y-57476482D01*
X143554324Y-57473798D01*
X143554322Y-57473797D01*
X143391919Y-57401491D01*
X143391918Y-57401491D01*
X143385888Y-57398806D01*
X143292487Y-57378953D01*
X143205544Y-57360472D01*
X143205539Y-57360472D01*
X143199087Y-57359100D01*
X143008113Y-57359100D01*
X143001661Y-57360472D01*
X143001656Y-57360472D01*
X142914713Y-57378953D01*
X142821312Y-57398806D01*
X142815282Y-57401491D01*
X142815281Y-57401491D01*
X142652878Y-57473797D01*
X142652876Y-57473798D01*
X142646848Y-57476482D01*
X142641507Y-57480362D01*
X142641506Y-57480363D01*
X142591443Y-57516736D01*
X142492347Y-57588734D01*
X142487926Y-57593644D01*
X142487925Y-57593645D01*
X142418030Y-57671272D01*
X142364560Y-57730656D01*
X142361259Y-57736374D01*
X142283349Y-57871318D01*
X142269073Y-57896044D01*
X142210058Y-58077672D01*
X142209368Y-58084233D01*
X142209368Y-58084235D01*
X142196371Y-58207900D01*
X142190096Y-58267600D01*
X138919921Y-58267600D01*
X138892274Y-58182511D01*
X138872237Y-58147805D01*
X138816420Y-58051128D01*
X138796787Y-58017123D01*
X138669000Y-57875201D01*
X138514499Y-57762949D01*
X138508471Y-57760265D01*
X138508469Y-57760264D01*
X138346066Y-57687958D01*
X138346065Y-57687958D01*
X138340035Y-57685273D01*
X138266807Y-57669708D01*
X138204334Y-57635980D01*
X138173171Y-57585398D01*
X138171431Y-57580043D01*
X138114456Y-57404693D01*
X138018969Y-57239305D01*
X137891182Y-57097383D01*
X137736681Y-56985131D01*
X137730653Y-56982447D01*
X137730651Y-56982446D01*
X137568248Y-56910140D01*
X137568247Y-56910140D01*
X137562217Y-56907455D01*
X137468816Y-56887602D01*
X137381873Y-56869121D01*
X137381868Y-56869121D01*
X137375416Y-56867749D01*
X137184442Y-56867749D01*
X137177990Y-56869121D01*
X137177985Y-56869121D01*
X137091041Y-56887602D01*
X136997641Y-56907455D01*
X136991611Y-56910140D01*
X136991610Y-56910140D01*
X136829207Y-56982446D01*
X136829205Y-56982447D01*
X136823177Y-56985131D01*
X136668676Y-57097383D01*
X136540889Y-57239305D01*
X136445402Y-57404693D01*
X136386387Y-57586321D01*
X136385697Y-57592882D01*
X136385697Y-57592884D01*
X136376131Y-57683901D01*
X136366425Y-57776249D01*
X103632000Y-57776249D01*
X103632000Y-55245000D01*
X124562496Y-55245000D01*
X124582458Y-55434928D01*
X124641473Y-55616556D01*
X124736960Y-55781944D01*
X124864747Y-55923866D01*
X125019248Y-56036118D01*
X125025276Y-56038802D01*
X125025278Y-56038803D01*
X125187681Y-56111109D01*
X125193712Y-56113794D01*
X125287112Y-56133647D01*
X125374056Y-56152128D01*
X125374061Y-56152128D01*
X125380513Y-56153500D01*
X125571487Y-56153500D01*
X125577939Y-56152128D01*
X125577944Y-56152128D01*
X125664888Y-56133647D01*
X125758288Y-56113794D01*
X125764319Y-56111109D01*
X125926722Y-56038803D01*
X125926724Y-56038802D01*
X125932752Y-56036118D01*
X126036940Y-55960421D01*
X126103806Y-55936563D01*
X126172958Y-55952643D01*
X126185056Y-55960418D01*
X126289248Y-56036118D01*
X126295276Y-56038802D01*
X126295278Y-56038803D01*
X126457681Y-56111109D01*
X126463712Y-56113794D01*
X126557112Y-56133647D01*
X126644056Y-56152128D01*
X126644061Y-56152128D01*
X126650513Y-56153500D01*
X126841487Y-56153500D01*
X126847939Y-56152128D01*
X126847944Y-56152128D01*
X126934888Y-56133647D01*
X127028288Y-56113794D01*
X127034319Y-56111109D01*
X127196722Y-56038803D01*
X127196724Y-56038802D01*
X127202752Y-56036118D01*
X127357253Y-55923866D01*
X127485040Y-55781944D01*
X127580527Y-55616556D01*
X127639542Y-55434928D01*
X127659504Y-55245000D01*
X127639542Y-55055072D01*
X127580527Y-54873444D01*
X127485040Y-54708056D01*
X127357253Y-54566134D01*
X127202752Y-54453882D01*
X127196724Y-54451198D01*
X127196722Y-54451197D01*
X127034319Y-54378891D01*
X127034318Y-54378891D01*
X127028288Y-54376206D01*
X126934887Y-54356353D01*
X126847944Y-54337872D01*
X126847939Y-54337872D01*
X126841487Y-54336500D01*
X126650513Y-54336500D01*
X126644061Y-54337872D01*
X126644056Y-54337872D01*
X126557112Y-54356353D01*
X126463712Y-54376206D01*
X126457682Y-54378891D01*
X126457681Y-54378891D01*
X126295278Y-54451197D01*
X126295276Y-54451198D01*
X126289248Y-54453882D01*
X126185060Y-54529579D01*
X126118194Y-54553437D01*
X126049042Y-54537357D01*
X126036944Y-54529582D01*
X125932752Y-54453882D01*
X125926724Y-54451198D01*
X125926722Y-54451197D01*
X125764319Y-54378891D01*
X125764318Y-54378891D01*
X125758288Y-54376206D01*
X125664887Y-54356353D01*
X125577944Y-54337872D01*
X125577939Y-54337872D01*
X125571487Y-54336500D01*
X125380513Y-54336500D01*
X125374061Y-54337872D01*
X125374056Y-54337872D01*
X125287112Y-54356353D01*
X125193712Y-54376206D01*
X125187682Y-54378891D01*
X125187681Y-54378891D01*
X125025278Y-54451197D01*
X125025276Y-54451198D01*
X125019248Y-54453882D01*
X124864747Y-54566134D01*
X124736960Y-54708056D01*
X124641473Y-54873444D01*
X124582458Y-55055072D01*
X124562496Y-55245000D01*
X103632000Y-55245000D01*
X103632000Y-53086000D01*
X124562496Y-53086000D01*
X124563186Y-53092565D01*
X124574126Y-53196649D01*
X124582458Y-53275928D01*
X124641473Y-53457556D01*
X124644776Y-53463278D01*
X124644777Y-53463279D01*
X124650716Y-53473565D01*
X124736960Y-53622944D01*
X124864747Y-53764866D01*
X125019248Y-53877118D01*
X125025276Y-53879802D01*
X125025278Y-53879803D01*
X125187681Y-53952109D01*
X125193712Y-53954794D01*
X125287112Y-53974647D01*
X125374056Y-53993128D01*
X125374061Y-53993128D01*
X125380513Y-53994500D01*
X125571487Y-53994500D01*
X125577939Y-53993128D01*
X125577944Y-53993128D01*
X125664887Y-53974647D01*
X125758288Y-53954794D01*
X125764319Y-53952109D01*
X125926722Y-53879803D01*
X125926724Y-53879802D01*
X125932752Y-53877118D01*
X126087253Y-53764866D01*
X126215040Y-53622944D01*
X126301284Y-53473565D01*
X126307223Y-53463279D01*
X126307224Y-53463278D01*
X126310527Y-53457556D01*
X126369542Y-53275928D01*
X126377875Y-53196649D01*
X126388814Y-53092565D01*
X126389504Y-53086000D01*
X126386325Y-53055752D01*
X126370232Y-52902635D01*
X126370232Y-52902633D01*
X126369542Y-52896072D01*
X126348724Y-52832000D01*
X128880496Y-52832000D01*
X128900458Y-53021928D01*
X128959473Y-53203556D01*
X128962776Y-53209278D01*
X128962777Y-53209279D01*
X128994161Y-53263637D01*
X129054960Y-53368944D01*
X129059378Y-53373851D01*
X129059379Y-53373852D01*
X129143250Y-53467000D01*
X129182747Y-53510866D01*
X129281843Y-53582864D01*
X129310482Y-53603671D01*
X129337248Y-53623118D01*
X129343276Y-53625802D01*
X129343278Y-53625803D01*
X129505681Y-53698109D01*
X129511712Y-53700794D01*
X129605113Y-53720647D01*
X129692056Y-53739128D01*
X129692061Y-53739128D01*
X129698513Y-53740500D01*
X129889487Y-53740500D01*
X129895939Y-53739128D01*
X129895944Y-53739128D01*
X129982888Y-53720647D01*
X130076288Y-53700794D01*
X130082319Y-53698109D01*
X130244722Y-53625803D01*
X130244724Y-53625802D01*
X130250752Y-53623118D01*
X130277519Y-53603671D01*
X130306157Y-53582864D01*
X130405253Y-53510866D01*
X130444750Y-53467000D01*
X134341496Y-53467000D01*
X134342186Y-53473565D01*
X134358187Y-53625803D01*
X134361458Y-53656928D01*
X134420473Y-53838556D01*
X134515960Y-54003944D01*
X134520378Y-54008851D01*
X134520379Y-54008852D01*
X134610162Y-54108566D01*
X134643747Y-54145866D01*
X134798248Y-54258118D01*
X134804276Y-54260802D01*
X134804278Y-54260803D01*
X134966681Y-54333109D01*
X134972712Y-54335794D01*
X135066112Y-54355647D01*
X135153056Y-54374128D01*
X135153061Y-54374128D01*
X135159513Y-54375500D01*
X135350487Y-54375500D01*
X135356939Y-54374128D01*
X135356944Y-54374128D01*
X135443888Y-54355647D01*
X135537288Y-54335794D01*
X135543319Y-54333109D01*
X135705722Y-54260803D01*
X135705724Y-54260802D01*
X135711752Y-54258118D01*
X135866253Y-54145866D01*
X135899838Y-54108566D01*
X135989621Y-54008852D01*
X135989622Y-54008851D01*
X135994040Y-54003944D01*
X136089527Y-53838556D01*
X136148542Y-53656928D01*
X136151814Y-53625803D01*
X136167814Y-53473565D01*
X136168504Y-53467000D01*
X136155420Y-53342509D01*
X136149232Y-53283635D01*
X136149232Y-53283633D01*
X136148542Y-53277072D01*
X136089527Y-53095444D01*
X136084075Y-53086000D01*
X135997341Y-52935774D01*
X135994040Y-52930056D01*
X135866253Y-52788134D01*
X135750216Y-52703828D01*
X135717094Y-52679763D01*
X135717093Y-52679762D01*
X135711752Y-52675882D01*
X135705724Y-52673198D01*
X135705722Y-52673197D01*
X135543319Y-52600891D01*
X135543318Y-52600891D01*
X135537288Y-52598206D01*
X135443887Y-52578353D01*
X135356944Y-52559872D01*
X135356939Y-52559872D01*
X135350487Y-52558500D01*
X135159513Y-52558500D01*
X135153061Y-52559872D01*
X135153056Y-52559872D01*
X135066113Y-52578353D01*
X134972712Y-52598206D01*
X134966682Y-52600891D01*
X134966681Y-52600891D01*
X134804278Y-52673197D01*
X134804276Y-52673198D01*
X134798248Y-52675882D01*
X134792907Y-52679762D01*
X134792906Y-52679763D01*
X134759784Y-52703828D01*
X134643747Y-52788134D01*
X134515960Y-52930056D01*
X134512659Y-52935774D01*
X134425926Y-53086000D01*
X134420473Y-53095444D01*
X134361458Y-53277072D01*
X134360768Y-53283633D01*
X134360768Y-53283635D01*
X134354580Y-53342509D01*
X134341496Y-53467000D01*
X130444750Y-53467000D01*
X130528621Y-53373852D01*
X130528622Y-53373851D01*
X130533040Y-53368944D01*
X130593839Y-53263637D01*
X130625223Y-53209279D01*
X130625224Y-53209278D01*
X130628527Y-53203556D01*
X130687542Y-53021928D01*
X130707504Y-52832000D01*
X130694547Y-52708721D01*
X130688232Y-52648635D01*
X130688232Y-52648633D01*
X130687542Y-52642072D01*
X130633711Y-52476400D01*
X136449696Y-52476400D01*
X136450386Y-52482965D01*
X136467109Y-52642072D01*
X136469658Y-52666328D01*
X136528673Y-52847956D01*
X136624160Y-53013344D01*
X136628578Y-53018251D01*
X136628579Y-53018252D01*
X136689580Y-53086000D01*
X136751947Y-53155266D01*
X136796802Y-53187855D01*
X136875407Y-53244965D01*
X136906448Y-53267518D01*
X136912476Y-53270202D01*
X136912478Y-53270203D01*
X136996705Y-53307703D01*
X137080912Y-53345194D01*
X137174312Y-53365047D01*
X137261256Y-53383528D01*
X137261261Y-53383528D01*
X137267713Y-53384900D01*
X137458687Y-53384900D01*
X137465139Y-53383528D01*
X137465144Y-53383528D01*
X137552087Y-53365047D01*
X137645488Y-53345194D01*
X137729695Y-53307703D01*
X137813922Y-53270203D01*
X137813924Y-53270202D01*
X137819952Y-53267518D01*
X137850994Y-53244965D01*
X137929598Y-53187855D01*
X137974453Y-53155266D01*
X138036820Y-53086000D01*
X138097821Y-53018252D01*
X138097822Y-53018251D01*
X138102240Y-53013344D01*
X138197727Y-52847956D01*
X138256742Y-52666328D01*
X138259292Y-52642072D01*
X138272763Y-52513900D01*
X154686896Y-52513900D01*
X154687586Y-52520465D01*
X154703639Y-52673197D01*
X154706858Y-52703828D01*
X154765873Y-52885456D01*
X154861360Y-53050844D01*
X154865778Y-53055751D01*
X154865779Y-53055752D01*
X154896365Y-53089721D01*
X154989147Y-53192766D01*
X155143648Y-53305018D01*
X155149676Y-53307702D01*
X155149678Y-53307703D01*
X155298252Y-53373852D01*
X155318112Y-53382694D01*
X155411512Y-53402547D01*
X155498456Y-53421028D01*
X155498461Y-53421028D01*
X155504913Y-53422400D01*
X155578588Y-53422400D01*
X155646709Y-53442402D01*
X155693202Y-53496058D01*
X155698420Y-53509462D01*
X155731073Y-53609956D01*
X155734376Y-53615678D01*
X155734377Y-53615679D01*
X155738672Y-53623118D01*
X155826560Y-53775344D01*
X155830978Y-53780251D01*
X155830979Y-53780252D01*
X155920615Y-53879803D01*
X155954347Y-53917266D01*
X156002304Y-53952109D01*
X156073649Y-54003944D01*
X156108848Y-54029518D01*
X156114876Y-54032202D01*
X156114878Y-54032203D01*
X156277281Y-54104509D01*
X156283312Y-54107194D01*
X156376712Y-54127047D01*
X156463656Y-54145528D01*
X156463661Y-54145528D01*
X156470113Y-54146900D01*
X156661087Y-54146900D01*
X156667539Y-54145528D01*
X156667544Y-54145528D01*
X156754488Y-54127047D01*
X156847888Y-54107194D01*
X156853919Y-54104509D01*
X157016322Y-54032203D01*
X157016324Y-54032202D01*
X157022352Y-54029518D01*
X157057552Y-54003944D01*
X157128896Y-53952109D01*
X157176853Y-53917266D01*
X157210585Y-53879803D01*
X157300221Y-53780252D01*
X157300222Y-53780251D01*
X157304640Y-53775344D01*
X157392528Y-53623118D01*
X157396823Y-53615679D01*
X157396824Y-53615678D01*
X157400127Y-53609956D01*
X157459142Y-53428328D01*
X157463707Y-53384900D01*
X157478414Y-53244965D01*
X157479104Y-53238400D01*
X157473792Y-53187855D01*
X157459832Y-53055035D01*
X157459832Y-53055033D01*
X157459142Y-53048472D01*
X157400127Y-52866844D01*
X157376220Y-52825435D01*
X157315767Y-52720729D01*
X157304640Y-52701456D01*
X157278664Y-52672606D01*
X157181275Y-52564445D01*
X157181274Y-52564444D01*
X157176853Y-52559534D01*
X157062429Y-52476400D01*
X157027694Y-52451163D01*
X157027693Y-52451162D01*
X157022352Y-52447282D01*
X157016324Y-52444598D01*
X157016322Y-52444597D01*
X156853919Y-52372291D01*
X156853918Y-52372291D01*
X156847888Y-52369606D01*
X156754487Y-52349753D01*
X156667544Y-52331272D01*
X156667539Y-52331272D01*
X156661087Y-52329900D01*
X156587412Y-52329900D01*
X156519291Y-52309898D01*
X156472798Y-52256242D01*
X156467579Y-52242836D01*
X156459251Y-52217206D01*
X156434927Y-52142344D01*
X156339440Y-51976956D01*
X156327060Y-51963206D01*
X156216075Y-51839945D01*
X156216074Y-51839944D01*
X156211653Y-51835034D01*
X156057152Y-51722782D01*
X156051124Y-51720098D01*
X156051122Y-51720097D01*
X155888719Y-51647791D01*
X155888718Y-51647791D01*
X155882688Y-51645106D01*
X155787951Y-51624969D01*
X155702344Y-51606772D01*
X155702339Y-51606772D01*
X155695887Y-51605400D01*
X155504913Y-51605400D01*
X155498461Y-51606772D01*
X155498456Y-51606772D01*
X155412849Y-51624969D01*
X155318112Y-51645106D01*
X155312082Y-51647791D01*
X155312081Y-51647791D01*
X155149678Y-51720097D01*
X155149676Y-51720098D01*
X155143648Y-51722782D01*
X154989147Y-51835034D01*
X154984726Y-51839944D01*
X154984725Y-51839945D01*
X154873741Y-51963206D01*
X154861360Y-51976956D01*
X154765873Y-52142344D01*
X154706858Y-52323972D01*
X154706168Y-52330533D01*
X154706168Y-52330535D01*
X154698117Y-52407134D01*
X154686896Y-52513900D01*
X138272763Y-52513900D01*
X138276014Y-52482965D01*
X138276704Y-52476400D01*
X138265480Y-52369606D01*
X138257432Y-52293035D01*
X138257432Y-52293033D01*
X138256742Y-52286472D01*
X138197727Y-52104844D01*
X138102240Y-51939456D01*
X137985768Y-51810100D01*
X137978875Y-51802445D01*
X137978874Y-51802444D01*
X137974453Y-51797534D01*
X137867871Y-51720097D01*
X137825294Y-51689163D01*
X137825293Y-51689162D01*
X137819952Y-51685282D01*
X137813924Y-51682598D01*
X137813922Y-51682597D01*
X137651519Y-51610291D01*
X137651518Y-51610291D01*
X137645488Y-51607606D01*
X137536073Y-51584349D01*
X137465144Y-51569272D01*
X137465139Y-51569272D01*
X137458687Y-51567900D01*
X137267713Y-51567900D01*
X137261261Y-51569272D01*
X137261256Y-51569272D01*
X137190327Y-51584349D01*
X137080912Y-51607606D01*
X137074882Y-51610291D01*
X137074881Y-51610291D01*
X136912478Y-51682597D01*
X136912476Y-51682598D01*
X136906448Y-51685282D01*
X136901107Y-51689162D01*
X136901106Y-51689163D01*
X136858529Y-51720097D01*
X136751947Y-51797534D01*
X136747526Y-51802444D01*
X136747525Y-51802445D01*
X136740633Y-51810100D01*
X136624160Y-51939456D01*
X136528673Y-52104844D01*
X136469658Y-52286472D01*
X136468968Y-52293033D01*
X136468968Y-52293035D01*
X136460920Y-52369606D01*
X136449696Y-52476400D01*
X130633711Y-52476400D01*
X130628527Y-52460444D01*
X130533040Y-52295056D01*
X130405253Y-52153134D01*
X130250752Y-52040882D01*
X130244724Y-52038198D01*
X130244722Y-52038197D01*
X130082319Y-51965891D01*
X130082318Y-51965891D01*
X130076288Y-51963206D01*
X129964554Y-51939456D01*
X129895944Y-51924872D01*
X129895939Y-51924872D01*
X129889487Y-51923500D01*
X129698513Y-51923500D01*
X129692061Y-51924872D01*
X129692056Y-51924872D01*
X129623446Y-51939456D01*
X129511712Y-51963206D01*
X129505682Y-51965891D01*
X129505681Y-51965891D01*
X129343278Y-52038197D01*
X129343276Y-52038198D01*
X129337248Y-52040882D01*
X129182747Y-52153134D01*
X129054960Y-52295056D01*
X128959473Y-52460444D01*
X128900458Y-52642072D01*
X128899768Y-52648633D01*
X128899768Y-52648635D01*
X128893453Y-52708721D01*
X128880496Y-52832000D01*
X126348724Y-52832000D01*
X126310527Y-52714444D01*
X126303029Y-52701456D01*
X126223925Y-52564445D01*
X126215040Y-52549056D01*
X126183386Y-52513900D01*
X126091675Y-52412045D01*
X126091674Y-52412044D01*
X126087253Y-52407134D01*
X125932752Y-52294882D01*
X125926724Y-52292198D01*
X125926722Y-52292197D01*
X125764319Y-52219891D01*
X125764318Y-52219891D01*
X125758288Y-52217206D01*
X125664887Y-52197353D01*
X125577944Y-52178872D01*
X125577939Y-52178872D01*
X125571487Y-52177500D01*
X125380513Y-52177500D01*
X125374061Y-52178872D01*
X125374056Y-52178872D01*
X125287113Y-52197353D01*
X125193712Y-52217206D01*
X125187682Y-52219891D01*
X125187681Y-52219891D01*
X125025278Y-52292197D01*
X125025276Y-52292198D01*
X125019248Y-52294882D01*
X124864747Y-52407134D01*
X124860326Y-52412044D01*
X124860325Y-52412045D01*
X124768615Y-52513900D01*
X124736960Y-52549056D01*
X124728075Y-52564445D01*
X124648972Y-52701456D01*
X124641473Y-52714444D01*
X124582458Y-52896072D01*
X124581768Y-52902633D01*
X124581768Y-52902635D01*
X124565675Y-53055752D01*
X124562496Y-53086000D01*
X103632000Y-53086000D01*
X103632000Y-50546000D01*
X125832496Y-50546000D01*
X125833186Y-50552565D01*
X125850863Y-50720749D01*
X125852458Y-50735928D01*
X125911473Y-50917556D01*
X125914776Y-50923278D01*
X125914777Y-50923279D01*
X125927392Y-50945128D01*
X126006960Y-51082944D01*
X126134747Y-51224866D01*
X126289248Y-51337118D01*
X126295276Y-51339802D01*
X126295278Y-51339803D01*
X126457681Y-51412109D01*
X126463712Y-51414794D01*
X126557113Y-51434647D01*
X126644056Y-51453128D01*
X126644061Y-51453128D01*
X126650513Y-51454500D01*
X126841487Y-51454500D01*
X126847939Y-51453128D01*
X126847944Y-51453128D01*
X126934888Y-51434647D01*
X127028288Y-51414794D01*
X127034319Y-51412109D01*
X127196722Y-51339803D01*
X127196724Y-51339802D01*
X127202752Y-51337118D01*
X127357253Y-51224866D01*
X127485040Y-51082944D01*
X127564608Y-50945128D01*
X127577223Y-50923279D01*
X127577224Y-50923278D01*
X127580527Y-50917556D01*
X127585711Y-50901600D01*
X151495296Y-50901600D01*
X151495986Y-50908165D01*
X151498551Y-50932565D01*
X151515258Y-51091528D01*
X151574273Y-51273156D01*
X151577576Y-51278878D01*
X151577577Y-51278879D01*
X151584605Y-51291052D01*
X151669760Y-51438544D01*
X151674178Y-51443451D01*
X151674179Y-51443452D01*
X151787468Y-51569272D01*
X151797547Y-51580466D01*
X151845504Y-51615309D01*
X151938118Y-51682597D01*
X151952048Y-51692718D01*
X151958076Y-51695402D01*
X151958078Y-51695403D01*
X152019573Y-51722782D01*
X152126512Y-51770394D01*
X152219912Y-51790247D01*
X152306856Y-51808728D01*
X152306861Y-51808728D01*
X152313313Y-51810100D01*
X152504287Y-51810100D01*
X152510739Y-51808728D01*
X152510744Y-51808728D01*
X152597688Y-51790247D01*
X152691088Y-51770394D01*
X152798027Y-51722782D01*
X152859522Y-51695403D01*
X152859524Y-51695402D01*
X152865552Y-51692718D01*
X152884740Y-51678777D01*
X152951608Y-51654919D01*
X153020759Y-51671000D01*
X153032860Y-51678777D01*
X153052048Y-51692718D01*
X153058076Y-51695402D01*
X153058078Y-51695403D01*
X153119573Y-51722782D01*
X153226512Y-51770394D01*
X153319912Y-51790247D01*
X153406856Y-51808728D01*
X153406861Y-51808728D01*
X153413313Y-51810100D01*
X153604287Y-51810100D01*
X153610739Y-51808728D01*
X153610744Y-51808728D01*
X153697688Y-51790247D01*
X153791088Y-51770394D01*
X153898027Y-51722782D01*
X153959522Y-51695403D01*
X153959524Y-51695402D01*
X153965552Y-51692718D01*
X153979483Y-51682597D01*
X154072096Y-51615309D01*
X154120053Y-51580466D01*
X154130132Y-51569272D01*
X154243421Y-51443452D01*
X154243422Y-51443451D01*
X154247840Y-51438544D01*
X154332995Y-51291052D01*
X154340023Y-51278879D01*
X154340024Y-51278878D01*
X154343327Y-51273156D01*
X154402342Y-51091528D01*
X154419050Y-50932565D01*
X154421614Y-50908165D01*
X154422304Y-50901600D01*
X154405551Y-50742206D01*
X154403032Y-50718235D01*
X154403032Y-50718233D01*
X154402342Y-50711672D01*
X154343327Y-50530044D01*
X154247840Y-50364656D01*
X154131368Y-50235300D01*
X154124475Y-50227645D01*
X154124474Y-50227644D01*
X154120053Y-50222734D01*
X153984740Y-50124423D01*
X153970894Y-50114363D01*
X153970893Y-50114362D01*
X153965552Y-50110482D01*
X153959524Y-50107798D01*
X153959522Y-50107797D01*
X153802754Y-50038000D01*
X164796096Y-50038000D01*
X164796786Y-50044565D01*
X164812660Y-50195594D01*
X164816058Y-50227928D01*
X164875073Y-50409556D01*
X164970560Y-50574944D01*
X164974978Y-50579851D01*
X164974979Y-50579852D01*
X165093670Y-50711672D01*
X165098347Y-50716866D01*
X165252848Y-50829118D01*
X165258876Y-50831802D01*
X165258878Y-50831803D01*
X165415646Y-50901600D01*
X165427312Y-50906794D01*
X165520713Y-50926647D01*
X165607656Y-50945128D01*
X165607661Y-50945128D01*
X165614113Y-50946500D01*
X165805087Y-50946500D01*
X165811539Y-50945128D01*
X165811544Y-50945128D01*
X165898487Y-50926647D01*
X165991888Y-50906794D01*
X166003554Y-50901600D01*
X166160322Y-50831803D01*
X166160324Y-50831802D01*
X166166352Y-50829118D01*
X166276349Y-50749200D01*
X176820496Y-50749200D01*
X176821186Y-50755765D01*
X176837060Y-50906794D01*
X176840458Y-50939128D01*
X176899473Y-51120756D01*
X176994960Y-51286144D01*
X177122747Y-51428066D01*
X177277248Y-51540318D01*
X177283276Y-51543002D01*
X177283278Y-51543003D01*
X177445681Y-51615309D01*
X177451712Y-51617994D01*
X177545113Y-51637847D01*
X177632056Y-51656328D01*
X177632061Y-51656328D01*
X177638513Y-51657700D01*
X177829487Y-51657700D01*
X177835939Y-51656328D01*
X177835944Y-51656328D01*
X177922887Y-51637847D01*
X178016288Y-51617994D01*
X178022319Y-51615309D01*
X178184722Y-51543003D01*
X178184724Y-51543002D01*
X178190752Y-51540318D01*
X178345253Y-51428066D01*
X178473040Y-51286144D01*
X178568527Y-51120756D01*
X178627542Y-50939128D01*
X178630941Y-50906794D01*
X178646814Y-50755765D01*
X178647504Y-50749200D01*
X178644514Y-50720749D01*
X178628232Y-50565835D01*
X178628232Y-50565833D01*
X178627542Y-50559272D01*
X178568527Y-50377644D01*
X178561029Y-50364656D01*
X178478299Y-50221365D01*
X178473040Y-50212256D01*
X178458038Y-50195594D01*
X178349675Y-50075245D01*
X178349674Y-50075244D01*
X178345253Y-50070334D01*
X178190752Y-49958082D01*
X178184724Y-49955398D01*
X178184722Y-49955397D01*
X178022319Y-49883091D01*
X178022318Y-49883091D01*
X178016288Y-49880406D01*
X177895046Y-49854635D01*
X177835944Y-49842072D01*
X177835939Y-49842072D01*
X177829487Y-49840700D01*
X177638513Y-49840700D01*
X177632061Y-49842072D01*
X177632056Y-49842072D01*
X177572954Y-49854635D01*
X177451712Y-49880406D01*
X177445682Y-49883091D01*
X177445681Y-49883091D01*
X177283278Y-49955397D01*
X177283276Y-49955398D01*
X177277248Y-49958082D01*
X177122747Y-50070334D01*
X177118326Y-50075244D01*
X177118325Y-50075245D01*
X177009963Y-50195594D01*
X176994960Y-50212256D01*
X176989701Y-50221365D01*
X176906972Y-50364656D01*
X176899473Y-50377644D01*
X176840458Y-50559272D01*
X176839768Y-50565833D01*
X176839768Y-50565835D01*
X176823486Y-50720749D01*
X176820496Y-50749200D01*
X166276349Y-50749200D01*
X166320853Y-50716866D01*
X166325530Y-50711672D01*
X166444221Y-50579852D01*
X166444222Y-50579851D01*
X166448640Y-50574944D01*
X166544127Y-50409556D01*
X166603142Y-50227928D01*
X166606541Y-50195594D01*
X166622414Y-50044565D01*
X166623104Y-50038000D01*
X166606823Y-49883091D01*
X166603832Y-49854635D01*
X166603832Y-49854633D01*
X166603142Y-49848072D01*
X166544127Y-49666444D01*
X166448640Y-49501056D01*
X166320853Y-49359134D01*
X166276349Y-49326800D01*
X178562896Y-49326800D01*
X178582858Y-49516728D01*
X178641873Y-49698356D01*
X178737360Y-49863744D01*
X178741778Y-49868651D01*
X178741779Y-49868652D01*
X178855068Y-49994472D01*
X178865147Y-50005666D01*
X178909651Y-50038000D01*
X179005718Y-50107797D01*
X179019648Y-50117918D01*
X179025676Y-50120602D01*
X179025678Y-50120603D01*
X179188081Y-50192909D01*
X179194112Y-50195594D01*
X179287512Y-50215447D01*
X179374456Y-50233928D01*
X179374461Y-50233928D01*
X179380913Y-50235300D01*
X179571887Y-50235300D01*
X179578339Y-50233928D01*
X179578344Y-50233928D01*
X179665288Y-50215447D01*
X179758688Y-50195594D01*
X179764719Y-50192909D01*
X179927122Y-50120603D01*
X179927124Y-50120602D01*
X179933152Y-50117918D01*
X179947083Y-50107797D01*
X180043149Y-50038000D01*
X180087653Y-50005666D01*
X180097732Y-49994472D01*
X180211021Y-49868652D01*
X180211022Y-49868651D01*
X180215440Y-49863744D01*
X180310927Y-49698356D01*
X180369942Y-49516728D01*
X180389904Y-49326800D01*
X180373623Y-49171891D01*
X180370632Y-49143435D01*
X180370632Y-49143433D01*
X180369942Y-49136872D01*
X180310927Y-48955244D01*
X180215440Y-48789856D01*
X180087653Y-48647934D01*
X179933152Y-48535682D01*
X179927124Y-48532998D01*
X179927122Y-48532997D01*
X179764719Y-48460691D01*
X179764718Y-48460691D01*
X179758688Y-48458006D01*
X179665288Y-48438153D01*
X179578344Y-48419672D01*
X179578339Y-48419672D01*
X179571887Y-48418300D01*
X179380913Y-48418300D01*
X179374461Y-48419672D01*
X179374456Y-48419672D01*
X179287512Y-48438153D01*
X179194112Y-48458006D01*
X179188082Y-48460691D01*
X179188081Y-48460691D01*
X179025678Y-48532997D01*
X179025676Y-48532998D01*
X179019648Y-48535682D01*
X178865147Y-48647934D01*
X178737360Y-48789856D01*
X178641873Y-48955244D01*
X178582858Y-49136872D01*
X178582168Y-49143433D01*
X178582168Y-49143435D01*
X178579177Y-49171891D01*
X178562896Y-49326800D01*
X166276349Y-49326800D01*
X166166352Y-49246882D01*
X166160324Y-49244198D01*
X166160322Y-49244197D01*
X165997919Y-49171891D01*
X165997918Y-49171891D01*
X165991888Y-49169206D01*
X165870646Y-49143435D01*
X165811544Y-49130872D01*
X165811539Y-49130872D01*
X165805087Y-49129500D01*
X165614113Y-49129500D01*
X165607661Y-49130872D01*
X165607656Y-49130872D01*
X165548554Y-49143435D01*
X165427312Y-49169206D01*
X165421282Y-49171891D01*
X165421281Y-49171891D01*
X165258878Y-49244197D01*
X165258876Y-49244198D01*
X165252848Y-49246882D01*
X165098347Y-49359134D01*
X164970560Y-49501056D01*
X164875073Y-49666444D01*
X164816058Y-49848072D01*
X164815368Y-49854633D01*
X164815368Y-49854635D01*
X164812377Y-49883091D01*
X164796096Y-50038000D01*
X153802754Y-50038000D01*
X153797119Y-50035491D01*
X153797118Y-50035491D01*
X153791088Y-50032806D01*
X153679354Y-50009056D01*
X153610744Y-49994472D01*
X153610739Y-49994472D01*
X153604287Y-49993100D01*
X153413313Y-49993100D01*
X153406861Y-49994472D01*
X153406856Y-49994472D01*
X153338246Y-50009056D01*
X153226512Y-50032806D01*
X153220482Y-50035491D01*
X153220481Y-50035491D01*
X153058078Y-50107797D01*
X153058076Y-50107798D01*
X153052048Y-50110482D01*
X153038118Y-50120603D01*
X153032860Y-50124423D01*
X152965992Y-50148281D01*
X152896841Y-50132200D01*
X152884740Y-50124423D01*
X152879482Y-50120603D01*
X152865552Y-50110482D01*
X152859524Y-50107798D01*
X152859522Y-50107797D01*
X152697119Y-50035491D01*
X152697118Y-50035491D01*
X152691088Y-50032806D01*
X152579354Y-50009056D01*
X152510744Y-49994472D01*
X152510739Y-49994472D01*
X152504287Y-49993100D01*
X152313313Y-49993100D01*
X152306861Y-49994472D01*
X152306856Y-49994472D01*
X152238246Y-50009056D01*
X152126512Y-50032806D01*
X152120482Y-50035491D01*
X152120481Y-50035491D01*
X151958078Y-50107797D01*
X151958076Y-50107798D01*
X151952048Y-50110482D01*
X151946707Y-50114362D01*
X151946706Y-50114363D01*
X151932860Y-50124423D01*
X151797547Y-50222734D01*
X151793126Y-50227644D01*
X151793125Y-50227645D01*
X151786233Y-50235300D01*
X151669760Y-50364656D01*
X151574273Y-50530044D01*
X151515258Y-50711672D01*
X151514568Y-50718233D01*
X151514568Y-50718235D01*
X151512049Y-50742206D01*
X151495296Y-50901600D01*
X127585711Y-50901600D01*
X127639542Y-50735928D01*
X127641138Y-50720749D01*
X127658814Y-50552565D01*
X127659504Y-50546000D01*
X127639542Y-50356072D01*
X127580527Y-50174444D01*
X127485040Y-50009056D01*
X127357253Y-49867134D01*
X127202752Y-49754882D01*
X127196724Y-49752198D01*
X127196722Y-49752197D01*
X127034319Y-49679891D01*
X127034318Y-49679891D01*
X127028288Y-49677206D01*
X126934888Y-49657353D01*
X126847944Y-49638872D01*
X126847939Y-49638872D01*
X126841487Y-49637500D01*
X126650513Y-49637500D01*
X126644061Y-49638872D01*
X126644056Y-49638872D01*
X126557113Y-49657353D01*
X126463712Y-49677206D01*
X126457682Y-49679891D01*
X126457681Y-49679891D01*
X126295278Y-49752197D01*
X126295276Y-49752198D01*
X126289248Y-49754882D01*
X126134747Y-49867134D01*
X126006960Y-50009056D01*
X125911473Y-50174444D01*
X125852458Y-50356072D01*
X125832496Y-50546000D01*
X103632000Y-50546000D01*
X103632000Y-46786800D01*
X121819296Y-46786800D01*
X121839258Y-46976728D01*
X121898273Y-47158356D01*
X121993760Y-47323744D01*
X122121547Y-47465666D01*
X122276048Y-47577918D01*
X122282076Y-47580602D01*
X122282078Y-47580603D01*
X122409036Y-47637128D01*
X122450512Y-47655594D01*
X122543912Y-47675447D01*
X122630856Y-47693928D01*
X122630861Y-47693928D01*
X122637313Y-47695300D01*
X122828287Y-47695300D01*
X122834739Y-47693928D01*
X122834744Y-47693928D01*
X122921688Y-47675447D01*
X123015088Y-47655594D01*
X123056564Y-47637128D01*
X123183522Y-47580603D01*
X123183524Y-47580602D01*
X123189552Y-47577918D01*
X123344053Y-47465666D01*
X123452161Y-47345600D01*
X132334896Y-47345600D01*
X132354858Y-47535528D01*
X132413873Y-47717156D01*
X132509360Y-47882544D01*
X132637147Y-48024466D01*
X132791648Y-48136718D01*
X132797676Y-48139402D01*
X132797678Y-48139403D01*
X132960081Y-48211709D01*
X132966112Y-48214394D01*
X133059513Y-48234247D01*
X133146456Y-48252728D01*
X133146461Y-48252728D01*
X133152913Y-48254100D01*
X133343887Y-48254100D01*
X133350339Y-48252728D01*
X133350344Y-48252728D01*
X133437287Y-48234247D01*
X133530688Y-48214394D01*
X133536719Y-48211709D01*
X133699122Y-48139403D01*
X133699124Y-48139402D01*
X133705152Y-48136718D01*
X133859653Y-48024466D01*
X133987440Y-47882544D01*
X134082927Y-47717156D01*
X134141942Y-47535528D01*
X134161904Y-47345600D01*
X134153310Y-47263835D01*
X134142632Y-47162235D01*
X134142632Y-47162233D01*
X134141942Y-47155672D01*
X134082927Y-46974044D01*
X134077475Y-46964600D01*
X133990741Y-46814374D01*
X133987440Y-46808656D01*
X133869983Y-46678206D01*
X133864075Y-46671645D01*
X133864074Y-46671644D01*
X133859653Y-46666734D01*
X133705152Y-46554482D01*
X133699124Y-46551798D01*
X133699122Y-46551797D01*
X133536719Y-46479491D01*
X133536718Y-46479491D01*
X133530688Y-46476806D01*
X133437288Y-46456953D01*
X133350344Y-46438472D01*
X133350339Y-46438472D01*
X133343887Y-46437100D01*
X133152913Y-46437100D01*
X133146461Y-46438472D01*
X133146456Y-46438472D01*
X133059512Y-46456953D01*
X132966112Y-46476806D01*
X132960082Y-46479491D01*
X132960081Y-46479491D01*
X132797678Y-46551797D01*
X132797676Y-46551798D01*
X132791648Y-46554482D01*
X132637147Y-46666734D01*
X132632726Y-46671644D01*
X132632725Y-46671645D01*
X132626818Y-46678206D01*
X132509360Y-46808656D01*
X132506059Y-46814374D01*
X132419326Y-46964600D01*
X132413873Y-46974044D01*
X132354858Y-47155672D01*
X132354168Y-47162233D01*
X132354168Y-47162235D01*
X132343490Y-47263835D01*
X132334896Y-47345600D01*
X123452161Y-47345600D01*
X123471840Y-47323744D01*
X123567327Y-47158356D01*
X123626342Y-46976728D01*
X123646304Y-46786800D01*
X123640345Y-46730100D01*
X123627032Y-46603435D01*
X123627032Y-46603433D01*
X123626342Y-46596872D01*
X123567327Y-46415244D01*
X123471840Y-46249856D01*
X123344053Y-46107934D01*
X123244957Y-46035936D01*
X123194894Y-45999563D01*
X123194893Y-45999562D01*
X123189552Y-45995682D01*
X123183524Y-45992998D01*
X123183522Y-45992997D01*
X123021119Y-45920691D01*
X123021118Y-45920691D01*
X123015088Y-45918006D01*
X122921687Y-45898153D01*
X122834744Y-45879672D01*
X122834739Y-45879672D01*
X122828287Y-45878300D01*
X122637313Y-45878300D01*
X122630861Y-45879672D01*
X122630856Y-45879672D01*
X122543912Y-45898153D01*
X122450512Y-45918006D01*
X122444482Y-45920691D01*
X122444481Y-45920691D01*
X122282078Y-45992997D01*
X122282076Y-45992998D01*
X122276048Y-45995682D01*
X122270707Y-45999562D01*
X122270706Y-45999563D01*
X122220643Y-46035936D01*
X122121547Y-46107934D01*
X121993760Y-46249856D01*
X121898273Y-46415244D01*
X121839258Y-46596872D01*
X121838568Y-46603433D01*
X121838568Y-46603435D01*
X121825255Y-46730100D01*
X121819296Y-46786800D01*
X103632000Y-46786800D01*
X103632000Y-45481200D01*
X124867296Y-45481200D01*
X124887258Y-45671128D01*
X124946273Y-45852756D01*
X125041760Y-46018144D01*
X125169547Y-46160066D01*
X125268643Y-46232064D01*
X125286377Y-46244948D01*
X125324048Y-46272318D01*
X125330076Y-46275002D01*
X125330078Y-46275003D01*
X125368416Y-46292072D01*
X125498512Y-46349994D01*
X125561827Y-46363452D01*
X125678856Y-46388328D01*
X125678861Y-46388328D01*
X125685313Y-46389700D01*
X125876287Y-46389700D01*
X125882739Y-46388328D01*
X125882744Y-46388328D01*
X125999773Y-46363452D01*
X126063088Y-46349994D01*
X126193184Y-46292072D01*
X126231522Y-46275003D01*
X126231524Y-46275002D01*
X126237552Y-46272318D01*
X126275224Y-46244948D01*
X126292957Y-46232064D01*
X126392053Y-46160066D01*
X126519840Y-46018144D01*
X126615327Y-45852756D01*
X126674342Y-45671128D01*
X126694304Y-45481200D01*
X126678063Y-45326673D01*
X126675032Y-45297835D01*
X126675032Y-45297833D01*
X126674342Y-45291272D01*
X126615327Y-45109644D01*
X126519840Y-44944256D01*
X126493023Y-44914472D01*
X126396475Y-44807245D01*
X126396474Y-44807244D01*
X126392053Y-44802334D01*
X126276407Y-44718312D01*
X126242894Y-44693963D01*
X126242893Y-44693962D01*
X126237552Y-44690082D01*
X126231524Y-44687398D01*
X126231522Y-44687397D01*
X126069119Y-44615091D01*
X126069118Y-44615091D01*
X126063088Y-44612406D01*
X125969687Y-44592553D01*
X125882744Y-44574072D01*
X125882739Y-44574072D01*
X125876287Y-44572700D01*
X125685313Y-44572700D01*
X125678861Y-44574072D01*
X125678856Y-44574072D01*
X125591912Y-44592553D01*
X125498512Y-44612406D01*
X125492482Y-44615091D01*
X125492481Y-44615091D01*
X125330078Y-44687397D01*
X125330076Y-44687398D01*
X125324048Y-44690082D01*
X125318707Y-44693962D01*
X125318706Y-44693963D01*
X125285193Y-44718312D01*
X125169547Y-44802334D01*
X125165126Y-44807244D01*
X125165125Y-44807245D01*
X125068578Y-44914472D01*
X125041760Y-44944256D01*
X124946273Y-45109644D01*
X124887258Y-45291272D01*
X124886568Y-45297833D01*
X124886568Y-45297835D01*
X124883537Y-45326673D01*
X124867296Y-45481200D01*
X103632000Y-45481200D01*
X103632000Y-41097200D01*
X143714096Y-41097200D01*
X143714786Y-41103765D01*
X143732393Y-41271282D01*
X143734058Y-41287128D01*
X143793073Y-41468756D01*
X143888560Y-41634144D01*
X143892978Y-41639051D01*
X143892979Y-41639052D01*
X143974103Y-41729149D01*
X144016347Y-41776066D01*
X144170848Y-41888318D01*
X144176876Y-41891002D01*
X144176878Y-41891003D01*
X144320394Y-41954900D01*
X144345312Y-41965994D01*
X144438712Y-41985847D01*
X144525656Y-42004328D01*
X144525661Y-42004328D01*
X144532113Y-42005700D01*
X144723087Y-42005700D01*
X144729539Y-42004328D01*
X144729544Y-42004328D01*
X144816488Y-41985847D01*
X144909888Y-41965994D01*
X144934806Y-41954900D01*
X145078322Y-41891003D01*
X145078324Y-41891002D01*
X145084352Y-41888318D01*
X145238853Y-41776066D01*
X145281097Y-41729149D01*
X145362221Y-41639052D01*
X145362222Y-41639051D01*
X145366640Y-41634144D01*
X145462127Y-41468756D01*
X145521142Y-41287128D01*
X145522808Y-41271282D01*
X145540414Y-41103765D01*
X145541104Y-41097200D01*
X145521142Y-40907272D01*
X145462127Y-40725644D01*
X145366640Y-40560256D01*
X145316481Y-40504548D01*
X145243275Y-40423245D01*
X145243274Y-40423244D01*
X145238853Y-40418334D01*
X145194349Y-40386000D01*
X149545796Y-40386000D01*
X149546486Y-40392565D01*
X149559373Y-40515174D01*
X149565758Y-40575928D01*
X149624773Y-40757556D01*
X149720260Y-40922944D01*
X149724678Y-40927851D01*
X149724679Y-40927852D01*
X149778965Y-40988143D01*
X149848047Y-41064866D01*
X149935663Y-41128523D01*
X149992311Y-41169680D01*
X150002548Y-41177118D01*
X150008576Y-41179802D01*
X150008578Y-41179803D01*
X150149637Y-41242606D01*
X150177012Y-41254794D01*
X150241950Y-41268597D01*
X150357356Y-41293128D01*
X150357361Y-41293128D01*
X150363813Y-41294500D01*
X150554787Y-41294500D01*
X150561239Y-41293128D01*
X150561244Y-41293128D01*
X150676650Y-41268597D01*
X150741588Y-41254794D01*
X150768963Y-41242606D01*
X150910022Y-41179803D01*
X150910024Y-41179802D01*
X150916052Y-41177118D01*
X150926290Y-41169680D01*
X150982937Y-41128523D01*
X151070553Y-41064866D01*
X151139635Y-40988143D01*
X151193921Y-40927852D01*
X151193922Y-40927851D01*
X151198340Y-40922944D01*
X151231223Y-40865989D01*
X151282605Y-40816996D01*
X151340342Y-40802989D01*
X153758915Y-40802989D01*
X153827036Y-40822991D01*
X153873529Y-40876647D01*
X153883633Y-40946921D01*
X153878220Y-40967274D01*
X153878165Y-40967374D01*
X153872830Y-40988152D01*
X153866431Y-41006842D01*
X153857909Y-41026535D01*
X153856669Y-41034366D01*
X153850683Y-41072159D01*
X153848276Y-41083782D01*
X153836789Y-41128523D01*
X153836789Y-41149970D01*
X153835238Y-41169680D01*
X153831883Y-41190863D01*
X153832629Y-41198754D01*
X153836230Y-41236849D01*
X153836789Y-41248707D01*
X153836789Y-43960161D01*
X153816787Y-44028282D01*
X153799884Y-44049256D01*
X152972945Y-44876195D01*
X152910633Y-44910221D01*
X152883850Y-44913100D01*
X152863313Y-44913100D01*
X152856861Y-44914472D01*
X152856856Y-44914472D01*
X152769913Y-44932953D01*
X152676512Y-44952806D01*
X152670482Y-44955491D01*
X152670481Y-44955491D01*
X152508078Y-45027797D01*
X152508076Y-45027798D01*
X152502048Y-45030482D01*
X152347547Y-45142734D01*
X152343126Y-45147644D01*
X152343125Y-45147645D01*
X152233389Y-45269520D01*
X152219760Y-45284656D01*
X152124273Y-45450044D01*
X152065258Y-45631672D01*
X152045296Y-45821600D01*
X152045986Y-45828165D01*
X152063593Y-45995682D01*
X152065258Y-46011528D01*
X152124273Y-46193156D01*
X152219760Y-46358544D01*
X152224178Y-46363451D01*
X152224179Y-46363452D01*
X152247813Y-46389700D01*
X152347547Y-46500466D01*
X152502048Y-46612718D01*
X152508076Y-46615402D01*
X152508078Y-46615403D01*
X152635036Y-46671928D01*
X152676512Y-46690394D01*
X152769913Y-46710247D01*
X152856856Y-46728728D01*
X152856861Y-46728728D01*
X152863313Y-46730100D01*
X153054287Y-46730100D01*
X153060739Y-46728728D01*
X153060744Y-46728728D01*
X153147687Y-46710247D01*
X153241088Y-46690394D01*
X153282564Y-46671928D01*
X153409522Y-46615403D01*
X153409524Y-46615402D01*
X153415552Y-46612718D01*
X153564963Y-46504164D01*
X153631831Y-46480306D01*
X153639024Y-46480100D01*
X154471645Y-46480100D01*
X154539766Y-46500102D01*
X154586259Y-46553758D01*
X154596955Y-46592929D01*
X154605258Y-46671928D01*
X154607298Y-46678205D01*
X154607298Y-46678207D01*
X154611258Y-46690394D01*
X154664273Y-46853556D01*
X154667576Y-46859278D01*
X154667577Y-46859279D01*
X154692011Y-46901600D01*
X154708749Y-46970596D01*
X154692011Y-47027600D01*
X154664273Y-47075644D01*
X154605258Y-47257272D01*
X154604568Y-47263833D01*
X154604568Y-47263835D01*
X154597756Y-47328652D01*
X154585296Y-47447200D01*
X154585986Y-47453765D01*
X154594580Y-47535528D01*
X154605258Y-47637128D01*
X154664273Y-47818756D01*
X154759760Y-47984144D01*
X154887547Y-48126066D01*
X154905904Y-48139403D01*
X155009120Y-48214394D01*
X155042048Y-48238318D01*
X155048076Y-48241002D01*
X155048078Y-48241003D01*
X155077495Y-48254100D01*
X155216512Y-48315994D01*
X155309912Y-48335847D01*
X155396856Y-48354328D01*
X155396861Y-48354328D01*
X155403313Y-48355700D01*
X155594287Y-48355700D01*
X155600739Y-48354328D01*
X155600744Y-48354328D01*
X155687687Y-48335847D01*
X155781088Y-48315994D01*
X155920105Y-48254100D01*
X155949522Y-48241003D01*
X155949524Y-48241002D01*
X155955552Y-48238318D01*
X155988481Y-48214394D01*
X156091696Y-48139403D01*
X156110053Y-48126066D01*
X156237840Y-47984144D01*
X156333327Y-47818756D01*
X156392342Y-47637128D01*
X156403021Y-47535528D01*
X156411614Y-47453765D01*
X156412304Y-47447200D01*
X156399844Y-47328652D01*
X156393032Y-47263835D01*
X156393032Y-47263833D01*
X156392342Y-47257272D01*
X156333327Y-47075644D01*
X156305589Y-47027600D01*
X156288851Y-46958604D01*
X156305589Y-46901600D01*
X156330023Y-46859279D01*
X156330024Y-46859278D01*
X156333327Y-46853556D01*
X156355018Y-46786800D01*
X178613696Y-46786800D01*
X178633658Y-46976728D01*
X178692673Y-47158356D01*
X178788160Y-47323744D01*
X178915947Y-47465666D01*
X179070448Y-47577918D01*
X179076476Y-47580602D01*
X179076478Y-47580603D01*
X179203436Y-47637128D01*
X179244912Y-47655594D01*
X179338312Y-47675447D01*
X179425256Y-47693928D01*
X179425261Y-47693928D01*
X179431713Y-47695300D01*
X179622687Y-47695300D01*
X179629139Y-47693928D01*
X179629144Y-47693928D01*
X179716088Y-47675447D01*
X179809488Y-47655594D01*
X179850964Y-47637128D01*
X179977922Y-47580603D01*
X179977924Y-47580602D01*
X179983952Y-47577918D01*
X180138453Y-47465666D01*
X180266240Y-47323744D01*
X180361727Y-47158356D01*
X180420742Y-46976728D01*
X180440704Y-46786800D01*
X180434745Y-46730100D01*
X180421432Y-46603435D01*
X180421432Y-46603433D01*
X180420742Y-46596872D01*
X180361727Y-46415244D01*
X180266240Y-46249856D01*
X180138453Y-46107934D01*
X180039357Y-46035936D01*
X179989294Y-45999563D01*
X179989293Y-45999562D01*
X179983952Y-45995682D01*
X179977924Y-45992998D01*
X179977922Y-45992997D01*
X179815519Y-45920691D01*
X179815518Y-45920691D01*
X179809488Y-45918006D01*
X179716087Y-45898153D01*
X179629144Y-45879672D01*
X179629139Y-45879672D01*
X179622687Y-45878300D01*
X179431713Y-45878300D01*
X179425261Y-45879672D01*
X179425256Y-45879672D01*
X179338312Y-45898153D01*
X179244912Y-45918006D01*
X179238882Y-45920691D01*
X179238881Y-45920691D01*
X179076478Y-45992997D01*
X179076476Y-45992998D01*
X179070448Y-45995682D01*
X179065107Y-45999562D01*
X179065106Y-45999563D01*
X179015043Y-46035936D01*
X178915947Y-46107934D01*
X178788160Y-46249856D01*
X178692673Y-46415244D01*
X178633658Y-46596872D01*
X178632968Y-46603433D01*
X178632968Y-46603435D01*
X178619655Y-46730100D01*
X178613696Y-46786800D01*
X156355018Y-46786800D01*
X156392342Y-46671928D01*
X156400891Y-46590594D01*
X156411614Y-46488565D01*
X156412304Y-46482000D01*
X156399844Y-46363452D01*
X156393032Y-46298635D01*
X156393032Y-46298633D01*
X156392342Y-46292072D01*
X156333327Y-46110444D01*
X156237840Y-45945056D01*
X156110053Y-45803134D01*
X155955552Y-45690882D01*
X155949524Y-45688198D01*
X155949522Y-45688197D01*
X155787119Y-45615891D01*
X155787118Y-45615891D01*
X155781088Y-45613206D01*
X155687687Y-45593353D01*
X155600744Y-45574872D01*
X155600739Y-45574872D01*
X155594287Y-45573500D01*
X155573750Y-45573500D01*
X155505629Y-45553498D01*
X155484655Y-45536595D01*
X155362055Y-45413995D01*
X155354065Y-45405215D01*
X155354063Y-45405213D01*
X155349816Y-45398520D01*
X155298142Y-45349995D01*
X155295301Y-45347241D01*
X155274733Y-45326673D01*
X155271226Y-45323953D01*
X155262204Y-45316247D01*
X155234313Y-45290056D01*
X155228533Y-45284628D01*
X155221581Y-45280806D01*
X155209742Y-45274297D01*
X155193218Y-45263443D01*
X155182532Y-45255155D01*
X155176268Y-45250296D01*
X155168996Y-45247149D01*
X155168994Y-45247148D01*
X155133865Y-45231946D01*
X155123205Y-45226724D01*
X155089684Y-45208295D01*
X155089682Y-45208294D01*
X155082737Y-45204476D01*
X155061959Y-45199141D01*
X155043269Y-45192742D01*
X155023576Y-45184220D01*
X154977952Y-45176994D01*
X154966329Y-45174587D01*
X154938328Y-45167398D01*
X154921588Y-45163100D01*
X154900141Y-45163100D01*
X154880431Y-45161549D01*
X154867078Y-45159434D01*
X154867077Y-45159434D01*
X154859248Y-45158194D01*
X154852401Y-45158841D01*
X154785386Y-45136856D01*
X154740600Y-45081767D01*
X154732708Y-45011210D01*
X154767706Y-44943954D01*
X154902894Y-44808766D01*
X154911674Y-44800776D01*
X154911676Y-44800774D01*
X154918369Y-44796527D01*
X154966894Y-44744853D01*
X154969648Y-44742012D01*
X154990216Y-44721444D01*
X154992936Y-44717937D01*
X155000642Y-44708915D01*
X155018327Y-44690082D01*
X155032261Y-44675244D01*
X155036083Y-44668292D01*
X155042592Y-44656453D01*
X155053446Y-44639929D01*
X155061736Y-44629241D01*
X155061737Y-44629239D01*
X155066593Y-44622979D01*
X155069741Y-44615705D01*
X155084943Y-44580576D01*
X155090165Y-44569916D01*
X155108594Y-44536395D01*
X155108595Y-44536393D01*
X155112413Y-44529448D01*
X155117748Y-44508670D01*
X155124147Y-44489980D01*
X155132669Y-44470287D01*
X155139895Y-44424663D01*
X155142302Y-44413040D01*
X155151817Y-44375979D01*
X155153789Y-44368299D01*
X155153789Y-44346852D01*
X155155340Y-44327142D01*
X155157455Y-44313788D01*
X155158695Y-44305959D01*
X155154348Y-44259970D01*
X155153789Y-44248115D01*
X155153789Y-43637200D01*
X159563696Y-43637200D01*
X159564386Y-43643765D01*
X159575110Y-43745794D01*
X159583658Y-43827128D01*
X159642673Y-44008756D01*
X159738160Y-44174144D01*
X159742578Y-44179051D01*
X159742579Y-44179052D01*
X159856847Y-44305959D01*
X159865947Y-44316066D01*
X160020448Y-44428318D01*
X160026476Y-44431002D01*
X160026478Y-44431003D01*
X160179369Y-44499074D01*
X160194912Y-44505994D01*
X160269137Y-44521771D01*
X160375256Y-44544328D01*
X160375261Y-44544328D01*
X160381713Y-44545700D01*
X160572687Y-44545700D01*
X160579139Y-44544328D01*
X160579144Y-44544328D01*
X160685263Y-44521771D01*
X160759488Y-44505994D01*
X160775031Y-44499074D01*
X160927922Y-44431003D01*
X160927924Y-44431002D01*
X160933952Y-44428318D01*
X161088453Y-44316066D01*
X161097553Y-44305959D01*
X161211821Y-44179052D01*
X161211822Y-44179051D01*
X161216240Y-44174144D01*
X161311727Y-44008756D01*
X161370742Y-43827128D01*
X161379291Y-43745794D01*
X161390014Y-43643765D01*
X161390704Y-43637200D01*
X161370742Y-43447272D01*
X161311727Y-43265644D01*
X161216240Y-43100256D01*
X161099768Y-42970900D01*
X161092875Y-42963245D01*
X161092874Y-42963244D01*
X161088453Y-42958334D01*
X160933952Y-42846082D01*
X160927924Y-42843398D01*
X160927922Y-42843397D01*
X160765519Y-42771091D01*
X160765518Y-42771091D01*
X160759488Y-42768406D01*
X160650073Y-42745149D01*
X160579144Y-42730072D01*
X160579139Y-42730072D01*
X160572687Y-42728700D01*
X160381713Y-42728700D01*
X160375261Y-42730072D01*
X160375256Y-42730072D01*
X160304327Y-42745149D01*
X160194912Y-42768406D01*
X160188882Y-42771091D01*
X160188881Y-42771091D01*
X160026478Y-42843397D01*
X160026476Y-42843398D01*
X160020448Y-42846082D01*
X159865947Y-42958334D01*
X159861526Y-42963244D01*
X159861525Y-42963245D01*
X159854633Y-42970900D01*
X159738160Y-43100256D01*
X159642673Y-43265644D01*
X159583658Y-43447272D01*
X159563696Y-43637200D01*
X155153789Y-43637200D01*
X155153789Y-41536661D01*
X155173791Y-41468540D01*
X155190694Y-41447566D01*
X155306855Y-41331405D01*
X155369167Y-41297379D01*
X155395950Y-41294500D01*
X155416487Y-41294500D01*
X155422939Y-41293128D01*
X155422944Y-41293128D01*
X155538350Y-41268597D01*
X155603288Y-41254794D01*
X155630663Y-41242606D01*
X155771722Y-41179803D01*
X155771724Y-41179802D01*
X155777752Y-41177118D01*
X155787990Y-41169680D01*
X155844637Y-41128523D01*
X155932253Y-41064866D01*
X155948880Y-41046400D01*
X166980496Y-41046400D01*
X166981186Y-41052965D01*
X166995824Y-41192234D01*
X167000458Y-41236328D01*
X167059473Y-41417956D01*
X167154960Y-41583344D01*
X167159378Y-41588251D01*
X167159379Y-41588252D01*
X167246600Y-41685121D01*
X167282747Y-41725266D01*
X167437248Y-41837518D01*
X167443276Y-41840202D01*
X167443278Y-41840203D01*
X167605681Y-41912509D01*
X167611712Y-41915194D01*
X167705112Y-41935047D01*
X167792056Y-41953528D01*
X167792061Y-41953528D01*
X167798513Y-41954900D01*
X167820946Y-41954900D01*
X167889067Y-41974902D01*
X167935560Y-42028558D01*
X167946256Y-42067729D01*
X167965658Y-42252328D01*
X168024673Y-42433956D01*
X168120160Y-42599344D01*
X168124578Y-42604251D01*
X168124579Y-42604252D01*
X168237868Y-42730072D01*
X168247947Y-42741266D01*
X168316556Y-42791114D01*
X168339641Y-42807886D01*
X168382995Y-42864109D01*
X168389070Y-42934845D01*
X168355938Y-42997636D01*
X168294118Y-43032548D01*
X168252410Y-43035132D01*
X168249947Y-43034873D01*
X168243487Y-43033500D01*
X168052513Y-43033500D01*
X168046061Y-43034872D01*
X168046056Y-43034872D01*
X167959112Y-43053353D01*
X167865712Y-43073206D01*
X167859682Y-43075891D01*
X167859681Y-43075891D01*
X167697278Y-43148197D01*
X167697276Y-43148198D01*
X167691248Y-43150882D01*
X167536747Y-43263134D01*
X167408960Y-43405056D01*
X167313473Y-43570444D01*
X167254458Y-43752072D01*
X167253768Y-43758633D01*
X167253768Y-43758635D01*
X167235186Y-43935435D01*
X167234496Y-43942000D01*
X167254458Y-44131928D01*
X167313473Y-44313556D01*
X167408960Y-44478944D01*
X167413378Y-44483851D01*
X167413379Y-44483852D01*
X167531547Y-44615091D01*
X167536747Y-44620866D01*
X167562985Y-44639929D01*
X167657936Y-44708915D01*
X167691248Y-44733118D01*
X167697276Y-44735802D01*
X167697278Y-44735803D01*
X167859681Y-44808109D01*
X167865712Y-44810794D01*
X167959112Y-44830647D01*
X168046056Y-44849128D01*
X168046061Y-44849128D01*
X168052513Y-44850500D01*
X168243487Y-44850500D01*
X168249939Y-44849128D01*
X168249944Y-44849128D01*
X168336887Y-44830647D01*
X168430288Y-44810794D01*
X168438260Y-44807245D01*
X168578392Y-44744854D01*
X168604752Y-44733118D01*
X168675118Y-44723684D01*
X168707247Y-44733118D01*
X168707248Y-44733118D01*
X168733608Y-44744854D01*
X168873741Y-44807245D01*
X168881712Y-44810794D01*
X168975112Y-44830647D01*
X169062056Y-44849128D01*
X169062061Y-44849128D01*
X169068513Y-44850500D01*
X169259487Y-44850500D01*
X169265939Y-44849128D01*
X169265944Y-44849128D01*
X169352887Y-44830647D01*
X169446288Y-44810794D01*
X169454260Y-44807245D01*
X169594392Y-44744854D01*
X169620752Y-44733118D01*
X169691118Y-44723684D01*
X169723247Y-44733118D01*
X169723248Y-44733118D01*
X169749608Y-44744854D01*
X169889741Y-44807245D01*
X169897712Y-44810794D01*
X169991112Y-44830647D01*
X170078056Y-44849128D01*
X170078061Y-44849128D01*
X170084513Y-44850500D01*
X170275487Y-44850500D01*
X170281939Y-44849128D01*
X170281944Y-44849128D01*
X170368887Y-44830647D01*
X170462288Y-44810794D01*
X170470260Y-44807245D01*
X170610392Y-44744854D01*
X170636752Y-44733118D01*
X170707118Y-44723684D01*
X170739247Y-44733118D01*
X170739248Y-44733118D01*
X170765608Y-44744854D01*
X170905741Y-44807245D01*
X170913712Y-44810794D01*
X171007112Y-44830647D01*
X171094056Y-44849128D01*
X171094061Y-44849128D01*
X171100513Y-44850500D01*
X171291487Y-44850500D01*
X171297939Y-44849128D01*
X171297944Y-44849128D01*
X171384887Y-44830647D01*
X171478288Y-44810794D01*
X171486260Y-44807245D01*
X171626392Y-44744854D01*
X171652752Y-44733118D01*
X171723118Y-44723684D01*
X171755247Y-44733118D01*
X171755248Y-44733118D01*
X171781608Y-44744854D01*
X171921741Y-44807245D01*
X171929712Y-44810794D01*
X172023112Y-44830647D01*
X172110056Y-44849128D01*
X172110061Y-44849128D01*
X172116513Y-44850500D01*
X172307487Y-44850500D01*
X172313939Y-44849128D01*
X172313944Y-44849128D01*
X172400887Y-44830647D01*
X172494288Y-44810794D01*
X172502260Y-44807245D01*
X172642392Y-44744854D01*
X172668752Y-44733118D01*
X172739118Y-44723684D01*
X172771247Y-44733118D01*
X172771248Y-44733118D01*
X172797608Y-44744854D01*
X172937741Y-44807245D01*
X172945712Y-44810794D01*
X173039112Y-44830647D01*
X173126056Y-44849128D01*
X173126061Y-44849128D01*
X173132513Y-44850500D01*
X173323487Y-44850500D01*
X173329939Y-44849128D01*
X173329944Y-44849128D01*
X173416887Y-44830647D01*
X173510288Y-44810794D01*
X173516319Y-44808109D01*
X173678722Y-44735803D01*
X173678724Y-44735802D01*
X173684752Y-44733118D01*
X173718065Y-44708915D01*
X173813015Y-44639929D01*
X173839253Y-44620866D01*
X173844453Y-44615091D01*
X173962621Y-44483852D01*
X173962622Y-44483851D01*
X173967040Y-44478944D01*
X174062527Y-44313556D01*
X174121542Y-44131928D01*
X174141504Y-43942000D01*
X174140814Y-43935435D01*
X174122232Y-43758635D01*
X174122232Y-43758633D01*
X174121542Y-43752072D01*
X174062527Y-43570444D01*
X173967040Y-43405056D01*
X173839253Y-43263134D01*
X173684752Y-43150882D01*
X173678724Y-43148198D01*
X173678722Y-43148197D01*
X173516319Y-43075891D01*
X173516318Y-43075891D01*
X173510288Y-43073206D01*
X173416887Y-43053353D01*
X173329944Y-43034872D01*
X173329939Y-43034872D01*
X173323487Y-43033500D01*
X173132513Y-43033500D01*
X173126061Y-43034872D01*
X173126056Y-43034872D01*
X173039112Y-43053353D01*
X172945712Y-43073206D01*
X172771248Y-43150882D01*
X172700882Y-43160316D01*
X172668753Y-43150882D01*
X172668752Y-43150882D01*
X172494288Y-43073206D01*
X172400887Y-43053353D01*
X172313944Y-43034872D01*
X172313939Y-43034872D01*
X172307487Y-43033500D01*
X172116513Y-43033500D01*
X172110061Y-43034872D01*
X172110056Y-43034872D01*
X172023112Y-43053353D01*
X171929712Y-43073206D01*
X171755248Y-43150882D01*
X171684882Y-43160316D01*
X171652753Y-43150882D01*
X171652752Y-43150882D01*
X171478288Y-43073206D01*
X171384887Y-43053353D01*
X171297944Y-43034872D01*
X171297939Y-43034872D01*
X171291487Y-43033500D01*
X171100513Y-43033500D01*
X171094061Y-43034872D01*
X171094056Y-43034872D01*
X171007112Y-43053353D01*
X170913712Y-43073206D01*
X170739248Y-43150882D01*
X170668882Y-43160316D01*
X170636753Y-43150882D01*
X170636752Y-43150882D01*
X170462288Y-43073206D01*
X170368887Y-43053353D01*
X170281944Y-43034872D01*
X170281939Y-43034872D01*
X170275487Y-43033500D01*
X170084513Y-43033500D01*
X170078061Y-43034872D01*
X170078056Y-43034872D01*
X169991112Y-43053353D01*
X169897712Y-43073206D01*
X169723248Y-43150882D01*
X169652882Y-43160316D01*
X169620753Y-43150882D01*
X169620752Y-43150882D01*
X169446288Y-43073206D01*
X169439833Y-43071834D01*
X169439824Y-43071831D01*
X169388333Y-43060886D01*
X169325860Y-43027158D01*
X169291539Y-42965008D01*
X169296267Y-42894169D01*
X169340469Y-42835705D01*
X169470453Y-42741266D01*
X169480532Y-42730072D01*
X169593821Y-42604252D01*
X169593822Y-42604251D01*
X169598240Y-42599344D01*
X169693727Y-42433956D01*
X169752742Y-42252328D01*
X169772704Y-42062400D01*
X169766745Y-42005700D01*
X169753432Y-41879035D01*
X169753432Y-41879033D01*
X169752742Y-41872472D01*
X169693727Y-41690844D01*
X169598240Y-41525456D01*
X169470453Y-41383534D01*
X169315952Y-41271282D01*
X169309924Y-41268598D01*
X169309922Y-41268597D01*
X169147519Y-41196291D01*
X169147518Y-41196291D01*
X169141488Y-41193606D01*
X169028926Y-41169680D01*
X168961144Y-41155272D01*
X168961139Y-41155272D01*
X168954687Y-41153900D01*
X168932254Y-41153900D01*
X168864133Y-41133898D01*
X168817640Y-41080242D01*
X168806944Y-41041071D01*
X168788232Y-40863034D01*
X168788231Y-40863031D01*
X168787542Y-40856472D01*
X168728527Y-40674844D01*
X168633040Y-40509456D01*
X168550994Y-40418334D01*
X168509675Y-40372445D01*
X168509674Y-40372444D01*
X168505253Y-40367534D01*
X168350752Y-40255282D01*
X168344724Y-40252598D01*
X168344722Y-40252597D01*
X168182319Y-40180291D01*
X168182318Y-40180291D01*
X168176288Y-40177606D01*
X168082887Y-40157753D01*
X167995944Y-40139272D01*
X167995939Y-40139272D01*
X167989487Y-40137900D01*
X167798513Y-40137900D01*
X167792061Y-40139272D01*
X167792056Y-40139272D01*
X167705113Y-40157753D01*
X167611712Y-40177606D01*
X167605682Y-40180291D01*
X167605681Y-40180291D01*
X167443278Y-40252597D01*
X167443276Y-40252598D01*
X167437248Y-40255282D01*
X167282747Y-40367534D01*
X167278326Y-40372444D01*
X167278325Y-40372445D01*
X167237007Y-40418334D01*
X167154960Y-40509456D01*
X167059473Y-40674844D01*
X167000458Y-40856472D01*
X166999768Y-40863033D01*
X166999768Y-40863035D01*
X166988802Y-40967374D01*
X166980496Y-41046400D01*
X155948880Y-41046400D01*
X156001335Y-40988143D01*
X156055621Y-40927852D01*
X156055622Y-40927851D01*
X156060040Y-40922944D01*
X156155527Y-40757556D01*
X156214542Y-40575928D01*
X156220928Y-40515174D01*
X156233814Y-40392565D01*
X156234504Y-40386000D01*
X156218223Y-40231091D01*
X156215232Y-40202635D01*
X156215232Y-40202633D01*
X156214542Y-40196072D01*
X156155527Y-40014444D01*
X156060040Y-39849056D01*
X155932253Y-39707134D01*
X155777752Y-39594882D01*
X155771724Y-39592198D01*
X155771722Y-39592197D01*
X155609319Y-39519891D01*
X155609318Y-39519891D01*
X155603288Y-39517206D01*
X155509888Y-39497353D01*
X155422944Y-39478872D01*
X155422939Y-39478872D01*
X155416487Y-39477500D01*
X155225513Y-39477500D01*
X155194928Y-39484001D01*
X155162677Y-39485353D01*
X155162677Y-39485989D01*
X155141230Y-39485989D01*
X155121520Y-39484438D01*
X155108166Y-39482323D01*
X155100337Y-39481083D01*
X155054348Y-39485430D01*
X155042493Y-39485989D01*
X150782867Y-39485989D01*
X150771011Y-39485430D01*
X150771008Y-39485430D01*
X150763274Y-39483701D01*
X150692442Y-39485927D01*
X150688484Y-39485989D01*
X150659379Y-39485989D01*
X150654979Y-39486545D01*
X150643140Y-39487477D01*
X150637497Y-39487654D01*
X150622292Y-39488131D01*
X150592146Y-39485440D01*
X150561248Y-39478873D01*
X150561245Y-39478873D01*
X150554787Y-39477500D01*
X150363813Y-39477500D01*
X150357361Y-39478872D01*
X150357356Y-39478872D01*
X150270412Y-39497353D01*
X150177012Y-39517206D01*
X150170982Y-39519891D01*
X150170981Y-39519891D01*
X150008578Y-39592197D01*
X150008576Y-39592198D01*
X150002548Y-39594882D01*
X149848047Y-39707134D01*
X149720260Y-39849056D01*
X149624773Y-40014444D01*
X149565758Y-40196072D01*
X149565068Y-40202633D01*
X149565068Y-40202635D01*
X149562077Y-40231091D01*
X149545796Y-40386000D01*
X145194349Y-40386000D01*
X145084352Y-40306082D01*
X145078324Y-40303398D01*
X145078322Y-40303397D01*
X144915919Y-40231091D01*
X144915918Y-40231091D01*
X144909888Y-40228406D01*
X144788646Y-40202635D01*
X144729544Y-40190072D01*
X144729539Y-40190072D01*
X144723087Y-40188700D01*
X144532113Y-40188700D01*
X144525661Y-40190072D01*
X144525656Y-40190072D01*
X144466554Y-40202635D01*
X144345312Y-40228406D01*
X144339282Y-40231091D01*
X144339281Y-40231091D01*
X144176878Y-40303397D01*
X144176876Y-40303398D01*
X144170848Y-40306082D01*
X144016347Y-40418334D01*
X144011926Y-40423244D01*
X144011925Y-40423245D01*
X143938720Y-40504548D01*
X143888560Y-40560256D01*
X143793073Y-40725644D01*
X143734058Y-40907272D01*
X143714096Y-41097200D01*
X103632000Y-41097200D01*
X103632000Y-37863400D01*
X149488334Y-37863400D01*
X149508113Y-38013636D01*
X149566102Y-38153633D01*
X149658349Y-38273851D01*
X149778567Y-38366098D01*
X149918564Y-38424087D01*
X150031080Y-38438900D01*
X150106520Y-38438900D01*
X150219036Y-38424087D01*
X150359033Y-38366098D01*
X150479251Y-38273851D01*
X150571498Y-38153633D01*
X150629487Y-38013636D01*
X150648286Y-37870843D01*
X150677008Y-37805916D01*
X150736274Y-37766824D01*
X150807265Y-37765979D01*
X150867444Y-37803649D01*
X150893041Y-37848353D01*
X150930473Y-37963556D01*
X150933776Y-37969278D01*
X150933777Y-37969279D01*
X150954659Y-38005448D01*
X151025960Y-38128944D01*
X151153747Y-38270866D01*
X151308248Y-38383118D01*
X151314276Y-38385802D01*
X151314278Y-38385803D01*
X151433537Y-38438900D01*
X151482712Y-38460794D01*
X151576113Y-38480647D01*
X151663056Y-38499128D01*
X151663061Y-38499128D01*
X151669513Y-38500500D01*
X151860487Y-38500500D01*
X151866939Y-38499128D01*
X151866944Y-38499128D01*
X151953887Y-38480647D01*
X152047288Y-38460794D01*
X152096463Y-38438900D01*
X152215722Y-38385803D01*
X152215724Y-38385802D01*
X152221752Y-38383118D01*
X152376253Y-38270866D01*
X152504040Y-38128944D01*
X152575341Y-38005448D01*
X152596223Y-37969279D01*
X152596224Y-37969278D01*
X152599527Y-37963556D01*
X152626071Y-37881862D01*
X152666143Y-37823258D01*
X152731540Y-37795621D01*
X152801496Y-37807728D01*
X152819964Y-37818864D01*
X152906676Y-37881864D01*
X152923707Y-37894238D01*
X152929735Y-37896922D01*
X152929737Y-37896923D01*
X153092140Y-37969229D01*
X153098171Y-37971914D01*
X153191572Y-37991767D01*
X153278515Y-38010248D01*
X153278520Y-38010248D01*
X153284972Y-38011620D01*
X153475946Y-38011620D01*
X153482398Y-38010248D01*
X153482403Y-38010248D01*
X153569347Y-37991767D01*
X153662747Y-37971914D01*
X153668778Y-37969229D01*
X153831181Y-37896923D01*
X153831183Y-37896922D01*
X153837211Y-37894238D01*
X153879656Y-37863400D01*
X155268334Y-37863400D01*
X155288113Y-38013636D01*
X155346102Y-38153633D01*
X155438349Y-38273851D01*
X155558567Y-38366098D01*
X155698564Y-38424087D01*
X155811080Y-38438900D01*
X155886520Y-38438900D01*
X155999036Y-38424087D01*
X156139033Y-38366098D01*
X156259251Y-38273851D01*
X156351498Y-38153633D01*
X156409487Y-38013636D01*
X156429266Y-37863400D01*
X156417901Y-37777075D01*
X156410565Y-37721352D01*
X156409487Y-37713164D01*
X156351498Y-37573167D01*
X156259251Y-37452949D01*
X156139033Y-37360702D01*
X155999036Y-37302713D01*
X155886520Y-37287900D01*
X155811080Y-37287900D01*
X155698564Y-37302713D01*
X155558567Y-37360702D01*
X155438349Y-37452949D01*
X155346102Y-37573167D01*
X155288113Y-37713164D01*
X155287035Y-37721352D01*
X155279699Y-37777075D01*
X155268334Y-37863400D01*
X153879656Y-37863400D01*
X153991712Y-37781986D01*
X154119499Y-37640064D01*
X154214986Y-37474676D01*
X154274001Y-37293048D01*
X154282234Y-37214721D01*
X154293273Y-37109685D01*
X154293963Y-37103120D01*
X154288911Y-37055056D01*
X154274691Y-36919755D01*
X154274691Y-36919753D01*
X154274001Y-36913192D01*
X154214986Y-36731564D01*
X154210161Y-36723206D01*
X154122800Y-36571894D01*
X154119499Y-36566176D01*
X153991712Y-36424254D01*
X153837211Y-36312002D01*
X153831183Y-36309318D01*
X153831181Y-36309317D01*
X153668778Y-36237011D01*
X153668777Y-36237011D01*
X153662747Y-36234326D01*
X153569347Y-36214473D01*
X153482403Y-36195992D01*
X153482398Y-36195992D01*
X153475946Y-36194620D01*
X153284972Y-36194620D01*
X153278520Y-36195992D01*
X153278515Y-36195992D01*
X153191571Y-36214473D01*
X153098171Y-36234326D01*
X153092141Y-36237011D01*
X153092140Y-36237011D01*
X152929737Y-36309317D01*
X152929735Y-36309318D01*
X152923707Y-36312002D01*
X152769206Y-36424254D01*
X152641419Y-36566176D01*
X152638118Y-36571894D01*
X152550758Y-36723206D01*
X152545932Y-36731564D01*
X152519388Y-36813258D01*
X152479316Y-36871862D01*
X152413919Y-36899499D01*
X152343963Y-36887392D01*
X152325495Y-36876256D01*
X152227094Y-36804763D01*
X152227093Y-36804762D01*
X152221752Y-36800882D01*
X152215724Y-36798198D01*
X152215722Y-36798197D01*
X152053319Y-36725891D01*
X152053318Y-36725891D01*
X152047288Y-36723206D01*
X151953888Y-36703353D01*
X151866944Y-36684872D01*
X151866939Y-36684872D01*
X151860487Y-36683500D01*
X151669513Y-36683500D01*
X151663061Y-36684872D01*
X151663056Y-36684872D01*
X151576113Y-36703353D01*
X151482712Y-36723206D01*
X151476682Y-36725891D01*
X151476681Y-36725891D01*
X151314278Y-36798197D01*
X151314276Y-36798198D01*
X151308248Y-36800882D01*
X151153747Y-36913134D01*
X151025960Y-37055056D01*
X150930473Y-37220444D01*
X150871458Y-37402072D01*
X150870768Y-37408633D01*
X150870768Y-37408635D01*
X150854164Y-37566614D01*
X150851496Y-37592000D01*
X150852186Y-37598565D01*
X150852186Y-37598567D01*
X150853213Y-37608339D01*
X150840440Y-37678177D01*
X150791938Y-37730023D01*
X150723105Y-37747417D01*
X150655795Y-37724835D01*
X150611494Y-37669726D01*
X150571498Y-37573167D01*
X150479251Y-37452949D01*
X150359033Y-37360702D01*
X150219036Y-37302713D01*
X150106520Y-37287900D01*
X150031080Y-37287900D01*
X149918564Y-37302713D01*
X149778567Y-37360702D01*
X149658349Y-37452949D01*
X149566102Y-37573167D01*
X149508113Y-37713164D01*
X149507035Y-37721352D01*
X149499699Y-37777075D01*
X149488334Y-37863400D01*
X103632000Y-37863400D01*
X103632000Y-35380464D01*
X135642507Y-35380464D01*
X135671625Y-35572999D01*
X135673828Y-35578985D01*
X135673829Y-35578991D01*
X135736660Y-35749760D01*
X135736662Y-35749765D01*
X135738863Y-35755746D01*
X135841474Y-35921240D01*
X135975266Y-36062722D01*
X136134775Y-36174411D01*
X136140638Y-36176948D01*
X136307625Y-36249210D01*
X136307629Y-36249211D01*
X136313484Y-36251745D01*
X136319731Y-36253050D01*
X136319734Y-36253051D01*
X136499357Y-36290576D01*
X136499362Y-36290577D01*
X136504093Y-36291565D01*
X136510485Y-36291900D01*
X136653463Y-36291900D01*
X136722751Y-36284862D01*
X136792178Y-36277810D01*
X136792179Y-36277810D01*
X136798527Y-36277165D01*
X136879643Y-36251745D01*
X136978251Y-36220844D01*
X136978256Y-36220842D01*
X136984341Y-36218935D01*
X137071275Y-36170746D01*
X137149071Y-36127623D01*
X137149074Y-36127621D01*
X137154650Y-36124530D01*
X137159491Y-36120381D01*
X137159495Y-36120378D01*
X137297655Y-36001960D01*
X137302498Y-35997809D01*
X137421846Y-35843947D01*
X137462579Y-35761168D01*
X137505000Y-35674956D01*
X137507818Y-35669229D01*
X137509428Y-35663049D01*
X137555292Y-35486975D01*
X137555292Y-35486972D01*
X137556902Y-35480793D01*
X137562160Y-35380464D01*
X142442507Y-35380464D01*
X142471625Y-35572999D01*
X142473828Y-35578985D01*
X142473829Y-35578991D01*
X142536660Y-35749760D01*
X142536662Y-35749765D01*
X142538863Y-35755746D01*
X142641474Y-35921240D01*
X142775266Y-36062722D01*
X142934775Y-36174411D01*
X142940638Y-36176948D01*
X143107625Y-36249210D01*
X143107629Y-36249211D01*
X143113484Y-36251745D01*
X143119731Y-36253050D01*
X143119734Y-36253051D01*
X143299357Y-36290576D01*
X143299362Y-36290577D01*
X143304093Y-36291565D01*
X143310485Y-36291900D01*
X143453463Y-36291900D01*
X143522751Y-36284862D01*
X143592178Y-36277810D01*
X143592179Y-36277810D01*
X143598527Y-36277165D01*
X143679643Y-36251745D01*
X143778251Y-36220844D01*
X143778256Y-36220842D01*
X143784341Y-36218935D01*
X143871275Y-36170746D01*
X143949071Y-36127623D01*
X143949074Y-36127621D01*
X143954650Y-36124530D01*
X143959491Y-36120381D01*
X143959495Y-36120378D01*
X144097655Y-36001960D01*
X144102498Y-35997809D01*
X144221846Y-35843947D01*
X144262579Y-35761168D01*
X144305000Y-35674956D01*
X144307818Y-35669229D01*
X144309428Y-35663049D01*
X144355292Y-35486975D01*
X144355292Y-35486972D01*
X144356902Y-35480793D01*
X144362160Y-35380464D01*
X161550507Y-35380464D01*
X161579625Y-35572999D01*
X161581828Y-35578985D01*
X161581829Y-35578991D01*
X161644660Y-35749760D01*
X161644662Y-35749765D01*
X161646863Y-35755746D01*
X161749474Y-35921240D01*
X161883266Y-36062722D01*
X162042775Y-36174411D01*
X162048638Y-36176948D01*
X162215625Y-36249210D01*
X162215629Y-36249211D01*
X162221484Y-36251745D01*
X162227731Y-36253050D01*
X162227734Y-36253051D01*
X162407357Y-36290576D01*
X162407362Y-36290577D01*
X162412093Y-36291565D01*
X162418485Y-36291900D01*
X162561463Y-36291900D01*
X162630751Y-36284862D01*
X162700178Y-36277810D01*
X162700179Y-36277810D01*
X162706527Y-36277165D01*
X162787643Y-36251745D01*
X162886251Y-36220844D01*
X162886256Y-36220842D01*
X162892341Y-36218935D01*
X162979275Y-36170746D01*
X163057071Y-36127623D01*
X163057074Y-36127621D01*
X163062650Y-36124530D01*
X163067491Y-36120381D01*
X163067495Y-36120378D01*
X163205655Y-36001960D01*
X163210498Y-35997809D01*
X163329846Y-35843947D01*
X163370579Y-35761168D01*
X163413000Y-35674956D01*
X163415818Y-35669229D01*
X163417428Y-35663049D01*
X163463292Y-35486975D01*
X163463292Y-35486972D01*
X163464902Y-35480793D01*
X163470160Y-35380464D01*
X168350507Y-35380464D01*
X168379625Y-35572999D01*
X168381828Y-35578985D01*
X168381829Y-35578991D01*
X168444660Y-35749760D01*
X168444662Y-35749765D01*
X168446863Y-35755746D01*
X168549474Y-35921240D01*
X168683266Y-36062722D01*
X168842775Y-36174411D01*
X168848638Y-36176948D01*
X169015625Y-36249210D01*
X169015629Y-36249211D01*
X169021484Y-36251745D01*
X169027731Y-36253050D01*
X169027734Y-36253051D01*
X169207357Y-36290576D01*
X169207362Y-36290577D01*
X169212093Y-36291565D01*
X169218485Y-36291900D01*
X169361463Y-36291900D01*
X169430751Y-36284862D01*
X169500178Y-36277810D01*
X169500179Y-36277810D01*
X169506527Y-36277165D01*
X169587643Y-36251745D01*
X169686251Y-36220844D01*
X169686256Y-36220842D01*
X169692341Y-36218935D01*
X169779275Y-36170746D01*
X169857071Y-36127623D01*
X169857074Y-36127621D01*
X169862650Y-36124530D01*
X169867491Y-36120381D01*
X169867495Y-36120378D01*
X170005655Y-36001960D01*
X170010498Y-35997809D01*
X170129846Y-35843947D01*
X170170579Y-35761168D01*
X170213000Y-35674956D01*
X170215818Y-35669229D01*
X170217428Y-35663049D01*
X170263292Y-35486975D01*
X170263292Y-35486972D01*
X170264902Y-35480793D01*
X170275093Y-35286336D01*
X170245975Y-35093801D01*
X170243772Y-35087815D01*
X170243771Y-35087809D01*
X170180940Y-34917040D01*
X170180938Y-34917035D01*
X170178737Y-34911054D01*
X170076126Y-34745560D01*
X169942334Y-34604078D01*
X169782825Y-34492389D01*
X169734813Y-34471612D01*
X169609975Y-34417590D01*
X169609971Y-34417589D01*
X169604116Y-34415055D01*
X169597869Y-34413750D01*
X169597866Y-34413749D01*
X169418243Y-34376224D01*
X169418238Y-34376223D01*
X169413507Y-34375235D01*
X169407115Y-34374900D01*
X169264137Y-34374900D01*
X169194849Y-34381938D01*
X169125422Y-34388990D01*
X169125421Y-34388990D01*
X169119073Y-34389635D01*
X169062739Y-34407289D01*
X168939349Y-34445956D01*
X168939344Y-34445958D01*
X168933259Y-34447865D01*
X168857513Y-34489852D01*
X168768529Y-34539177D01*
X168768526Y-34539179D01*
X168762950Y-34542270D01*
X168758109Y-34546419D01*
X168758105Y-34546422D01*
X168695111Y-34600415D01*
X168615102Y-34668991D01*
X168495754Y-34822853D01*
X168492938Y-34828576D01*
X168492936Y-34828579D01*
X168449408Y-34917040D01*
X168409782Y-34997571D01*
X168408173Y-35003749D01*
X168408172Y-35003751D01*
X168386277Y-35087809D01*
X168360698Y-35186007D01*
X168350507Y-35380464D01*
X163470160Y-35380464D01*
X163475093Y-35286336D01*
X163445975Y-35093801D01*
X163443772Y-35087815D01*
X163443771Y-35087809D01*
X163380940Y-34917040D01*
X163380938Y-34917035D01*
X163378737Y-34911054D01*
X163276126Y-34745560D01*
X163142334Y-34604078D01*
X162982825Y-34492389D01*
X162934813Y-34471612D01*
X162809975Y-34417590D01*
X162809971Y-34417589D01*
X162804116Y-34415055D01*
X162797869Y-34413750D01*
X162797866Y-34413749D01*
X162618243Y-34376224D01*
X162618238Y-34376223D01*
X162613507Y-34375235D01*
X162607115Y-34374900D01*
X162464137Y-34374900D01*
X162394849Y-34381938D01*
X162325422Y-34388990D01*
X162325421Y-34388990D01*
X162319073Y-34389635D01*
X162262739Y-34407289D01*
X162139349Y-34445956D01*
X162139344Y-34445958D01*
X162133259Y-34447865D01*
X162057513Y-34489852D01*
X161968529Y-34539177D01*
X161968526Y-34539179D01*
X161962950Y-34542270D01*
X161958109Y-34546419D01*
X161958105Y-34546422D01*
X161895111Y-34600415D01*
X161815102Y-34668991D01*
X161695754Y-34822853D01*
X161692938Y-34828576D01*
X161692936Y-34828579D01*
X161649408Y-34917040D01*
X161609782Y-34997571D01*
X161608173Y-35003749D01*
X161608172Y-35003751D01*
X161586277Y-35087809D01*
X161560698Y-35186007D01*
X161550507Y-35380464D01*
X144362160Y-35380464D01*
X144367093Y-35286336D01*
X144337975Y-35093801D01*
X144335772Y-35087815D01*
X144335771Y-35087809D01*
X144272940Y-34917040D01*
X144272938Y-34917035D01*
X144270737Y-34911054D01*
X144168126Y-34745560D01*
X144034334Y-34604078D01*
X143874825Y-34492389D01*
X143826813Y-34471612D01*
X143701975Y-34417590D01*
X143701971Y-34417589D01*
X143696116Y-34415055D01*
X143689869Y-34413750D01*
X143689866Y-34413749D01*
X143510243Y-34376224D01*
X143510238Y-34376223D01*
X143505507Y-34375235D01*
X143499115Y-34374900D01*
X143356137Y-34374900D01*
X143286849Y-34381938D01*
X143217422Y-34388990D01*
X143217421Y-34388990D01*
X143211073Y-34389635D01*
X143154739Y-34407289D01*
X143031349Y-34445956D01*
X143031344Y-34445958D01*
X143025259Y-34447865D01*
X142949513Y-34489852D01*
X142860529Y-34539177D01*
X142860526Y-34539179D01*
X142854950Y-34542270D01*
X142850109Y-34546419D01*
X142850105Y-34546422D01*
X142787111Y-34600415D01*
X142707102Y-34668991D01*
X142587754Y-34822853D01*
X142584938Y-34828576D01*
X142584936Y-34828579D01*
X142541408Y-34917040D01*
X142501782Y-34997571D01*
X142500173Y-35003749D01*
X142500172Y-35003751D01*
X142478277Y-35087809D01*
X142452698Y-35186007D01*
X142442507Y-35380464D01*
X137562160Y-35380464D01*
X137567093Y-35286336D01*
X137537975Y-35093801D01*
X137535772Y-35087815D01*
X137535771Y-35087809D01*
X137472940Y-34917040D01*
X137472938Y-34917035D01*
X137470737Y-34911054D01*
X137368126Y-34745560D01*
X137234334Y-34604078D01*
X137074825Y-34492389D01*
X137026813Y-34471612D01*
X136901975Y-34417590D01*
X136901971Y-34417589D01*
X136896116Y-34415055D01*
X136889869Y-34413750D01*
X136889866Y-34413749D01*
X136710243Y-34376224D01*
X136710238Y-34376223D01*
X136705507Y-34375235D01*
X136699115Y-34374900D01*
X136556137Y-34374900D01*
X136486849Y-34381938D01*
X136417422Y-34388990D01*
X136417421Y-34388990D01*
X136411073Y-34389635D01*
X136354739Y-34407289D01*
X136231349Y-34445956D01*
X136231344Y-34445958D01*
X136225259Y-34447865D01*
X136149513Y-34489852D01*
X136060529Y-34539177D01*
X136060526Y-34539179D01*
X136054950Y-34542270D01*
X136050109Y-34546419D01*
X136050105Y-34546422D01*
X135987111Y-34600415D01*
X135907102Y-34668991D01*
X135787754Y-34822853D01*
X135784938Y-34828576D01*
X135784936Y-34828579D01*
X135741408Y-34917040D01*
X135701782Y-34997571D01*
X135700173Y-35003749D01*
X135700172Y-35003751D01*
X135678277Y-35087809D01*
X135652698Y-35186007D01*
X135642507Y-35380464D01*
X103632000Y-35380464D01*
X103632000Y-33654000D01*
X103652002Y-33585879D01*
X103705658Y-33539386D01*
X103758000Y-33528000D01*
X198502000Y-33528000D01*
X198570121Y-33548002D01*
G37*
G04 #@! TD.AperFunction*
M02*
