M48
; DRILL file {KiCad (6.0.2)} date Sat Sep 30 20:53:03 2023
; FORMAT={-:-/ absolute / metric / decimal}
; #@! TF.CreationDate,2023-09-30T20:53:03-07:00
; #@! TF.GenerationSoftware,Kicad,Pcbnew,(6.0.2)
; #@! TF.FileFunction,Plated,1,4,PTH
FMAT,2
METRIC
; #@! TA.AperFunction,Plated,PTH,ViaDrill
T1C0.400
%
G90
G05
T1
X122.631Y-79.807
X122.682Y-72.136
X122.682Y-75.946
X122.682Y-77.267
X122.733Y-46.787
X122.733Y-56.947
X122.733Y-59.487
X122.733Y-62.027
X122.733Y-69.647
X122.809Y-70.866
X124.155Y-74.727
X125.476Y-53.086
X125.476Y-55.245
X125.781Y-45.481
X126.685Y-79.985
X126.746Y-50.546
X126.746Y-55.245
X126.949Y-67.513
X127.635Y-78.105
X128.219Y-66.396
X128.27Y-61.062
X128.778Y-45.532
X129.794Y-52.832
X129.794Y-61.062
X129.794Y-62.078
X129.794Y-65.989
X130.454Y-59.131
X132.576Y-62.116
X133.248Y-47.346
X133.466Y-59.116
X134.772Y-56.642
X135.255Y-53.467
X135.433Y-41.097
X136.347Y-47.955
X136.347Y-62.636
X136.589Y-70.002
X136.855Y-71.222
X137.28Y-57.776
X137.363Y-52.476
X137.465Y-51.41
X138.058Y-58.554
X138.328Y-61.519
X138.328Y-71.272
X138.633Y-46.888
X139.446Y-61.062
X139.582Y-59.3
X140.157Y-51.359
X140.157Y-65.634
X140.259Y-60.096
X140.31Y-71.171
X141.732Y-57.404
X141.884Y-65.278
X143.053Y-65.024
X143.104Y-58.268
X143.154Y-47.193
X143.459Y-52.781
X143.612Y-73.609
X144.323Y-71.577
X144.628Y-41.097
X144.729Y-61.62
X145.085Y-74.524
X145.847Y-71.577
X145.847Y-72.898
X147.218Y-73.711
X147.371Y-71.579
X147.494Y-87.04
X148.314Y-75.997
X148.996Y-40.284
X149.25Y-61.874
X149.352Y-64.16
X149.352Y-65.278
X150.459Y-40.386
X150.673Y-43.662
X150.821Y-88.818
X151.13Y-61.824
X151.146Y-75.985
X151.282Y-60.757
X151.765Y-37.592
X151.786Y-68.294
X152.044Y-69.901
X152.409Y-50.902
X152.548Y-67.659
X152.752Y-66.085
X152.959Y-40.894
X152.959Y-45.822
X153.38Y-37.103
X153.509Y-50.902
X153.945Y-88.818
X154.352Y-65.881
X155.245Y-43.637
X155.321Y-40.386
X155.499Y-46.482
X155.499Y-47.447
X155.52Y-73.73
X155.6Y-52.514
X155.934Y-68.907
X156.566Y-53.238
X156.917Y-68.726
X156.921Y-40.284
X157.07Y-64.002
X157.146Y-62.579
X157.226Y-48.057
X157.705Y-88.818
X157.988Y-54.813
X158.289Y-78.759
X158.314Y-70.936
X158.314Y-73.73
X158.314Y-76.524
X159.969Y-57.861
X160.477Y-43.637
X160.934Y-50.444
X161.108Y-73.73
X161.442Y-70.104
X161.696Y-57.861
X161.718Y-88.818
X161.95Y-67.855
X162.048Y-62.579
X162.204Y-50.444
X162.454Y-65.357
X162.458Y-40.64
X162.48Y-64.357
X162.56Y-68.682
X162.611Y-69.952
X163.678Y-43.891
X164.897Y-72.187
X164.955Y-71.189
X165.619Y-70.441
X165.706Y-88.818
X165.71Y-50.038
X165.71Y-62.433
X166.726Y-62.484
X166.726Y-89.408
X167.843Y-89.256
X167.894Y-41.046
X168.148Y-43.942
X168.199Y-62.382
X168.859Y-42.062
X169.113Y-48.463
X169.164Y-43.942
X169.824Y-64.008
X170.18Y-43.942
X170.688Y-64.922
X170.688Y-65.938
X170.688Y-67.005
X170.688Y-68.005
X170.688Y-69.037
X171.145Y-48.463
X171.196Y-43.942
X172.106Y-79.343
X172.212Y-43.942
X172.259Y-71.85
X172.513Y-73.628
X173.177Y-48.463
X173.228Y-43.942
X174.011Y-77.261
X175.854Y-47.65
X175.891Y-75.076
X176.094Y-71.952
X177.11Y-73.222
X177.734Y-50.749
X179.476Y-49.327
X179.527Y-46.787
X179.527Y-51.867
X179.527Y-54.407
X179.527Y-77.267
X179.578Y-79.807
T0
M30
