%FSLAX45Y45*%
G04 Gerber Fmt 4.5, Leading zero omitted, Abs format (unit mm)*
G04 Created by KiCad (PCBNEW (6.0.2)) date 2023-09-30 20:53:12*
%MOMM*%
%LPD*%
G01*
G04 APERTURE LIST*
%TA.AperFunction,Profile*%
%ADD10C,0.100000*%
%TD*%
%ADD11C,0.200000*%
%ADD12C,0.065000*%
%ADD13C,0.090000*%
G04 APERTURE END LIST*
D10*
X10312400Y-3302000D02*
X14706600Y-3302000D01*
X10312400Y-9398000D02*
X10312400Y-3302000D01*
X19913600Y-3302000D02*
X19913600Y-9398000D01*
X17754600Y-3302000D02*
X19913600Y-3302000D01*
X18618200Y-9398000D02*
X10312400Y-9398000D01*
X14706600Y-3302000D02*
X16027400Y-3302000D01*
X19913600Y-9398000D02*
X18618200Y-9398000D01*
X16027400Y-3302000D02*
X17754600Y-3302000D01*
D11*
D12*
X14974380Y-3753840D02*
X15039380Y-3818840D01*
X15039380Y-3753840D02*
X14974380Y-3818840D01*
X15552380Y-3753840D02*
X15617380Y-3818840D01*
X15617380Y-3753840D02*
X15552380Y-3818840D01*
D13*
X13705480Y-3533340D02*
G75*
G03*
X13705480Y-3533340I-45000J0D01*
G01*
X14385480Y-3533340D02*
G75*
G03*
X14385480Y-3533340I-45000J0D01*
G01*
X16296280Y-3533340D02*
G75*
G03*
X16296280Y-3533340I-45000J0D01*
G01*
X16976280Y-3533340D02*
G75*
G03*
X16976280Y-3533340I-45000J0D01*
G01*
D11*
X10565019Y-9713476D02*
X10565019Y-9513476D01*
X10612638Y-9513476D01*
X10641210Y-9523000D01*
X10660257Y-9542048D01*
X10669781Y-9561095D01*
X10679305Y-9599190D01*
X10679305Y-9627762D01*
X10669781Y-9665857D01*
X10660257Y-9684905D01*
X10641210Y-9703952D01*
X10612638Y-9713476D01*
X10565019Y-9713476D01*
X10765019Y-9713476D02*
X10765019Y-9580143D01*
X10765019Y-9618238D02*
X10774543Y-9599190D01*
X10784067Y-9589667D01*
X10803114Y-9580143D01*
X10822162Y-9580143D01*
X10888829Y-9713476D02*
X10888829Y-9580143D01*
X10888829Y-9513476D02*
X10879305Y-9523000D01*
X10888829Y-9532524D01*
X10898352Y-9523000D01*
X10888829Y-9513476D01*
X10888829Y-9532524D01*
X11012638Y-9713476D02*
X10993590Y-9703952D01*
X10984067Y-9684905D01*
X10984067Y-9513476D01*
X11117400Y-9713476D02*
X11098352Y-9703952D01*
X11088829Y-9684905D01*
X11088829Y-9513476D01*
X11345971Y-9713476D02*
X11345971Y-9513476D01*
X11412638Y-9656333D01*
X11479305Y-9513476D01*
X11479305Y-9713476D01*
X11660257Y-9713476D02*
X11660257Y-9608714D01*
X11650733Y-9589667D01*
X11631686Y-9580143D01*
X11593590Y-9580143D01*
X11574543Y-9589667D01*
X11660257Y-9703952D02*
X11641209Y-9713476D01*
X11593590Y-9713476D01*
X11574543Y-9703952D01*
X11565019Y-9684905D01*
X11565019Y-9665857D01*
X11574543Y-9646810D01*
X11593590Y-9637286D01*
X11641209Y-9637286D01*
X11660257Y-9627762D01*
X11755495Y-9580143D02*
X11755495Y-9780143D01*
X11755495Y-9589667D02*
X11774543Y-9580143D01*
X11812638Y-9580143D01*
X11831686Y-9589667D01*
X11841209Y-9599190D01*
X11850733Y-9618238D01*
X11850733Y-9675381D01*
X11841209Y-9694429D01*
X11831686Y-9703952D01*
X11812638Y-9713476D01*
X11774543Y-9713476D01*
X11755495Y-9703952D01*
X11936448Y-9694429D02*
X11945971Y-9703952D01*
X11936448Y-9713476D01*
X11926924Y-9703952D01*
X11936448Y-9694429D01*
X11936448Y-9713476D01*
X11936448Y-9589667D02*
X11945971Y-9599190D01*
X11936448Y-9608714D01*
X11926924Y-9599190D01*
X11936448Y-9589667D01*
X11936448Y-9608714D01*
D12*
X10242400Y-10010500D02*
X10307400Y-10075500D01*
X10307400Y-10010500D02*
X10242400Y-10075500D01*
D11*
X10603114Y-9933476D02*
X10622162Y-9933476D01*
X10641210Y-9943000D01*
X10650733Y-9952524D01*
X10660257Y-9971571D01*
X10669781Y-10009667D01*
X10669781Y-10057286D01*
X10660257Y-10095381D01*
X10650733Y-10114429D01*
X10641210Y-10123952D01*
X10622162Y-10133476D01*
X10603114Y-10133476D01*
X10584067Y-10123952D01*
X10574543Y-10114429D01*
X10565019Y-10095381D01*
X10555495Y-10057286D01*
X10555495Y-10009667D01*
X10565019Y-9971571D01*
X10574543Y-9952524D01*
X10584067Y-9943000D01*
X10603114Y-9933476D01*
X10755495Y-10114429D02*
X10765019Y-10123952D01*
X10755495Y-10133476D01*
X10745971Y-10123952D01*
X10755495Y-10114429D01*
X10755495Y-10133476D01*
X10936448Y-9933476D02*
X10898352Y-9933476D01*
X10879305Y-9943000D01*
X10869781Y-9952524D01*
X10850733Y-9981095D01*
X10841210Y-10019190D01*
X10841210Y-10095381D01*
X10850733Y-10114429D01*
X10860257Y-10123952D01*
X10879305Y-10133476D01*
X10917400Y-10133476D01*
X10936448Y-10123952D01*
X10945971Y-10114429D01*
X10955495Y-10095381D01*
X10955495Y-10047762D01*
X10945971Y-10028714D01*
X10936448Y-10019190D01*
X10917400Y-10009667D01*
X10879305Y-10009667D01*
X10860257Y-10019190D01*
X10850733Y-10028714D01*
X10841210Y-10047762D01*
X11136448Y-9933476D02*
X11041210Y-9933476D01*
X11031686Y-10028714D01*
X11041210Y-10019190D01*
X11060257Y-10009667D01*
X11107876Y-10009667D01*
X11126924Y-10019190D01*
X11136448Y-10028714D01*
X11145971Y-10047762D01*
X11145971Y-10095381D01*
X11136448Y-10114429D01*
X11126924Y-10123952D01*
X11107876Y-10133476D01*
X11060257Y-10133476D01*
X11041210Y-10123952D01*
X11031686Y-10114429D01*
X11269781Y-9933476D02*
X11288828Y-9933476D01*
X11307876Y-9943000D01*
X11317400Y-9952524D01*
X11326924Y-9971571D01*
X11336448Y-10009667D01*
X11336448Y-10057286D01*
X11326924Y-10095381D01*
X11317400Y-10114429D01*
X11307876Y-10123952D01*
X11288828Y-10133476D01*
X11269781Y-10133476D01*
X11250733Y-10123952D01*
X11241209Y-10114429D01*
X11231686Y-10095381D01*
X11222162Y-10057286D01*
X11222162Y-10009667D01*
X11231686Y-9971571D01*
X11241209Y-9952524D01*
X11250733Y-9943000D01*
X11269781Y-9933476D01*
X11422162Y-10133476D02*
X11422162Y-10000143D01*
X11422162Y-10019190D02*
X11431686Y-10009667D01*
X11450733Y-10000143D01*
X11479305Y-10000143D01*
X11498352Y-10009667D01*
X11507876Y-10028714D01*
X11507876Y-10133476D01*
X11507876Y-10028714D02*
X11517400Y-10009667D01*
X11536448Y-10000143D01*
X11565019Y-10000143D01*
X11584067Y-10009667D01*
X11593590Y-10028714D01*
X11593590Y-10133476D01*
X11688828Y-10133476D02*
X11688828Y-10000143D01*
X11688828Y-10019190D02*
X11698352Y-10009667D01*
X11717400Y-10000143D01*
X11745971Y-10000143D01*
X11765019Y-10009667D01*
X11774543Y-10028714D01*
X11774543Y-10133476D01*
X11774543Y-10028714D02*
X11784067Y-10009667D01*
X11803114Y-10000143D01*
X11831686Y-10000143D01*
X11850733Y-10009667D01*
X11860257Y-10028714D01*
X11860257Y-10133476D01*
X12250733Y-9923952D02*
X12079305Y-10181095D01*
X12507876Y-9933476D02*
X12526924Y-9933476D01*
X12545971Y-9943000D01*
X12555495Y-9952524D01*
X12565019Y-9971571D01*
X12574543Y-10009667D01*
X12574543Y-10057286D01*
X12565019Y-10095381D01*
X12555495Y-10114429D01*
X12545971Y-10123952D01*
X12526924Y-10133476D01*
X12507876Y-10133476D01*
X12488828Y-10123952D01*
X12479305Y-10114429D01*
X12469781Y-10095381D01*
X12460257Y-10057286D01*
X12460257Y-10009667D01*
X12469781Y-9971571D01*
X12479305Y-9952524D01*
X12488828Y-9943000D01*
X12507876Y-9933476D01*
X12660257Y-10114429D02*
X12669781Y-10123952D01*
X12660257Y-10133476D01*
X12650733Y-10123952D01*
X12660257Y-10114429D01*
X12660257Y-10133476D01*
X12793590Y-9933476D02*
X12812638Y-9933476D01*
X12831686Y-9943000D01*
X12841209Y-9952524D01*
X12850733Y-9971571D01*
X12860257Y-10009667D01*
X12860257Y-10057286D01*
X12850733Y-10095381D01*
X12841209Y-10114429D01*
X12831686Y-10123952D01*
X12812638Y-10133476D01*
X12793590Y-10133476D01*
X12774543Y-10123952D01*
X12765019Y-10114429D01*
X12755495Y-10095381D01*
X12745971Y-10057286D01*
X12745971Y-10009667D01*
X12755495Y-9971571D01*
X12765019Y-9952524D01*
X12774543Y-9943000D01*
X12793590Y-9933476D01*
X12936448Y-9952524D02*
X12945971Y-9943000D01*
X12965019Y-9933476D01*
X13012638Y-9933476D01*
X13031686Y-9943000D01*
X13041209Y-9952524D01*
X13050733Y-9971571D01*
X13050733Y-9990619D01*
X13041209Y-10019190D01*
X12926924Y-10133476D01*
X13050733Y-10133476D01*
X13231686Y-9933476D02*
X13136448Y-9933476D01*
X13126924Y-10028714D01*
X13136448Y-10019190D01*
X13155495Y-10009667D01*
X13203114Y-10009667D01*
X13222162Y-10019190D01*
X13231686Y-10028714D01*
X13241209Y-10047762D01*
X13241209Y-10095381D01*
X13231686Y-10114429D01*
X13222162Y-10123952D01*
X13203114Y-10133476D01*
X13155495Y-10133476D01*
X13136448Y-10123952D01*
X13126924Y-10114429D01*
X13412638Y-9933476D02*
X13374543Y-9933476D01*
X13355495Y-9943000D01*
X13345971Y-9952524D01*
X13326924Y-9981095D01*
X13317400Y-10019190D01*
X13317400Y-10095381D01*
X13326924Y-10114429D01*
X13336448Y-10123952D01*
X13355495Y-10133476D01*
X13393590Y-10133476D01*
X13412638Y-10123952D01*
X13422162Y-10114429D01*
X13431686Y-10095381D01*
X13431686Y-10047762D01*
X13422162Y-10028714D01*
X13412638Y-10019190D01*
X13393590Y-10009667D01*
X13355495Y-10009667D01*
X13336448Y-10019190D01*
X13326924Y-10028714D01*
X13317400Y-10047762D01*
X13507876Y-9933476D02*
X13507876Y-9971571D01*
X13584067Y-9933476D02*
X13584067Y-9971571D01*
X13879305Y-10209667D02*
X13869781Y-10200143D01*
X13850733Y-10171571D01*
X13841209Y-10152524D01*
X13831686Y-10123952D01*
X13822162Y-10076333D01*
X13822162Y-10038238D01*
X13831686Y-9990619D01*
X13841209Y-9962048D01*
X13850733Y-9943000D01*
X13869781Y-9914429D01*
X13879305Y-9904905D01*
X13945971Y-9952524D02*
X13955495Y-9943000D01*
X13974543Y-9933476D01*
X14022162Y-9933476D01*
X14041209Y-9943000D01*
X14050733Y-9952524D01*
X14060257Y-9971571D01*
X14060257Y-9990619D01*
X14050733Y-10019190D01*
X13936448Y-10133476D01*
X14060257Y-10133476D01*
X14298352Y-10133476D02*
X14298352Y-9933476D01*
X14384067Y-10133476D02*
X14384067Y-10028714D01*
X14374543Y-10009667D01*
X14355495Y-10000143D01*
X14326924Y-10000143D01*
X14307876Y-10009667D01*
X14298352Y-10019190D01*
X14507876Y-10133476D02*
X14488828Y-10123952D01*
X14479305Y-10114429D01*
X14469781Y-10095381D01*
X14469781Y-10038238D01*
X14479305Y-10019190D01*
X14488828Y-10009667D01*
X14507876Y-10000143D01*
X14536448Y-10000143D01*
X14555495Y-10009667D01*
X14565019Y-10019190D01*
X14574543Y-10038238D01*
X14574543Y-10095381D01*
X14565019Y-10114429D01*
X14555495Y-10123952D01*
X14536448Y-10133476D01*
X14507876Y-10133476D01*
X14688828Y-10133476D02*
X14669781Y-10123952D01*
X14660257Y-10104905D01*
X14660257Y-9933476D01*
X14841209Y-10123952D02*
X14822162Y-10133476D01*
X14784067Y-10133476D01*
X14765019Y-10123952D01*
X14755495Y-10104905D01*
X14755495Y-10028714D01*
X14765019Y-10009667D01*
X14784067Y-10000143D01*
X14822162Y-10000143D01*
X14841209Y-10009667D01*
X14850733Y-10028714D01*
X14850733Y-10047762D01*
X14755495Y-10066810D01*
X14926924Y-10123952D02*
X14945971Y-10133476D01*
X14984067Y-10133476D01*
X15003114Y-10123952D01*
X15012638Y-10104905D01*
X15012638Y-10095381D01*
X15003114Y-10076333D01*
X14984067Y-10066810D01*
X14955495Y-10066810D01*
X14936448Y-10057286D01*
X14926924Y-10038238D01*
X14926924Y-10028714D01*
X14936448Y-10009667D01*
X14955495Y-10000143D01*
X14984067Y-10000143D01*
X15003114Y-10009667D01*
X15079305Y-10209667D02*
X15088828Y-10200143D01*
X15107876Y-10171571D01*
X15117400Y-10152524D01*
X15126924Y-10123952D01*
X15136448Y-10076333D01*
X15136448Y-10038238D01*
X15126924Y-9990619D01*
X15117400Y-9962048D01*
X15107876Y-9943000D01*
X15088828Y-9914429D01*
X15079305Y-9904905D01*
X15441209Y-10209667D02*
X15431686Y-10200143D01*
X15412638Y-10171571D01*
X15403114Y-10152524D01*
X15393590Y-10123952D01*
X15384067Y-10076333D01*
X15384067Y-10038238D01*
X15393590Y-9990619D01*
X15403114Y-9962048D01*
X15412638Y-9943000D01*
X15431686Y-9914429D01*
X15441209Y-9904905D01*
X15517400Y-10000143D02*
X15517400Y-10133476D01*
X15517400Y-10019190D02*
X15526924Y-10009667D01*
X15545971Y-10000143D01*
X15574543Y-10000143D01*
X15593590Y-10009667D01*
X15603114Y-10028714D01*
X15603114Y-10133476D01*
X15726924Y-10133476D02*
X15707876Y-10123952D01*
X15698352Y-10114429D01*
X15688828Y-10095381D01*
X15688828Y-10038238D01*
X15698352Y-10019190D01*
X15707876Y-10009667D01*
X15726924Y-10000143D01*
X15755495Y-10000143D01*
X15774543Y-10009667D01*
X15784067Y-10019190D01*
X15793590Y-10038238D01*
X15793590Y-10095381D01*
X15784067Y-10114429D01*
X15774543Y-10123952D01*
X15755495Y-10133476D01*
X15726924Y-10133476D01*
X15850733Y-10000143D02*
X15926924Y-10000143D01*
X15879305Y-9933476D02*
X15879305Y-10104905D01*
X15888828Y-10123952D01*
X15907876Y-10133476D01*
X15926924Y-10133476D01*
X16145971Y-10000143D02*
X16145971Y-10200143D01*
X16145971Y-10009667D02*
X16165019Y-10000143D01*
X16203114Y-10000143D01*
X16222162Y-10009667D01*
X16231686Y-10019190D01*
X16241209Y-10038238D01*
X16241209Y-10095381D01*
X16231686Y-10114429D01*
X16222162Y-10123952D01*
X16203114Y-10133476D01*
X16165019Y-10133476D01*
X16145971Y-10123952D01*
X16355495Y-10133476D02*
X16336448Y-10123952D01*
X16326924Y-10104905D01*
X16326924Y-9933476D01*
X16517400Y-10133476D02*
X16517400Y-10028714D01*
X16507876Y-10009667D01*
X16488828Y-10000143D01*
X16450733Y-10000143D01*
X16431686Y-10009667D01*
X16517400Y-10123952D02*
X16498352Y-10133476D01*
X16450733Y-10133476D01*
X16431686Y-10123952D01*
X16422162Y-10104905D01*
X16422162Y-10085857D01*
X16431686Y-10066810D01*
X16450733Y-10057286D01*
X16498352Y-10057286D01*
X16517400Y-10047762D01*
X16584067Y-10000143D02*
X16660257Y-10000143D01*
X16612638Y-9933476D02*
X16612638Y-10104905D01*
X16622162Y-10123952D01*
X16641209Y-10133476D01*
X16660257Y-10133476D01*
X16803114Y-10123952D02*
X16784067Y-10133476D01*
X16745971Y-10133476D01*
X16726924Y-10123952D01*
X16717400Y-10104905D01*
X16717400Y-10028714D01*
X16726924Y-10009667D01*
X16745971Y-10000143D01*
X16784067Y-10000143D01*
X16803114Y-10009667D01*
X16812638Y-10028714D01*
X16812638Y-10047762D01*
X16717400Y-10066810D01*
X16984067Y-10133476D02*
X16984067Y-9933476D01*
X16984067Y-10123952D02*
X16965019Y-10133476D01*
X16926924Y-10133476D01*
X16907876Y-10123952D01*
X16898352Y-10114429D01*
X16888829Y-10095381D01*
X16888829Y-10038238D01*
X16898352Y-10019190D01*
X16907876Y-10009667D01*
X16926924Y-10000143D01*
X16965019Y-10000143D01*
X16984067Y-10009667D01*
X17060257Y-10209667D02*
X17069781Y-10200143D01*
X17088829Y-10171571D01*
X17098352Y-10152524D01*
X17107876Y-10123952D01*
X17117400Y-10076333D01*
X17117400Y-10038238D01*
X17107876Y-9990619D01*
X17098352Y-9962048D01*
X17088829Y-9943000D01*
X17069781Y-9914429D01*
X17060257Y-9904905D01*
D13*
X10307400Y-10307000D02*
G75*
G03*
X10307400Y-10307000I-45000J0D01*
G01*
D11*
X10603114Y-10197476D02*
X10622162Y-10197476D01*
X10641210Y-10207000D01*
X10650733Y-10216524D01*
X10660257Y-10235571D01*
X10669781Y-10273667D01*
X10669781Y-10321286D01*
X10660257Y-10359381D01*
X10650733Y-10378429D01*
X10641210Y-10387952D01*
X10622162Y-10397476D01*
X10603114Y-10397476D01*
X10584067Y-10387952D01*
X10574543Y-10378429D01*
X10565019Y-10359381D01*
X10555495Y-10321286D01*
X10555495Y-10273667D01*
X10565019Y-10235571D01*
X10574543Y-10216524D01*
X10584067Y-10207000D01*
X10603114Y-10197476D01*
X10755495Y-10378429D02*
X10765019Y-10387952D01*
X10755495Y-10397476D01*
X10745971Y-10387952D01*
X10755495Y-10378429D01*
X10755495Y-10397476D01*
X10860257Y-10397476D02*
X10898352Y-10397476D01*
X10917400Y-10387952D01*
X10926924Y-10378429D01*
X10945971Y-10349857D01*
X10955495Y-10311762D01*
X10955495Y-10235571D01*
X10945971Y-10216524D01*
X10936448Y-10207000D01*
X10917400Y-10197476D01*
X10879305Y-10197476D01*
X10860257Y-10207000D01*
X10850733Y-10216524D01*
X10841210Y-10235571D01*
X10841210Y-10283190D01*
X10850733Y-10302238D01*
X10860257Y-10311762D01*
X10879305Y-10321286D01*
X10917400Y-10321286D01*
X10936448Y-10311762D01*
X10945971Y-10302238D01*
X10955495Y-10283190D01*
X11079305Y-10197476D02*
X11098352Y-10197476D01*
X11117400Y-10207000D01*
X11126924Y-10216524D01*
X11136448Y-10235571D01*
X11145971Y-10273667D01*
X11145971Y-10321286D01*
X11136448Y-10359381D01*
X11126924Y-10378429D01*
X11117400Y-10387952D01*
X11098352Y-10397476D01*
X11079305Y-10397476D01*
X11060257Y-10387952D01*
X11050733Y-10378429D01*
X11041210Y-10359381D01*
X11031686Y-10321286D01*
X11031686Y-10273667D01*
X11041210Y-10235571D01*
X11050733Y-10216524D01*
X11060257Y-10207000D01*
X11079305Y-10197476D01*
X11269781Y-10197476D02*
X11288828Y-10197476D01*
X11307876Y-10207000D01*
X11317400Y-10216524D01*
X11326924Y-10235571D01*
X11336448Y-10273667D01*
X11336448Y-10321286D01*
X11326924Y-10359381D01*
X11317400Y-10378429D01*
X11307876Y-10387952D01*
X11288828Y-10397476D01*
X11269781Y-10397476D01*
X11250733Y-10387952D01*
X11241209Y-10378429D01*
X11231686Y-10359381D01*
X11222162Y-10321286D01*
X11222162Y-10273667D01*
X11231686Y-10235571D01*
X11241209Y-10216524D01*
X11250733Y-10207000D01*
X11269781Y-10197476D01*
X11422162Y-10397476D02*
X11422162Y-10264143D01*
X11422162Y-10283190D02*
X11431686Y-10273667D01*
X11450733Y-10264143D01*
X11479305Y-10264143D01*
X11498352Y-10273667D01*
X11507876Y-10292714D01*
X11507876Y-10397476D01*
X11507876Y-10292714D02*
X11517400Y-10273667D01*
X11536448Y-10264143D01*
X11565019Y-10264143D01*
X11584067Y-10273667D01*
X11593590Y-10292714D01*
X11593590Y-10397476D01*
X11688828Y-10397476D02*
X11688828Y-10264143D01*
X11688828Y-10283190D02*
X11698352Y-10273667D01*
X11717400Y-10264143D01*
X11745971Y-10264143D01*
X11765019Y-10273667D01*
X11774543Y-10292714D01*
X11774543Y-10397476D01*
X11774543Y-10292714D02*
X11784067Y-10273667D01*
X11803114Y-10264143D01*
X11831686Y-10264143D01*
X11850733Y-10273667D01*
X11860257Y-10292714D01*
X11860257Y-10397476D01*
X12250733Y-10187952D02*
X12079305Y-10445095D01*
X12507876Y-10197476D02*
X12526924Y-10197476D01*
X12545971Y-10207000D01*
X12555495Y-10216524D01*
X12565019Y-10235571D01*
X12574543Y-10273667D01*
X12574543Y-10321286D01*
X12565019Y-10359381D01*
X12555495Y-10378429D01*
X12545971Y-10387952D01*
X12526924Y-10397476D01*
X12507876Y-10397476D01*
X12488828Y-10387952D01*
X12479305Y-10378429D01*
X12469781Y-10359381D01*
X12460257Y-10321286D01*
X12460257Y-10273667D01*
X12469781Y-10235571D01*
X12479305Y-10216524D01*
X12488828Y-10207000D01*
X12507876Y-10197476D01*
X12660257Y-10378429D02*
X12669781Y-10387952D01*
X12660257Y-10397476D01*
X12650733Y-10387952D01*
X12660257Y-10378429D01*
X12660257Y-10397476D01*
X12793590Y-10197476D02*
X12812638Y-10197476D01*
X12831686Y-10207000D01*
X12841209Y-10216524D01*
X12850733Y-10235571D01*
X12860257Y-10273667D01*
X12860257Y-10321286D01*
X12850733Y-10359381D01*
X12841209Y-10378429D01*
X12831686Y-10387952D01*
X12812638Y-10397476D01*
X12793590Y-10397476D01*
X12774543Y-10387952D01*
X12765019Y-10378429D01*
X12755495Y-10359381D01*
X12745971Y-10321286D01*
X12745971Y-10273667D01*
X12755495Y-10235571D01*
X12765019Y-10216524D01*
X12774543Y-10207000D01*
X12793590Y-10197476D01*
X12926924Y-10197476D02*
X13050733Y-10197476D01*
X12984067Y-10273667D01*
X13012638Y-10273667D01*
X13031686Y-10283190D01*
X13041209Y-10292714D01*
X13050733Y-10311762D01*
X13050733Y-10359381D01*
X13041209Y-10378429D01*
X13031686Y-10387952D01*
X13012638Y-10397476D01*
X12955495Y-10397476D01*
X12936448Y-10387952D01*
X12926924Y-10378429D01*
X13231686Y-10197476D02*
X13136448Y-10197476D01*
X13126924Y-10292714D01*
X13136448Y-10283190D01*
X13155495Y-10273667D01*
X13203114Y-10273667D01*
X13222162Y-10283190D01*
X13231686Y-10292714D01*
X13241209Y-10311762D01*
X13241209Y-10359381D01*
X13231686Y-10378429D01*
X13222162Y-10387952D01*
X13203114Y-10397476D01*
X13155495Y-10397476D01*
X13136448Y-10387952D01*
X13126924Y-10378429D01*
X13412638Y-10264143D02*
X13412638Y-10397476D01*
X13365019Y-10187952D02*
X13317400Y-10330810D01*
X13441209Y-10330810D01*
X13507876Y-10197476D02*
X13507876Y-10235571D01*
X13584067Y-10197476D02*
X13584067Y-10235571D01*
X13879305Y-10473667D02*
X13869781Y-10464143D01*
X13850733Y-10435571D01*
X13841209Y-10416524D01*
X13831686Y-10387952D01*
X13822162Y-10340333D01*
X13822162Y-10302238D01*
X13831686Y-10254619D01*
X13841209Y-10226048D01*
X13850733Y-10207000D01*
X13869781Y-10178429D01*
X13879305Y-10168905D01*
X14041209Y-10264143D02*
X14041209Y-10397476D01*
X13993590Y-10187952D02*
X13945971Y-10330810D01*
X14069781Y-10330810D01*
X14298352Y-10397476D02*
X14298352Y-10197476D01*
X14384067Y-10397476D02*
X14384067Y-10292714D01*
X14374543Y-10273667D01*
X14355495Y-10264143D01*
X14326924Y-10264143D01*
X14307876Y-10273667D01*
X14298352Y-10283190D01*
X14507876Y-10397476D02*
X14488828Y-10387952D01*
X14479305Y-10378429D01*
X14469781Y-10359381D01*
X14469781Y-10302238D01*
X14479305Y-10283190D01*
X14488828Y-10273667D01*
X14507876Y-10264143D01*
X14536448Y-10264143D01*
X14555495Y-10273667D01*
X14565019Y-10283190D01*
X14574543Y-10302238D01*
X14574543Y-10359381D01*
X14565019Y-10378429D01*
X14555495Y-10387952D01*
X14536448Y-10397476D01*
X14507876Y-10397476D01*
X14688828Y-10397476D02*
X14669781Y-10387952D01*
X14660257Y-10368905D01*
X14660257Y-10197476D01*
X14841209Y-10387952D02*
X14822162Y-10397476D01*
X14784067Y-10397476D01*
X14765019Y-10387952D01*
X14755495Y-10368905D01*
X14755495Y-10292714D01*
X14765019Y-10273667D01*
X14784067Y-10264143D01*
X14822162Y-10264143D01*
X14841209Y-10273667D01*
X14850733Y-10292714D01*
X14850733Y-10311762D01*
X14755495Y-10330810D01*
X14926924Y-10387952D02*
X14945971Y-10397476D01*
X14984067Y-10397476D01*
X15003114Y-10387952D01*
X15012638Y-10368905D01*
X15012638Y-10359381D01*
X15003114Y-10340333D01*
X14984067Y-10330810D01*
X14955495Y-10330810D01*
X14936448Y-10321286D01*
X14926924Y-10302238D01*
X14926924Y-10292714D01*
X14936448Y-10273667D01*
X14955495Y-10264143D01*
X14984067Y-10264143D01*
X15003114Y-10273667D01*
X15079305Y-10473667D02*
X15088828Y-10464143D01*
X15107876Y-10435571D01*
X15117400Y-10416524D01*
X15126924Y-10387952D01*
X15136448Y-10340333D01*
X15136448Y-10302238D01*
X15126924Y-10254619D01*
X15117400Y-10226048D01*
X15107876Y-10207000D01*
X15088828Y-10178429D01*
X15079305Y-10168905D01*
X15441209Y-10473667D02*
X15431686Y-10464143D01*
X15412638Y-10435571D01*
X15403114Y-10416524D01*
X15393590Y-10387952D01*
X15384067Y-10340333D01*
X15384067Y-10302238D01*
X15393590Y-10254619D01*
X15403114Y-10226048D01*
X15412638Y-10207000D01*
X15431686Y-10178429D01*
X15441209Y-10168905D01*
X15517400Y-10264143D02*
X15517400Y-10397476D01*
X15517400Y-10283190D02*
X15526924Y-10273667D01*
X15545971Y-10264143D01*
X15574543Y-10264143D01*
X15593590Y-10273667D01*
X15603114Y-10292714D01*
X15603114Y-10397476D01*
X15726924Y-10397476D02*
X15707876Y-10387952D01*
X15698352Y-10378429D01*
X15688828Y-10359381D01*
X15688828Y-10302238D01*
X15698352Y-10283190D01*
X15707876Y-10273667D01*
X15726924Y-10264143D01*
X15755495Y-10264143D01*
X15774543Y-10273667D01*
X15784067Y-10283190D01*
X15793590Y-10302238D01*
X15793590Y-10359381D01*
X15784067Y-10378429D01*
X15774543Y-10387952D01*
X15755495Y-10397476D01*
X15726924Y-10397476D01*
X15850733Y-10264143D02*
X15926924Y-10264143D01*
X15879305Y-10197476D02*
X15879305Y-10368905D01*
X15888828Y-10387952D01*
X15907876Y-10397476D01*
X15926924Y-10397476D01*
X16145971Y-10264143D02*
X16145971Y-10464143D01*
X16145971Y-10273667D02*
X16165019Y-10264143D01*
X16203114Y-10264143D01*
X16222162Y-10273667D01*
X16231686Y-10283190D01*
X16241209Y-10302238D01*
X16241209Y-10359381D01*
X16231686Y-10378429D01*
X16222162Y-10387952D01*
X16203114Y-10397476D01*
X16165019Y-10397476D01*
X16145971Y-10387952D01*
X16355495Y-10397476D02*
X16336448Y-10387952D01*
X16326924Y-10368905D01*
X16326924Y-10197476D01*
X16517400Y-10397476D02*
X16517400Y-10292714D01*
X16507876Y-10273667D01*
X16488828Y-10264143D01*
X16450733Y-10264143D01*
X16431686Y-10273667D01*
X16517400Y-10387952D02*
X16498352Y-10397476D01*
X16450733Y-10397476D01*
X16431686Y-10387952D01*
X16422162Y-10368905D01*
X16422162Y-10349857D01*
X16431686Y-10330810D01*
X16450733Y-10321286D01*
X16498352Y-10321286D01*
X16517400Y-10311762D01*
X16584067Y-10264143D02*
X16660257Y-10264143D01*
X16612638Y-10197476D02*
X16612638Y-10368905D01*
X16622162Y-10387952D01*
X16641209Y-10397476D01*
X16660257Y-10397476D01*
X16803114Y-10387952D02*
X16784067Y-10397476D01*
X16745971Y-10397476D01*
X16726924Y-10387952D01*
X16717400Y-10368905D01*
X16717400Y-10292714D01*
X16726924Y-10273667D01*
X16745971Y-10264143D01*
X16784067Y-10264143D01*
X16803114Y-10273667D01*
X16812638Y-10292714D01*
X16812638Y-10311762D01*
X16717400Y-10330810D01*
X16984067Y-10397476D02*
X16984067Y-10197476D01*
X16984067Y-10387952D02*
X16965019Y-10397476D01*
X16926924Y-10397476D01*
X16907876Y-10387952D01*
X16898352Y-10378429D01*
X16888829Y-10359381D01*
X16888829Y-10302238D01*
X16898352Y-10283190D01*
X16907876Y-10273667D01*
X16926924Y-10264143D01*
X16965019Y-10264143D01*
X16984067Y-10273667D01*
X17060257Y-10473667D02*
X17069781Y-10464143D01*
X17088829Y-10435571D01*
X17098352Y-10416524D01*
X17107876Y-10387952D01*
X17117400Y-10340333D01*
X17117400Y-10302238D01*
X17107876Y-10254619D01*
X17098352Y-10226048D01*
X17088829Y-10207000D01*
X17069781Y-10178429D01*
X17060257Y-10168905D01*
M02*
