G04 #@! TF.GenerationSoftware,KiCad,Pcbnew,(6.0.2)*
G04 #@! TF.CreationDate,2023-09-30T20:52:37-07:00*
G04 #@! TF.ProjectId,comscicalc_compute,636f6d73-6369-4636-916c-635f636f6d70,rev?*
G04 #@! TF.SameCoordinates,Original*
G04 #@! TF.FileFunction,Copper,L4,Bot*
G04 #@! TF.FilePolarity,Positive*
%FSLAX46Y46*%
G04 Gerber Fmt 4.6, Leading zero omitted, Abs format (unit mm)*
G04 Created by KiCad (PCBNEW (6.0.2)) date 2023-09-30 20:52:37*
%MOMM*%
%LPD*%
G01*
G04 APERTURE LIST*
G04 #@! TA.AperFunction,ViaPad*
%ADD10C,0.800000*%
G04 #@! TD*
G04 #@! TA.AperFunction,Conductor*
%ADD11C,0.500000*%
G04 #@! TD*
G04 #@! TA.AperFunction,Conductor*
%ADD12C,0.334300*%
G04 #@! TD*
G04 #@! TA.AperFunction,Conductor*
%ADD13C,0.250000*%
G04 #@! TD*
G04 #@! TA.AperFunction,Conductor*
%ADD14C,0.300000*%
G04 #@! TD*
G04 APERTURE END LIST*
D10*
X158314202Y-73729965D03*
X122732800Y-56946800D03*
X160934400Y-50444400D03*
X151786402Y-68294365D03*
X144729200Y-61620400D03*
X158314202Y-76523965D03*
X140157200Y-51358800D03*
X179527200Y-51866800D03*
X173177200Y-48463200D03*
X143459200Y-52781200D03*
X179527200Y-54406800D03*
X143154400Y-47193200D03*
X138633200Y-46888400D03*
X158288802Y-78759165D03*
X152751602Y-66084565D03*
X156917202Y-68726165D03*
X163677600Y-43891200D03*
X179527200Y-77266800D03*
X122732800Y-59486800D03*
X157226000Y-48056800D03*
X152548402Y-67659365D03*
X136347200Y-47955200D03*
X179578000Y-79806800D03*
X149352000Y-64160400D03*
X157145802Y-62579365D03*
X124155200Y-74726800D03*
X141732000Y-57404000D03*
X162204400Y-50444400D03*
X153945402Y-88817565D03*
X151130000Y-61823600D03*
X162479802Y-64357365D03*
X174011402Y-77260565D03*
X147493802Y-87039565D03*
X161950400Y-67854571D03*
X155520202Y-73729965D03*
X135432800Y-41097200D03*
X171145200Y-48463200D03*
X134772400Y-56642000D03*
X172106402Y-79343365D03*
X127635000Y-78105000D03*
X167843200Y-89255600D03*
X165705602Y-88817565D03*
X137464800Y-51409600D03*
X162458400Y-40640000D03*
X176094202Y-71951965D03*
X150672800Y-43661600D03*
X156921200Y-40284400D03*
X154351802Y-65881365D03*
X155244800Y-43637200D03*
X128778000Y-45532000D03*
X161717802Y-88817565D03*
X169113200Y-48463200D03*
X164896800Y-72186800D03*
X122732800Y-69646800D03*
X122732800Y-62026800D03*
X150821202Y-88817565D03*
X158314202Y-70935965D03*
X122682000Y-77266800D03*
X157988000Y-54813200D03*
X140309600Y-71170800D03*
X152958800Y-40894000D03*
X157069602Y-64001765D03*
X175891002Y-75076165D03*
X161108202Y-73729965D03*
X175854400Y-47650400D03*
X157704602Y-88817565D03*
X148996400Y-40284400D03*
X130454400Y-59131200D03*
X179527200Y-46786800D03*
X137363200Y-52476400D03*
X151282400Y-60756800D03*
X172258802Y-71850365D03*
X179476400Y-49326800D03*
X162453508Y-65356521D03*
X133466400Y-59116400D03*
X122631200Y-79806800D03*
X135255000Y-53467000D03*
X125780800Y-45481200D03*
X122732800Y-46786800D03*
X173228000Y-43942000D03*
X149250400Y-61874400D03*
X172512802Y-73628365D03*
X162048002Y-62579365D03*
X144627600Y-41097200D03*
X169164000Y-43942000D03*
X155934238Y-68907237D03*
X126685000Y-79984600D03*
X149352000Y-65278000D03*
X152044400Y-69900800D03*
X170180000Y-43942000D03*
X172212000Y-43942000D03*
X166725600Y-89408000D03*
X129794000Y-61061600D03*
X162560000Y-68681600D03*
X168148000Y-43942000D03*
X177734000Y-50749200D03*
X140157200Y-65633600D03*
X171196000Y-43942000D03*
X159969200Y-57861200D03*
X165709600Y-50038000D03*
X129794000Y-52832000D03*
X160477200Y-43637200D03*
X167894000Y-41046400D03*
X155498800Y-46482000D03*
X155498800Y-47447200D03*
X155321000Y-40386000D03*
X150459300Y-40386000D03*
X152958800Y-45821600D03*
X137279929Y-57776249D03*
X152408800Y-50901600D03*
X153508800Y-50901600D03*
X138057747Y-58554067D03*
X156565600Y-53238400D03*
X166725600Y-62484000D03*
X165709600Y-62433200D03*
X155600400Y-52513900D03*
X143103600Y-58267600D03*
X168198800Y-62382400D03*
X169824400Y-64008000D03*
X139581748Y-59300252D03*
X140258800Y-60096400D03*
X170688000Y-64922400D03*
X170688000Y-65938400D03*
X139446000Y-61061600D03*
X170688000Y-67005200D03*
X138328400Y-61518800D03*
X128270000Y-61061600D03*
X126949200Y-67513200D03*
X133248400Y-47345600D03*
X132576000Y-62116400D03*
X136347200Y-62636400D03*
X128219200Y-66395600D03*
X126746000Y-50546000D03*
X126746000Y-55245000D03*
X125476000Y-55245000D03*
X125476000Y-53086000D03*
X136588700Y-70002400D03*
X145846800Y-71577200D03*
X122809000Y-70866000D03*
X147370800Y-71579200D03*
X136855200Y-71221600D03*
X138328400Y-71272400D03*
X144322800Y-71577200D03*
X170688000Y-68004703D03*
X143052800Y-65024000D03*
X141884400Y-65278000D03*
X170688000Y-69037200D03*
X161442400Y-70104000D03*
X143611600Y-73609200D03*
X145084800Y-74523600D03*
X164955493Y-71189022D03*
X145846800Y-72898000D03*
X162610800Y-69951600D03*
X147218400Y-73710800D03*
X165618595Y-70441157D03*
X151145659Y-75984822D03*
X177110202Y-73221965D03*
X148313542Y-75996800D03*
X168859200Y-42062400D03*
X161696400Y-57861200D03*
X122682000Y-75946000D03*
X129794000Y-62077600D03*
X122682000Y-72136000D03*
X129794000Y-65989200D03*
X153380459Y-37103120D03*
X151765000Y-37592000D03*
D11*
X159969200Y-57861200D02*
X165709600Y-52120800D01*
X165709600Y-52120800D02*
X165709600Y-50038000D01*
X164642800Y-41046400D02*
X162052000Y-43637200D01*
X131191000Y-45593000D02*
X129794000Y-46990000D01*
X129794000Y-46990000D02*
X129794000Y-52832000D01*
X131953000Y-44831000D02*
X131191000Y-45593000D01*
X162052000Y-43637200D02*
X160477200Y-43637200D01*
X156718000Y-44831000D02*
X131953000Y-44831000D01*
X167894000Y-41046400D02*
X164642800Y-41046400D01*
X157911800Y-43637200D02*
X156718000Y-44831000D01*
X160477200Y-43637200D02*
X157911800Y-43637200D01*
D12*
X151294276Y-53420541D02*
X151116345Y-53242610D01*
X152408800Y-50901600D02*
X152641650Y-51134450D01*
X152641650Y-52497432D02*
X151718541Y-53420541D01*
X137609229Y-57776249D02*
X137279929Y-57776249D01*
X152641650Y-51134450D02*
X152641650Y-52497432D01*
X150870011Y-54269068D02*
X150870012Y-54269069D01*
X140127428Y-55258050D02*
X137609229Y-57776249D01*
X149881032Y-55258050D02*
X140127428Y-55258050D01*
X151294275Y-53420541D02*
X151294276Y-53420541D01*
X150692081Y-53666874D02*
X150870011Y-53844804D01*
X150870012Y-54269069D02*
X149881032Y-55258050D01*
X150692082Y-53242611D02*
G75*
G02*
X151116344Y-53242611I212131J-212131D01*
G01*
X150692082Y-53666873D02*
G75*
G02*
X150692082Y-53242611I212131J212131D01*
G01*
X151294275Y-53420541D02*
G75*
G03*
X151718541Y-53420541I212133J212134D01*
G01*
X150870010Y-54269067D02*
G75*
G03*
X150870010Y-53844805I-212131J212131D01*
G01*
X138057747Y-58224767D02*
X138057747Y-58554067D01*
X153275950Y-52760168D02*
X150143768Y-55892350D01*
X153508800Y-50901600D02*
X153275950Y-51134450D01*
X153275950Y-51134450D02*
X153275950Y-52760168D01*
X140390164Y-55892350D02*
X138057747Y-58224767D01*
X150143768Y-55892350D02*
X140390164Y-55892350D01*
D13*
X160218893Y-59135507D02*
X165561507Y-59135507D01*
X156565600Y-53238400D02*
X156565600Y-55482214D01*
X156565600Y-55482214D02*
X160218893Y-59135507D01*
X166725600Y-60299600D02*
X166725600Y-62484000D01*
X165561507Y-59135507D02*
X166725600Y-60299600D01*
X159613600Y-59588400D02*
X164388800Y-59588400D01*
X164388800Y-59588400D02*
X165709600Y-60909200D01*
X155600400Y-52513900D02*
X155600400Y-55575200D01*
X165709600Y-60909200D02*
X165709600Y-62433200D01*
X155600400Y-55575200D02*
X159613600Y-59588400D01*
D14*
X163390120Y-60062920D02*
X164439600Y-61112400D01*
X164960089Y-61632889D02*
X164960089Y-62636400D01*
X165449941Y-63233511D02*
X167347689Y-63233511D01*
X159417048Y-60062920D02*
X161798000Y-60062920D01*
X167347689Y-63233511D02*
X168198800Y-62382400D01*
X164439600Y-61112400D02*
X164960089Y-61632889D01*
X157621728Y-58267600D02*
X159417048Y-60062920D01*
X164960089Y-62636400D02*
X164960089Y-62743659D01*
X161798000Y-60062920D02*
X163390120Y-60062920D01*
X164960089Y-62743659D02*
X165449941Y-63233511D01*
X143103600Y-58267600D02*
X157621728Y-58267600D01*
X169824400Y-64008000D02*
X169418000Y-64414400D01*
X142843941Y-60033111D02*
X144284489Y-60033111D01*
X144983200Y-59334400D02*
X145042480Y-59275120D01*
X148640800Y-59275120D02*
X157216392Y-59275120D01*
X159417048Y-61061958D02*
X162976302Y-61061958D01*
X144284489Y-60033111D02*
X144983200Y-59334400D01*
X145042480Y-59275120D02*
X148640800Y-59275120D01*
X165217974Y-64414400D02*
X164743512Y-63939937D01*
X139581748Y-59300252D02*
X142111082Y-59300252D01*
X142111082Y-59300252D02*
X142843941Y-60033111D01*
X163961049Y-62046705D02*
X163961049Y-62280800D01*
X163961049Y-63157474D02*
X165036126Y-64232551D01*
X157216392Y-59275120D02*
X159003232Y-61061959D01*
X162976302Y-61061958D02*
X163656972Y-61742628D01*
X163961049Y-62280800D02*
X163961049Y-63157474D01*
X168351200Y-64414400D02*
X165217974Y-64414400D01*
X159003232Y-61061959D02*
X159417048Y-61061958D01*
X163656972Y-61742628D02*
X163961049Y-62046705D01*
X169418000Y-64414400D02*
X168351200Y-64414400D01*
X158796326Y-61561479D02*
X159918400Y-61561478D01*
X144491398Y-60532630D02*
X145158614Y-59865414D01*
X157009484Y-59774640D02*
X158345422Y-61110578D01*
X163461530Y-63364383D02*
X165011067Y-64913920D01*
X143050850Y-60532630D02*
X144491398Y-60532630D01*
X170679519Y-64913919D02*
X170688000Y-64922400D01*
X152958800Y-59774640D02*
X157009484Y-59774640D01*
X163461529Y-62253613D02*
X163461529Y-63042800D01*
X162769394Y-61561478D02*
X163049758Y-61841842D01*
X145158614Y-59865414D02*
X145249388Y-59774640D01*
X140695031Y-60532631D02*
X143050850Y-60532630D01*
X165011067Y-64913920D02*
X165424883Y-64913919D01*
X159918400Y-61561478D02*
X162769394Y-61561478D01*
X145249388Y-59774640D02*
X152958800Y-59774640D01*
X163049758Y-61841842D02*
X163461529Y-62253613D01*
X163461529Y-63042800D02*
X163461530Y-63364383D01*
X158345422Y-61110578D02*
X158796326Y-61561479D01*
X140258800Y-60096400D02*
X140695031Y-60532631D01*
X165424883Y-64913919D02*
X170679519Y-64913919D01*
X157734000Y-61417200D02*
X159924654Y-63607854D01*
X159924654Y-63607854D02*
X162998573Y-63607854D01*
X148246889Y-62623911D02*
X153733289Y-62623911D01*
X141427200Y-63042800D02*
X147828000Y-63042800D01*
X165329119Y-65938400D02*
X170688000Y-65938400D01*
X153733289Y-62623911D02*
X154940000Y-61417200D01*
X154940000Y-61417200D02*
X157734000Y-61417200D01*
X162998573Y-63607854D02*
X165329119Y-65938400D01*
X147828000Y-63042800D02*
X148246889Y-62623911D01*
X139446000Y-61061600D02*
X141427200Y-63042800D01*
X164658032Y-66106032D02*
X164989919Y-66437919D01*
X170120719Y-66437919D02*
X170688000Y-67005200D01*
X148120312Y-63542319D02*
X148539200Y-63123431D01*
X157546032Y-66106032D02*
X164658032Y-66106032D01*
X148539200Y-63123431D02*
X154563431Y-63123431D01*
X154563431Y-63123431D02*
X157546032Y-66106032D01*
X164989919Y-66437919D02*
X170120719Y-66437919D01*
X140351919Y-63542319D02*
X148120312Y-63542319D01*
X138328400Y-61518800D02*
X140351919Y-63542319D01*
X126949200Y-62382400D02*
X128270000Y-61061600D01*
X126949200Y-67513200D02*
X126949200Y-62382400D01*
X132576000Y-62116400D02*
X132576000Y-48018000D01*
X132576000Y-48018000D02*
X133248400Y-47345600D01*
X130098800Y-67005200D02*
X134467600Y-62636400D01*
X128219200Y-66395600D02*
X128828800Y-67005200D01*
X128828800Y-67005200D02*
X130098800Y-67005200D01*
X134467600Y-62636400D02*
X136347200Y-62636400D01*
X126746000Y-55245000D02*
X126746000Y-50546000D01*
X125476000Y-55245000D02*
X125476000Y-53086000D01*
X144373600Y-69291200D02*
X145846800Y-70764400D01*
X137299900Y-69291200D02*
X144373600Y-69291200D01*
X136588700Y-70002400D02*
X137299900Y-69291200D01*
X145846800Y-70764400D02*
X145846800Y-71577200D01*
X122809000Y-70866000D02*
X133096000Y-70866000D01*
X136694320Y-68791680D02*
X144583280Y-68791680D01*
X133096000Y-70866000D02*
X134493000Y-72263000D01*
X135813800Y-72263000D02*
X136855200Y-71221600D01*
X144583280Y-68791680D02*
X147370800Y-71579200D01*
X135839189Y-69646811D02*
X136694320Y-68791680D01*
X136855200Y-71221600D02*
X136747930Y-71221600D01*
X134493000Y-72263000D02*
X135813800Y-72263000D01*
X136747930Y-71221600D02*
X135839189Y-70312859D01*
X135839189Y-70312859D02*
X135839189Y-69646811D01*
X143166889Y-70421289D02*
X144322800Y-71577200D01*
X139179511Y-70421289D02*
X143166889Y-70421289D01*
X138328400Y-71272400D02*
X139179511Y-70421289D01*
X152252372Y-64516000D02*
X155249572Y-64516000D01*
X156542586Y-65809014D02*
X157339125Y-66605552D01*
X164344751Y-66605551D02*
X164744400Y-67005200D01*
X164744400Y-67005200D02*
X165743903Y-68004703D01*
X146405600Y-66505680D02*
X150262692Y-66505680D01*
X157339125Y-66605552D02*
X157752941Y-66605551D01*
X156161586Y-65428014D02*
X156542586Y-65809014D01*
X165743903Y-68004703D02*
X170688000Y-68004703D01*
X144534480Y-66505680D02*
X146405600Y-66505680D01*
X157752941Y-66605551D02*
X164344751Y-66605551D01*
X150262692Y-66505680D02*
X152252372Y-64516000D01*
X155249572Y-64516000D02*
X156161586Y-65428014D01*
X143052800Y-65024000D02*
X144534480Y-66505680D01*
X154025600Y-65125600D02*
X155152744Y-65125600D01*
X156240172Y-66213028D02*
X157132219Y-67105072D01*
X155152744Y-65125600D02*
X156240172Y-66213028D01*
X141884400Y-65278000D02*
X143611600Y-67005200D01*
X157132219Y-67105072D02*
X157546034Y-67105071D01*
X164391186Y-67358414D02*
X166069972Y-69037200D01*
X151485600Y-65989200D02*
X152349200Y-65125600D01*
X152349200Y-65125600D02*
X154025600Y-65125600D01*
X143611600Y-67005200D02*
X149707600Y-67005200D01*
X157546034Y-67105071D02*
X164137843Y-67105071D01*
X150469600Y-67005200D02*
X151485600Y-65989200D01*
X149707600Y-67005200D02*
X150469600Y-67005200D01*
X166069972Y-69037200D02*
X170688000Y-69037200D01*
X164137843Y-67105071D02*
X164391186Y-67358414D01*
D13*
X149517926Y-71389360D02*
X154599760Y-71389360D01*
X146100800Y-73761600D02*
X147076957Y-72785443D01*
X143611600Y-73609200D02*
X143764000Y-73761600D01*
X156836193Y-71389360D02*
X154599760Y-71389360D01*
X161442400Y-70104000D02*
X158121553Y-70104000D01*
X154599760Y-71389360D02*
X154381200Y-71389360D01*
X158121553Y-70104000D02*
X156836193Y-71389360D01*
X143764000Y-73761600D02*
X146100800Y-73761600D01*
X147076957Y-72785443D02*
X148121843Y-72785443D01*
X148121843Y-72785443D02*
X149517926Y-71389360D01*
X163042600Y-71653400D02*
X162407600Y-72288400D01*
X150672800Y-72898000D02*
X149047200Y-74523600D01*
X152095200Y-72288400D02*
X151282400Y-72288400D01*
X162407600Y-72288400D02*
X152095200Y-72288400D01*
X163506978Y-71189022D02*
X163042600Y-71653400D01*
X164955493Y-71189022D02*
X163506978Y-71189022D01*
X149047200Y-74523600D02*
X145084800Y-74523600D01*
X151282400Y-72288400D02*
X150672800Y-72898000D01*
X149331729Y-70939840D02*
X156593360Y-70939840D01*
X146441089Y-72303711D02*
X147967857Y-72303711D01*
X156593360Y-70939840D02*
X158153711Y-69379489D01*
X158153711Y-69379489D02*
X162038689Y-69379489D01*
X147967857Y-72303711D02*
X149331729Y-70939840D01*
X145846800Y-72898000D02*
X146441089Y-72303711D01*
X162038689Y-69379489D02*
X162610800Y-69951600D01*
X162196720Y-71838880D02*
X160985200Y-71838880D01*
X157472320Y-71838880D02*
X150093020Y-71838880D01*
X147306700Y-73799100D02*
X147218400Y-73710800D01*
X161231520Y-71838880D02*
X157472320Y-71838880D01*
X163594443Y-70441157D02*
X162864800Y-71170800D01*
X165618595Y-70441157D02*
X163594443Y-70441157D01*
X148132800Y-73799100D02*
X147306700Y-73799100D01*
X162864800Y-71170800D02*
X162196720Y-71838880D01*
X150093020Y-71838880D02*
X148132800Y-73799100D01*
D11*
X175230602Y-73221965D02*
X177110202Y-73221965D01*
X151563641Y-75566841D02*
X151133682Y-75996800D01*
X175230602Y-73221965D02*
X172436602Y-76015965D01*
X151563641Y-75566841D02*
X151145659Y-75984822D01*
X160905002Y-76015965D02*
X160092202Y-75203165D01*
X172436602Y-76015965D02*
X160905002Y-76015965D01*
X160092202Y-75203165D02*
X151927316Y-75203165D01*
X151927316Y-75203165D02*
X151563641Y-75566841D01*
X151133682Y-75996800D02*
X148313542Y-75996800D01*
X168300400Y-42062400D02*
X168859200Y-42062400D01*
X166979600Y-43383200D02*
X168300400Y-42062400D01*
X166979600Y-52578000D02*
X166979600Y-43383200D01*
X161696400Y-57861200D02*
X166979600Y-52578000D01*
D14*
X122682000Y-75946000D02*
X122682000Y-72136000D01*
X129794000Y-62077600D02*
X129794000Y-65989200D01*
X152253880Y-37103120D02*
X151765000Y-37592000D01*
X153380459Y-37103120D02*
X152253880Y-37103120D01*
G04 #@! TA.AperFunction,Conductor*
G36*
X198570121Y-33548002D02*
G01*
X198616614Y-33601658D01*
X198628000Y-33654000D01*
X198628000Y-93346000D01*
X198607998Y-93414121D01*
X198554342Y-93460614D01*
X198502000Y-93472000D01*
X103758000Y-93472000D01*
X103689879Y-93451998D01*
X103643386Y-93398342D01*
X103632000Y-93346000D01*
X103632000Y-89408000D01*
X165812096Y-89408000D01*
X165832058Y-89597928D01*
X165891073Y-89779556D01*
X165986560Y-89944944D01*
X166114347Y-90086866D01*
X166268848Y-90199118D01*
X166274876Y-90201802D01*
X166274878Y-90201803D01*
X166437281Y-90274109D01*
X166443312Y-90276794D01*
X166536712Y-90296647D01*
X166623656Y-90315128D01*
X166623661Y-90315128D01*
X166630113Y-90316500D01*
X166821087Y-90316500D01*
X166827539Y-90315128D01*
X166827544Y-90315128D01*
X166914488Y-90296647D01*
X167007888Y-90276794D01*
X167013919Y-90274109D01*
X167176322Y-90201803D01*
X167176324Y-90201802D01*
X167182352Y-90199118D01*
X167336853Y-90086866D01*
X167464640Y-89944944D01*
X167560127Y-89779556D01*
X167619142Y-89597928D01*
X167639104Y-89408000D01*
X167619142Y-89218072D01*
X167560127Y-89036444D01*
X167464640Y-88871056D01*
X167336853Y-88729134D01*
X167182352Y-88616882D01*
X167176324Y-88614198D01*
X167176322Y-88614197D01*
X167013919Y-88541891D01*
X167013918Y-88541891D01*
X167007888Y-88539206D01*
X166914487Y-88519353D01*
X166827544Y-88500872D01*
X166827539Y-88500872D01*
X166821087Y-88499500D01*
X166630113Y-88499500D01*
X166623661Y-88500872D01*
X166623656Y-88500872D01*
X166536713Y-88519353D01*
X166443312Y-88539206D01*
X166437282Y-88541891D01*
X166437281Y-88541891D01*
X166274878Y-88614197D01*
X166274876Y-88614198D01*
X166268848Y-88616882D01*
X166114347Y-88729134D01*
X165986560Y-88871056D01*
X165891073Y-89036444D01*
X165832058Y-89218072D01*
X165812096Y-89408000D01*
X103632000Y-89408000D01*
X103632000Y-79806800D01*
X121717696Y-79806800D01*
X121737658Y-79996728D01*
X121796673Y-80178356D01*
X121892160Y-80343744D01*
X122019947Y-80485666D01*
X122174448Y-80597918D01*
X122180476Y-80600602D01*
X122180478Y-80600603D01*
X122321672Y-80663466D01*
X122348912Y-80675594D01*
X122442313Y-80695447D01*
X122529256Y-80713928D01*
X122529261Y-80713928D01*
X122535713Y-80715300D01*
X122726687Y-80715300D01*
X122733139Y-80713928D01*
X122733144Y-80713928D01*
X122820087Y-80695447D01*
X122913488Y-80675594D01*
X122940728Y-80663466D01*
X123081922Y-80600603D01*
X123081924Y-80600602D01*
X123087952Y-80597918D01*
X123242453Y-80485666D01*
X123370240Y-80343744D01*
X123465727Y-80178356D01*
X123524742Y-79996728D01*
X123526017Y-79984600D01*
X125771496Y-79984600D01*
X125791458Y-80174528D01*
X125850473Y-80356156D01*
X125945960Y-80521544D01*
X126073747Y-80663466D01*
X126228248Y-80775718D01*
X126234276Y-80778402D01*
X126234278Y-80778403D01*
X126396681Y-80850709D01*
X126402712Y-80853394D01*
X126496113Y-80873247D01*
X126583056Y-80891728D01*
X126583061Y-80891728D01*
X126589513Y-80893100D01*
X126780487Y-80893100D01*
X126786939Y-80891728D01*
X126786944Y-80891728D01*
X126873887Y-80873247D01*
X126967288Y-80853394D01*
X126973319Y-80850709D01*
X127135722Y-80778403D01*
X127135724Y-80778402D01*
X127141752Y-80775718D01*
X127296253Y-80663466D01*
X127424040Y-80521544D01*
X127519527Y-80356156D01*
X127578542Y-80174528D01*
X127598504Y-79984600D01*
X127578542Y-79794672D01*
X127519527Y-79613044D01*
X127424040Y-79447656D01*
X127296253Y-79305734D01*
X127141752Y-79193482D01*
X127135724Y-79190798D01*
X127135722Y-79190797D01*
X126973319Y-79118491D01*
X126973318Y-79118491D01*
X126967288Y-79115806D01*
X126873888Y-79095953D01*
X126786944Y-79077472D01*
X126786939Y-79077472D01*
X126780487Y-79076100D01*
X126589513Y-79076100D01*
X126583061Y-79077472D01*
X126583056Y-79077472D01*
X126496112Y-79095953D01*
X126402712Y-79115806D01*
X126396682Y-79118491D01*
X126396681Y-79118491D01*
X126234278Y-79190797D01*
X126234276Y-79190798D01*
X126228248Y-79193482D01*
X126073747Y-79305734D01*
X125945960Y-79447656D01*
X125850473Y-79613044D01*
X125791458Y-79794672D01*
X125771496Y-79984600D01*
X123526017Y-79984600D01*
X123544704Y-79806800D01*
X123524742Y-79616872D01*
X123465727Y-79435244D01*
X123370240Y-79269856D01*
X123242453Y-79127934D01*
X123087952Y-79015682D01*
X123081924Y-79012998D01*
X123081922Y-79012997D01*
X122919519Y-78940691D01*
X122919518Y-78940691D01*
X122913488Y-78938006D01*
X122820087Y-78918153D01*
X122733144Y-78899672D01*
X122733139Y-78899672D01*
X122726687Y-78898300D01*
X122535713Y-78898300D01*
X122529261Y-78899672D01*
X122529256Y-78899672D01*
X122442313Y-78918153D01*
X122348912Y-78938006D01*
X122342882Y-78940691D01*
X122342881Y-78940691D01*
X122180478Y-79012997D01*
X122180476Y-79012998D01*
X122174448Y-79015682D01*
X122019947Y-79127934D01*
X121892160Y-79269856D01*
X121796673Y-79435244D01*
X121737658Y-79616872D01*
X121717696Y-79806800D01*
X103632000Y-79806800D01*
X103632000Y-75946000D01*
X121768496Y-75946000D01*
X121788458Y-76135928D01*
X121847473Y-76317556D01*
X121942960Y-76482944D01*
X121947378Y-76487851D01*
X121947379Y-76487852D01*
X122055186Y-76607584D01*
X122070747Y-76624866D01*
X122166982Y-76694785D01*
X122219323Y-76732813D01*
X122225248Y-76737118D01*
X122231276Y-76739802D01*
X122231278Y-76739803D01*
X122393681Y-76812109D01*
X122399712Y-76814794D01*
X122493112Y-76834647D01*
X122580056Y-76853128D01*
X122580061Y-76853128D01*
X122586513Y-76854500D01*
X122777487Y-76854500D01*
X122783939Y-76853128D01*
X122783944Y-76853128D01*
X122870888Y-76834647D01*
X122964288Y-76814794D01*
X122970319Y-76812109D01*
X123132722Y-76739803D01*
X123132724Y-76739802D01*
X123138752Y-76737118D01*
X123144678Y-76732813D01*
X123197018Y-76694785D01*
X123293253Y-76624866D01*
X123308814Y-76607584D01*
X123416621Y-76487852D01*
X123416622Y-76487851D01*
X123421040Y-76482944D01*
X123516527Y-76317556D01*
X123575542Y-76135928D01*
X123595504Y-75946000D01*
X123580881Y-75806872D01*
X123576232Y-75762635D01*
X123576232Y-75762633D01*
X123575542Y-75756072D01*
X123516527Y-75574444D01*
X123421040Y-75409056D01*
X123372864Y-75355551D01*
X123342146Y-75291544D01*
X123340500Y-75271241D01*
X123340500Y-72810759D01*
X123360502Y-72742638D01*
X123372864Y-72726449D01*
X123416621Y-72677852D01*
X123416622Y-72677851D01*
X123421040Y-72672944D01*
X123504013Y-72529231D01*
X123513223Y-72513279D01*
X123513224Y-72513278D01*
X123516527Y-72507556D01*
X123575542Y-72325928D01*
X123586474Y-72221921D01*
X123594814Y-72142565D01*
X123595504Y-72136000D01*
X123590711Y-72090394D01*
X123576232Y-71952635D01*
X123576232Y-71952633D01*
X123575542Y-71946072D01*
X123516527Y-71764444D01*
X123487113Y-71713498D01*
X123470376Y-71644506D01*
X123493596Y-71577414D01*
X123549403Y-71533526D01*
X123596233Y-71524500D01*
X132771050Y-71524500D01*
X132839171Y-71544502D01*
X132860145Y-71561405D01*
X133969341Y-72670600D01*
X133977331Y-72679381D01*
X133977339Y-72679390D01*
X133981584Y-72686080D01*
X134005003Y-72708072D01*
X134033273Y-72734619D01*
X134036115Y-72737374D01*
X134056667Y-72757926D01*
X134059801Y-72760357D01*
X134060163Y-72760638D01*
X134069191Y-72768348D01*
X134102867Y-72799972D01*
X134109818Y-72803793D01*
X134109819Y-72803794D01*
X134121655Y-72810301D01*
X134138184Y-72821158D01*
X134148869Y-72829447D01*
X134148871Y-72829448D01*
X134155131Y-72834304D01*
X134197544Y-72852657D01*
X134208181Y-72857868D01*
X134248663Y-72880124D01*
X134256342Y-72882096D01*
X134256343Y-72882096D01*
X134269434Y-72885457D01*
X134288136Y-72891859D01*
X134307823Y-72900379D01*
X134315652Y-72901619D01*
X134353448Y-72907605D01*
X134365074Y-72910013D01*
X134402135Y-72919529D01*
X134402136Y-72919529D01*
X134409812Y-72921500D01*
X134431258Y-72921500D01*
X134450968Y-72923051D01*
X134472151Y-72926406D01*
X134507642Y-72923051D01*
X134518136Y-72922059D01*
X134529994Y-72921500D01*
X135731744Y-72921500D01*
X135743600Y-72922059D01*
X135743603Y-72922059D01*
X135751337Y-72923788D01*
X135822169Y-72921562D01*
X135826127Y-72921500D01*
X135855232Y-72921500D01*
X135859632Y-72920944D01*
X135871464Y-72920012D01*
X135917631Y-72918562D01*
X135938221Y-72912580D01*
X135957582Y-72908570D01*
X135965224Y-72907605D01*
X135971004Y-72906875D01*
X135971005Y-72906875D01*
X135978864Y-72905882D01*
X135986229Y-72902966D01*
X135986233Y-72902965D01*
X136021821Y-72888874D01*
X136033031Y-72885035D01*
X136077400Y-72872145D01*
X136095865Y-72861225D01*
X136113605Y-72852534D01*
X136133556Y-72844635D01*
X136170929Y-72817482D01*
X136180848Y-72810967D01*
X136213777Y-72791493D01*
X136213781Y-72791490D01*
X136220607Y-72787453D01*
X136235771Y-72772289D01*
X136250805Y-72759448D01*
X136268157Y-72746841D01*
X136297603Y-72711247D01*
X136305592Y-72702468D01*
X136841055Y-72167005D01*
X136903367Y-72132979D01*
X136930150Y-72130100D01*
X136950687Y-72130100D01*
X136957139Y-72128728D01*
X136957144Y-72128728D01*
X137044088Y-72110247D01*
X137137488Y-72090394D01*
X137143519Y-72087709D01*
X137305922Y-72015403D01*
X137305924Y-72015402D01*
X137311952Y-72012718D01*
X137403293Y-71946355D01*
X137461114Y-71904345D01*
X137466453Y-71900466D01*
X137475293Y-71890648D01*
X137535739Y-71853408D01*
X137606723Y-71854760D01*
X137662565Y-71890646D01*
X137717147Y-71951266D01*
X137760584Y-71982825D01*
X137848323Y-72046571D01*
X137871648Y-72063518D01*
X137877676Y-72066202D01*
X137877678Y-72066203D01*
X138034446Y-72136000D01*
X138046112Y-72141194D01*
X138139512Y-72161047D01*
X138226456Y-72179528D01*
X138226461Y-72179528D01*
X138232913Y-72180900D01*
X138423887Y-72180900D01*
X138430339Y-72179528D01*
X138430344Y-72179528D01*
X138517288Y-72161047D01*
X138610688Y-72141194D01*
X138622354Y-72136000D01*
X138779122Y-72066203D01*
X138779124Y-72066202D01*
X138785152Y-72063518D01*
X138808478Y-72046571D01*
X138896216Y-71982825D01*
X138939653Y-71951266D01*
X138947572Y-71942471D01*
X139063021Y-71814252D01*
X139063022Y-71814251D01*
X139067440Y-71809344D01*
X139162927Y-71643956D01*
X139216587Y-71478809D01*
X139219902Y-71468607D01*
X139219902Y-71468605D01*
X139221942Y-71462328D01*
X139235155Y-71336613D01*
X139262168Y-71270958D01*
X139271370Y-71260690D01*
X139415366Y-71116694D01*
X139477678Y-71082668D01*
X139504461Y-71079789D01*
X142841939Y-71079789D01*
X142910060Y-71099791D01*
X142931034Y-71116694D01*
X143379830Y-71565490D01*
X143413856Y-71627802D01*
X143416044Y-71641411D01*
X143418044Y-71660437D01*
X143425448Y-71730874D01*
X143429258Y-71767128D01*
X143488273Y-71948756D01*
X143491576Y-71954478D01*
X143491577Y-71954479D01*
X143507943Y-71982825D01*
X143583760Y-72114144D01*
X143711547Y-72256066D01*
X143776778Y-72303459D01*
X143856053Y-72361056D01*
X143866048Y-72368318D01*
X143872076Y-72371002D01*
X143872078Y-72371003D01*
X144025706Y-72439402D01*
X144040512Y-72445994D01*
X144120754Y-72463050D01*
X144220856Y-72484328D01*
X144220861Y-72484328D01*
X144227313Y-72485700D01*
X144418287Y-72485700D01*
X144424739Y-72484328D01*
X144424744Y-72484328D01*
X144524846Y-72463050D01*
X144605088Y-72445994D01*
X144619894Y-72439402D01*
X144773522Y-72371003D01*
X144773524Y-72371002D01*
X144779552Y-72368318D01*
X144789548Y-72361056D01*
X144858117Y-72311237D01*
X144924985Y-72287379D01*
X144994136Y-72303459D01*
X145043616Y-72354373D01*
X145057716Y-72423955D01*
X145041297Y-72476173D01*
X145024586Y-72505118D01*
X145012273Y-72526444D01*
X144953258Y-72708072D01*
X144952568Y-72714633D01*
X144952568Y-72714635D01*
X144934614Y-72885457D01*
X144933296Y-72898000D01*
X144933986Y-72904565D01*
X144942853Y-72988930D01*
X144930081Y-73058768D01*
X144881579Y-73110615D01*
X144817543Y-73128100D01*
X144454560Y-73128100D01*
X144386439Y-73108098D01*
X144353219Y-73076723D01*
X144350640Y-73072256D01*
X144338496Y-73058768D01*
X144227275Y-72935245D01*
X144227274Y-72935244D01*
X144222853Y-72930334D01*
X144109464Y-72847952D01*
X144073694Y-72821963D01*
X144073693Y-72821962D01*
X144068352Y-72818082D01*
X144062324Y-72815398D01*
X144062322Y-72815397D01*
X143899919Y-72743091D01*
X143899918Y-72743091D01*
X143893888Y-72740406D01*
X143797251Y-72719865D01*
X143713544Y-72702072D01*
X143713539Y-72702072D01*
X143707087Y-72700700D01*
X143516113Y-72700700D01*
X143509661Y-72702072D01*
X143509656Y-72702072D01*
X143425949Y-72719865D01*
X143329312Y-72740406D01*
X143323282Y-72743091D01*
X143323281Y-72743091D01*
X143160878Y-72815397D01*
X143160876Y-72815398D01*
X143154848Y-72818082D01*
X143149507Y-72821962D01*
X143149506Y-72821963D01*
X143113736Y-72847952D01*
X143000347Y-72930334D01*
X142995926Y-72935244D01*
X142995925Y-72935245D01*
X142884705Y-73058768D01*
X142872560Y-73072256D01*
X142814286Y-73173190D01*
X142789916Y-73215400D01*
X142777073Y-73237644D01*
X142718058Y-73419272D01*
X142717368Y-73425833D01*
X142717368Y-73425835D01*
X142716044Y-73438437D01*
X142698096Y-73609200D01*
X142698786Y-73615765D01*
X142715439Y-73774205D01*
X142718058Y-73799128D01*
X142777073Y-73980756D01*
X142872560Y-74146144D01*
X143000347Y-74288066D01*
X143154848Y-74400318D01*
X143160876Y-74403002D01*
X143160878Y-74403003D01*
X143323281Y-74475309D01*
X143329312Y-74477994D01*
X143406844Y-74494474D01*
X143509656Y-74516328D01*
X143509661Y-74516328D01*
X143516113Y-74517700D01*
X143707087Y-74517700D01*
X143713539Y-74516328D01*
X143713544Y-74516328D01*
X143816356Y-74494474D01*
X143893888Y-74477994D01*
X143928736Y-74462479D01*
X143960387Y-74448387D01*
X143995886Y-74432582D01*
X144066252Y-74423148D01*
X144130549Y-74453254D01*
X144168363Y-74513343D01*
X144172443Y-74534515D01*
X144180912Y-74615093D01*
X144189820Y-74699842D01*
X144191258Y-74713528D01*
X144250273Y-74895156D01*
X144345760Y-75060544D01*
X144350178Y-75065451D01*
X144350179Y-75065452D01*
X144402545Y-75123610D01*
X144473547Y-75202466D01*
X144628048Y-75314718D01*
X144634076Y-75317402D01*
X144634078Y-75317403D01*
X144746399Y-75367411D01*
X144802512Y-75392394D01*
X144895913Y-75412247D01*
X144982856Y-75430728D01*
X144982861Y-75430728D01*
X144989313Y-75432100D01*
X145180287Y-75432100D01*
X145186739Y-75430728D01*
X145186744Y-75430728D01*
X145273687Y-75412247D01*
X145367088Y-75392394D01*
X145423201Y-75367411D01*
X145535522Y-75317403D01*
X145535524Y-75317402D01*
X145541552Y-75314718D01*
X145696053Y-75202466D01*
X145700468Y-75197563D01*
X145705380Y-75193140D01*
X145706505Y-75194389D01*
X145759814Y-75161549D01*
X145793000Y-75157100D01*
X147564105Y-75157100D01*
X147632226Y-75177102D01*
X147678719Y-75230758D01*
X147688823Y-75301032D01*
X147657742Y-75367408D01*
X147574502Y-75459856D01*
X147479015Y-75625244D01*
X147420000Y-75806872D01*
X147400038Y-75996800D01*
X147400728Y-76003365D01*
X147415321Y-76142206D01*
X147420000Y-76186728D01*
X147479015Y-76368356D01*
X147574502Y-76533744D01*
X147578920Y-76538651D01*
X147578921Y-76538652D01*
X147660045Y-76628749D01*
X147702289Y-76675666D01*
X147753086Y-76712572D01*
X147851446Y-76784035D01*
X147856790Y-76787918D01*
X147862818Y-76790602D01*
X147862820Y-76790603D01*
X148006336Y-76854500D01*
X148031254Y-76865594D01*
X148124655Y-76885447D01*
X148211598Y-76903928D01*
X148211603Y-76903928D01*
X148218055Y-76905300D01*
X148409029Y-76905300D01*
X148415481Y-76903928D01*
X148415486Y-76903928D01*
X148502429Y-76885447D01*
X148595830Y-76865594D01*
X148620748Y-76854500D01*
X148764264Y-76790603D01*
X148764266Y-76790602D01*
X148770294Y-76787918D01*
X148775633Y-76784039D01*
X148775640Y-76784035D01*
X148782070Y-76779363D01*
X148856129Y-76755300D01*
X150620777Y-76755300D01*
X150683710Y-76772164D01*
X150688907Y-76775940D01*
X150694936Y-76778624D01*
X150694939Y-76778626D01*
X150857340Y-76850931D01*
X150863371Y-76853616D01*
X150956772Y-76873469D01*
X151043715Y-76891950D01*
X151043720Y-76891950D01*
X151050172Y-76893322D01*
X151241146Y-76893322D01*
X151247598Y-76891950D01*
X151247603Y-76891950D01*
X151334546Y-76873469D01*
X151427947Y-76853616D01*
X151433978Y-76850931D01*
X151596381Y-76778625D01*
X151596383Y-76778624D01*
X151602411Y-76775940D01*
X151617710Y-76764825D01*
X151708962Y-76698526D01*
X151756912Y-76663688D01*
X151788371Y-76628749D01*
X151880280Y-76526674D01*
X151880281Y-76526673D01*
X151884699Y-76521766D01*
X151969966Y-76374079D01*
X151976882Y-76362101D01*
X151976883Y-76362100D01*
X151980186Y-76356378D01*
X152035045Y-76187541D01*
X152065782Y-76137382D01*
X152204593Y-75998570D01*
X152266905Y-75964545D01*
X152293689Y-75961665D01*
X159725831Y-75961665D01*
X159793952Y-75981667D01*
X159814926Y-75998570D01*
X160321232Y-76504876D01*
X160333618Y-76519288D01*
X160342151Y-76530883D01*
X160342156Y-76530888D01*
X160346494Y-76536783D01*
X160352072Y-76541522D01*
X160352075Y-76541525D01*
X160386770Y-76571000D01*
X160394286Y-76577930D01*
X160399982Y-76583626D01*
X160402843Y-76585889D01*
X160402848Y-76585894D01*
X160422268Y-76601258D01*
X160425669Y-76604047D01*
X160481287Y-76651298D01*
X160487800Y-76654624D01*
X160492839Y-76657985D01*
X160497981Y-76661161D01*
X160503718Y-76665699D01*
X160569877Y-76696620D01*
X160573771Y-76698523D01*
X160638810Y-76731734D01*
X160645919Y-76733473D01*
X160651553Y-76735569D01*
X160657323Y-76737488D01*
X160663952Y-76740587D01*
X160671115Y-76742077D01*
X160671118Y-76742078D01*
X160721832Y-76752626D01*
X160735437Y-76755456D01*
X160739703Y-76756422D01*
X160810612Y-76773773D01*
X160816214Y-76774121D01*
X160816217Y-76774121D01*
X160821766Y-76774465D01*
X160821764Y-76774500D01*
X160825736Y-76774740D01*
X160829957Y-76775117D01*
X160837117Y-76776606D01*
X160914544Y-76774511D01*
X160917952Y-76774465D01*
X172369532Y-76774465D01*
X172388482Y-76775898D01*
X172402717Y-76778064D01*
X172402721Y-76778064D01*
X172409951Y-76779164D01*
X172417243Y-76778571D01*
X172417246Y-76778571D01*
X172462620Y-76774880D01*
X172472835Y-76774465D01*
X172480895Y-76774465D01*
X172498282Y-76772438D01*
X172509109Y-76771176D01*
X172513484Y-76770743D01*
X172578941Y-76765419D01*
X172578944Y-76765418D01*
X172586239Y-76764825D01*
X172593203Y-76762569D01*
X172599162Y-76761378D01*
X172605017Y-76759994D01*
X172612283Y-76759147D01*
X172680929Y-76734230D01*
X172685057Y-76732813D01*
X172747538Y-76712572D01*
X172747540Y-76712571D01*
X172754501Y-76710316D01*
X172760756Y-76706520D01*
X172766230Y-76704014D01*
X172771660Y-76701295D01*
X172778539Y-76698798D01*
X172784660Y-76694785D01*
X172839578Y-76658779D01*
X172843282Y-76656442D01*
X172905709Y-76618560D01*
X172914086Y-76611162D01*
X172914110Y-76611189D01*
X172917102Y-76608536D01*
X172920335Y-76605833D01*
X172926454Y-76601821D01*
X172979730Y-76545582D01*
X172982108Y-76543140D01*
X175507878Y-74017370D01*
X175570190Y-73983344D01*
X175596973Y-73980465D01*
X176567615Y-73980465D01*
X176641674Y-74004528D01*
X176648104Y-74009200D01*
X176648111Y-74009204D01*
X176653450Y-74013083D01*
X176659478Y-74015767D01*
X176659480Y-74015768D01*
X176821883Y-74088074D01*
X176827914Y-74090759D01*
X176921315Y-74110612D01*
X177008258Y-74129093D01*
X177008263Y-74129093D01*
X177014715Y-74130465D01*
X177205689Y-74130465D01*
X177212141Y-74129093D01*
X177212146Y-74129093D01*
X177299089Y-74110612D01*
X177392490Y-74090759D01*
X177398521Y-74088074D01*
X177560924Y-74015768D01*
X177560926Y-74015767D01*
X177566954Y-74013083D01*
X177572299Y-74009200D01*
X177622359Y-73972829D01*
X177721455Y-73900831D01*
X177790120Y-73824571D01*
X177844823Y-73763817D01*
X177844824Y-73763816D01*
X177849242Y-73758909D01*
X177920820Y-73634932D01*
X177941425Y-73599244D01*
X177941426Y-73599243D01*
X177944729Y-73593521D01*
X178003744Y-73411893D01*
X178023706Y-73221965D01*
X178011738Y-73108098D01*
X178004434Y-73038600D01*
X178004434Y-73038598D01*
X178003744Y-73032037D01*
X177944729Y-72850409D01*
X177941396Y-72844635D01*
X177899233Y-72771607D01*
X177849242Y-72685021D01*
X177833220Y-72667226D01*
X177725877Y-72548010D01*
X177725876Y-72548009D01*
X177721455Y-72543099D01*
X177611849Y-72463465D01*
X177572296Y-72434728D01*
X177572295Y-72434727D01*
X177566954Y-72430847D01*
X177560926Y-72428163D01*
X177560924Y-72428162D01*
X177398521Y-72355856D01*
X177398520Y-72355856D01*
X177392490Y-72353171D01*
X177293858Y-72332206D01*
X177212146Y-72314837D01*
X177212141Y-72314837D01*
X177205689Y-72313465D01*
X177014715Y-72313465D01*
X177008263Y-72314837D01*
X177008258Y-72314837D01*
X176926546Y-72332206D01*
X176827914Y-72353171D01*
X176821884Y-72355856D01*
X176821883Y-72355856D01*
X176659480Y-72428162D01*
X176659478Y-72428163D01*
X176653450Y-72430847D01*
X176648111Y-72434726D01*
X176648104Y-72434730D01*
X176641674Y-72439402D01*
X176567615Y-72463465D01*
X175297672Y-72463465D01*
X175278722Y-72462032D01*
X175264487Y-72459866D01*
X175264483Y-72459866D01*
X175257253Y-72458766D01*
X175249961Y-72459359D01*
X175249958Y-72459359D01*
X175204584Y-72463050D01*
X175194369Y-72463465D01*
X175186309Y-72463465D01*
X175182675Y-72463889D01*
X175182669Y-72463889D01*
X175169644Y-72465408D01*
X175158082Y-72466756D01*
X175153734Y-72467186D01*
X175080966Y-72473105D01*
X175074005Y-72475360D01*
X175068065Y-72476547D01*
X175062190Y-72477936D01*
X175054921Y-72478783D01*
X174986272Y-72503701D01*
X174982144Y-72505118D01*
X174919666Y-72525358D01*
X174919664Y-72525359D01*
X174912703Y-72527614D01*
X174906448Y-72531410D01*
X174900974Y-72533916D01*
X174895544Y-72536635D01*
X174888665Y-72539132D01*
X174882545Y-72543145D01*
X174882544Y-72543145D01*
X174827626Y-72579151D01*
X174823922Y-72581488D01*
X174761495Y-72619370D01*
X174753118Y-72626768D01*
X174753094Y-72626741D01*
X174750102Y-72629394D01*
X174746869Y-72632097D01*
X174740750Y-72636109D01*
X174735718Y-72641421D01*
X174687474Y-72692348D01*
X174685096Y-72694790D01*
X173639707Y-73740179D01*
X173577395Y-73774205D01*
X173506580Y-73769140D01*
X173449744Y-73726593D01*
X173424933Y-73660073D01*
X173425303Y-73637909D01*
X173425616Y-73634932D01*
X173425616Y-73634930D01*
X173426306Y-73628365D01*
X173406344Y-73438437D01*
X173347329Y-73256809D01*
X173323422Y-73215400D01*
X173310116Y-73192355D01*
X173251842Y-73091421D01*
X173230169Y-73067350D01*
X173128477Y-72954410D01*
X173128476Y-72954409D01*
X173124055Y-72949499D01*
X173012036Y-72868112D01*
X172974896Y-72841128D01*
X172974895Y-72841127D01*
X172969554Y-72837247D01*
X172963526Y-72834563D01*
X172963524Y-72834562D01*
X172857440Y-72787331D01*
X172844368Y-72781511D01*
X172790273Y-72735531D01*
X172769623Y-72667604D01*
X172788975Y-72599296D01*
X172821554Y-72564469D01*
X172870055Y-72529231D01*
X172874477Y-72524320D01*
X172993423Y-72392217D01*
X172993424Y-72392216D01*
X172997842Y-72387309D01*
X173056116Y-72286375D01*
X173090025Y-72227644D01*
X173090026Y-72227643D01*
X173093329Y-72221921D01*
X173152344Y-72040293D01*
X173172306Y-71850365D01*
X173167394Y-71803626D01*
X173153034Y-71667000D01*
X173153034Y-71666998D01*
X173152344Y-71660437D01*
X173093329Y-71478809D01*
X173068642Y-71436049D01*
X173023126Y-71357214D01*
X172997842Y-71313421D01*
X172978772Y-71292241D01*
X172874477Y-71176410D01*
X172874476Y-71176409D01*
X172870055Y-71171499D01*
X172715554Y-71059247D01*
X172709526Y-71056563D01*
X172709524Y-71056562D01*
X172547121Y-70984256D01*
X172547120Y-70984256D01*
X172541090Y-70981571D01*
X172447690Y-70961718D01*
X172360746Y-70943237D01*
X172360741Y-70943237D01*
X172354289Y-70941865D01*
X172163315Y-70941865D01*
X172156863Y-70943237D01*
X172156858Y-70943237D01*
X172069914Y-70961718D01*
X171976514Y-70981571D01*
X171970484Y-70984256D01*
X171970483Y-70984256D01*
X171808080Y-71056562D01*
X171808078Y-71056563D01*
X171802050Y-71059247D01*
X171647549Y-71171499D01*
X171643128Y-71176409D01*
X171643127Y-71176410D01*
X171538833Y-71292241D01*
X171519762Y-71313421D01*
X171494478Y-71357214D01*
X171448963Y-71436049D01*
X171424275Y-71478809D01*
X171365260Y-71660437D01*
X171364570Y-71666998D01*
X171364570Y-71667000D01*
X171350210Y-71803626D01*
X171345298Y-71850365D01*
X171365260Y-72040293D01*
X171424275Y-72221921D01*
X171427578Y-72227643D01*
X171427579Y-72227644D01*
X171461488Y-72286375D01*
X171519762Y-72387309D01*
X171524180Y-72392216D01*
X171524181Y-72392217D01*
X171643127Y-72524320D01*
X171647549Y-72529231D01*
X171716258Y-72579151D01*
X171781797Y-72626768D01*
X171802050Y-72641483D01*
X171808078Y-72644167D01*
X171808080Y-72644168D01*
X171927236Y-72697219D01*
X171981331Y-72743199D01*
X172001981Y-72811126D01*
X171982629Y-72879434D01*
X171950050Y-72914261D01*
X171901549Y-72949499D01*
X171897128Y-72954409D01*
X171897127Y-72954410D01*
X171795436Y-73067350D01*
X171773762Y-73091421D01*
X171715488Y-73192355D01*
X171702183Y-73215400D01*
X171678275Y-73256809D01*
X171619260Y-73438437D01*
X171599298Y-73628365D01*
X171599988Y-73634930D01*
X171617906Y-73805406D01*
X171619260Y-73818293D01*
X171678275Y-73999921D01*
X171773762Y-74165309D01*
X171901549Y-74307231D01*
X172056050Y-74419483D01*
X172062078Y-74422167D01*
X172062080Y-74422168D01*
X172216063Y-74490725D01*
X172230514Y-74497159D01*
X172318043Y-74515764D01*
X172410858Y-74535493D01*
X172410863Y-74535493D01*
X172417315Y-74536865D01*
X172538831Y-74536865D01*
X172606952Y-74556867D01*
X172653445Y-74610523D01*
X172663549Y-74680797D01*
X172634055Y-74745377D01*
X172627926Y-74751960D01*
X172159326Y-75220560D01*
X172097014Y-75254586D01*
X172070231Y-75257465D01*
X161271373Y-75257465D01*
X161203252Y-75237463D01*
X161182278Y-75220560D01*
X160675972Y-74714254D01*
X160663586Y-74699842D01*
X160655053Y-74688247D01*
X160655048Y-74688242D01*
X160650710Y-74682347D01*
X160645132Y-74677608D01*
X160645129Y-74677605D01*
X160610434Y-74648130D01*
X160602918Y-74641200D01*
X160597223Y-74635505D01*
X160591082Y-74630647D01*
X160574951Y-74617884D01*
X160571547Y-74615093D01*
X160521499Y-74572574D01*
X160521497Y-74572573D01*
X160515917Y-74567832D01*
X160509401Y-74564504D01*
X160504352Y-74561137D01*
X160499223Y-74557970D01*
X160493486Y-74553431D01*
X160427327Y-74522510D01*
X160423427Y-74520604D01*
X160358394Y-74487396D01*
X160351286Y-74485657D01*
X160345643Y-74483558D01*
X160339880Y-74481641D01*
X160333252Y-74478543D01*
X160261785Y-74463678D01*
X160257501Y-74462708D01*
X160223160Y-74454305D01*
X160186592Y-74445357D01*
X160180990Y-74445009D01*
X160180987Y-74445009D01*
X160175438Y-74444665D01*
X160175440Y-74444629D01*
X160171447Y-74444390D01*
X160167255Y-74444016D01*
X160160087Y-74442525D01*
X160096322Y-74444250D01*
X160082681Y-74444619D01*
X160079274Y-74444665D01*
X151994385Y-74444665D01*
X151975435Y-74443232D01*
X151961200Y-74441066D01*
X151961196Y-74441066D01*
X151953966Y-74439966D01*
X151946674Y-74440559D01*
X151946671Y-74440559D01*
X151901297Y-74444250D01*
X151891082Y-74444665D01*
X151883023Y-74444665D01*
X151870040Y-74446179D01*
X151854810Y-74447954D01*
X151850435Y-74448387D01*
X151784977Y-74453711D01*
X151784974Y-74453712D01*
X151777679Y-74454305D01*
X151770715Y-74456561D01*
X151764756Y-74457752D01*
X151758902Y-74459136D01*
X151751635Y-74459983D01*
X151683012Y-74484892D01*
X151678881Y-74486310D01*
X151609416Y-74508814D01*
X151603163Y-74512608D01*
X151597698Y-74515110D01*
X151592255Y-74517836D01*
X151585379Y-74520332D01*
X151579262Y-74524343D01*
X151579255Y-74524346D01*
X151524332Y-74560355D01*
X151520619Y-74562698D01*
X151458208Y-74600571D01*
X151454006Y-74604281D01*
X151454003Y-74604284D01*
X151449832Y-74607968D01*
X151449808Y-74607941D01*
X151446816Y-74610595D01*
X151443589Y-74613293D01*
X151437464Y-74617309D01*
X151432427Y-74622626D01*
X151432426Y-74622627D01*
X151384221Y-74673513D01*
X151381845Y-74675955D01*
X151086158Y-74971643D01*
X150989328Y-75068473D01*
X150926428Y-75102625D01*
X150869829Y-75114655D01*
X150869826Y-75114656D01*
X150863371Y-75116028D01*
X150857341Y-75118713D01*
X150857340Y-75118713D01*
X150694937Y-75191019D01*
X150694935Y-75191020D01*
X150688907Y-75193704D01*
X150683566Y-75197584D01*
X150683565Y-75197585D01*
X150660647Y-75214236D01*
X150586586Y-75238300D01*
X149532594Y-75238300D01*
X149464473Y-75218298D01*
X149417980Y-75164642D01*
X149407876Y-75094368D01*
X149437370Y-75029788D01*
X149443499Y-75023205D01*
X149452883Y-75013821D01*
X149467917Y-75000980D01*
X149477894Y-74993731D01*
X149484307Y-74989072D01*
X149512498Y-74954995D01*
X149520488Y-74946216D01*
X151507899Y-72958805D01*
X151570211Y-72924779D01*
X151596994Y-72921900D01*
X162328833Y-72921900D01*
X162340016Y-72922427D01*
X162347509Y-72924102D01*
X162355435Y-72923853D01*
X162355436Y-72923853D01*
X162415586Y-72921962D01*
X162419545Y-72921900D01*
X162447456Y-72921900D01*
X162451391Y-72921403D01*
X162451456Y-72921395D01*
X162463293Y-72920462D01*
X162495551Y-72919448D01*
X162499570Y-72919322D01*
X162507489Y-72919073D01*
X162526943Y-72913421D01*
X162546300Y-72909413D01*
X162558530Y-72907868D01*
X162558531Y-72907868D01*
X162566397Y-72906874D01*
X162573768Y-72903955D01*
X162573770Y-72903955D01*
X162607512Y-72890596D01*
X162618742Y-72886751D01*
X162653583Y-72876629D01*
X162653584Y-72876629D01*
X162661193Y-72874418D01*
X162668012Y-72870385D01*
X162668017Y-72870383D01*
X162678628Y-72864107D01*
X162696376Y-72855412D01*
X162715217Y-72847952D01*
X162726200Y-72839973D01*
X162750987Y-72821964D01*
X162760907Y-72815448D01*
X162792135Y-72796980D01*
X162792138Y-72796978D01*
X162798962Y-72792942D01*
X162813283Y-72778621D01*
X162828317Y-72765780D01*
X162837032Y-72759448D01*
X162844707Y-72753872D01*
X162872898Y-72719795D01*
X162880888Y-72711016D01*
X163732477Y-71859427D01*
X163794789Y-71825401D01*
X163821572Y-71822522D01*
X164247293Y-71822522D01*
X164315414Y-71842524D01*
X164334640Y-71858865D01*
X164334913Y-71858562D01*
X164339825Y-71862985D01*
X164344240Y-71867888D01*
X164365822Y-71883568D01*
X164459000Y-71951266D01*
X164498741Y-71980140D01*
X164504769Y-71982824D01*
X164504771Y-71982825D01*
X164647948Y-72046571D01*
X164673205Y-72057816D01*
X164766605Y-72077669D01*
X164853549Y-72096150D01*
X164853554Y-72096150D01*
X164860006Y-72097522D01*
X165050980Y-72097522D01*
X165057432Y-72096150D01*
X165057437Y-72096150D01*
X165144381Y-72077669D01*
X165237781Y-72057816D01*
X165263038Y-72046571D01*
X165406215Y-71982825D01*
X165406217Y-71982824D01*
X165412245Y-71980140D01*
X165451987Y-71951266D01*
X165521906Y-71900466D01*
X165566746Y-71867888D01*
X165576613Y-71856930D01*
X165690114Y-71730874D01*
X165690115Y-71730873D01*
X165694533Y-71725966D01*
X165790020Y-71560578D01*
X165849035Y-71378950D01*
X165851874Y-71379873D01*
X165879503Y-71328818D01*
X165917686Y-71302470D01*
X166069314Y-71234962D01*
X166069321Y-71234958D01*
X166075347Y-71232275D01*
X166229848Y-71120023D01*
X166276760Y-71067922D01*
X166353216Y-70983009D01*
X166353217Y-70983008D01*
X166357635Y-70978101D01*
X166453122Y-70812713D01*
X166512137Y-70631085D01*
X166515569Y-70598437D01*
X166531409Y-70447722D01*
X166532099Y-70441157D01*
X166528695Y-70408765D01*
X166512827Y-70257792D01*
X166512827Y-70257790D01*
X166512137Y-70251229D01*
X166453122Y-70069601D01*
X166389193Y-69958872D01*
X166360937Y-69909932D01*
X166360936Y-69909931D01*
X166357635Y-69904213D01*
X166353216Y-69899305D01*
X166350641Y-69895761D01*
X166326782Y-69828893D01*
X166342863Y-69759742D01*
X166393777Y-69710261D01*
X166452577Y-69695700D01*
X170007776Y-69695700D01*
X170075897Y-69715702D01*
X170081834Y-69719762D01*
X170105135Y-69736691D01*
X170204533Y-69808908D01*
X170231248Y-69828318D01*
X170237276Y-69831002D01*
X170237278Y-69831003D01*
X170382728Y-69895761D01*
X170405712Y-69905994D01*
X170499113Y-69925847D01*
X170586056Y-69944328D01*
X170586061Y-69944328D01*
X170592513Y-69945700D01*
X170783487Y-69945700D01*
X170789939Y-69944328D01*
X170789944Y-69944328D01*
X170876887Y-69925847D01*
X170970288Y-69905994D01*
X170993272Y-69895761D01*
X171138722Y-69831003D01*
X171138724Y-69831002D01*
X171144752Y-69828318D01*
X171171468Y-69808908D01*
X171214830Y-69777403D01*
X171299253Y-69716066D01*
X171304480Y-69710261D01*
X171422621Y-69579052D01*
X171422622Y-69579051D01*
X171427040Y-69574144D01*
X171505376Y-69438463D01*
X171519223Y-69414479D01*
X171519224Y-69414478D01*
X171522527Y-69408756D01*
X171581542Y-69227128D01*
X171582443Y-69218562D01*
X171600814Y-69043765D01*
X171601504Y-69037200D01*
X171588535Y-68913802D01*
X171582232Y-68853835D01*
X171582232Y-68853833D01*
X171581542Y-68847272D01*
X171522527Y-68665644D01*
X171475362Y-68583952D01*
X171458624Y-68514957D01*
X171475362Y-68457952D01*
X171519223Y-68381982D01*
X171519224Y-68381981D01*
X171522527Y-68376259D01*
X171581542Y-68194631D01*
X171582390Y-68186568D01*
X171600814Y-68011268D01*
X171601504Y-68004703D01*
X171581542Y-67814775D01*
X171522527Y-67633147D01*
X171514074Y-67618505D01*
X171484886Y-67567951D01*
X171468148Y-67498956D01*
X171484885Y-67441953D01*
X171522527Y-67376756D01*
X171581542Y-67195128D01*
X171601504Y-67005200D01*
X171581542Y-66815272D01*
X171522527Y-66633644D01*
X171465459Y-66534799D01*
X171448721Y-66465805D01*
X171465459Y-66408800D01*
X171519223Y-66315679D01*
X171519224Y-66315678D01*
X171522527Y-66309956D01*
X171581542Y-66128328D01*
X171601504Y-65938400D01*
X171600814Y-65931835D01*
X171582232Y-65755035D01*
X171582232Y-65755033D01*
X171581542Y-65748472D01*
X171522527Y-65566844D01*
X171480124Y-65493400D01*
X171463386Y-65424405D01*
X171480124Y-65367400D01*
X171519223Y-65299679D01*
X171519224Y-65299678D01*
X171522527Y-65293956D01*
X171581542Y-65112328D01*
X171584092Y-65088072D01*
X171600814Y-64928965D01*
X171601504Y-64922400D01*
X171592822Y-64839797D01*
X171582232Y-64739035D01*
X171582232Y-64739033D01*
X171581542Y-64732472D01*
X171522527Y-64550844D01*
X171427040Y-64385456D01*
X171299253Y-64243534D01*
X171195555Y-64168193D01*
X171150094Y-64135163D01*
X171150093Y-64135162D01*
X171144752Y-64131282D01*
X171138724Y-64128598D01*
X171138722Y-64128597D01*
X170976319Y-64056291D01*
X170976318Y-64056291D01*
X170970288Y-64053606D01*
X170827040Y-64023158D01*
X170764568Y-63989430D01*
X170730246Y-63927280D01*
X170727928Y-63913082D01*
X170718632Y-63824635D01*
X170718632Y-63824633D01*
X170717942Y-63818072D01*
X170658927Y-63636444D01*
X170563440Y-63471056D01*
X170435653Y-63329134D01*
X170281152Y-63216882D01*
X170275124Y-63214198D01*
X170275122Y-63214197D01*
X170112719Y-63141891D01*
X170112718Y-63141891D01*
X170106688Y-63139206D01*
X170013287Y-63119353D01*
X169926344Y-63100872D01*
X169926339Y-63100872D01*
X169919887Y-63099500D01*
X169728913Y-63099500D01*
X169722461Y-63100872D01*
X169722456Y-63100872D01*
X169635513Y-63119353D01*
X169542112Y-63139206D01*
X169536082Y-63141891D01*
X169536081Y-63141891D01*
X169373678Y-63214197D01*
X169373676Y-63214198D01*
X169367648Y-63216882D01*
X169213147Y-63329134D01*
X169085360Y-63471056D01*
X168989873Y-63636444D01*
X168987832Y-63642726D01*
X168979348Y-63668837D01*
X168939274Y-63727442D01*
X168873877Y-63755079D01*
X168859515Y-63755900D01*
X168060750Y-63755900D01*
X167992629Y-63735898D01*
X167946136Y-63682242D01*
X167936032Y-63611968D01*
X167965526Y-63547388D01*
X167971655Y-63540805D01*
X168184655Y-63327805D01*
X168246967Y-63293779D01*
X168273750Y-63290900D01*
X168294287Y-63290900D01*
X168300739Y-63289528D01*
X168300744Y-63289528D01*
X168387688Y-63271047D01*
X168481088Y-63251194D01*
X168487119Y-63248509D01*
X168649522Y-63176203D01*
X168649524Y-63176202D01*
X168655552Y-63173518D01*
X168810053Y-63061266D01*
X168842797Y-63024900D01*
X168933421Y-62924252D01*
X168933422Y-62924251D01*
X168937840Y-62919344D01*
X169024472Y-62769293D01*
X169030023Y-62759679D01*
X169030024Y-62759678D01*
X169033327Y-62753956D01*
X169092342Y-62572328D01*
X169094472Y-62552068D01*
X169111614Y-62388965D01*
X169112304Y-62382400D01*
X169105815Y-62320659D01*
X169093032Y-62199035D01*
X169093032Y-62199033D01*
X169092342Y-62192472D01*
X169033327Y-62010844D01*
X169027195Y-62000222D01*
X168984615Y-61926472D01*
X168937840Y-61845456D01*
X168852395Y-61750559D01*
X168814475Y-61708445D01*
X168814474Y-61708444D01*
X168810053Y-61703534D01*
X168699083Y-61622909D01*
X168660894Y-61595163D01*
X168660893Y-61595162D01*
X168655552Y-61591282D01*
X168649524Y-61588598D01*
X168649522Y-61588597D01*
X168487119Y-61516291D01*
X168487118Y-61516291D01*
X168481088Y-61513606D01*
X168387687Y-61493753D01*
X168300744Y-61475272D01*
X168300739Y-61475272D01*
X168294287Y-61473900D01*
X168103313Y-61473900D01*
X168096861Y-61475272D01*
X168096856Y-61475272D01*
X168009913Y-61493753D01*
X167916512Y-61513606D01*
X167910482Y-61516291D01*
X167910481Y-61516291D01*
X167748078Y-61588597D01*
X167748076Y-61588598D01*
X167742048Y-61591282D01*
X167736707Y-61595162D01*
X167736706Y-61595163D01*
X167698517Y-61622909D01*
X167587547Y-61703534D01*
X167578735Y-61713321D01*
X167518293Y-61750559D01*
X167447309Y-61749209D01*
X167388323Y-61709696D01*
X167360064Y-61644566D01*
X167359100Y-61629010D01*
X167359100Y-60378367D01*
X167359627Y-60367184D01*
X167361302Y-60359691D01*
X167359162Y-60291614D01*
X167359100Y-60287655D01*
X167359100Y-60259744D01*
X167358595Y-60255744D01*
X167357662Y-60243901D01*
X167356522Y-60207629D01*
X167356273Y-60199710D01*
X167350622Y-60180258D01*
X167346614Y-60160906D01*
X167345067Y-60148663D01*
X167344074Y-60140803D01*
X167341156Y-60133432D01*
X167327800Y-60099697D01*
X167323955Y-60088470D01*
X167321984Y-60081685D01*
X167311618Y-60046007D01*
X167306099Y-60036674D01*
X167301307Y-60028572D01*
X167292612Y-60010824D01*
X167285152Y-59991983D01*
X167259164Y-59956213D01*
X167252648Y-59946293D01*
X167234180Y-59915065D01*
X167234178Y-59915062D01*
X167230142Y-59908238D01*
X167215821Y-59893917D01*
X167202980Y-59878883D01*
X167195731Y-59868906D01*
X167191072Y-59862493D01*
X167156995Y-59834302D01*
X167148216Y-59826312D01*
X166065159Y-58743254D01*
X166057619Y-58734968D01*
X166053507Y-58728489D01*
X166003855Y-58681863D01*
X166001014Y-58679109D01*
X165981277Y-58659372D01*
X165978080Y-58656892D01*
X165969058Y-58649187D01*
X165936828Y-58618921D01*
X165929882Y-58615102D01*
X165929879Y-58615100D01*
X165919073Y-58609159D01*
X165902554Y-58598308D01*
X165902090Y-58597948D01*
X165886548Y-58585893D01*
X165879279Y-58582748D01*
X165879275Y-58582745D01*
X165845970Y-58568333D01*
X165835320Y-58563116D01*
X165796567Y-58541812D01*
X165776944Y-58536774D01*
X165758241Y-58530370D01*
X165746927Y-58525474D01*
X165746926Y-58525474D01*
X165739652Y-58522326D01*
X165731829Y-58521087D01*
X165731819Y-58521084D01*
X165695983Y-58515408D01*
X165684363Y-58513002D01*
X165649218Y-58503979D01*
X165649217Y-58503979D01*
X165641537Y-58502007D01*
X165621283Y-58502007D01*
X165601572Y-58500456D01*
X165589393Y-58498527D01*
X165581564Y-58497287D01*
X165573672Y-58498033D01*
X165537546Y-58501448D01*
X165525688Y-58502007D01*
X162593713Y-58502007D01*
X162525592Y-58482005D01*
X162479099Y-58428349D01*
X162468995Y-58358075D01*
X162484594Y-58313007D01*
X162527623Y-58238479D01*
X162527624Y-58238478D01*
X162530927Y-58232756D01*
X162585787Y-58063914D01*
X162616525Y-58013756D01*
X167468511Y-53161770D01*
X167482923Y-53149384D01*
X167494518Y-53140851D01*
X167494523Y-53140846D01*
X167500418Y-53136508D01*
X167505157Y-53130930D01*
X167505160Y-53130927D01*
X167534635Y-53096232D01*
X167541565Y-53088716D01*
X167547260Y-53083021D01*
X167564881Y-53060749D01*
X167567672Y-53057345D01*
X167610191Y-53007297D01*
X167610192Y-53007295D01*
X167614933Y-53001715D01*
X167618261Y-52995199D01*
X167621628Y-52990150D01*
X167624795Y-52985021D01*
X167629334Y-52979284D01*
X167660255Y-52913125D01*
X167662161Y-52909225D01*
X167674298Y-52885456D01*
X167695369Y-52844192D01*
X167697108Y-52837084D01*
X167699207Y-52831441D01*
X167701124Y-52825678D01*
X167704222Y-52819050D01*
X167719087Y-52747583D01*
X167720057Y-52743299D01*
X167728518Y-52708721D01*
X167737408Y-52672390D01*
X167738100Y-52661236D01*
X167738136Y-52661238D01*
X167738375Y-52657245D01*
X167738749Y-52653053D01*
X167740240Y-52645885D01*
X167738146Y-52568479D01*
X167738100Y-52565072D01*
X167738100Y-50749200D01*
X176820496Y-50749200D01*
X176840458Y-50939128D01*
X176899473Y-51120756D01*
X176994960Y-51286144D01*
X177122747Y-51428066D01*
X177277248Y-51540318D01*
X177283276Y-51543002D01*
X177283278Y-51543003D01*
X177445681Y-51615309D01*
X177451712Y-51617994D01*
X177545113Y-51637847D01*
X177632056Y-51656328D01*
X177632061Y-51656328D01*
X177638513Y-51657700D01*
X177829487Y-51657700D01*
X177835939Y-51656328D01*
X177835944Y-51656328D01*
X177922887Y-51637847D01*
X178016288Y-51617994D01*
X178022319Y-51615309D01*
X178184722Y-51543003D01*
X178184724Y-51543002D01*
X178190752Y-51540318D01*
X178345253Y-51428066D01*
X178473040Y-51286144D01*
X178568527Y-51120756D01*
X178627542Y-50939128D01*
X178647504Y-50749200D01*
X178627542Y-50559272D01*
X178568527Y-50377644D01*
X178556073Y-50356072D01*
X178476341Y-50217974D01*
X178473040Y-50212256D01*
X178458038Y-50195594D01*
X178349675Y-50075245D01*
X178349674Y-50075244D01*
X178345253Y-50070334D01*
X178190752Y-49958082D01*
X178184724Y-49955398D01*
X178184722Y-49955397D01*
X178022319Y-49883091D01*
X178022318Y-49883091D01*
X178016288Y-49880406D01*
X177895046Y-49854635D01*
X177835944Y-49842072D01*
X177835939Y-49842072D01*
X177829487Y-49840700D01*
X177638513Y-49840700D01*
X177632061Y-49842072D01*
X177632056Y-49842072D01*
X177572954Y-49854635D01*
X177451712Y-49880406D01*
X177445682Y-49883091D01*
X177445681Y-49883091D01*
X177283278Y-49955397D01*
X177283276Y-49955398D01*
X177277248Y-49958082D01*
X177122747Y-50070334D01*
X177118326Y-50075244D01*
X177118325Y-50075245D01*
X177009963Y-50195594D01*
X176994960Y-50212256D01*
X176991659Y-50217974D01*
X176911928Y-50356072D01*
X176899473Y-50377644D01*
X176840458Y-50559272D01*
X176820496Y-50749200D01*
X167738100Y-50749200D01*
X167738100Y-49326800D01*
X178562896Y-49326800D01*
X178582858Y-49516728D01*
X178641873Y-49698356D01*
X178737360Y-49863744D01*
X178741778Y-49868651D01*
X178741779Y-49868652D01*
X178822302Y-49958082D01*
X178865147Y-50005666D01*
X179019648Y-50117918D01*
X179025676Y-50120602D01*
X179025678Y-50120603D01*
X179188081Y-50192909D01*
X179194112Y-50195594D01*
X179287512Y-50215447D01*
X179374456Y-50233928D01*
X179374461Y-50233928D01*
X179380913Y-50235300D01*
X179571887Y-50235300D01*
X179578339Y-50233928D01*
X179578344Y-50233928D01*
X179665288Y-50215447D01*
X179758688Y-50195594D01*
X179764719Y-50192909D01*
X179927122Y-50120603D01*
X179927124Y-50120602D01*
X179933152Y-50117918D01*
X180087653Y-50005666D01*
X180130498Y-49958082D01*
X180211021Y-49868652D01*
X180211022Y-49868651D01*
X180215440Y-49863744D01*
X180310927Y-49698356D01*
X180369942Y-49516728D01*
X180389904Y-49326800D01*
X180373623Y-49171891D01*
X180370632Y-49143435D01*
X180370632Y-49143433D01*
X180369942Y-49136872D01*
X180310927Y-48955244D01*
X180215440Y-48789856D01*
X180087653Y-48647934D01*
X179933152Y-48535682D01*
X179927124Y-48532998D01*
X179927122Y-48532997D01*
X179764719Y-48460691D01*
X179764718Y-48460691D01*
X179758688Y-48458006D01*
X179665288Y-48438153D01*
X179578344Y-48419672D01*
X179578339Y-48419672D01*
X179571887Y-48418300D01*
X179380913Y-48418300D01*
X179374461Y-48419672D01*
X179374456Y-48419672D01*
X179287512Y-48438153D01*
X179194112Y-48458006D01*
X179188082Y-48460691D01*
X179188081Y-48460691D01*
X179025678Y-48532997D01*
X179025676Y-48532998D01*
X179019648Y-48535682D01*
X178865147Y-48647934D01*
X178737360Y-48789856D01*
X178641873Y-48955244D01*
X178582858Y-49136872D01*
X178582168Y-49143433D01*
X178582168Y-49143435D01*
X178579177Y-49171891D01*
X178562896Y-49326800D01*
X167738100Y-49326800D01*
X167738100Y-46786800D01*
X178613696Y-46786800D01*
X178614386Y-46793365D01*
X178626837Y-46911826D01*
X178633658Y-46976728D01*
X178692673Y-47158356D01*
X178788160Y-47323744D01*
X178792578Y-47328651D01*
X178792579Y-47328652D01*
X178813750Y-47352165D01*
X178915947Y-47465666D01*
X179070448Y-47577918D01*
X179076476Y-47580602D01*
X179076478Y-47580603D01*
X179198250Y-47634819D01*
X179244912Y-47655594D01*
X179330884Y-47673868D01*
X179425256Y-47693928D01*
X179425261Y-47693928D01*
X179431713Y-47695300D01*
X179622687Y-47695300D01*
X179629139Y-47693928D01*
X179629144Y-47693928D01*
X179723516Y-47673868D01*
X179809488Y-47655594D01*
X179856150Y-47634819D01*
X179977922Y-47580603D01*
X179977924Y-47580602D01*
X179983952Y-47577918D01*
X180138453Y-47465666D01*
X180240650Y-47352165D01*
X180261821Y-47328652D01*
X180261822Y-47328651D01*
X180266240Y-47323744D01*
X180361727Y-47158356D01*
X180420742Y-46976728D01*
X180427564Y-46911826D01*
X180440014Y-46793365D01*
X180440704Y-46786800D01*
X180434745Y-46730100D01*
X180421432Y-46603435D01*
X180421432Y-46603433D01*
X180420742Y-46596872D01*
X180361727Y-46415244D01*
X180266240Y-46249856D01*
X180138453Y-46107934D01*
X180039357Y-46035936D01*
X179989294Y-45999563D01*
X179989293Y-45999562D01*
X179983952Y-45995682D01*
X179977924Y-45992998D01*
X179977922Y-45992997D01*
X179815519Y-45920691D01*
X179815518Y-45920691D01*
X179809488Y-45918006D01*
X179716087Y-45898153D01*
X179629144Y-45879672D01*
X179629139Y-45879672D01*
X179622687Y-45878300D01*
X179431713Y-45878300D01*
X179425261Y-45879672D01*
X179425256Y-45879672D01*
X179338312Y-45898153D01*
X179244912Y-45918006D01*
X179238882Y-45920691D01*
X179238881Y-45920691D01*
X179076478Y-45992997D01*
X179076476Y-45992998D01*
X179070448Y-45995682D01*
X179065107Y-45999562D01*
X179065106Y-45999563D01*
X179015043Y-46035936D01*
X178915947Y-46107934D01*
X178788160Y-46249856D01*
X178692673Y-46415244D01*
X178633658Y-46596872D01*
X178632968Y-46603433D01*
X178632968Y-46603435D01*
X178619655Y-46730100D01*
X178613696Y-46786800D01*
X167738100Y-46786800D01*
X167738100Y-44939267D01*
X167758102Y-44871146D01*
X167811758Y-44824653D01*
X167882032Y-44814549D01*
X167890297Y-44816020D01*
X168046056Y-44849128D01*
X168046061Y-44849128D01*
X168052513Y-44850500D01*
X168243487Y-44850500D01*
X168249939Y-44849128D01*
X168249944Y-44849128D01*
X168336887Y-44830647D01*
X168430288Y-44810794D01*
X168438260Y-44807245D01*
X168557899Y-44753978D01*
X168604752Y-44733118D01*
X168675118Y-44723684D01*
X168707247Y-44733118D01*
X168707248Y-44733118D01*
X168754101Y-44753978D01*
X168873741Y-44807245D01*
X168881712Y-44810794D01*
X168975112Y-44830647D01*
X169062056Y-44849128D01*
X169062061Y-44849128D01*
X169068513Y-44850500D01*
X169259487Y-44850500D01*
X169265939Y-44849128D01*
X169265944Y-44849128D01*
X169352887Y-44830647D01*
X169446288Y-44810794D01*
X169454260Y-44807245D01*
X169573899Y-44753978D01*
X169620752Y-44733118D01*
X169691118Y-44723684D01*
X169723247Y-44733118D01*
X169723248Y-44733118D01*
X169770101Y-44753978D01*
X169889741Y-44807245D01*
X169897712Y-44810794D01*
X169991112Y-44830647D01*
X170078056Y-44849128D01*
X170078061Y-44849128D01*
X170084513Y-44850500D01*
X170275487Y-44850500D01*
X170281939Y-44849128D01*
X170281944Y-44849128D01*
X170368887Y-44830647D01*
X170462288Y-44810794D01*
X170470260Y-44807245D01*
X170589899Y-44753978D01*
X170636752Y-44733118D01*
X170707118Y-44723684D01*
X170739247Y-44733118D01*
X170739248Y-44733118D01*
X170786101Y-44753978D01*
X170905741Y-44807245D01*
X170913712Y-44810794D01*
X171007112Y-44830647D01*
X171094056Y-44849128D01*
X171094061Y-44849128D01*
X171100513Y-44850500D01*
X171291487Y-44850500D01*
X171297939Y-44849128D01*
X171297944Y-44849128D01*
X171384887Y-44830647D01*
X171478288Y-44810794D01*
X171486260Y-44807245D01*
X171605899Y-44753978D01*
X171652752Y-44733118D01*
X171723118Y-44723684D01*
X171755247Y-44733118D01*
X171755248Y-44733118D01*
X171802101Y-44753978D01*
X171921741Y-44807245D01*
X171929712Y-44810794D01*
X172023112Y-44830647D01*
X172110056Y-44849128D01*
X172110061Y-44849128D01*
X172116513Y-44850500D01*
X172307487Y-44850500D01*
X172313939Y-44849128D01*
X172313944Y-44849128D01*
X172400887Y-44830647D01*
X172494288Y-44810794D01*
X172502260Y-44807245D01*
X172621899Y-44753978D01*
X172668752Y-44733118D01*
X172739118Y-44723684D01*
X172771247Y-44733118D01*
X172771248Y-44733118D01*
X172818101Y-44753978D01*
X172937741Y-44807245D01*
X172945712Y-44810794D01*
X173039112Y-44830647D01*
X173126056Y-44849128D01*
X173126061Y-44849128D01*
X173132513Y-44850500D01*
X173323487Y-44850500D01*
X173329939Y-44849128D01*
X173329944Y-44849128D01*
X173416887Y-44830647D01*
X173510288Y-44810794D01*
X173516319Y-44808109D01*
X173678722Y-44735803D01*
X173678724Y-44735802D01*
X173684752Y-44733118D01*
X173839253Y-44620866D01*
X173844453Y-44615091D01*
X173962621Y-44483852D01*
X173962622Y-44483851D01*
X173967040Y-44478944D01*
X174038324Y-44355476D01*
X174059223Y-44319279D01*
X174059224Y-44319278D01*
X174062527Y-44313556D01*
X174121542Y-44131928D01*
X174123482Y-44113475D01*
X174140814Y-43948565D01*
X174141504Y-43942000D01*
X174121542Y-43752072D01*
X174062527Y-43570444D01*
X173967040Y-43405056D01*
X173839253Y-43263134D01*
X173684752Y-43150882D01*
X173678724Y-43148198D01*
X173678722Y-43148197D01*
X173516319Y-43075891D01*
X173516318Y-43075891D01*
X173510288Y-43073206D01*
X173401273Y-43050034D01*
X173329944Y-43034872D01*
X173329939Y-43034872D01*
X173323487Y-43033500D01*
X173132513Y-43033500D01*
X173126061Y-43034872D01*
X173126056Y-43034872D01*
X173054727Y-43050034D01*
X172945712Y-43073206D01*
X172771248Y-43150882D01*
X172700882Y-43160316D01*
X172668753Y-43150882D01*
X172668752Y-43150882D01*
X172494288Y-43073206D01*
X172385273Y-43050034D01*
X172313944Y-43034872D01*
X172313939Y-43034872D01*
X172307487Y-43033500D01*
X172116513Y-43033500D01*
X172110061Y-43034872D01*
X172110056Y-43034872D01*
X172038727Y-43050034D01*
X171929712Y-43073206D01*
X171755248Y-43150882D01*
X171684882Y-43160316D01*
X171652753Y-43150882D01*
X171652752Y-43150882D01*
X171478288Y-43073206D01*
X171369273Y-43050034D01*
X171297944Y-43034872D01*
X171297939Y-43034872D01*
X171291487Y-43033500D01*
X171100513Y-43033500D01*
X171094061Y-43034872D01*
X171094056Y-43034872D01*
X171022727Y-43050034D01*
X170913712Y-43073206D01*
X170739248Y-43150882D01*
X170668882Y-43160316D01*
X170636753Y-43150882D01*
X170636752Y-43150882D01*
X170462288Y-43073206D01*
X170353273Y-43050034D01*
X170281944Y-43034872D01*
X170281939Y-43034872D01*
X170275487Y-43033500D01*
X170084513Y-43033500D01*
X170078061Y-43034872D01*
X170078056Y-43034872D01*
X170006727Y-43050034D01*
X169897712Y-43073206D01*
X169723248Y-43150882D01*
X169652882Y-43160316D01*
X169620753Y-43150882D01*
X169620752Y-43150882D01*
X169446288Y-43073206D01*
X169439833Y-43071834D01*
X169439824Y-43071831D01*
X169388333Y-43060886D01*
X169325860Y-43027158D01*
X169291539Y-42965008D01*
X169296267Y-42894169D01*
X169340469Y-42835705D01*
X169470453Y-42741266D01*
X169480532Y-42730072D01*
X169593821Y-42604252D01*
X169593822Y-42604251D01*
X169598240Y-42599344D01*
X169693727Y-42433956D01*
X169752742Y-42252328D01*
X169772704Y-42062400D01*
X169766745Y-42005700D01*
X169753432Y-41879035D01*
X169753432Y-41879033D01*
X169752742Y-41872472D01*
X169693727Y-41690844D01*
X169598240Y-41525456D01*
X169470453Y-41383534D01*
X169315952Y-41271282D01*
X169309924Y-41268598D01*
X169309922Y-41268597D01*
X169147519Y-41196291D01*
X169147518Y-41196291D01*
X169141488Y-41193606D01*
X169045660Y-41173237D01*
X168961144Y-41155272D01*
X168961139Y-41155272D01*
X168954687Y-41153900D01*
X168932254Y-41153900D01*
X168864133Y-41133898D01*
X168817640Y-41080242D01*
X168806944Y-41041071D01*
X168788232Y-40863034D01*
X168788231Y-40863031D01*
X168787542Y-40856472D01*
X168728527Y-40674844D01*
X168633040Y-40509456D01*
X168589000Y-40460544D01*
X168509675Y-40372445D01*
X168509674Y-40372444D01*
X168505253Y-40367534D01*
X168395647Y-40287900D01*
X168356094Y-40259163D01*
X168356093Y-40259162D01*
X168350752Y-40255282D01*
X168344724Y-40252598D01*
X168344722Y-40252597D01*
X168182319Y-40180291D01*
X168182318Y-40180291D01*
X168176288Y-40177606D01*
X168082887Y-40157753D01*
X167995944Y-40139272D01*
X167995939Y-40139272D01*
X167989487Y-40137900D01*
X167798513Y-40137900D01*
X167792061Y-40139272D01*
X167792056Y-40139272D01*
X167705113Y-40157753D01*
X167611712Y-40177606D01*
X167605682Y-40180291D01*
X167605681Y-40180291D01*
X167443278Y-40252597D01*
X167443276Y-40252598D01*
X167437248Y-40255282D01*
X167431909Y-40259161D01*
X167431902Y-40259165D01*
X167425472Y-40263837D01*
X167351413Y-40287900D01*
X164709863Y-40287900D01*
X164690914Y-40286467D01*
X164690707Y-40286436D01*
X164669451Y-40283202D01*
X164662159Y-40283795D01*
X164662156Y-40283795D01*
X164616791Y-40287485D01*
X164606577Y-40287900D01*
X164598507Y-40287900D01*
X164594887Y-40288322D01*
X164594869Y-40288323D01*
X164570261Y-40291192D01*
X164565900Y-40291624D01*
X164540781Y-40293667D01*
X164500461Y-40296946D01*
X164500458Y-40296947D01*
X164493163Y-40297540D01*
X164486199Y-40299796D01*
X164480240Y-40300987D01*
X164474385Y-40302371D01*
X164467119Y-40303218D01*
X164398473Y-40328135D01*
X164394345Y-40329552D01*
X164331864Y-40349793D01*
X164331862Y-40349794D01*
X164324901Y-40352049D01*
X164318646Y-40355845D01*
X164313172Y-40358351D01*
X164307742Y-40361070D01*
X164300863Y-40363567D01*
X164239816Y-40403591D01*
X164236127Y-40405918D01*
X164222066Y-40414451D01*
X164178493Y-40440891D01*
X164178488Y-40440895D01*
X164173692Y-40443805D01*
X164165316Y-40451203D01*
X164165293Y-40451177D01*
X164162303Y-40453826D01*
X164159064Y-40456534D01*
X164152948Y-40460544D01*
X164147921Y-40465851D01*
X164147917Y-40465854D01*
X164099672Y-40516783D01*
X164097294Y-40519225D01*
X161774724Y-42841795D01*
X161712412Y-42875821D01*
X161685629Y-42878700D01*
X161019787Y-42878700D01*
X160945728Y-42854637D01*
X160939298Y-42849965D01*
X160939291Y-42849961D01*
X160933952Y-42846082D01*
X160927924Y-42843398D01*
X160927922Y-42843397D01*
X160765519Y-42771091D01*
X160765518Y-42771091D01*
X160759488Y-42768406D01*
X160650073Y-42745149D01*
X160579144Y-42730072D01*
X160579139Y-42730072D01*
X160572687Y-42728700D01*
X160381713Y-42728700D01*
X160375261Y-42730072D01*
X160375256Y-42730072D01*
X160304327Y-42745149D01*
X160194912Y-42768406D01*
X160188882Y-42771091D01*
X160188881Y-42771091D01*
X160026478Y-42843397D01*
X160026476Y-42843398D01*
X160020448Y-42846082D01*
X160015109Y-42849961D01*
X160015102Y-42849965D01*
X160008672Y-42854637D01*
X159934613Y-42878700D01*
X157978869Y-42878700D01*
X157959921Y-42877267D01*
X157952580Y-42876150D01*
X157945683Y-42875101D01*
X157945681Y-42875101D01*
X157938451Y-42874001D01*
X157931159Y-42874594D01*
X157931156Y-42874594D01*
X157885782Y-42878285D01*
X157875567Y-42878700D01*
X157867507Y-42878700D01*
X157854217Y-42880249D01*
X157839293Y-42881989D01*
X157834918Y-42882422D01*
X157769461Y-42887746D01*
X157769458Y-42887747D01*
X157762163Y-42888340D01*
X157755199Y-42890596D01*
X157749240Y-42891787D01*
X157743385Y-42893171D01*
X157736119Y-42894018D01*
X157667473Y-42918935D01*
X157663345Y-42920352D01*
X157600864Y-42940593D01*
X157600862Y-42940594D01*
X157593901Y-42942849D01*
X157587646Y-42946645D01*
X157582172Y-42949151D01*
X157576742Y-42951870D01*
X157569863Y-42954367D01*
X157563743Y-42958380D01*
X157563742Y-42958380D01*
X157508824Y-42994386D01*
X157505120Y-42996723D01*
X157442693Y-43034605D01*
X157434316Y-43042003D01*
X157434292Y-43041976D01*
X157431300Y-43044629D01*
X157428067Y-43047332D01*
X157421948Y-43051344D01*
X157416916Y-43056656D01*
X157368672Y-43107583D01*
X157366294Y-43110025D01*
X156440724Y-44035595D01*
X156378412Y-44069621D01*
X156351629Y-44072500D01*
X132020070Y-44072500D01*
X132001120Y-44071067D01*
X131986885Y-44068901D01*
X131986881Y-44068901D01*
X131979651Y-44067801D01*
X131972359Y-44068394D01*
X131972356Y-44068394D01*
X131926982Y-44072085D01*
X131916767Y-44072500D01*
X131908707Y-44072500D01*
X131905073Y-44072924D01*
X131905067Y-44072924D01*
X131892042Y-44074443D01*
X131880480Y-44075791D01*
X131876132Y-44076221D01*
X131803364Y-44082140D01*
X131796403Y-44084395D01*
X131790463Y-44085582D01*
X131784588Y-44086971D01*
X131777319Y-44087818D01*
X131708670Y-44112736D01*
X131704542Y-44114153D01*
X131642064Y-44134393D01*
X131642062Y-44134394D01*
X131635101Y-44136649D01*
X131628846Y-44140445D01*
X131623372Y-44142951D01*
X131617942Y-44145670D01*
X131611063Y-44148167D01*
X131604943Y-44152180D01*
X131604942Y-44152180D01*
X131550024Y-44188186D01*
X131546320Y-44190523D01*
X131483893Y-44228405D01*
X131475516Y-44235803D01*
X131475492Y-44235776D01*
X131472500Y-44238429D01*
X131469267Y-44241132D01*
X131463148Y-44245144D01*
X131431256Y-44278810D01*
X131409872Y-44301383D01*
X131407494Y-44303825D01*
X129305089Y-46406230D01*
X129290677Y-46418616D01*
X129279082Y-46427149D01*
X129279077Y-46427154D01*
X129273182Y-46431492D01*
X129268443Y-46437070D01*
X129268440Y-46437073D01*
X129238965Y-46471768D01*
X129232035Y-46479284D01*
X129226340Y-46484979D01*
X129224060Y-46487861D01*
X129208719Y-46507251D01*
X129205928Y-46510655D01*
X129168694Y-46554482D01*
X129158667Y-46566285D01*
X129155339Y-46572801D01*
X129151972Y-46577850D01*
X129148805Y-46582979D01*
X129144266Y-46588716D01*
X129113345Y-46654875D01*
X129111442Y-46658769D01*
X129078231Y-46723808D01*
X129076492Y-46730916D01*
X129074393Y-46736559D01*
X129072476Y-46742322D01*
X129069378Y-46748950D01*
X129067888Y-46756112D01*
X129067888Y-46756113D01*
X129054514Y-46820412D01*
X129053544Y-46824696D01*
X129036192Y-46895610D01*
X129035500Y-46906764D01*
X129035464Y-46906762D01*
X129035225Y-46910755D01*
X129034851Y-46914947D01*
X129033360Y-46922115D01*
X129033558Y-46929432D01*
X129035454Y-46999521D01*
X129035500Y-47002928D01*
X129035500Y-52295001D01*
X129018619Y-52358000D01*
X128959473Y-52460444D01*
X128900458Y-52642072D01*
X128899768Y-52648633D01*
X128899768Y-52648635D01*
X128893453Y-52708721D01*
X128880496Y-52832000D01*
X128881186Y-52838565D01*
X128898334Y-53001715D01*
X128900458Y-53021928D01*
X128959473Y-53203556D01*
X128962776Y-53209278D01*
X128962777Y-53209279D01*
X128994161Y-53263637D01*
X129054960Y-53368944D01*
X129059378Y-53373851D01*
X129059379Y-53373852D01*
X129143250Y-53467000D01*
X129182747Y-53510866D01*
X129281843Y-53582864D01*
X129310482Y-53603671D01*
X129337248Y-53623118D01*
X129343276Y-53625802D01*
X129343278Y-53625803D01*
X129457032Y-53676449D01*
X129511712Y-53700794D01*
X129605113Y-53720647D01*
X129692056Y-53739128D01*
X129692061Y-53739128D01*
X129698513Y-53740500D01*
X129889487Y-53740500D01*
X129895939Y-53739128D01*
X129895944Y-53739128D01*
X129982888Y-53720647D01*
X130076288Y-53700794D01*
X130130968Y-53676449D01*
X130244722Y-53625803D01*
X130244724Y-53625802D01*
X130250752Y-53623118D01*
X130277519Y-53603671D01*
X130306157Y-53582864D01*
X130405253Y-53510866D01*
X130444750Y-53467000D01*
X130528621Y-53373852D01*
X130528622Y-53373851D01*
X130533040Y-53368944D01*
X130593839Y-53263637D01*
X130625223Y-53209279D01*
X130625224Y-53209278D01*
X130628527Y-53203556D01*
X130687542Y-53021928D01*
X130689667Y-53001715D01*
X130706814Y-52838565D01*
X130707504Y-52832000D01*
X130694547Y-52708721D01*
X130688232Y-52648635D01*
X130688232Y-52648633D01*
X130687542Y-52642072D01*
X130628527Y-52460444D01*
X130569381Y-52358000D01*
X130552500Y-52295001D01*
X130552500Y-47356371D01*
X130572502Y-47288250D01*
X130589405Y-47267276D01*
X132230276Y-45626405D01*
X132292588Y-45592379D01*
X132319371Y-45589500D01*
X151929753Y-45589500D01*
X151997874Y-45609502D01*
X152044367Y-45663158D01*
X152055063Y-45728670D01*
X152047775Y-45798012D01*
X152045296Y-45821600D01*
X152045986Y-45828165D01*
X152063593Y-45995682D01*
X152065258Y-46011528D01*
X152124273Y-46193156D01*
X152219760Y-46358544D01*
X152224178Y-46363451D01*
X152224179Y-46363452D01*
X152290468Y-46437073D01*
X152347547Y-46500466D01*
X152361571Y-46510655D01*
X152454057Y-46577850D01*
X152502048Y-46612718D01*
X152508076Y-46615402D01*
X152508078Y-46615403D01*
X152635036Y-46671928D01*
X152676512Y-46690394D01*
X152769913Y-46710247D01*
X152856856Y-46728728D01*
X152856861Y-46728728D01*
X152863313Y-46730100D01*
X153054287Y-46730100D01*
X153060739Y-46728728D01*
X153060744Y-46728728D01*
X153147687Y-46710247D01*
X153241088Y-46690394D01*
X153282564Y-46671928D01*
X153409522Y-46615403D01*
X153409524Y-46615402D01*
X153415552Y-46612718D01*
X153463544Y-46577850D01*
X153556029Y-46510655D01*
X153570053Y-46500466D01*
X153627132Y-46437073D01*
X153693421Y-46363452D01*
X153693422Y-46363451D01*
X153697840Y-46358544D01*
X153793327Y-46193156D01*
X153852342Y-46011528D01*
X153854008Y-45995682D01*
X153871614Y-45828165D01*
X153872304Y-45821600D01*
X153869825Y-45798012D01*
X153862537Y-45728670D01*
X153875309Y-45658832D01*
X153923811Y-45606985D01*
X153987847Y-45589500D01*
X154797603Y-45589500D01*
X154865724Y-45609502D01*
X154912217Y-45663158D01*
X154922321Y-45733432D01*
X154892827Y-45798012D01*
X154888435Y-45802489D01*
X154887547Y-45803134D01*
X154759760Y-45945056D01*
X154664273Y-46110444D01*
X154605258Y-46292072D01*
X154604568Y-46298633D01*
X154604568Y-46298635D01*
X154590018Y-46437073D01*
X154585296Y-46482000D01*
X154585986Y-46488565D01*
X154603876Y-46658775D01*
X154605258Y-46671928D01*
X154664273Y-46853556D01*
X154667576Y-46859278D01*
X154667577Y-46859279D01*
X154692011Y-46901600D01*
X154708749Y-46970596D01*
X154692011Y-47027600D01*
X154664273Y-47075644D01*
X154605258Y-47257272D01*
X154604568Y-47263833D01*
X154604568Y-47263835D01*
X154598060Y-47325759D01*
X154585296Y-47447200D01*
X154585986Y-47453765D01*
X154604285Y-47627867D01*
X154605258Y-47637128D01*
X154664273Y-47818756D01*
X154759760Y-47984144D01*
X154764178Y-47989051D01*
X154764179Y-47989052D01*
X154791644Y-48019555D01*
X154887547Y-48126066D01*
X154905904Y-48139403D01*
X155009120Y-48214394D01*
X155042048Y-48238318D01*
X155048076Y-48241002D01*
X155048078Y-48241003D01*
X155210481Y-48313309D01*
X155216512Y-48315994D01*
X155309912Y-48335847D01*
X155396856Y-48354328D01*
X155396861Y-48354328D01*
X155403313Y-48355700D01*
X155594287Y-48355700D01*
X155600739Y-48354328D01*
X155600744Y-48354328D01*
X155687687Y-48335847D01*
X155781088Y-48315994D01*
X155787119Y-48313309D01*
X155949522Y-48241003D01*
X155949524Y-48241002D01*
X155955552Y-48238318D01*
X155988481Y-48214394D01*
X156091696Y-48139403D01*
X156110053Y-48126066D01*
X156205956Y-48019555D01*
X156233421Y-47989052D01*
X156233422Y-47989051D01*
X156237840Y-47984144D01*
X156333327Y-47818756D01*
X156392342Y-47637128D01*
X156393316Y-47627867D01*
X156411614Y-47453765D01*
X156412304Y-47447200D01*
X156399540Y-47325759D01*
X156393032Y-47263835D01*
X156393032Y-47263833D01*
X156392342Y-47257272D01*
X156333327Y-47075644D01*
X156305589Y-47027600D01*
X156288851Y-46958604D01*
X156305589Y-46901600D01*
X156330023Y-46859279D01*
X156330024Y-46859278D01*
X156333327Y-46853556D01*
X156392342Y-46671928D01*
X156393725Y-46658775D01*
X156411614Y-46488565D01*
X156412304Y-46482000D01*
X156407582Y-46437073D01*
X156393032Y-46298635D01*
X156393032Y-46298633D01*
X156392342Y-46292072D01*
X156333327Y-46110444D01*
X156237840Y-45945056D01*
X156110053Y-45803134D01*
X156111299Y-45802012D01*
X156078448Y-45748695D01*
X156079797Y-45677712D01*
X156119308Y-45618725D01*
X156184438Y-45590464D01*
X156199997Y-45589500D01*
X156650930Y-45589500D01*
X156669880Y-45590933D01*
X156684115Y-45593099D01*
X156684119Y-45593099D01*
X156691349Y-45594199D01*
X156698641Y-45593606D01*
X156698644Y-45593606D01*
X156744018Y-45589915D01*
X156754233Y-45589500D01*
X156762293Y-45589500D01*
X156775583Y-45587951D01*
X156790507Y-45586211D01*
X156794882Y-45585778D01*
X156860339Y-45580454D01*
X156860342Y-45580453D01*
X156867637Y-45579860D01*
X156874601Y-45577604D01*
X156880560Y-45576413D01*
X156886415Y-45575029D01*
X156893681Y-45574182D01*
X156962327Y-45549265D01*
X156966455Y-45547848D01*
X157028936Y-45527607D01*
X157028938Y-45527606D01*
X157035899Y-45525351D01*
X157042154Y-45521555D01*
X157047628Y-45519049D01*
X157053058Y-45516330D01*
X157059937Y-45513833D01*
X157099697Y-45487765D01*
X157120976Y-45473814D01*
X157124680Y-45471477D01*
X157187107Y-45433595D01*
X157195484Y-45426197D01*
X157195508Y-45426224D01*
X157198500Y-45423571D01*
X157201733Y-45420868D01*
X157207852Y-45416856D01*
X157261128Y-45360617D01*
X157263506Y-45358175D01*
X158189076Y-44432605D01*
X158251388Y-44398579D01*
X158278171Y-44395700D01*
X159934613Y-44395700D01*
X160008672Y-44419763D01*
X160015102Y-44424435D01*
X160015109Y-44424439D01*
X160020448Y-44428318D01*
X160026476Y-44431002D01*
X160026478Y-44431003D01*
X160134156Y-44478944D01*
X160194912Y-44505994D01*
X160288312Y-44525847D01*
X160375256Y-44544328D01*
X160375261Y-44544328D01*
X160381713Y-44545700D01*
X160572687Y-44545700D01*
X160579139Y-44544328D01*
X160579144Y-44544328D01*
X160666088Y-44525847D01*
X160759488Y-44505994D01*
X160820244Y-44478944D01*
X160927922Y-44431003D01*
X160927924Y-44431002D01*
X160933952Y-44428318D01*
X160939291Y-44424439D01*
X160939298Y-44424435D01*
X160945728Y-44419763D01*
X161019787Y-44395700D01*
X161984930Y-44395700D01*
X162003880Y-44397133D01*
X162018115Y-44399299D01*
X162018119Y-44399299D01*
X162025349Y-44400399D01*
X162032641Y-44399806D01*
X162032644Y-44399806D01*
X162078018Y-44396115D01*
X162088233Y-44395700D01*
X162096293Y-44395700D01*
X162109583Y-44394151D01*
X162124507Y-44392411D01*
X162128882Y-44391978D01*
X162194339Y-44386654D01*
X162194342Y-44386653D01*
X162201637Y-44386060D01*
X162208601Y-44383804D01*
X162214560Y-44382613D01*
X162220415Y-44381229D01*
X162227681Y-44380382D01*
X162296327Y-44355465D01*
X162300455Y-44354048D01*
X162362936Y-44333807D01*
X162362938Y-44333806D01*
X162369899Y-44331551D01*
X162376154Y-44327755D01*
X162381628Y-44325249D01*
X162387058Y-44322530D01*
X162393937Y-44320033D01*
X162454976Y-44280014D01*
X162458680Y-44277677D01*
X162521107Y-44239795D01*
X162529484Y-44232397D01*
X162529508Y-44232424D01*
X162532500Y-44229771D01*
X162535733Y-44227068D01*
X162541852Y-44223056D01*
X162595128Y-44166817D01*
X162597506Y-44164375D01*
X164920076Y-41841805D01*
X164982388Y-41807779D01*
X165009171Y-41804900D01*
X167181029Y-41804900D01*
X167249150Y-41824902D01*
X167295643Y-41878558D01*
X167305747Y-41948832D01*
X167276253Y-42013412D01*
X167270124Y-42019995D01*
X166490689Y-42799430D01*
X166476277Y-42811816D01*
X166464682Y-42820349D01*
X166464677Y-42820354D01*
X166458782Y-42824692D01*
X166454043Y-42830270D01*
X166454040Y-42830273D01*
X166424565Y-42864968D01*
X166417635Y-42872484D01*
X166411940Y-42878179D01*
X166409660Y-42881061D01*
X166394319Y-42900451D01*
X166391528Y-42903855D01*
X166378726Y-42918924D01*
X166344267Y-42959485D01*
X166340939Y-42966001D01*
X166337572Y-42971050D01*
X166334405Y-42976179D01*
X166329866Y-42981916D01*
X166298945Y-43048075D01*
X166297042Y-43051969D01*
X166263831Y-43117008D01*
X166262092Y-43124116D01*
X166259993Y-43129759D01*
X166258076Y-43135522D01*
X166254978Y-43142150D01*
X166253488Y-43149312D01*
X166253488Y-43149313D01*
X166240114Y-43213612D01*
X166239144Y-43217896D01*
X166221792Y-43288810D01*
X166221100Y-43299964D01*
X166221064Y-43299962D01*
X166220825Y-43303955D01*
X166220451Y-43308147D01*
X166218960Y-43315315D01*
X166219158Y-43322632D01*
X166221054Y-43392721D01*
X166221100Y-43396128D01*
X166221100Y-49077234D01*
X166201098Y-49145355D01*
X166147442Y-49191848D01*
X166077168Y-49201952D01*
X166043852Y-49192341D01*
X165997923Y-49171892D01*
X165997915Y-49171889D01*
X165991888Y-49169206D01*
X165898488Y-49149353D01*
X165811544Y-49130872D01*
X165811539Y-49130872D01*
X165805087Y-49129500D01*
X165614113Y-49129500D01*
X165607661Y-49130872D01*
X165607656Y-49130872D01*
X165520712Y-49149353D01*
X165427312Y-49169206D01*
X165421282Y-49171891D01*
X165421281Y-49171891D01*
X165258878Y-49244197D01*
X165258876Y-49244198D01*
X165252848Y-49246882D01*
X165098347Y-49359134D01*
X164970560Y-49501056D01*
X164875073Y-49666444D01*
X164816058Y-49848072D01*
X164815368Y-49854633D01*
X164815368Y-49854635D01*
X164812377Y-49883091D01*
X164796096Y-50038000D01*
X164796786Y-50044565D01*
X164812660Y-50195594D01*
X164816058Y-50227928D01*
X164875073Y-50409556D01*
X164878376Y-50415278D01*
X164878377Y-50415279D01*
X164934219Y-50511999D01*
X164951100Y-50574999D01*
X164951100Y-51754429D01*
X164931098Y-51822550D01*
X164914195Y-51843524D01*
X159812869Y-56944850D01*
X159749972Y-56979001D01*
X159693376Y-56991031D01*
X159693367Y-56991034D01*
X159686912Y-56992406D01*
X159680882Y-56995091D01*
X159680881Y-56995091D01*
X159518478Y-57067397D01*
X159518476Y-57067398D01*
X159512448Y-57070082D01*
X159357947Y-57182334D01*
X159353525Y-57187246D01*
X159348623Y-57191659D01*
X159347746Y-57190684D01*
X159293321Y-57224210D01*
X159222337Y-57222854D01*
X159171043Y-57191753D01*
X157236005Y-55256714D01*
X157201979Y-55194402D01*
X157199100Y-55167619D01*
X157199100Y-53940924D01*
X157219102Y-53872803D01*
X157231458Y-53856621D01*
X157304640Y-53775344D01*
X157392528Y-53623118D01*
X157396823Y-53615679D01*
X157396824Y-53615678D01*
X157400127Y-53609956D01*
X157459142Y-53428328D01*
X157463707Y-53384900D01*
X157478414Y-53244965D01*
X157479104Y-53238400D01*
X157471050Y-53161770D01*
X157459832Y-53055035D01*
X157459832Y-53055033D01*
X157459142Y-53048472D01*
X157400127Y-52866844D01*
X157376220Y-52825435D01*
X157315767Y-52720729D01*
X157304640Y-52701456D01*
X157278664Y-52672606D01*
X157181275Y-52564445D01*
X157181274Y-52564444D01*
X157176853Y-52559534D01*
X157062429Y-52476400D01*
X157027694Y-52451163D01*
X157027693Y-52451162D01*
X157022352Y-52447282D01*
X157016324Y-52444598D01*
X157016322Y-52444597D01*
X156853919Y-52372291D01*
X156853918Y-52372291D01*
X156847888Y-52369606D01*
X156754487Y-52349753D01*
X156667544Y-52331272D01*
X156667539Y-52331272D01*
X156661087Y-52329900D01*
X156587412Y-52329900D01*
X156519291Y-52309898D01*
X156472798Y-52256242D01*
X156467579Y-52242836D01*
X156459251Y-52217206D01*
X156434927Y-52142344D01*
X156339440Y-51976956D01*
X156310824Y-51945174D01*
X156216075Y-51839945D01*
X156216071Y-51839941D01*
X156211653Y-51835034D01*
X156057152Y-51722782D01*
X156051124Y-51720098D01*
X156051122Y-51720097D01*
X155888719Y-51647791D01*
X155888718Y-51647791D01*
X155882688Y-51645106D01*
X155789287Y-51625253D01*
X155702344Y-51606772D01*
X155702339Y-51606772D01*
X155695887Y-51605400D01*
X155504913Y-51605400D01*
X155498461Y-51606772D01*
X155498456Y-51606772D01*
X155411513Y-51625253D01*
X155318112Y-51645106D01*
X155312082Y-51647791D01*
X155312081Y-51647791D01*
X155149678Y-51720097D01*
X155149676Y-51720098D01*
X155143648Y-51722782D01*
X154989147Y-51835034D01*
X154905636Y-51927783D01*
X154845190Y-51965022D01*
X154774206Y-51963670D01*
X154715222Y-51924156D01*
X154686964Y-51859026D01*
X154686000Y-51843472D01*
X154686000Y-49276000D01*
X151130000Y-49276000D01*
X151130000Y-50747810D01*
X151109998Y-50815931D01*
X151093095Y-50836905D01*
X148626905Y-53303095D01*
X148564593Y-53337121D01*
X148537810Y-53340000D01*
X139446000Y-53340000D01*
X134874000Y-57912000D01*
X137668000Y-60706000D01*
X137665771Y-60708229D01*
X137695572Y-60738031D01*
X137710662Y-60807405D01*
X137685850Y-60873925D01*
X137678631Y-60882710D01*
X137589360Y-60981856D01*
X137493873Y-61147244D01*
X137434858Y-61328872D01*
X137434168Y-61335433D01*
X137434168Y-61335435D01*
X137423006Y-61441641D01*
X137414896Y-61518800D01*
X137415586Y-61525365D01*
X137432309Y-61684472D01*
X137434858Y-61708728D01*
X137493873Y-61890356D01*
X137589360Y-62055744D01*
X137593778Y-62060651D01*
X137593779Y-62060652D01*
X137708586Y-62188158D01*
X137717147Y-62197666D01*
X137782448Y-62245110D01*
X137860676Y-62301946D01*
X137871648Y-62309918D01*
X137877676Y-62312602D01*
X137877678Y-62312603D01*
X138040081Y-62384909D01*
X138046112Y-62387594D01*
X138139513Y-62407447D01*
X138226456Y-62425928D01*
X138226461Y-62425928D01*
X138232913Y-62427300D01*
X138253450Y-62427300D01*
X138321571Y-62447302D01*
X138342545Y-62464205D01*
X139828264Y-63949924D01*
X139836254Y-63958704D01*
X139840503Y-63965399D01*
X139846281Y-63970825D01*
X139846282Y-63970826D01*
X139862433Y-63985993D01*
X139892152Y-64013900D01*
X139892176Y-64013923D01*
X139895018Y-64016678D01*
X139915586Y-64037246D01*
X139919089Y-64039963D01*
X139928114Y-64047671D01*
X139961786Y-64079291D01*
X139968737Y-64083112D01*
X139968738Y-64083113D01*
X139980577Y-64089622D01*
X139997101Y-64100476D01*
X140003205Y-64105210D01*
X140014051Y-64113623D01*
X140021323Y-64116770D01*
X140021325Y-64116771D01*
X140056454Y-64131973D01*
X140067114Y-64137195D01*
X140097087Y-64153673D01*
X140107582Y-64159443D01*
X140128360Y-64164778D01*
X140147050Y-64171177D01*
X140166743Y-64179699D01*
X140201482Y-64185201D01*
X140212367Y-64186925D01*
X140223990Y-64189332D01*
X140248673Y-64195669D01*
X140268731Y-64200819D01*
X140290178Y-64200819D01*
X140309888Y-64202370D01*
X140331071Y-64205725D01*
X140377060Y-64201378D01*
X140388915Y-64200819D01*
X141477372Y-64200819D01*
X141545493Y-64220821D01*
X141591986Y-64274477D01*
X141602090Y-64344751D01*
X141572596Y-64409331D01*
X141528621Y-64441926D01*
X141433678Y-64484197D01*
X141433676Y-64484198D01*
X141427648Y-64486882D01*
X141422307Y-64490762D01*
X141422306Y-64490763D01*
X141372243Y-64527136D01*
X141273147Y-64599134D01*
X141268726Y-64604044D01*
X141268725Y-64604045D01*
X141198025Y-64682566D01*
X141145360Y-64741056D01*
X141049873Y-64906444D01*
X141034183Y-64954734D01*
X141031158Y-64964043D01*
X140991084Y-65022648D01*
X140925687Y-65050285D01*
X140855731Y-65038178D01*
X140817691Y-65009419D01*
X140768453Y-64954734D01*
X140613952Y-64842482D01*
X140607924Y-64839798D01*
X140607922Y-64839797D01*
X140445519Y-64767491D01*
X140445518Y-64767491D01*
X140439488Y-64764806D01*
X140318246Y-64739035D01*
X140259144Y-64726472D01*
X140259139Y-64726472D01*
X140252687Y-64725100D01*
X140061713Y-64725100D01*
X140055261Y-64726472D01*
X140055256Y-64726472D01*
X139996154Y-64739035D01*
X139874912Y-64764806D01*
X139868882Y-64767491D01*
X139868881Y-64767491D01*
X139706478Y-64839797D01*
X139706476Y-64839798D01*
X139700448Y-64842482D01*
X139545947Y-64954734D01*
X139541529Y-64959641D01*
X139541525Y-64959645D01*
X139459913Y-65050285D01*
X139418160Y-65096656D01*
X139322673Y-65262044D01*
X139263658Y-65443672D01*
X139262968Y-65450233D01*
X139262968Y-65450235D01*
X139254920Y-65526806D01*
X139243696Y-65633600D01*
X139244386Y-65640165D01*
X139259817Y-65786979D01*
X139263658Y-65823528D01*
X139322673Y-66005156D01*
X139418160Y-66170544D01*
X139545947Y-66312466D01*
X139700448Y-66424718D01*
X139706476Y-66427402D01*
X139706478Y-66427403D01*
X139792731Y-66465805D01*
X139874912Y-66502394D01*
X139968313Y-66522247D01*
X140055256Y-66540728D01*
X140055261Y-66540728D01*
X140061713Y-66542100D01*
X140252687Y-66542100D01*
X140259139Y-66540728D01*
X140259144Y-66540728D01*
X140346087Y-66522247D01*
X140439488Y-66502394D01*
X140521669Y-66465805D01*
X140607922Y-66427403D01*
X140607924Y-66427402D01*
X140613952Y-66424718D01*
X140768453Y-66312466D01*
X140896240Y-66170544D01*
X140991727Y-66005156D01*
X141010442Y-65947556D01*
X141050516Y-65888952D01*
X141115913Y-65861315D01*
X141185869Y-65873422D01*
X141223909Y-65902181D01*
X141273147Y-65956866D01*
X141427648Y-66069118D01*
X141433676Y-66071802D01*
X141433678Y-66071803D01*
X141560636Y-66128328D01*
X141602112Y-66146794D01*
X141695512Y-66166647D01*
X141782456Y-66185128D01*
X141782461Y-66185128D01*
X141788913Y-66186500D01*
X141809450Y-66186500D01*
X141877571Y-66206502D01*
X141898545Y-66223405D01*
X143087945Y-67412805D01*
X143095935Y-67421585D01*
X143100184Y-67428280D01*
X143105962Y-67433706D01*
X143105963Y-67433707D01*
X143151857Y-67476804D01*
X143154699Y-67479559D01*
X143175267Y-67500127D01*
X143178770Y-67502844D01*
X143187795Y-67510552D01*
X143221467Y-67542172D01*
X143228418Y-67545993D01*
X143228419Y-67545994D01*
X143240258Y-67552503D01*
X143256782Y-67563357D01*
X143266871Y-67571182D01*
X143273732Y-67576504D01*
X143281004Y-67579651D01*
X143281006Y-67579652D01*
X143316135Y-67594854D01*
X143326795Y-67600076D01*
X143356768Y-67616554D01*
X143367263Y-67622324D01*
X143388041Y-67627659D01*
X143406731Y-67634058D01*
X143426424Y-67642580D01*
X143461163Y-67648082D01*
X143472048Y-67649806D01*
X143483671Y-67652213D01*
X143508354Y-67658550D01*
X143528412Y-67663700D01*
X143549859Y-67663700D01*
X143569569Y-67665251D01*
X143590752Y-67668606D01*
X143636741Y-67664259D01*
X143648596Y-67663700D01*
X150387544Y-67663700D01*
X150399400Y-67664259D01*
X150399403Y-67664259D01*
X150407137Y-67665988D01*
X150477969Y-67663762D01*
X150481927Y-67663700D01*
X150511032Y-67663700D01*
X150515432Y-67663144D01*
X150527264Y-67662212D01*
X150573431Y-67660762D01*
X150594021Y-67654780D01*
X150613382Y-67650770D01*
X150621016Y-67649806D01*
X150626804Y-67649075D01*
X150626805Y-67649075D01*
X150634664Y-67648082D01*
X150642029Y-67645166D01*
X150642033Y-67645165D01*
X150677621Y-67631074D01*
X150688831Y-67627235D01*
X150733200Y-67614345D01*
X150751665Y-67603425D01*
X150769405Y-67594734D01*
X150789356Y-67586835D01*
X150826729Y-67559682D01*
X150836648Y-67553167D01*
X150869577Y-67533693D01*
X150869581Y-67533690D01*
X150876407Y-67529653D01*
X150891571Y-67514489D01*
X150906605Y-67501648D01*
X150923957Y-67489041D01*
X150953403Y-67453447D01*
X150961392Y-67444668D01*
X152585055Y-65821005D01*
X152647367Y-65786979D01*
X152674150Y-65784100D01*
X154827793Y-65784100D01*
X154895914Y-65804102D01*
X154916888Y-65821004D01*
X155715719Y-66619834D01*
X155715720Y-66619836D01*
X156608570Y-67512683D01*
X156616557Y-67521461D01*
X156620804Y-67528153D01*
X156626582Y-67533579D01*
X156626583Y-67533580D01*
X156672476Y-67576676D01*
X156675318Y-67579431D01*
X156695887Y-67600000D01*
X156699390Y-67602717D01*
X156708415Y-67610425D01*
X156742087Y-67642045D01*
X156749038Y-67645866D01*
X156749039Y-67645867D01*
X156760878Y-67652376D01*
X156777402Y-67663230D01*
X156788085Y-67671516D01*
X156794352Y-67676377D01*
X156836761Y-67694729D01*
X156847401Y-67699942D01*
X156880932Y-67718376D01*
X156880934Y-67718377D01*
X156887883Y-67722197D01*
X156895561Y-67724168D01*
X156895563Y-67724169D01*
X156908655Y-67727530D01*
X156927361Y-67733935D01*
X156939764Y-67739302D01*
X156939766Y-67739303D01*
X156947044Y-67742452D01*
X156992673Y-67749679D01*
X157004294Y-67752086D01*
X157049033Y-67763572D01*
X157070478Y-67763572D01*
X157090188Y-67765123D01*
X157103542Y-67767238D01*
X157103543Y-67767238D01*
X157111372Y-67768478D01*
X157119264Y-67767732D01*
X157124491Y-67767238D01*
X157157362Y-67764131D01*
X157169219Y-67763572D01*
X157587468Y-67763571D01*
X161890139Y-67763571D01*
X161958259Y-67783573D01*
X162004753Y-67837228D01*
X162014857Y-67907502D01*
X161985364Y-67972083D01*
X161964202Y-67991505D01*
X161948747Y-68002734D01*
X161944326Y-68007644D01*
X161944325Y-68007645D01*
X161828648Y-68136118D01*
X161820960Y-68144656D01*
X161777243Y-68220376D01*
X161729437Y-68303179D01*
X161725473Y-68310044D01*
X161666458Y-68491672D01*
X161665769Y-68498231D01*
X161665768Y-68498234D01*
X161651587Y-68633160D01*
X161624574Y-68698816D01*
X161566352Y-68739446D01*
X161526277Y-68745989D01*
X158232479Y-68745989D01*
X158221296Y-68745462D01*
X158213803Y-68743787D01*
X158205877Y-68744036D01*
X158205876Y-68744036D01*
X158145713Y-68745927D01*
X158141755Y-68745989D01*
X158113855Y-68745989D01*
X158109865Y-68746493D01*
X158098031Y-68747425D01*
X158053822Y-68748815D01*
X158046206Y-68751028D01*
X158046204Y-68751028D01*
X158034363Y-68754468D01*
X158015004Y-68758477D01*
X158013694Y-68758643D01*
X157994914Y-68761015D01*
X157987548Y-68763931D01*
X157987542Y-68763933D01*
X157953809Y-68777289D01*
X157942579Y-68781134D01*
X157907728Y-68791259D01*
X157900118Y-68793470D01*
X157893295Y-68797505D01*
X157882677Y-68803784D01*
X157864924Y-68812481D01*
X157857279Y-68815508D01*
X157846094Y-68819937D01*
X157839679Y-68824598D01*
X157810323Y-68845926D01*
X157800406Y-68852440D01*
X157762349Y-68874947D01*
X157748028Y-68889268D01*
X157732995Y-68902108D01*
X157716604Y-68914017D01*
X157711553Y-68920123D01*
X157688413Y-68948094D01*
X157680423Y-68956873D01*
X156367860Y-70269435D01*
X156305548Y-70303461D01*
X156278765Y-70306340D01*
X153041309Y-70306340D01*
X152973188Y-70286338D01*
X152926695Y-70232682D01*
X152916591Y-70162408D01*
X152921475Y-70141409D01*
X152937942Y-70090728D01*
X152939608Y-70074882D01*
X152957214Y-69907365D01*
X152957904Y-69900800D01*
X152948964Y-69815737D01*
X152938632Y-69717435D01*
X152938632Y-69717433D01*
X152937942Y-69710872D01*
X152878927Y-69529244D01*
X152872945Y-69518882D01*
X152835692Y-69454359D01*
X152783440Y-69363856D01*
X152777081Y-69356793D01*
X152660075Y-69226845D01*
X152660074Y-69226844D01*
X152655653Y-69221934D01*
X152528808Y-69129775D01*
X152506494Y-69113563D01*
X152506493Y-69113562D01*
X152501152Y-69109682D01*
X152495124Y-69106998D01*
X152495122Y-69106997D01*
X152332719Y-69034691D01*
X152332718Y-69034691D01*
X152326688Y-69032006D01*
X152233288Y-69012153D01*
X152146344Y-68993672D01*
X152146339Y-68993672D01*
X152139887Y-68992300D01*
X151948913Y-68992300D01*
X151942461Y-68993672D01*
X151942456Y-68993672D01*
X151855512Y-69012153D01*
X151762112Y-69032006D01*
X151756082Y-69034691D01*
X151756081Y-69034691D01*
X151593678Y-69106997D01*
X151593676Y-69106998D01*
X151587648Y-69109682D01*
X151582307Y-69113562D01*
X151582306Y-69113563D01*
X151559992Y-69129775D01*
X151433147Y-69221934D01*
X151428726Y-69226844D01*
X151428725Y-69226845D01*
X151311720Y-69356793D01*
X151305360Y-69363856D01*
X151253108Y-69454359D01*
X151215856Y-69518882D01*
X151209873Y-69529244D01*
X151150858Y-69710872D01*
X151150168Y-69717433D01*
X151150168Y-69717435D01*
X151139836Y-69815737D01*
X151130896Y-69900800D01*
X151131586Y-69907365D01*
X151149193Y-70074882D01*
X151150858Y-70090728D01*
X151167324Y-70141405D01*
X151169352Y-70212371D01*
X151132690Y-70273169D01*
X151068978Y-70304494D01*
X151047491Y-70306340D01*
X149410497Y-70306340D01*
X149399314Y-70305813D01*
X149391821Y-70304138D01*
X149383895Y-70304387D01*
X149383894Y-70304387D01*
X149323731Y-70306278D01*
X149319773Y-70306340D01*
X149291873Y-70306340D01*
X149287883Y-70306844D01*
X149276049Y-70307776D01*
X149231840Y-70309166D01*
X149224224Y-70311379D01*
X149224222Y-70311379D01*
X149212381Y-70314819D01*
X149193022Y-70318828D01*
X149191712Y-70318994D01*
X149172932Y-70321366D01*
X149165566Y-70324282D01*
X149165560Y-70324284D01*
X149131827Y-70337640D01*
X149120597Y-70341485D01*
X149090135Y-70350335D01*
X149078136Y-70353821D01*
X149071313Y-70357856D01*
X149060695Y-70364135D01*
X149042942Y-70372832D01*
X149040293Y-70373881D01*
X149024112Y-70380288D01*
X149017697Y-70384949D01*
X148988341Y-70406277D01*
X148978424Y-70412791D01*
X148940367Y-70435298D01*
X148926046Y-70449619D01*
X148911013Y-70462459D01*
X148894622Y-70474368D01*
X148885692Y-70485163D01*
X148866431Y-70508445D01*
X148858441Y-70517224D01*
X148307743Y-71067922D01*
X148245431Y-71101948D01*
X148174616Y-71096883D01*
X148116714Y-71052891D01*
X148113141Y-71047974D01*
X148109840Y-71042256D01*
X147982053Y-70900334D01*
X147827552Y-70788082D01*
X147821524Y-70785398D01*
X147821522Y-70785397D01*
X147659119Y-70713091D01*
X147659118Y-70713091D01*
X147653088Y-70710406D01*
X147550749Y-70688653D01*
X147472744Y-70672072D01*
X147472739Y-70672072D01*
X147466287Y-70670700D01*
X147445750Y-70670700D01*
X147377629Y-70650698D01*
X147356655Y-70633795D01*
X145630097Y-68907237D01*
X155020734Y-68907237D01*
X155021424Y-68913802D01*
X155036071Y-69053156D01*
X155040696Y-69097165D01*
X155099711Y-69278793D01*
X155103014Y-69284515D01*
X155103015Y-69284516D01*
X155116081Y-69307147D01*
X155195198Y-69444181D01*
X155199616Y-69449088D01*
X155199617Y-69449089D01*
X155309378Y-69570991D01*
X155322985Y-69586103D01*
X155477486Y-69698355D01*
X155483514Y-69701039D01*
X155483516Y-69701040D01*
X155642036Y-69771617D01*
X155651950Y-69776031D01*
X155745350Y-69795884D01*
X155832294Y-69814365D01*
X155832299Y-69814365D01*
X155838751Y-69815737D01*
X156029725Y-69815737D01*
X156036177Y-69814365D01*
X156036182Y-69814365D01*
X156123126Y-69795884D01*
X156216526Y-69776031D01*
X156226440Y-69771617D01*
X156384960Y-69701040D01*
X156384962Y-69701039D01*
X156390990Y-69698355D01*
X156545491Y-69586103D01*
X156559098Y-69570991D01*
X156668859Y-69449089D01*
X156668860Y-69449088D01*
X156673278Y-69444181D01*
X156752395Y-69307147D01*
X156765461Y-69284516D01*
X156765462Y-69284515D01*
X156768765Y-69278793D01*
X156827780Y-69097165D01*
X156832406Y-69053156D01*
X156847052Y-68913802D01*
X156847742Y-68907237D01*
X156841665Y-68849415D01*
X156828470Y-68723872D01*
X156828470Y-68723870D01*
X156827780Y-68717309D01*
X156768765Y-68535681D01*
X156747146Y-68498235D01*
X156681235Y-68384075D01*
X156673278Y-68370293D01*
X156628063Y-68320076D01*
X156549913Y-68233282D01*
X156549912Y-68233281D01*
X156545491Y-68228371D01*
X156441835Y-68153060D01*
X156396332Y-68120000D01*
X156396331Y-68119999D01*
X156390990Y-68116119D01*
X156384962Y-68113435D01*
X156384960Y-68113434D01*
X156222557Y-68041128D01*
X156222556Y-68041128D01*
X156216526Y-68038443D01*
X156123126Y-68018590D01*
X156036182Y-68000109D01*
X156036177Y-68000109D01*
X156029725Y-67998737D01*
X155838751Y-67998737D01*
X155832299Y-68000109D01*
X155832294Y-68000109D01*
X155745350Y-68018590D01*
X155651950Y-68038443D01*
X155645920Y-68041128D01*
X155645919Y-68041128D01*
X155483516Y-68113434D01*
X155483514Y-68113435D01*
X155477486Y-68116119D01*
X155472145Y-68119999D01*
X155472144Y-68120000D01*
X155426641Y-68153060D01*
X155322985Y-68228371D01*
X155318564Y-68233281D01*
X155318563Y-68233282D01*
X155240414Y-68320076D01*
X155195198Y-68370293D01*
X155187241Y-68384075D01*
X155121331Y-68498235D01*
X155099711Y-68535681D01*
X155040696Y-68717309D01*
X155040006Y-68723870D01*
X155040006Y-68723872D01*
X155026811Y-68849415D01*
X155020734Y-68907237D01*
X145630097Y-68907237D01*
X145106935Y-68384075D01*
X145098945Y-68375295D01*
X145098943Y-68375293D01*
X145094696Y-68368600D01*
X145077245Y-68352212D01*
X145043023Y-68320076D01*
X145040181Y-68317321D01*
X145019613Y-68296753D01*
X145016106Y-68294033D01*
X145007084Y-68286327D01*
X145002893Y-68282391D01*
X144973413Y-68254708D01*
X144966461Y-68250886D01*
X144954622Y-68244377D01*
X144938098Y-68233523D01*
X144927412Y-68225235D01*
X144921148Y-68220376D01*
X144913876Y-68217229D01*
X144913874Y-68217228D01*
X144878745Y-68202026D01*
X144868085Y-68196804D01*
X144834564Y-68178375D01*
X144834562Y-68178374D01*
X144827617Y-68174556D01*
X144806839Y-68169221D01*
X144788149Y-68162822D01*
X144768456Y-68154300D01*
X144722832Y-68147074D01*
X144711209Y-68144667D01*
X144676941Y-68135869D01*
X144666468Y-68133180D01*
X144645021Y-68133180D01*
X144625311Y-68131629D01*
X144604128Y-68128274D01*
X144558139Y-68132621D01*
X144546284Y-68133180D01*
X136776379Y-68133180D01*
X136764523Y-68132621D01*
X136756783Y-68130891D01*
X136748857Y-68131140D01*
X136748856Y-68131140D01*
X136685931Y-68133118D01*
X136681973Y-68133180D01*
X136652888Y-68133180D01*
X136648957Y-68133677D01*
X136648950Y-68133677D01*
X136648499Y-68133734D01*
X136636663Y-68134666D01*
X136590489Y-68136118D01*
X136569899Y-68142100D01*
X136550538Y-68146110D01*
X136543550Y-68146992D01*
X136537116Y-68147805D01*
X136537115Y-68147805D01*
X136529256Y-68148798D01*
X136521891Y-68151714D01*
X136521887Y-68151715D01*
X136486299Y-68165806D01*
X136475089Y-68169645D01*
X136430720Y-68182535D01*
X136412255Y-68193455D01*
X136394515Y-68202146D01*
X136374564Y-68210045D01*
X136337194Y-68237196D01*
X136327272Y-68243713D01*
X136294343Y-68263187D01*
X136294339Y-68263190D01*
X136287513Y-68267227D01*
X136272349Y-68282391D01*
X136257316Y-68295231D01*
X136239963Y-68307839D01*
X136229840Y-68320076D01*
X136210518Y-68343432D01*
X136202528Y-68352212D01*
X135431584Y-69123156D01*
X135422804Y-69131146D01*
X135422802Y-69131148D01*
X135416109Y-69135395D01*
X135410683Y-69141173D01*
X135410682Y-69141174D01*
X135367585Y-69187068D01*
X135364830Y-69189910D01*
X135344262Y-69210478D01*
X135341545Y-69213981D01*
X135333837Y-69223006D01*
X135302217Y-69256678D01*
X135298396Y-69263629D01*
X135298395Y-69263630D01*
X135291886Y-69275469D01*
X135281032Y-69291993D01*
X135273207Y-69302082D01*
X135267885Y-69308943D01*
X135264738Y-69316215D01*
X135264737Y-69316217D01*
X135249535Y-69351346D01*
X135244313Y-69362006D01*
X135222065Y-69402474D01*
X135216730Y-69423252D01*
X135210331Y-69441942D01*
X135201809Y-69461635D01*
X135194876Y-69505407D01*
X135194583Y-69507259D01*
X135192176Y-69518882D01*
X135187902Y-69535529D01*
X135180689Y-69563623D01*
X135180689Y-69585070D01*
X135179138Y-69604780D01*
X135175783Y-69625963D01*
X135176529Y-69633854D01*
X135180130Y-69671949D01*
X135180689Y-69683807D01*
X135180689Y-70230803D01*
X135180130Y-70242659D01*
X135178401Y-70250396D01*
X135179217Y-70276346D01*
X135180627Y-70321228D01*
X135180689Y-70325186D01*
X135180689Y-70354291D01*
X135181245Y-70358691D01*
X135182177Y-70370523D01*
X135183627Y-70416690D01*
X135189034Y-70435298D01*
X135189608Y-70437275D01*
X135193619Y-70456641D01*
X135196307Y-70477923D01*
X135199223Y-70485288D01*
X135199224Y-70485292D01*
X135213315Y-70520880D01*
X135217154Y-70532090D01*
X135230044Y-70576459D01*
X135240964Y-70594924D01*
X135249655Y-70612664D01*
X135257554Y-70632615D01*
X135263350Y-70640592D01*
X135284705Y-70669985D01*
X135291222Y-70679907D01*
X135310696Y-70712836D01*
X135310699Y-70712840D01*
X135314736Y-70719666D01*
X135329900Y-70734830D01*
X135342740Y-70749863D01*
X135355348Y-70767216D01*
X135378955Y-70786745D01*
X135390941Y-70796661D01*
X135399721Y-70804651D01*
X135781210Y-71186140D01*
X135815236Y-71248452D01*
X135810171Y-71319267D01*
X135781210Y-71364330D01*
X135577945Y-71567595D01*
X135515633Y-71601621D01*
X135488850Y-71604500D01*
X134817949Y-71604500D01*
X134749828Y-71584498D01*
X134728854Y-71567595D01*
X133619655Y-70458396D01*
X133611663Y-70449613D01*
X133611663Y-70449612D01*
X133607416Y-70442920D01*
X133595002Y-70431262D01*
X133555742Y-70394395D01*
X133552900Y-70391640D01*
X133532333Y-70371073D01*
X133528826Y-70368353D01*
X133519804Y-70360647D01*
X133517707Y-70358678D01*
X133486133Y-70329028D01*
X133479181Y-70325206D01*
X133467342Y-70318697D01*
X133450818Y-70307843D01*
X133440132Y-70299555D01*
X133433868Y-70294696D01*
X133426596Y-70291549D01*
X133426594Y-70291548D01*
X133391465Y-70276346D01*
X133380805Y-70271124D01*
X133347284Y-70252695D01*
X133347282Y-70252694D01*
X133340337Y-70248876D01*
X133319559Y-70243541D01*
X133300869Y-70237142D01*
X133281176Y-70228620D01*
X133235552Y-70221394D01*
X133223929Y-70218987D01*
X133195928Y-70211798D01*
X133179188Y-70207500D01*
X133157741Y-70207500D01*
X133138031Y-70205949D01*
X133124677Y-70203834D01*
X133116848Y-70202594D01*
X133070859Y-70206941D01*
X133059004Y-70207500D01*
X123489224Y-70207500D01*
X123421103Y-70187498D01*
X123415163Y-70183436D01*
X123414909Y-70183251D01*
X123357310Y-70141403D01*
X123271094Y-70078763D01*
X123271093Y-70078762D01*
X123265752Y-70074882D01*
X123259724Y-70072198D01*
X123259722Y-70072197D01*
X123097319Y-69999891D01*
X123097318Y-69999891D01*
X123091288Y-69997206D01*
X122997888Y-69977353D01*
X122910944Y-69958872D01*
X122910939Y-69958872D01*
X122904487Y-69957500D01*
X122713513Y-69957500D01*
X122707061Y-69958872D01*
X122707056Y-69958872D01*
X122620112Y-69977353D01*
X122526712Y-69997206D01*
X122520682Y-69999891D01*
X122520681Y-69999891D01*
X122358278Y-70072197D01*
X122358276Y-70072198D01*
X122352248Y-70074882D01*
X122346907Y-70078762D01*
X122346906Y-70078763D01*
X122314259Y-70102483D01*
X122197747Y-70187134D01*
X122193326Y-70192044D01*
X122193325Y-70192045D01*
X122080289Y-70317585D01*
X122069960Y-70329056D01*
X122025376Y-70406277D01*
X121982539Y-70480474D01*
X121974473Y-70494444D01*
X121915458Y-70676072D01*
X121914768Y-70682633D01*
X121914768Y-70682635D01*
X121900495Y-70818436D01*
X121895496Y-70866000D01*
X121896186Y-70872565D01*
X121910894Y-71012500D01*
X121915458Y-71055928D01*
X121974473Y-71237556D01*
X122043560Y-71357218D01*
X122060297Y-71426210D01*
X122037077Y-71493302D01*
X122028076Y-71504525D01*
X121962447Y-71577414D01*
X121942960Y-71599056D01*
X121847473Y-71764444D01*
X121788458Y-71946072D01*
X121787768Y-71952633D01*
X121787768Y-71952635D01*
X121773289Y-72090394D01*
X121768496Y-72136000D01*
X121769186Y-72142565D01*
X121777527Y-72221921D01*
X121788458Y-72325928D01*
X121847473Y-72507556D01*
X121850776Y-72513278D01*
X121850777Y-72513279D01*
X121859987Y-72529231D01*
X121942960Y-72672944D01*
X121947378Y-72677851D01*
X121947379Y-72677852D01*
X121991136Y-72726449D01*
X122021854Y-72790456D01*
X122023500Y-72810759D01*
X122023500Y-75271241D01*
X122003498Y-75339362D01*
X121991136Y-75355551D01*
X121942960Y-75409056D01*
X121847473Y-75574444D01*
X121788458Y-75756072D01*
X121787768Y-75762633D01*
X121787768Y-75762635D01*
X121783119Y-75806872D01*
X121768496Y-75946000D01*
X103632000Y-75946000D01*
X103632000Y-67513200D01*
X126035696Y-67513200D01*
X126036386Y-67519765D01*
X126052030Y-67668606D01*
X126055658Y-67703128D01*
X126114673Y-67884756D01*
X126210160Y-68050144D01*
X126214578Y-68055051D01*
X126214579Y-68055052D01*
X126333525Y-68187155D01*
X126337947Y-68192066D01*
X126424166Y-68254708D01*
X126485901Y-68299561D01*
X126492448Y-68304318D01*
X126498476Y-68307002D01*
X126498478Y-68307003D01*
X126653474Y-68376011D01*
X126666912Y-68381994D01*
X126760312Y-68401847D01*
X126847256Y-68420328D01*
X126847261Y-68420328D01*
X126853713Y-68421700D01*
X127044687Y-68421700D01*
X127051139Y-68420328D01*
X127051144Y-68420328D01*
X127138088Y-68401847D01*
X127231488Y-68381994D01*
X127244926Y-68376011D01*
X127399922Y-68307003D01*
X127399924Y-68307002D01*
X127405952Y-68304318D01*
X127412500Y-68299561D01*
X127474234Y-68254708D01*
X127560453Y-68192066D01*
X127564875Y-68187155D01*
X127683821Y-68055052D01*
X127683822Y-68055051D01*
X127688240Y-68050144D01*
X127783727Y-67884756D01*
X127842742Y-67703128D01*
X127846371Y-67668606D01*
X127862014Y-67519765D01*
X127862704Y-67513200D01*
X127852388Y-67415049D01*
X127865160Y-67345211D01*
X127913662Y-67293364D01*
X127982495Y-67275970D01*
X128003895Y-67278632D01*
X128117256Y-67302728D01*
X128117261Y-67302728D01*
X128123713Y-67304100D01*
X128144250Y-67304100D01*
X128212371Y-67324102D01*
X128233345Y-67341005D01*
X128305145Y-67412805D01*
X128313135Y-67421585D01*
X128317384Y-67428280D01*
X128323162Y-67433706D01*
X128323163Y-67433707D01*
X128369057Y-67476804D01*
X128371899Y-67479559D01*
X128392467Y-67500127D01*
X128395970Y-67502844D01*
X128404995Y-67510552D01*
X128438667Y-67542172D01*
X128445618Y-67545993D01*
X128445619Y-67545994D01*
X128457458Y-67552503D01*
X128473982Y-67563357D01*
X128484071Y-67571182D01*
X128490932Y-67576504D01*
X128498204Y-67579651D01*
X128498206Y-67579652D01*
X128533335Y-67594854D01*
X128543995Y-67600076D01*
X128573968Y-67616554D01*
X128584463Y-67622324D01*
X128605241Y-67627659D01*
X128623931Y-67634058D01*
X128643624Y-67642580D01*
X128678363Y-67648082D01*
X128689248Y-67649806D01*
X128700871Y-67652213D01*
X128725554Y-67658550D01*
X128745612Y-67663700D01*
X128767059Y-67663700D01*
X128786769Y-67665251D01*
X128807952Y-67668606D01*
X128853941Y-67664259D01*
X128865796Y-67663700D01*
X130016744Y-67663700D01*
X130028600Y-67664259D01*
X130028603Y-67664259D01*
X130036337Y-67665988D01*
X130107169Y-67663762D01*
X130111127Y-67663700D01*
X130140232Y-67663700D01*
X130144632Y-67663144D01*
X130156464Y-67662212D01*
X130202631Y-67660762D01*
X130223221Y-67654780D01*
X130242582Y-67650770D01*
X130250216Y-67649806D01*
X130256004Y-67649075D01*
X130256005Y-67649075D01*
X130263864Y-67648082D01*
X130271229Y-67645166D01*
X130271233Y-67645165D01*
X130306821Y-67631074D01*
X130318031Y-67627235D01*
X130362400Y-67614345D01*
X130380865Y-67603425D01*
X130398605Y-67594734D01*
X130418556Y-67586835D01*
X130455929Y-67559682D01*
X130465848Y-67553167D01*
X130498777Y-67533693D01*
X130498781Y-67533690D01*
X130505607Y-67529653D01*
X130520771Y-67514489D01*
X130535805Y-67501648D01*
X130553157Y-67489041D01*
X130582603Y-67453447D01*
X130590592Y-67444668D01*
X134703455Y-63331805D01*
X134765767Y-63297779D01*
X134792550Y-63294900D01*
X135666976Y-63294900D01*
X135735097Y-63314902D01*
X135741034Y-63318962D01*
X135890448Y-63427518D01*
X135896476Y-63430202D01*
X135896478Y-63430203D01*
X135988236Y-63471056D01*
X136064912Y-63505194D01*
X136158313Y-63525047D01*
X136245256Y-63543528D01*
X136245261Y-63543528D01*
X136251713Y-63544900D01*
X136442687Y-63544900D01*
X136449139Y-63543528D01*
X136449144Y-63543528D01*
X136536087Y-63525047D01*
X136629488Y-63505194D01*
X136706164Y-63471056D01*
X136797922Y-63430203D01*
X136797924Y-63430202D01*
X136803952Y-63427518D01*
X136958453Y-63315266D01*
X137086240Y-63173344D01*
X137153784Y-63056355D01*
X137178423Y-63013679D01*
X137178424Y-63013678D01*
X137181727Y-63007956D01*
X137240742Y-62826328D01*
X137260704Y-62636400D01*
X137255455Y-62586459D01*
X137241432Y-62453035D01*
X137241432Y-62453033D01*
X137240742Y-62446472D01*
X137181727Y-62264844D01*
X137086240Y-62099456D01*
X137038892Y-62046870D01*
X136962875Y-61962445D01*
X136962874Y-61962444D01*
X136958453Y-61957534D01*
X136853656Y-61881394D01*
X136809294Y-61849163D01*
X136809293Y-61849162D01*
X136803952Y-61845282D01*
X136797924Y-61842598D01*
X136797922Y-61842597D01*
X136635519Y-61770291D01*
X136635518Y-61770291D01*
X136629488Y-61767606D01*
X136522402Y-61744844D01*
X136449144Y-61729272D01*
X136449139Y-61729272D01*
X136442687Y-61727900D01*
X136251713Y-61727900D01*
X136245261Y-61729272D01*
X136245256Y-61729272D01*
X136171998Y-61744844D01*
X136064912Y-61767606D01*
X136058882Y-61770291D01*
X136058881Y-61770291D01*
X135896478Y-61842597D01*
X135896476Y-61842598D01*
X135890448Y-61845282D01*
X135885107Y-61849162D01*
X135885106Y-61849163D01*
X135840744Y-61881394D01*
X135741292Y-61953651D01*
X135741037Y-61953836D01*
X135674169Y-61977694D01*
X135666976Y-61977900D01*
X134549656Y-61977900D01*
X134537800Y-61977341D01*
X134537797Y-61977341D01*
X134530063Y-61975612D01*
X134482778Y-61977098D01*
X134459231Y-61977838D01*
X134455273Y-61977900D01*
X134426168Y-61977900D01*
X134421768Y-61978456D01*
X134409936Y-61979388D01*
X134363769Y-61980838D01*
X134343179Y-61986820D01*
X134323818Y-61990830D01*
X134316830Y-61991712D01*
X134310396Y-61992525D01*
X134310395Y-61992525D01*
X134302536Y-61993518D01*
X134295171Y-61996434D01*
X134295167Y-61996435D01*
X134259579Y-62010526D01*
X134248369Y-62014365D01*
X134204000Y-62027255D01*
X134185543Y-62038171D01*
X134167793Y-62046866D01*
X134147844Y-62054765D01*
X134141433Y-62059423D01*
X134141431Y-62059424D01*
X134110464Y-62081923D01*
X134100546Y-62088438D01*
X134060793Y-62111948D01*
X134045632Y-62127109D01*
X134030600Y-62139948D01*
X134013243Y-62152559D01*
X134008054Y-62158832D01*
X133983793Y-62188158D01*
X133975803Y-62196938D01*
X133649634Y-62523107D01*
X133587322Y-62557133D01*
X133516507Y-62552068D01*
X133459671Y-62509521D01*
X133434860Y-62443001D01*
X133440706Y-62395076D01*
X133461663Y-62330576D01*
X133469542Y-62306328D01*
X133476516Y-62239980D01*
X133488814Y-62122965D01*
X133489504Y-62116400D01*
X133483026Y-62054765D01*
X133470232Y-61933035D01*
X133470232Y-61933033D01*
X133469542Y-61926472D01*
X133410527Y-61744844D01*
X133401537Y-61729272D01*
X133341678Y-61625594D01*
X133315040Y-61579456D01*
X133266864Y-61525951D01*
X133236146Y-61461944D01*
X133234500Y-61441641D01*
X133234500Y-60149806D01*
X133254502Y-60081685D01*
X133308158Y-60035192D01*
X133370913Y-60024945D01*
X133370913Y-60024900D01*
X133561887Y-60024900D01*
X133568339Y-60023528D01*
X133568344Y-60023528D01*
X133655288Y-60005047D01*
X133748688Y-59985194D01*
X133762335Y-59979118D01*
X133917122Y-59910203D01*
X133917124Y-59910202D01*
X133923152Y-59907518D01*
X134077653Y-59795266D01*
X134205440Y-59653344D01*
X134300927Y-59487956D01*
X134359942Y-59306328D01*
X134374681Y-59166099D01*
X134379214Y-59122965D01*
X134379904Y-59116400D01*
X134374124Y-59061403D01*
X134360632Y-58933035D01*
X134360632Y-58933033D01*
X134359942Y-58926472D01*
X134300927Y-58744844D01*
X134296404Y-58737009D01*
X134262975Y-58679109D01*
X134205440Y-58579456D01*
X134156835Y-58525474D01*
X134082075Y-58442445D01*
X134082074Y-58442444D01*
X134077653Y-58437534D01*
X133968288Y-58358075D01*
X133928494Y-58329163D01*
X133928493Y-58329162D01*
X133923152Y-58325282D01*
X133917124Y-58322598D01*
X133917122Y-58322597D01*
X133754719Y-58250291D01*
X133754718Y-58250291D01*
X133748688Y-58247606D01*
X133649256Y-58226471D01*
X133568344Y-58209272D01*
X133568339Y-58209272D01*
X133561887Y-58207900D01*
X133370913Y-58207900D01*
X133370913Y-58207801D01*
X133303827Y-58195529D01*
X133251983Y-58147025D01*
X133234500Y-58082994D01*
X133234500Y-53467000D01*
X134341496Y-53467000D01*
X134342186Y-53473565D01*
X134358187Y-53625803D01*
X134361458Y-53656928D01*
X134420473Y-53838556D01*
X134423776Y-53844278D01*
X134423777Y-53844279D01*
X134451651Y-53892558D01*
X134515960Y-54003944D01*
X134643747Y-54145866D01*
X134798248Y-54258118D01*
X134804276Y-54260802D01*
X134804278Y-54260803D01*
X134966681Y-54333109D01*
X134972712Y-54335794D01*
X135066112Y-54355647D01*
X135153056Y-54374128D01*
X135153061Y-54374128D01*
X135159513Y-54375500D01*
X135350487Y-54375500D01*
X135356939Y-54374128D01*
X135356944Y-54374128D01*
X135443888Y-54355647D01*
X135537288Y-54335794D01*
X135543319Y-54333109D01*
X135705722Y-54260803D01*
X135705724Y-54260802D01*
X135711752Y-54258118D01*
X135866253Y-54145866D01*
X135994040Y-54003944D01*
X136058349Y-53892558D01*
X136086223Y-53844279D01*
X136086224Y-53844278D01*
X136089527Y-53838556D01*
X136148542Y-53656928D01*
X136151814Y-53625803D01*
X136167814Y-53473565D01*
X136168504Y-53467000D01*
X136148542Y-53277072D01*
X136089527Y-53095444D01*
X136084075Y-53086000D01*
X135997341Y-52935774D01*
X135994040Y-52930056D01*
X135977032Y-52911166D01*
X135870675Y-52793045D01*
X135870674Y-52793044D01*
X135866253Y-52788134D01*
X135750216Y-52703828D01*
X135717094Y-52679763D01*
X135717093Y-52679762D01*
X135711752Y-52675882D01*
X135705724Y-52673198D01*
X135705722Y-52673197D01*
X135543319Y-52600891D01*
X135543318Y-52600891D01*
X135537288Y-52598206D01*
X135443887Y-52578353D01*
X135356944Y-52559872D01*
X135356939Y-52559872D01*
X135350487Y-52558500D01*
X135159513Y-52558500D01*
X135153061Y-52559872D01*
X135153056Y-52559872D01*
X135066113Y-52578353D01*
X134972712Y-52598206D01*
X134966682Y-52600891D01*
X134966681Y-52600891D01*
X134804278Y-52673197D01*
X134804276Y-52673198D01*
X134798248Y-52675882D01*
X134792907Y-52679762D01*
X134792906Y-52679763D01*
X134759784Y-52703828D01*
X134643747Y-52788134D01*
X134639326Y-52793044D01*
X134639325Y-52793045D01*
X134532969Y-52911166D01*
X134515960Y-52930056D01*
X134512659Y-52935774D01*
X134425926Y-53086000D01*
X134420473Y-53095444D01*
X134361458Y-53277072D01*
X134341496Y-53467000D01*
X133234500Y-53467000D01*
X133234500Y-52476400D01*
X136449696Y-52476400D01*
X136450386Y-52482965D01*
X136467109Y-52642072D01*
X136469658Y-52666328D01*
X136528673Y-52847956D01*
X136624160Y-53013344D01*
X136628578Y-53018251D01*
X136628579Y-53018252D01*
X136703742Y-53101729D01*
X136751947Y-53155266D01*
X136851043Y-53227264D01*
X136875407Y-53244965D01*
X136906448Y-53267518D01*
X136912476Y-53270202D01*
X136912478Y-53270203D01*
X137069246Y-53340000D01*
X137080912Y-53345194D01*
X137174312Y-53365047D01*
X137261256Y-53383528D01*
X137261261Y-53383528D01*
X137267713Y-53384900D01*
X137458687Y-53384900D01*
X137465139Y-53383528D01*
X137465144Y-53383528D01*
X137552087Y-53365047D01*
X137645488Y-53345194D01*
X137657154Y-53340000D01*
X137813922Y-53270203D01*
X137813924Y-53270202D01*
X137819952Y-53267518D01*
X137850994Y-53244965D01*
X137875357Y-53227264D01*
X137974453Y-53155266D01*
X138022658Y-53101729D01*
X138097821Y-53018252D01*
X138097822Y-53018251D01*
X138102240Y-53013344D01*
X138197727Y-52847956D01*
X138256742Y-52666328D01*
X138259292Y-52642072D01*
X138276014Y-52482965D01*
X138276704Y-52476400D01*
X138265480Y-52369606D01*
X138257432Y-52293035D01*
X138257432Y-52293033D01*
X138256742Y-52286472D01*
X138197727Y-52104844D01*
X138102240Y-51939456D01*
X138012637Y-51839941D01*
X137978875Y-51802445D01*
X137978874Y-51802444D01*
X137974453Y-51797534D01*
X137819952Y-51685282D01*
X137813924Y-51682598D01*
X137813922Y-51682597D01*
X137651519Y-51610291D01*
X137651518Y-51610291D01*
X137645488Y-51607606D01*
X137552087Y-51587753D01*
X137465144Y-51569272D01*
X137465139Y-51569272D01*
X137458687Y-51567900D01*
X137267713Y-51567900D01*
X137261261Y-51569272D01*
X137261256Y-51569272D01*
X137174313Y-51587753D01*
X137080912Y-51607606D01*
X137074882Y-51610291D01*
X137074881Y-51610291D01*
X136912478Y-51682597D01*
X136912476Y-51682598D01*
X136906448Y-51685282D01*
X136751947Y-51797534D01*
X136747526Y-51802444D01*
X136747525Y-51802445D01*
X136713764Y-51839941D01*
X136624160Y-51939456D01*
X136528673Y-52104844D01*
X136469658Y-52286472D01*
X136468968Y-52293033D01*
X136468968Y-52293035D01*
X136460920Y-52369606D01*
X136449696Y-52476400D01*
X133234500Y-52476400D01*
X133234500Y-48378354D01*
X133254502Y-48310233D01*
X133308158Y-48263740D01*
X133343466Y-48254100D01*
X133343887Y-48254100D01*
X133530688Y-48214394D01*
X133536719Y-48211709D01*
X133699122Y-48139403D01*
X133699124Y-48139402D01*
X133705152Y-48136718D01*
X133859653Y-48024466D01*
X133903320Y-47975969D01*
X133983021Y-47887452D01*
X133983022Y-47887451D01*
X133987440Y-47882544D01*
X134050303Y-47773663D01*
X134079623Y-47722879D01*
X134079624Y-47722878D01*
X134082927Y-47717156D01*
X134141942Y-47535528D01*
X134161904Y-47345600D01*
X134153310Y-47263835D01*
X134142632Y-47162235D01*
X134142632Y-47162233D01*
X134141942Y-47155672D01*
X134082927Y-46974044D01*
X134077475Y-46964600D01*
X134009734Y-46847271D01*
X133987440Y-46808656D01*
X133869983Y-46678206D01*
X133864075Y-46671645D01*
X133864074Y-46671644D01*
X133859653Y-46666734D01*
X133737315Y-46577850D01*
X133710494Y-46558363D01*
X133710493Y-46558362D01*
X133705152Y-46554482D01*
X133699124Y-46551798D01*
X133699122Y-46551797D01*
X133536719Y-46479491D01*
X133536718Y-46479491D01*
X133530688Y-46476806D01*
X133437288Y-46456953D01*
X133350344Y-46438472D01*
X133350339Y-46438472D01*
X133343887Y-46437100D01*
X133152913Y-46437100D01*
X133146461Y-46438472D01*
X133146456Y-46438472D01*
X133059512Y-46456953D01*
X132966112Y-46476806D01*
X132960082Y-46479491D01*
X132960081Y-46479491D01*
X132797678Y-46551797D01*
X132797676Y-46551798D01*
X132791648Y-46554482D01*
X132786307Y-46558362D01*
X132786306Y-46558363D01*
X132759485Y-46577850D01*
X132637147Y-46666734D01*
X132632726Y-46671644D01*
X132632725Y-46671645D01*
X132626818Y-46678206D01*
X132509360Y-46808656D01*
X132487066Y-46847271D01*
X132419326Y-46964600D01*
X132413873Y-46974044D01*
X132354858Y-47155672D01*
X132354168Y-47162235D01*
X132354168Y-47162236D01*
X132341645Y-47281386D01*
X132314632Y-47347042D01*
X132305430Y-47357310D01*
X132168397Y-47494343D01*
X132159618Y-47502332D01*
X132159612Y-47502337D01*
X132152920Y-47506584D01*
X132147495Y-47512361D01*
X132104395Y-47558258D01*
X132101640Y-47561100D01*
X132081073Y-47581667D01*
X132078356Y-47585170D01*
X132070648Y-47594195D01*
X132039028Y-47627867D01*
X132035207Y-47634818D01*
X132035206Y-47634819D01*
X132028697Y-47646658D01*
X132017843Y-47663182D01*
X132010018Y-47673271D01*
X132004696Y-47680132D01*
X132001549Y-47687404D01*
X132001548Y-47687406D01*
X131986346Y-47722535D01*
X131981124Y-47733195D01*
X131958876Y-47773663D01*
X131953541Y-47794441D01*
X131947142Y-47813131D01*
X131938620Y-47832824D01*
X131937380Y-47840655D01*
X131931394Y-47878448D01*
X131928987Y-47890071D01*
X131917500Y-47934812D01*
X131917500Y-47956259D01*
X131915949Y-47975969D01*
X131912594Y-47997152D01*
X131913340Y-48005043D01*
X131916941Y-48043138D01*
X131917500Y-48054996D01*
X131917500Y-61441641D01*
X131897498Y-61509762D01*
X131885136Y-61525951D01*
X131836960Y-61579456D01*
X131810322Y-61625594D01*
X131750464Y-61729272D01*
X131741473Y-61744844D01*
X131682458Y-61926472D01*
X131681768Y-61933033D01*
X131681768Y-61933035D01*
X131668974Y-62054765D01*
X131662496Y-62116400D01*
X131663186Y-62122965D01*
X131675485Y-62239980D01*
X131682458Y-62306328D01*
X131741473Y-62487956D01*
X131744776Y-62493678D01*
X131744777Y-62493679D01*
X131761767Y-62523107D01*
X131836960Y-62653344D01*
X131841378Y-62658251D01*
X131841379Y-62658252D01*
X131921892Y-62747671D01*
X131964747Y-62795266D01*
X132119248Y-62907518D01*
X132125276Y-62910202D01*
X132125278Y-62910203D01*
X132287681Y-62982509D01*
X132293712Y-62985194D01*
X132371230Y-63001671D01*
X132474056Y-63023528D01*
X132474061Y-63023528D01*
X132480513Y-63024900D01*
X132671487Y-63024900D01*
X132677939Y-63023528D01*
X132677944Y-63023528D01*
X132858288Y-62985194D01*
X132858782Y-62987516D01*
X132918927Y-62985799D01*
X132979724Y-63022464D01*
X133011047Y-63086177D01*
X133002952Y-63156711D01*
X132975988Y-63196753D01*
X131832728Y-64340012D01*
X130715737Y-65457003D01*
X130653425Y-65491029D01*
X130582609Y-65485964D01*
X130533008Y-65452220D01*
X130484863Y-65398750D01*
X130454147Y-65334744D01*
X130452500Y-65314441D01*
X130452500Y-62752359D01*
X130472502Y-62684238D01*
X130484864Y-62668049D01*
X130528621Y-62619452D01*
X130528622Y-62619451D01*
X130533040Y-62614544D01*
X130606126Y-62487956D01*
X130625223Y-62454879D01*
X130625224Y-62454878D01*
X130628527Y-62449156D01*
X130687542Y-62267528D01*
X130688915Y-62254471D01*
X130706814Y-62084165D01*
X130707504Y-62077600D01*
X130705104Y-62054765D01*
X130688232Y-61894235D01*
X130688232Y-61894233D01*
X130687542Y-61887672D01*
X130628527Y-61706044D01*
X130616073Y-61684472D01*
X130586124Y-61632600D01*
X130569386Y-61563605D01*
X130586124Y-61506600D01*
X130625223Y-61438879D01*
X130625224Y-61438878D01*
X130628527Y-61433156D01*
X130687542Y-61251528D01*
X130691249Y-61216263D01*
X130706814Y-61068165D01*
X130707504Y-61061600D01*
X130698097Y-60972098D01*
X130688232Y-60878235D01*
X130688232Y-60878233D01*
X130687542Y-60871672D01*
X130628527Y-60690044D01*
X130601433Y-60643115D01*
X130536341Y-60530374D01*
X130533040Y-60524656D01*
X130513066Y-60502472D01*
X130409675Y-60387645D01*
X130409671Y-60387641D01*
X130405253Y-60382734D01*
X130279838Y-60291614D01*
X130256094Y-60274363D01*
X130256093Y-60274362D01*
X130250752Y-60270482D01*
X130244724Y-60267798D01*
X130244722Y-60267797D01*
X130082319Y-60195491D01*
X130082318Y-60195491D01*
X130076288Y-60192806D01*
X129972462Y-60170737D01*
X129895944Y-60154472D01*
X129895939Y-60154472D01*
X129889487Y-60153100D01*
X129698513Y-60153100D01*
X129692061Y-60154472D01*
X129692056Y-60154472D01*
X129615538Y-60170737D01*
X129511712Y-60192806D01*
X129505682Y-60195491D01*
X129505681Y-60195491D01*
X129343278Y-60267797D01*
X129343276Y-60267798D01*
X129337248Y-60270482D01*
X129331907Y-60274362D01*
X129331906Y-60274363D01*
X129308162Y-60291614D01*
X129182747Y-60382734D01*
X129125635Y-60446164D01*
X129065190Y-60483402D01*
X128994206Y-60482050D01*
X128938366Y-60446164D01*
X128881253Y-60382734D01*
X128755838Y-60291614D01*
X128732094Y-60274363D01*
X128732093Y-60274362D01*
X128726752Y-60270482D01*
X128720724Y-60267798D01*
X128720722Y-60267797D01*
X128558319Y-60195491D01*
X128558318Y-60195491D01*
X128552288Y-60192806D01*
X128448462Y-60170737D01*
X128371944Y-60154472D01*
X128371939Y-60154472D01*
X128365487Y-60153100D01*
X128174513Y-60153100D01*
X128168061Y-60154472D01*
X128168056Y-60154472D01*
X128091538Y-60170737D01*
X127987712Y-60192806D01*
X127981682Y-60195491D01*
X127981681Y-60195491D01*
X127819278Y-60267797D01*
X127819276Y-60267798D01*
X127813248Y-60270482D01*
X127807907Y-60274362D01*
X127807906Y-60274363D01*
X127784162Y-60291614D01*
X127658747Y-60382734D01*
X127654329Y-60387641D01*
X127654325Y-60387645D01*
X127550935Y-60502472D01*
X127530960Y-60524656D01*
X127527659Y-60530374D01*
X127462568Y-60643115D01*
X127435473Y-60690044D01*
X127413347Y-60758141D01*
X127390755Y-60827672D01*
X127376458Y-60871672D01*
X127375768Y-60878235D01*
X127375768Y-60878236D01*
X127363245Y-60997385D01*
X127336232Y-61063041D01*
X127327031Y-61073309D01*
X126541591Y-61858750D01*
X126532811Y-61866738D01*
X126526120Y-61870984D01*
X126520694Y-61876762D01*
X126477595Y-61922658D01*
X126474840Y-61925500D01*
X126454273Y-61946067D01*
X126451556Y-61949570D01*
X126443848Y-61958595D01*
X126412228Y-61992267D01*
X126408407Y-61999218D01*
X126408406Y-61999219D01*
X126401897Y-62011058D01*
X126391043Y-62027582D01*
X126383218Y-62037671D01*
X126377896Y-62044532D01*
X126374749Y-62051804D01*
X126374748Y-62051806D01*
X126359546Y-62086935D01*
X126354324Y-62097595D01*
X126337904Y-62127463D01*
X126332076Y-62138063D01*
X126326741Y-62158841D01*
X126320342Y-62177531D01*
X126311820Y-62197224D01*
X126305048Y-62239980D01*
X126304594Y-62242848D01*
X126302187Y-62254471D01*
X126300520Y-62260965D01*
X126290700Y-62299212D01*
X126290700Y-62320659D01*
X126289149Y-62340369D01*
X126285794Y-62361552D01*
X126287402Y-62378557D01*
X126290141Y-62407538D01*
X126290700Y-62419396D01*
X126290700Y-66838441D01*
X126270698Y-66906562D01*
X126258336Y-66922751D01*
X126210160Y-66976256D01*
X126114673Y-67141644D01*
X126055658Y-67323272D01*
X126035696Y-67513200D01*
X103632000Y-67513200D01*
X103632000Y-55245000D01*
X124562496Y-55245000D01*
X124582458Y-55434928D01*
X124641473Y-55616556D01*
X124736960Y-55781944D01*
X124741378Y-55786851D01*
X124741379Y-55786852D01*
X124802526Y-55854763D01*
X124864747Y-55923866D01*
X125019248Y-56036118D01*
X125025276Y-56038802D01*
X125025278Y-56038803D01*
X125187681Y-56111109D01*
X125193712Y-56113794D01*
X125287112Y-56133647D01*
X125374056Y-56152128D01*
X125374061Y-56152128D01*
X125380513Y-56153500D01*
X125571487Y-56153500D01*
X125577939Y-56152128D01*
X125577944Y-56152128D01*
X125664888Y-56133647D01*
X125758288Y-56113794D01*
X125764319Y-56111109D01*
X125926722Y-56038803D01*
X125926724Y-56038802D01*
X125932752Y-56036118D01*
X126036940Y-55960421D01*
X126103806Y-55936563D01*
X126172958Y-55952643D01*
X126185056Y-55960418D01*
X126289248Y-56036118D01*
X126295276Y-56038802D01*
X126295278Y-56038803D01*
X126457681Y-56111109D01*
X126463712Y-56113794D01*
X126557112Y-56133647D01*
X126644056Y-56152128D01*
X126644061Y-56152128D01*
X126650513Y-56153500D01*
X126841487Y-56153500D01*
X126847939Y-56152128D01*
X126847944Y-56152128D01*
X126934888Y-56133647D01*
X127028288Y-56113794D01*
X127034319Y-56111109D01*
X127196722Y-56038803D01*
X127196724Y-56038802D01*
X127202752Y-56036118D01*
X127357253Y-55923866D01*
X127419474Y-55854763D01*
X127480621Y-55786852D01*
X127480622Y-55786851D01*
X127485040Y-55781944D01*
X127580527Y-55616556D01*
X127639542Y-55434928D01*
X127659504Y-55245000D01*
X127639542Y-55055072D01*
X127580527Y-54873444D01*
X127485040Y-54708056D01*
X127436864Y-54654551D01*
X127406146Y-54590544D01*
X127404500Y-54570241D01*
X127404500Y-51220759D01*
X127424502Y-51152638D01*
X127436864Y-51136449D01*
X127480621Y-51087852D01*
X127480622Y-51087851D01*
X127485040Y-51082944D01*
X127564448Y-50945406D01*
X127577223Y-50923279D01*
X127577224Y-50923278D01*
X127580527Y-50917556D01*
X127639542Y-50735928D01*
X127659504Y-50546000D01*
X127639542Y-50356072D01*
X127580527Y-50174444D01*
X127485040Y-50009056D01*
X127357253Y-49867134D01*
X127202752Y-49754882D01*
X127196724Y-49752198D01*
X127196722Y-49752197D01*
X127034319Y-49679891D01*
X127034318Y-49679891D01*
X127028288Y-49677206D01*
X126934888Y-49657353D01*
X126847944Y-49638872D01*
X126847939Y-49638872D01*
X126841487Y-49637500D01*
X126650513Y-49637500D01*
X126644061Y-49638872D01*
X126644056Y-49638872D01*
X126557113Y-49657353D01*
X126463712Y-49677206D01*
X126457682Y-49679891D01*
X126457681Y-49679891D01*
X126295278Y-49752197D01*
X126295276Y-49752198D01*
X126289248Y-49754882D01*
X126134747Y-49867134D01*
X126006960Y-50009056D01*
X125911473Y-50174444D01*
X125852458Y-50356072D01*
X125832496Y-50546000D01*
X125852458Y-50735928D01*
X125911473Y-50917556D01*
X125914776Y-50923278D01*
X125914777Y-50923279D01*
X125927552Y-50945406D01*
X126006960Y-51082944D01*
X126011378Y-51087851D01*
X126011379Y-51087852D01*
X126055136Y-51136449D01*
X126085854Y-51200456D01*
X126087500Y-51220759D01*
X126087500Y-52169757D01*
X126067498Y-52237878D01*
X126013842Y-52284371D01*
X125943568Y-52294475D01*
X125910251Y-52284864D01*
X125764319Y-52219891D01*
X125764318Y-52219891D01*
X125758288Y-52217206D01*
X125664887Y-52197353D01*
X125577944Y-52178872D01*
X125577939Y-52178872D01*
X125571487Y-52177500D01*
X125380513Y-52177500D01*
X125374061Y-52178872D01*
X125374056Y-52178872D01*
X125287113Y-52197353D01*
X125193712Y-52217206D01*
X125187682Y-52219891D01*
X125187681Y-52219891D01*
X125025278Y-52292197D01*
X125025276Y-52292198D01*
X125019248Y-52294882D01*
X124864747Y-52407134D01*
X124860326Y-52412044D01*
X124860325Y-52412045D01*
X124768615Y-52513900D01*
X124736960Y-52549056D01*
X124728075Y-52564445D01*
X124648972Y-52701456D01*
X124641473Y-52714444D01*
X124582458Y-52896072D01*
X124581768Y-52902633D01*
X124581768Y-52902635D01*
X124565508Y-53057345D01*
X124562496Y-53086000D01*
X124563186Y-53092565D01*
X124571121Y-53168058D01*
X124582458Y-53275928D01*
X124641473Y-53457556D01*
X124644776Y-53463278D01*
X124644777Y-53463279D01*
X124650716Y-53473565D01*
X124736960Y-53622944D01*
X124741378Y-53627851D01*
X124741379Y-53627852D01*
X124785136Y-53676449D01*
X124815854Y-53740456D01*
X124817500Y-53760759D01*
X124817500Y-54570241D01*
X124797498Y-54638362D01*
X124785136Y-54654551D01*
X124736960Y-54708056D01*
X124641473Y-54873444D01*
X124582458Y-55055072D01*
X124562496Y-55245000D01*
X103632000Y-55245000D01*
X103632000Y-46786800D01*
X121819296Y-46786800D01*
X121819986Y-46793365D01*
X121832437Y-46911826D01*
X121839258Y-46976728D01*
X121898273Y-47158356D01*
X121993760Y-47323744D01*
X121998178Y-47328651D01*
X121998179Y-47328652D01*
X122019350Y-47352165D01*
X122121547Y-47465666D01*
X122276048Y-47577918D01*
X122282076Y-47580602D01*
X122282078Y-47580603D01*
X122403850Y-47634819D01*
X122450512Y-47655594D01*
X122536484Y-47673868D01*
X122630856Y-47693928D01*
X122630861Y-47693928D01*
X122637313Y-47695300D01*
X122828287Y-47695300D01*
X122834739Y-47693928D01*
X122834744Y-47693928D01*
X122929116Y-47673868D01*
X123015088Y-47655594D01*
X123061750Y-47634819D01*
X123183522Y-47580603D01*
X123183524Y-47580602D01*
X123189552Y-47577918D01*
X123344053Y-47465666D01*
X123446250Y-47352165D01*
X123467421Y-47328652D01*
X123467422Y-47328651D01*
X123471840Y-47323744D01*
X123567327Y-47158356D01*
X123626342Y-46976728D01*
X123633164Y-46911826D01*
X123645614Y-46793365D01*
X123646304Y-46786800D01*
X123640345Y-46730100D01*
X123627032Y-46603435D01*
X123627032Y-46603433D01*
X123626342Y-46596872D01*
X123567327Y-46415244D01*
X123471840Y-46249856D01*
X123344053Y-46107934D01*
X123244957Y-46035936D01*
X123194894Y-45999563D01*
X123194893Y-45999562D01*
X123189552Y-45995682D01*
X123183524Y-45992998D01*
X123183522Y-45992997D01*
X123021119Y-45920691D01*
X123021118Y-45920691D01*
X123015088Y-45918006D01*
X122921687Y-45898153D01*
X122834744Y-45879672D01*
X122834739Y-45879672D01*
X122828287Y-45878300D01*
X122637313Y-45878300D01*
X122630861Y-45879672D01*
X122630856Y-45879672D01*
X122543912Y-45898153D01*
X122450512Y-45918006D01*
X122444482Y-45920691D01*
X122444481Y-45920691D01*
X122282078Y-45992997D01*
X122282076Y-45992998D01*
X122276048Y-45995682D01*
X122270707Y-45999562D01*
X122270706Y-45999563D01*
X122220643Y-46035936D01*
X122121547Y-46107934D01*
X121993760Y-46249856D01*
X121898273Y-46415244D01*
X121839258Y-46596872D01*
X121838568Y-46603433D01*
X121838568Y-46603435D01*
X121825255Y-46730100D01*
X121819296Y-46786800D01*
X103632000Y-46786800D01*
X103632000Y-45481200D01*
X124867296Y-45481200D01*
X124867986Y-45487765D01*
X124885966Y-45658832D01*
X124887258Y-45671128D01*
X124946273Y-45852756D01*
X125041760Y-46018144D01*
X125169547Y-46160066D01*
X125268643Y-46232064D01*
X125286377Y-46244948D01*
X125324048Y-46272318D01*
X125330076Y-46275002D01*
X125330078Y-46275003D01*
X125368416Y-46292072D01*
X125498512Y-46349994D01*
X125561827Y-46363452D01*
X125678856Y-46388328D01*
X125678861Y-46388328D01*
X125685313Y-46389700D01*
X125876287Y-46389700D01*
X125882739Y-46388328D01*
X125882744Y-46388328D01*
X125999773Y-46363452D01*
X126063088Y-46349994D01*
X126193184Y-46292072D01*
X126231522Y-46275003D01*
X126231524Y-46275002D01*
X126237552Y-46272318D01*
X126275224Y-46244948D01*
X126292957Y-46232064D01*
X126392053Y-46160066D01*
X126519840Y-46018144D01*
X126615327Y-45852756D01*
X126674342Y-45671128D01*
X126675635Y-45658832D01*
X126693614Y-45487765D01*
X126694304Y-45481200D01*
X126686983Y-45411544D01*
X126675032Y-45297835D01*
X126675032Y-45297833D01*
X126674342Y-45291272D01*
X126615327Y-45109644D01*
X126519840Y-44944256D01*
X126434187Y-44849128D01*
X126396475Y-44807245D01*
X126396474Y-44807244D01*
X126392053Y-44802334D01*
X126237552Y-44690082D01*
X126231524Y-44687398D01*
X126231522Y-44687397D01*
X126069119Y-44615091D01*
X126069118Y-44615091D01*
X126063088Y-44612406D01*
X125969687Y-44592553D01*
X125882744Y-44574072D01*
X125882739Y-44574072D01*
X125876287Y-44572700D01*
X125685313Y-44572700D01*
X125678861Y-44574072D01*
X125678856Y-44574072D01*
X125591912Y-44592553D01*
X125498512Y-44612406D01*
X125492482Y-44615091D01*
X125492481Y-44615091D01*
X125330078Y-44687397D01*
X125330076Y-44687398D01*
X125324048Y-44690082D01*
X125169547Y-44802334D01*
X125165126Y-44807244D01*
X125165125Y-44807245D01*
X125127414Y-44849128D01*
X125041760Y-44944256D01*
X124946273Y-45109644D01*
X124887258Y-45291272D01*
X124886568Y-45297833D01*
X124886568Y-45297835D01*
X124874617Y-45411544D01*
X124867296Y-45481200D01*
X103632000Y-45481200D01*
X103632000Y-41097200D01*
X143714096Y-41097200D01*
X143714786Y-41103765D01*
X143732393Y-41271282D01*
X143734058Y-41287128D01*
X143793073Y-41468756D01*
X143888560Y-41634144D01*
X144016347Y-41776066D01*
X144059996Y-41807779D01*
X144157415Y-41878558D01*
X144170848Y-41888318D01*
X144176876Y-41891002D01*
X144176878Y-41891003D01*
X144306765Y-41948832D01*
X144345312Y-41965994D01*
X144438712Y-41985847D01*
X144525656Y-42004328D01*
X144525661Y-42004328D01*
X144532113Y-42005700D01*
X144723087Y-42005700D01*
X144729539Y-42004328D01*
X144729544Y-42004328D01*
X144816488Y-41985847D01*
X144909888Y-41965994D01*
X144948435Y-41948832D01*
X145078322Y-41891003D01*
X145078324Y-41891002D01*
X145084352Y-41888318D01*
X145097786Y-41878558D01*
X145195204Y-41807779D01*
X145238853Y-41776066D01*
X145366640Y-41634144D01*
X145462127Y-41468756D01*
X145521142Y-41287128D01*
X145522808Y-41271282D01*
X145540414Y-41103765D01*
X145541104Y-41097200D01*
X145521142Y-40907272D01*
X145462127Y-40725644D01*
X145366640Y-40560256D01*
X145316481Y-40504548D01*
X145243275Y-40423245D01*
X145243274Y-40423244D01*
X145238853Y-40418334D01*
X145194349Y-40386000D01*
X149545796Y-40386000D01*
X149546486Y-40392565D01*
X149559373Y-40515174D01*
X149565758Y-40575928D01*
X149624773Y-40757556D01*
X149720260Y-40922944D01*
X149848047Y-41064866D01*
X150002548Y-41177118D01*
X150008576Y-41179802D01*
X150008578Y-41179803D01*
X150045611Y-41196291D01*
X150177012Y-41254794D01*
X150241950Y-41268597D01*
X150357356Y-41293128D01*
X150357361Y-41293128D01*
X150363813Y-41294500D01*
X150554787Y-41294500D01*
X150561239Y-41293128D01*
X150561244Y-41293128D01*
X150676650Y-41268597D01*
X150741588Y-41254794D01*
X150872989Y-41196291D01*
X150910022Y-41179803D01*
X150910024Y-41179802D01*
X150916052Y-41177118D01*
X151070553Y-41064866D01*
X151198340Y-40922944D01*
X151293827Y-40757556D01*
X151352842Y-40575928D01*
X151359228Y-40515174D01*
X151372114Y-40392565D01*
X151372804Y-40386000D01*
X154407496Y-40386000D01*
X154408186Y-40392565D01*
X154421073Y-40515174D01*
X154427458Y-40575928D01*
X154486473Y-40757556D01*
X154581960Y-40922944D01*
X154709747Y-41064866D01*
X154864248Y-41177118D01*
X154870276Y-41179802D01*
X154870278Y-41179803D01*
X154907311Y-41196291D01*
X155038712Y-41254794D01*
X155103650Y-41268597D01*
X155219056Y-41293128D01*
X155219061Y-41293128D01*
X155225513Y-41294500D01*
X155416487Y-41294500D01*
X155422939Y-41293128D01*
X155422944Y-41293128D01*
X155538350Y-41268597D01*
X155603288Y-41254794D01*
X155734689Y-41196291D01*
X155771722Y-41179803D01*
X155771724Y-41179802D01*
X155777752Y-41177118D01*
X155932253Y-41064866D01*
X156060040Y-40922944D01*
X156155527Y-40757556D01*
X156214542Y-40575928D01*
X156220928Y-40515174D01*
X156233814Y-40392565D01*
X156234504Y-40386000D01*
X156224566Y-40291445D01*
X156215232Y-40202635D01*
X156215232Y-40202633D01*
X156214542Y-40196072D01*
X156155527Y-40014444D01*
X156060040Y-39849056D01*
X155932253Y-39707134D01*
X155777752Y-39594882D01*
X155771724Y-39592198D01*
X155771722Y-39592197D01*
X155609319Y-39519891D01*
X155609318Y-39519891D01*
X155603288Y-39517206D01*
X155509888Y-39497353D01*
X155422944Y-39478872D01*
X155422939Y-39478872D01*
X155416487Y-39477500D01*
X155225513Y-39477500D01*
X155219061Y-39478872D01*
X155219056Y-39478872D01*
X155132112Y-39497353D01*
X155038712Y-39517206D01*
X155032682Y-39519891D01*
X155032681Y-39519891D01*
X154870278Y-39592197D01*
X154870276Y-39592198D01*
X154864248Y-39594882D01*
X154709747Y-39707134D01*
X154581960Y-39849056D01*
X154486473Y-40014444D01*
X154427458Y-40196072D01*
X154426768Y-40202633D01*
X154426768Y-40202635D01*
X154417434Y-40291445D01*
X154407496Y-40386000D01*
X151372804Y-40386000D01*
X151362866Y-40291445D01*
X151353532Y-40202635D01*
X151353532Y-40202633D01*
X151352842Y-40196072D01*
X151293827Y-40014444D01*
X151198340Y-39849056D01*
X151070553Y-39707134D01*
X150916052Y-39594882D01*
X150910024Y-39592198D01*
X150910022Y-39592197D01*
X150747619Y-39519891D01*
X150747618Y-39519891D01*
X150741588Y-39517206D01*
X150648188Y-39497353D01*
X150561244Y-39478872D01*
X150561239Y-39478872D01*
X150554787Y-39477500D01*
X150363813Y-39477500D01*
X150357361Y-39478872D01*
X150357356Y-39478872D01*
X150270412Y-39497353D01*
X150177012Y-39517206D01*
X150170982Y-39519891D01*
X150170981Y-39519891D01*
X150008578Y-39592197D01*
X150008576Y-39592198D01*
X150002548Y-39594882D01*
X149848047Y-39707134D01*
X149720260Y-39849056D01*
X149624773Y-40014444D01*
X149565758Y-40196072D01*
X149565068Y-40202633D01*
X149565068Y-40202635D01*
X149555734Y-40291445D01*
X149545796Y-40386000D01*
X145194349Y-40386000D01*
X145116656Y-40329552D01*
X145089694Y-40309963D01*
X145089693Y-40309962D01*
X145084352Y-40306082D01*
X145078324Y-40303398D01*
X145078322Y-40303397D01*
X144915919Y-40231091D01*
X144915918Y-40231091D01*
X144909888Y-40228406D01*
X144788646Y-40202635D01*
X144729544Y-40190072D01*
X144729539Y-40190072D01*
X144723087Y-40188700D01*
X144532113Y-40188700D01*
X144525661Y-40190072D01*
X144525656Y-40190072D01*
X144466554Y-40202635D01*
X144345312Y-40228406D01*
X144339282Y-40231091D01*
X144339281Y-40231091D01*
X144176878Y-40303397D01*
X144176876Y-40303398D01*
X144170848Y-40306082D01*
X144165507Y-40309962D01*
X144165506Y-40309963D01*
X144138544Y-40329552D01*
X144016347Y-40418334D01*
X144011926Y-40423244D01*
X144011925Y-40423245D01*
X143938720Y-40504548D01*
X143888560Y-40560256D01*
X143793073Y-40725644D01*
X143734058Y-40907272D01*
X143714096Y-41097200D01*
X103632000Y-41097200D01*
X103632000Y-37863400D01*
X149488334Y-37863400D01*
X149508113Y-38013636D01*
X149566102Y-38153633D01*
X149658349Y-38273851D01*
X149778567Y-38366098D01*
X149918564Y-38424087D01*
X150031080Y-38438900D01*
X150106520Y-38438900D01*
X150219036Y-38424087D01*
X150359033Y-38366098D01*
X150479251Y-38273851D01*
X150571498Y-38153633D01*
X150629487Y-38013636D01*
X150648286Y-37870843D01*
X150677008Y-37805916D01*
X150736274Y-37766824D01*
X150807265Y-37765979D01*
X150867444Y-37803649D01*
X150893041Y-37848353D01*
X150930473Y-37963556D01*
X150933776Y-37969278D01*
X150933777Y-37969279D01*
X150954659Y-38005448D01*
X151025960Y-38128944D01*
X151153747Y-38270866D01*
X151308248Y-38383118D01*
X151314276Y-38385802D01*
X151314278Y-38385803D01*
X151433537Y-38438900D01*
X151482712Y-38460794D01*
X151576113Y-38480647D01*
X151663056Y-38499128D01*
X151663061Y-38499128D01*
X151669513Y-38500500D01*
X151860487Y-38500500D01*
X151866939Y-38499128D01*
X151866944Y-38499128D01*
X151953887Y-38480647D01*
X152047288Y-38460794D01*
X152096463Y-38438900D01*
X152215722Y-38385803D01*
X152215724Y-38385802D01*
X152221752Y-38383118D01*
X152376253Y-38270866D01*
X152504040Y-38128944D01*
X152575341Y-38005448D01*
X152596223Y-37969279D01*
X152596224Y-37969278D01*
X152599527Y-37963556D01*
X152626071Y-37881862D01*
X152666143Y-37823258D01*
X152731540Y-37795621D01*
X152801496Y-37807728D01*
X152819964Y-37818864D01*
X152906676Y-37881864D01*
X152923707Y-37894238D01*
X152929735Y-37896922D01*
X152929737Y-37896923D01*
X153092140Y-37969229D01*
X153098171Y-37971914D01*
X153191572Y-37991767D01*
X153278515Y-38010248D01*
X153278520Y-38010248D01*
X153284972Y-38011620D01*
X153475946Y-38011620D01*
X153482398Y-38010248D01*
X153482403Y-38010248D01*
X153569347Y-37991767D01*
X153662747Y-37971914D01*
X153668778Y-37969229D01*
X153831181Y-37896923D01*
X153831183Y-37896922D01*
X153837211Y-37894238D01*
X153879656Y-37863400D01*
X155268334Y-37863400D01*
X155288113Y-38013636D01*
X155346102Y-38153633D01*
X155438349Y-38273851D01*
X155558567Y-38366098D01*
X155698564Y-38424087D01*
X155811080Y-38438900D01*
X155886520Y-38438900D01*
X155999036Y-38424087D01*
X156139033Y-38366098D01*
X156259251Y-38273851D01*
X156351498Y-38153633D01*
X156409487Y-38013636D01*
X156429266Y-37863400D01*
X156417901Y-37777075D01*
X156410565Y-37721352D01*
X156409487Y-37713164D01*
X156351498Y-37573167D01*
X156259251Y-37452949D01*
X156139033Y-37360702D01*
X155999036Y-37302713D01*
X155886520Y-37287900D01*
X155811080Y-37287900D01*
X155698564Y-37302713D01*
X155558567Y-37360702D01*
X155438349Y-37452949D01*
X155346102Y-37573167D01*
X155288113Y-37713164D01*
X155287035Y-37721352D01*
X155279699Y-37777075D01*
X155268334Y-37863400D01*
X153879656Y-37863400D01*
X153991712Y-37781986D01*
X154119499Y-37640064D01*
X154214986Y-37474676D01*
X154274001Y-37293048D01*
X154282234Y-37214721D01*
X154293273Y-37109685D01*
X154293963Y-37103120D01*
X154288911Y-37055056D01*
X154274691Y-36919755D01*
X154274691Y-36919753D01*
X154274001Y-36913192D01*
X154214986Y-36731564D01*
X154210161Y-36723206D01*
X154150158Y-36619279D01*
X154119499Y-36566176D01*
X154041395Y-36479432D01*
X153996134Y-36429165D01*
X153996133Y-36429164D01*
X153991712Y-36424254D01*
X153837211Y-36312002D01*
X153831183Y-36309318D01*
X153831181Y-36309317D01*
X153668778Y-36237011D01*
X153668777Y-36237011D01*
X153662747Y-36234326D01*
X153569347Y-36214473D01*
X153482403Y-36195992D01*
X153482398Y-36195992D01*
X153475946Y-36194620D01*
X153284972Y-36194620D01*
X153278520Y-36195992D01*
X153278515Y-36195992D01*
X153191571Y-36214473D01*
X153098171Y-36234326D01*
X153092141Y-36237011D01*
X153092140Y-36237011D01*
X152929737Y-36309317D01*
X152929735Y-36309318D01*
X152923707Y-36312002D01*
X152774551Y-36420371D01*
X152774296Y-36420556D01*
X152707428Y-36444414D01*
X152700235Y-36444620D01*
X152335939Y-36444620D01*
X152324083Y-36444061D01*
X152316343Y-36442331D01*
X152308417Y-36442580D01*
X152308416Y-36442580D01*
X152245491Y-36444558D01*
X152241533Y-36444620D01*
X152212448Y-36444620D01*
X152208517Y-36445117D01*
X152208510Y-36445117D01*
X152208059Y-36445174D01*
X152196223Y-36446106D01*
X152150049Y-36447558D01*
X152129459Y-36453540D01*
X152110098Y-36457550D01*
X152103110Y-36458432D01*
X152096676Y-36459245D01*
X152096675Y-36459245D01*
X152088816Y-36460238D01*
X152081451Y-36463154D01*
X152081447Y-36463155D01*
X152045859Y-36477246D01*
X152034649Y-36481085D01*
X151990280Y-36493975D01*
X151971815Y-36504895D01*
X151954075Y-36513586D01*
X151934124Y-36521485D01*
X151896754Y-36548636D01*
X151886832Y-36555153D01*
X151853903Y-36574627D01*
X151853899Y-36574630D01*
X151847073Y-36578667D01*
X151831909Y-36593831D01*
X151816876Y-36606671D01*
X151799523Y-36619279D01*
X151794469Y-36625388D01*
X151794466Y-36625391D01*
X151784189Y-36637814D01*
X151725356Y-36677553D01*
X151687104Y-36683500D01*
X151669513Y-36683500D01*
X151663061Y-36684872D01*
X151663056Y-36684872D01*
X151576113Y-36703353D01*
X151482712Y-36723206D01*
X151476682Y-36725891D01*
X151476681Y-36725891D01*
X151314278Y-36798197D01*
X151314276Y-36798198D01*
X151308248Y-36800882D01*
X151153747Y-36913134D01*
X151025960Y-37055056D01*
X150930473Y-37220444D01*
X150871458Y-37402072D01*
X150870768Y-37408633D01*
X150870768Y-37408635D01*
X150854164Y-37566614D01*
X150851496Y-37592000D01*
X150852186Y-37598565D01*
X150852186Y-37598567D01*
X150853213Y-37608339D01*
X150840440Y-37678177D01*
X150791938Y-37730023D01*
X150723105Y-37747417D01*
X150655795Y-37724835D01*
X150611494Y-37669726D01*
X150571498Y-37573167D01*
X150479251Y-37452949D01*
X150359033Y-37360702D01*
X150219036Y-37302713D01*
X150106520Y-37287900D01*
X150031080Y-37287900D01*
X149918564Y-37302713D01*
X149778567Y-37360702D01*
X149658349Y-37452949D01*
X149566102Y-37573167D01*
X149508113Y-37713164D01*
X149507035Y-37721352D01*
X149499699Y-37777075D01*
X149488334Y-37863400D01*
X103632000Y-37863400D01*
X103632000Y-35380464D01*
X135642507Y-35380464D01*
X135671625Y-35572999D01*
X135673828Y-35578985D01*
X135673829Y-35578991D01*
X135736660Y-35749760D01*
X135736662Y-35749765D01*
X135738863Y-35755746D01*
X135841474Y-35921240D01*
X135975266Y-36062722D01*
X136134775Y-36174411D01*
X136140638Y-36176948D01*
X136307625Y-36249210D01*
X136307629Y-36249211D01*
X136313484Y-36251745D01*
X136319731Y-36253050D01*
X136319734Y-36253051D01*
X136499357Y-36290576D01*
X136499362Y-36290577D01*
X136504093Y-36291565D01*
X136510485Y-36291900D01*
X136653463Y-36291900D01*
X136722751Y-36284862D01*
X136792178Y-36277810D01*
X136792179Y-36277810D01*
X136798527Y-36277165D01*
X136879643Y-36251745D01*
X136978251Y-36220844D01*
X136978256Y-36220842D01*
X136984341Y-36218935D01*
X137071275Y-36170746D01*
X137149071Y-36127623D01*
X137149074Y-36127621D01*
X137154650Y-36124530D01*
X137159491Y-36120381D01*
X137159495Y-36120378D01*
X137297655Y-36001960D01*
X137302498Y-35997809D01*
X137421846Y-35843947D01*
X137462579Y-35761168D01*
X137505000Y-35674956D01*
X137507818Y-35669229D01*
X137509428Y-35663049D01*
X137555292Y-35486975D01*
X137555292Y-35486972D01*
X137556902Y-35480793D01*
X137562160Y-35380464D01*
X142442507Y-35380464D01*
X142471625Y-35572999D01*
X142473828Y-35578985D01*
X142473829Y-35578991D01*
X142536660Y-35749760D01*
X142536662Y-35749765D01*
X142538863Y-35755746D01*
X142641474Y-35921240D01*
X142775266Y-36062722D01*
X142934775Y-36174411D01*
X142940638Y-36176948D01*
X143107625Y-36249210D01*
X143107629Y-36249211D01*
X143113484Y-36251745D01*
X143119731Y-36253050D01*
X143119734Y-36253051D01*
X143299357Y-36290576D01*
X143299362Y-36290577D01*
X143304093Y-36291565D01*
X143310485Y-36291900D01*
X143453463Y-36291900D01*
X143522751Y-36284862D01*
X143592178Y-36277810D01*
X143592179Y-36277810D01*
X143598527Y-36277165D01*
X143679643Y-36251745D01*
X143778251Y-36220844D01*
X143778256Y-36220842D01*
X143784341Y-36218935D01*
X143871275Y-36170746D01*
X143949071Y-36127623D01*
X143949074Y-36127621D01*
X143954650Y-36124530D01*
X143959491Y-36120381D01*
X143959495Y-36120378D01*
X144097655Y-36001960D01*
X144102498Y-35997809D01*
X144221846Y-35843947D01*
X144262579Y-35761168D01*
X144305000Y-35674956D01*
X144307818Y-35669229D01*
X144309428Y-35663049D01*
X144355292Y-35486975D01*
X144355292Y-35486972D01*
X144356902Y-35480793D01*
X144362160Y-35380464D01*
X161550507Y-35380464D01*
X161579625Y-35572999D01*
X161581828Y-35578985D01*
X161581829Y-35578991D01*
X161644660Y-35749760D01*
X161644662Y-35749765D01*
X161646863Y-35755746D01*
X161749474Y-35921240D01*
X161883266Y-36062722D01*
X162042775Y-36174411D01*
X162048638Y-36176948D01*
X162215625Y-36249210D01*
X162215629Y-36249211D01*
X162221484Y-36251745D01*
X162227731Y-36253050D01*
X162227734Y-36253051D01*
X162407357Y-36290576D01*
X162407362Y-36290577D01*
X162412093Y-36291565D01*
X162418485Y-36291900D01*
X162561463Y-36291900D01*
X162630751Y-36284862D01*
X162700178Y-36277810D01*
X162700179Y-36277810D01*
X162706527Y-36277165D01*
X162787643Y-36251745D01*
X162886251Y-36220844D01*
X162886256Y-36220842D01*
X162892341Y-36218935D01*
X162979275Y-36170746D01*
X163057071Y-36127623D01*
X163057074Y-36127621D01*
X163062650Y-36124530D01*
X163067491Y-36120381D01*
X163067495Y-36120378D01*
X163205655Y-36001960D01*
X163210498Y-35997809D01*
X163329846Y-35843947D01*
X163370579Y-35761168D01*
X163413000Y-35674956D01*
X163415818Y-35669229D01*
X163417428Y-35663049D01*
X163463292Y-35486975D01*
X163463292Y-35486972D01*
X163464902Y-35480793D01*
X163470160Y-35380464D01*
X168350507Y-35380464D01*
X168379625Y-35572999D01*
X168381828Y-35578985D01*
X168381829Y-35578991D01*
X168444660Y-35749760D01*
X168444662Y-35749765D01*
X168446863Y-35755746D01*
X168549474Y-35921240D01*
X168683266Y-36062722D01*
X168842775Y-36174411D01*
X168848638Y-36176948D01*
X169015625Y-36249210D01*
X169015629Y-36249211D01*
X169021484Y-36251745D01*
X169027731Y-36253050D01*
X169027734Y-36253051D01*
X169207357Y-36290576D01*
X169207362Y-36290577D01*
X169212093Y-36291565D01*
X169218485Y-36291900D01*
X169361463Y-36291900D01*
X169430751Y-36284862D01*
X169500178Y-36277810D01*
X169500179Y-36277810D01*
X169506527Y-36277165D01*
X169587643Y-36251745D01*
X169686251Y-36220844D01*
X169686256Y-36220842D01*
X169692341Y-36218935D01*
X169779275Y-36170746D01*
X169857071Y-36127623D01*
X169857074Y-36127621D01*
X169862650Y-36124530D01*
X169867491Y-36120381D01*
X169867495Y-36120378D01*
X170005655Y-36001960D01*
X170010498Y-35997809D01*
X170129846Y-35843947D01*
X170170579Y-35761168D01*
X170213000Y-35674956D01*
X170215818Y-35669229D01*
X170217428Y-35663049D01*
X170263292Y-35486975D01*
X170263292Y-35486972D01*
X170264902Y-35480793D01*
X170275093Y-35286336D01*
X170245975Y-35093801D01*
X170243772Y-35087815D01*
X170243771Y-35087809D01*
X170180940Y-34917040D01*
X170180938Y-34917035D01*
X170178737Y-34911054D01*
X170076126Y-34745560D01*
X169942334Y-34604078D01*
X169782825Y-34492389D01*
X169734813Y-34471612D01*
X169609975Y-34417590D01*
X169609971Y-34417589D01*
X169604116Y-34415055D01*
X169597869Y-34413750D01*
X169597866Y-34413749D01*
X169418243Y-34376224D01*
X169418238Y-34376223D01*
X169413507Y-34375235D01*
X169407115Y-34374900D01*
X169264137Y-34374900D01*
X169194849Y-34381938D01*
X169125422Y-34388990D01*
X169125421Y-34388990D01*
X169119073Y-34389635D01*
X169062739Y-34407289D01*
X168939349Y-34445956D01*
X168939344Y-34445958D01*
X168933259Y-34447865D01*
X168857513Y-34489852D01*
X168768529Y-34539177D01*
X168768526Y-34539179D01*
X168762950Y-34542270D01*
X168758109Y-34546419D01*
X168758105Y-34546422D01*
X168695111Y-34600415D01*
X168615102Y-34668991D01*
X168495754Y-34822853D01*
X168492938Y-34828576D01*
X168492936Y-34828579D01*
X168449408Y-34917040D01*
X168409782Y-34997571D01*
X168408173Y-35003749D01*
X168408172Y-35003751D01*
X168386277Y-35087809D01*
X168360698Y-35186007D01*
X168350507Y-35380464D01*
X163470160Y-35380464D01*
X163475093Y-35286336D01*
X163445975Y-35093801D01*
X163443772Y-35087815D01*
X163443771Y-35087809D01*
X163380940Y-34917040D01*
X163380938Y-34917035D01*
X163378737Y-34911054D01*
X163276126Y-34745560D01*
X163142334Y-34604078D01*
X162982825Y-34492389D01*
X162934813Y-34471612D01*
X162809975Y-34417590D01*
X162809971Y-34417589D01*
X162804116Y-34415055D01*
X162797869Y-34413750D01*
X162797866Y-34413749D01*
X162618243Y-34376224D01*
X162618238Y-34376223D01*
X162613507Y-34375235D01*
X162607115Y-34374900D01*
X162464137Y-34374900D01*
X162394849Y-34381938D01*
X162325422Y-34388990D01*
X162325421Y-34388990D01*
X162319073Y-34389635D01*
X162262739Y-34407289D01*
X162139349Y-34445956D01*
X162139344Y-34445958D01*
X162133259Y-34447865D01*
X162057513Y-34489852D01*
X161968529Y-34539177D01*
X161968526Y-34539179D01*
X161962950Y-34542270D01*
X161958109Y-34546419D01*
X161958105Y-34546422D01*
X161895111Y-34600415D01*
X161815102Y-34668991D01*
X161695754Y-34822853D01*
X161692938Y-34828576D01*
X161692936Y-34828579D01*
X161649408Y-34917040D01*
X161609782Y-34997571D01*
X161608173Y-35003749D01*
X161608172Y-35003751D01*
X161586277Y-35087809D01*
X161560698Y-35186007D01*
X161550507Y-35380464D01*
X144362160Y-35380464D01*
X144367093Y-35286336D01*
X144337975Y-35093801D01*
X144335772Y-35087815D01*
X144335771Y-35087809D01*
X144272940Y-34917040D01*
X144272938Y-34917035D01*
X144270737Y-34911054D01*
X144168126Y-34745560D01*
X144034334Y-34604078D01*
X143874825Y-34492389D01*
X143826813Y-34471612D01*
X143701975Y-34417590D01*
X143701971Y-34417589D01*
X143696116Y-34415055D01*
X143689869Y-34413750D01*
X143689866Y-34413749D01*
X143510243Y-34376224D01*
X143510238Y-34376223D01*
X143505507Y-34375235D01*
X143499115Y-34374900D01*
X143356137Y-34374900D01*
X143286849Y-34381938D01*
X143217422Y-34388990D01*
X143217421Y-34388990D01*
X143211073Y-34389635D01*
X143154739Y-34407289D01*
X143031349Y-34445956D01*
X143031344Y-34445958D01*
X143025259Y-34447865D01*
X142949513Y-34489852D01*
X142860529Y-34539177D01*
X142860526Y-34539179D01*
X142854950Y-34542270D01*
X142850109Y-34546419D01*
X142850105Y-34546422D01*
X142787111Y-34600415D01*
X142707102Y-34668991D01*
X142587754Y-34822853D01*
X142584938Y-34828576D01*
X142584936Y-34828579D01*
X142541408Y-34917040D01*
X142501782Y-34997571D01*
X142500173Y-35003749D01*
X142500172Y-35003751D01*
X142478277Y-35087809D01*
X142452698Y-35186007D01*
X142442507Y-35380464D01*
X137562160Y-35380464D01*
X137567093Y-35286336D01*
X137537975Y-35093801D01*
X137535772Y-35087815D01*
X137535771Y-35087809D01*
X137472940Y-34917040D01*
X137472938Y-34917035D01*
X137470737Y-34911054D01*
X137368126Y-34745560D01*
X137234334Y-34604078D01*
X137074825Y-34492389D01*
X137026813Y-34471612D01*
X136901975Y-34417590D01*
X136901971Y-34417589D01*
X136896116Y-34415055D01*
X136889869Y-34413750D01*
X136889866Y-34413749D01*
X136710243Y-34376224D01*
X136710238Y-34376223D01*
X136705507Y-34375235D01*
X136699115Y-34374900D01*
X136556137Y-34374900D01*
X136486849Y-34381938D01*
X136417422Y-34388990D01*
X136417421Y-34388990D01*
X136411073Y-34389635D01*
X136354739Y-34407289D01*
X136231349Y-34445956D01*
X136231344Y-34445958D01*
X136225259Y-34447865D01*
X136149513Y-34489852D01*
X136060529Y-34539177D01*
X136060526Y-34539179D01*
X136054950Y-34542270D01*
X136050109Y-34546419D01*
X136050105Y-34546422D01*
X135987111Y-34600415D01*
X135907102Y-34668991D01*
X135787754Y-34822853D01*
X135784938Y-34828576D01*
X135784936Y-34828579D01*
X135741408Y-34917040D01*
X135701782Y-34997571D01*
X135700173Y-35003749D01*
X135700172Y-35003751D01*
X135678277Y-35087809D01*
X135652698Y-35186007D01*
X135642507Y-35380464D01*
X103632000Y-35380464D01*
X103632000Y-33654000D01*
X103652002Y-33585879D01*
X103705658Y-33539386D01*
X103758000Y-33528000D01*
X198502000Y-33528000D01*
X198570121Y-33548002D01*
G37*
G04 #@! TD.AperFunction*
G04 #@! TA.AperFunction,Conductor*
G36*
X160802321Y-70757502D02*
G01*
X160821547Y-70773843D01*
X160821820Y-70773540D01*
X160826732Y-70777963D01*
X160831147Y-70782866D01*
X160836486Y-70786745D01*
X160954607Y-70872565D01*
X160985648Y-70895118D01*
X160991676Y-70897802D01*
X160991678Y-70897803D01*
X161140973Y-70964273D01*
X161195069Y-71010253D01*
X161215718Y-71078180D01*
X161196366Y-71146488D01*
X161143155Y-71193490D01*
X161089724Y-71205380D01*
X158220267Y-71205380D01*
X158152146Y-71185378D01*
X158105653Y-71131722D01*
X158095549Y-71061448D01*
X158125043Y-70996868D01*
X158131172Y-70990285D01*
X158347052Y-70774405D01*
X158409364Y-70740379D01*
X158436147Y-70737500D01*
X160734200Y-70737500D01*
X160802321Y-70757502D01*
G37*
G04 #@! TD.AperFunction*
G04 #@! TA.AperFunction,Conductor*
G36*
X151819113Y-63801933D02*
G01*
X151865606Y-63855589D01*
X151875710Y-63925863D01*
X151846216Y-63990443D01*
X151840087Y-63997026D01*
X151830404Y-64006709D01*
X151815372Y-64019548D01*
X151798015Y-64032159D01*
X151769381Y-64066772D01*
X151768565Y-64067758D01*
X151760575Y-64076538D01*
X150479909Y-65357203D01*
X150417597Y-65391229D01*
X150346781Y-65386164D01*
X150289946Y-65343617D01*
X150265497Y-65278067D01*
X150265504Y-65278000D01*
X150263827Y-65262044D01*
X150246232Y-65094635D01*
X150246232Y-65094633D01*
X150245542Y-65088072D01*
X150186527Y-64906444D01*
X150091040Y-64741056D01*
X150038376Y-64682566D01*
X149967675Y-64604045D01*
X149967674Y-64604044D01*
X149963253Y-64599134D01*
X149864157Y-64527136D01*
X149814094Y-64490763D01*
X149814093Y-64490762D01*
X149808752Y-64486882D01*
X149802724Y-64484198D01*
X149802722Y-64484197D01*
X149640319Y-64411891D01*
X149640318Y-64411891D01*
X149634288Y-64409206D01*
X149522554Y-64385456D01*
X149453944Y-64370872D01*
X149453939Y-64370872D01*
X149447487Y-64369500D01*
X149256513Y-64369500D01*
X149250061Y-64370872D01*
X149250056Y-64370872D01*
X149181446Y-64385456D01*
X149069712Y-64409206D01*
X149063682Y-64411891D01*
X149063681Y-64411891D01*
X148901278Y-64484197D01*
X148901276Y-64484198D01*
X148895248Y-64486882D01*
X148889907Y-64490762D01*
X148889906Y-64490763D01*
X148839843Y-64527136D01*
X148740747Y-64599134D01*
X148736326Y-64604044D01*
X148736325Y-64604045D01*
X148665625Y-64682566D01*
X148612960Y-64741056D01*
X148517473Y-64906444D01*
X148458458Y-65088072D01*
X148457768Y-65094633D01*
X148457768Y-65094635D01*
X148445781Y-65208686D01*
X148438496Y-65278000D01*
X148439186Y-65284565D01*
X148456281Y-65447211D01*
X148458458Y-65467928D01*
X148517473Y-65649556D01*
X148522453Y-65658181D01*
X148522912Y-65660075D01*
X148523461Y-65661307D01*
X148523236Y-65661407D01*
X148539190Y-65727176D01*
X148515969Y-65794268D01*
X148460162Y-65838155D01*
X148413333Y-65847180D01*
X144859430Y-65847180D01*
X144791309Y-65827178D01*
X144770335Y-65810275D01*
X143995770Y-65035710D01*
X143961744Y-64973398D01*
X143959555Y-64959786D01*
X143947032Y-64840636D01*
X143947032Y-64840635D01*
X143946342Y-64834072D01*
X143887327Y-64652444D01*
X143791840Y-64487056D01*
X143783890Y-64478226D01*
X143723475Y-64411129D01*
X143692758Y-64347122D01*
X143701522Y-64276668D01*
X143746985Y-64222137D01*
X143817111Y-64200819D01*
X148038256Y-64200819D01*
X148050112Y-64201378D01*
X148050115Y-64201378D01*
X148057849Y-64203107D01*
X148128681Y-64200881D01*
X148132639Y-64200819D01*
X148161744Y-64200819D01*
X148166144Y-64200263D01*
X148177976Y-64199331D01*
X148224143Y-64197881D01*
X148244733Y-64191899D01*
X148264094Y-64187889D01*
X148271728Y-64186925D01*
X148277516Y-64186194D01*
X148277517Y-64186194D01*
X148285376Y-64185201D01*
X148292741Y-64182285D01*
X148292745Y-64182284D01*
X148328333Y-64168193D01*
X148339543Y-64164354D01*
X148383912Y-64151464D01*
X148402377Y-64140544D01*
X148420117Y-64131853D01*
X148440068Y-64123954D01*
X148477441Y-64096801D01*
X148487360Y-64090286D01*
X148520289Y-64070812D01*
X148520293Y-64070809D01*
X148527119Y-64066772D01*
X148542283Y-64051608D01*
X148557317Y-64038767D01*
X148558004Y-64038268D01*
X148574669Y-64026160D01*
X148604115Y-63990566D01*
X148612104Y-63981787D01*
X148775055Y-63818836D01*
X148837367Y-63784810D01*
X148864150Y-63781931D01*
X151750992Y-63781931D01*
X151819113Y-63801933D01*
G37*
G04 #@! TD.AperFunction*
G04 #@! TA.AperFunction,Conductor*
G36*
X157477171Y-62095702D02*
G01*
X157498145Y-62112605D01*
X159400999Y-64015459D01*
X159408989Y-64024239D01*
X159413238Y-64030934D01*
X159419016Y-64036360D01*
X159419017Y-64036361D01*
X159464911Y-64079458D01*
X159467753Y-64082213D01*
X159488321Y-64102781D01*
X159491824Y-64105498D01*
X159500849Y-64113206D01*
X159534521Y-64144826D01*
X159541472Y-64148647D01*
X159541473Y-64148648D01*
X159553312Y-64155157D01*
X159569836Y-64166011D01*
X159576501Y-64171180D01*
X159586786Y-64179158D01*
X159594058Y-64182305D01*
X159594060Y-64182306D01*
X159629189Y-64197508D01*
X159639849Y-64202730D01*
X159672756Y-64220821D01*
X159680317Y-64224978D01*
X159701095Y-64230313D01*
X159719785Y-64236712D01*
X159739478Y-64245234D01*
X159783250Y-64252167D01*
X159785102Y-64252460D01*
X159796725Y-64254867D01*
X159824726Y-64262056D01*
X159841466Y-64266354D01*
X159862913Y-64266354D01*
X159882623Y-64267905D01*
X159903806Y-64271260D01*
X159949795Y-64266913D01*
X159961650Y-64266354D01*
X162075647Y-64266354D01*
X162143768Y-64286356D01*
X162190261Y-64340012D01*
X162200365Y-64410286D01*
X162170871Y-64474866D01*
X162126896Y-64507461D01*
X162002786Y-64562718D01*
X162002784Y-64562719D01*
X161996756Y-64565403D01*
X161842255Y-64677655D01*
X161837834Y-64682565D01*
X161837833Y-64682566D01*
X161785169Y-64741056D01*
X161714468Y-64819577D01*
X161702794Y-64839797D01*
X161633600Y-64959645D01*
X161618981Y-64984965D01*
X161559966Y-65166593D01*
X161559277Y-65173152D01*
X161559276Y-65173155D01*
X161542297Y-65334703D01*
X161515284Y-65400359D01*
X161457062Y-65440989D01*
X161416987Y-65447532D01*
X157870982Y-65447532D01*
X157802861Y-65427530D01*
X157781887Y-65410627D01*
X155087086Y-62715826D01*
X155079096Y-62707046D01*
X155079094Y-62707044D01*
X155074847Y-62700351D01*
X155023173Y-62651826D01*
X155020332Y-62649072D01*
X154999764Y-62628504D01*
X154996257Y-62625784D01*
X154987235Y-62618078D01*
X154983472Y-62614544D01*
X154953564Y-62586459D01*
X154946618Y-62582641D01*
X154946616Y-62582639D01*
X154938300Y-62578068D01*
X154888240Y-62527724D01*
X154873345Y-62458308D01*
X154898344Y-62391858D01*
X154909903Y-62378557D01*
X155175855Y-62112605D01*
X155238167Y-62078579D01*
X155264950Y-62075700D01*
X157409050Y-62075700D01*
X157477171Y-62095702D01*
G37*
G04 #@! TD.AperFunction*
G04 #@! TA.AperFunction,Conductor*
G36*
X150331097Y-60453142D02*
G01*
X150377590Y-60506798D01*
X150388286Y-60572310D01*
X150377311Y-60676732D01*
X150368896Y-60756800D01*
X150369586Y-60763365D01*
X150380310Y-60865394D01*
X150388858Y-60946728D01*
X150447873Y-61128356D01*
X150451176Y-61134078D01*
X150451177Y-61134079D01*
X150477368Y-61179443D01*
X150543360Y-61293744D01*
X150547778Y-61298651D01*
X150547779Y-61298652D01*
X150574989Y-61328872D01*
X150671147Y-61435666D01*
X150725660Y-61475272D01*
X150794607Y-61525365D01*
X150825648Y-61547918D01*
X150831676Y-61550602D01*
X150831678Y-61550603D01*
X150939356Y-61598544D01*
X151000112Y-61625594D01*
X151089368Y-61644566D01*
X151180456Y-61663928D01*
X151180461Y-61663928D01*
X151186913Y-61665300D01*
X151377887Y-61665300D01*
X151384339Y-61663928D01*
X151384344Y-61663928D01*
X151475432Y-61644566D01*
X151564688Y-61625594D01*
X151625444Y-61598544D01*
X151733122Y-61550603D01*
X151733124Y-61550602D01*
X151739152Y-61547918D01*
X151770194Y-61525365D01*
X151839140Y-61475272D01*
X151893653Y-61435666D01*
X151989811Y-61328872D01*
X152017021Y-61298652D01*
X152017022Y-61298651D01*
X152021440Y-61293744D01*
X152087432Y-61179443D01*
X152113623Y-61134079D01*
X152113624Y-61134078D01*
X152116927Y-61128356D01*
X152175942Y-60946728D01*
X152184491Y-60865394D01*
X152195214Y-60763365D01*
X152195904Y-60756800D01*
X152187489Y-60676732D01*
X152176514Y-60572310D01*
X152189286Y-60502472D01*
X152237788Y-60450625D01*
X152301824Y-60433140D01*
X156684534Y-60433140D01*
X156752655Y-60453142D01*
X156773629Y-60470045D01*
X156847189Y-60543605D01*
X156881215Y-60605917D01*
X156876150Y-60676732D01*
X156833603Y-60733568D01*
X156767083Y-60758379D01*
X156758094Y-60758700D01*
X155022056Y-60758700D01*
X155010200Y-60758141D01*
X155010197Y-60758141D01*
X155002463Y-60756412D01*
X154931631Y-60758638D01*
X154927673Y-60758700D01*
X154898568Y-60758700D01*
X154894168Y-60759256D01*
X154882336Y-60760188D01*
X154836169Y-60761638D01*
X154815579Y-60767620D01*
X154796218Y-60771630D01*
X154789230Y-60772512D01*
X154782796Y-60773325D01*
X154782795Y-60773325D01*
X154774936Y-60774318D01*
X154767571Y-60777234D01*
X154767567Y-60777235D01*
X154731979Y-60791326D01*
X154720769Y-60795165D01*
X154676400Y-60808055D01*
X154657935Y-60818975D01*
X154640195Y-60827666D01*
X154620244Y-60835565D01*
X154582874Y-60862716D01*
X154572952Y-60869233D01*
X154540023Y-60888707D01*
X154540019Y-60888710D01*
X154533193Y-60892747D01*
X154518029Y-60907911D01*
X154502996Y-60920751D01*
X154485643Y-60933359D01*
X154469390Y-60953006D01*
X154456198Y-60968952D01*
X154448208Y-60977732D01*
X153497434Y-61928506D01*
X153435122Y-61962532D01*
X153408339Y-61965411D01*
X150286921Y-61965411D01*
X150218800Y-61945409D01*
X150172307Y-61891753D01*
X150161611Y-61852582D01*
X150144632Y-61691034D01*
X150144631Y-61691031D01*
X150143942Y-61684472D01*
X150084927Y-61502844D01*
X149989440Y-61337456D01*
X149880318Y-61216263D01*
X149866075Y-61200445D01*
X149866074Y-61200444D01*
X149861653Y-61195534D01*
X149707152Y-61083282D01*
X149701124Y-61080598D01*
X149701122Y-61080597D01*
X149538719Y-61008291D01*
X149538718Y-61008291D01*
X149532688Y-61005606D01*
X149416353Y-60980878D01*
X149352344Y-60967272D01*
X149352339Y-60967272D01*
X149345887Y-60965900D01*
X149154913Y-60965900D01*
X149148461Y-60967272D01*
X149148456Y-60967272D01*
X149084447Y-60980878D01*
X148968112Y-61005606D01*
X148962082Y-61008291D01*
X148962081Y-61008291D01*
X148799678Y-61080597D01*
X148799676Y-61080598D01*
X148793648Y-61083282D01*
X148639147Y-61195534D01*
X148634726Y-61200444D01*
X148634725Y-61200445D01*
X148620483Y-61216263D01*
X148511360Y-61337456D01*
X148415873Y-61502844D01*
X148356858Y-61684472D01*
X148356169Y-61691031D01*
X148356168Y-61691034D01*
X148339189Y-61852582D01*
X148312176Y-61918238D01*
X148253954Y-61958868D01*
X148213879Y-61965411D01*
X148205457Y-61965411D01*
X148201523Y-61965908D01*
X148201521Y-61965908D01*
X148201078Y-61965964D01*
X148189243Y-61966896D01*
X148156453Y-61967927D01*
X148150978Y-61968099D01*
X148150977Y-61968099D01*
X148143058Y-61968348D01*
X148127114Y-61972980D01*
X148122460Y-61974332D01*
X148103107Y-61978340D01*
X148099632Y-61978779D01*
X148081825Y-61981029D01*
X148074457Y-61983946D01*
X148074454Y-61983947D01*
X148038871Y-61998036D01*
X148027636Y-62001882D01*
X147990905Y-62012553D01*
X147990902Y-62012554D01*
X147983289Y-62014766D01*
X147964824Y-62025686D01*
X147947084Y-62034377D01*
X147927133Y-62042276D01*
X147908596Y-62055744D01*
X147889763Y-62069427D01*
X147879841Y-62075944D01*
X147846912Y-62095418D01*
X147846908Y-62095421D01*
X147840082Y-62099458D01*
X147824918Y-62114622D01*
X147809885Y-62127462D01*
X147792532Y-62140070D01*
X147777011Y-62158832D01*
X147763087Y-62175663D01*
X147755097Y-62184443D01*
X147592145Y-62347395D01*
X147529833Y-62381421D01*
X147503050Y-62384300D01*
X141752150Y-62384300D01*
X141684029Y-62364298D01*
X141663055Y-62347395D01*
X140721886Y-61406226D01*
X140687860Y-61343914D01*
X140692925Y-61273099D01*
X140735472Y-61216263D01*
X140801992Y-61191452D01*
X140810981Y-61191131D01*
X143092282Y-61191130D01*
X144409342Y-61191130D01*
X144421198Y-61191689D01*
X144421201Y-61191689D01*
X144428935Y-61193418D01*
X144499767Y-61191192D01*
X144503725Y-61191130D01*
X144532830Y-61191130D01*
X144537230Y-61190574D01*
X144549062Y-61189642D01*
X144595229Y-61188192D01*
X144615819Y-61182210D01*
X144635180Y-61178200D01*
X144642168Y-61177318D01*
X144648602Y-61176505D01*
X144648603Y-61176505D01*
X144656462Y-61175512D01*
X144663827Y-61172596D01*
X144663831Y-61172595D01*
X144699419Y-61158504D01*
X144710629Y-61154665D01*
X144754998Y-61141775D01*
X144773463Y-61130855D01*
X144791203Y-61122164D01*
X144811154Y-61114265D01*
X144848527Y-61087112D01*
X144858446Y-61080597D01*
X144891375Y-61061123D01*
X144891379Y-61061120D01*
X144898205Y-61057083D01*
X144913369Y-61041919D01*
X144928403Y-61029078D01*
X144939341Y-61021131D01*
X144945755Y-61016471D01*
X144975201Y-60980877D01*
X144983190Y-60972098D01*
X145485243Y-60470045D01*
X145547555Y-60436019D01*
X145574338Y-60433140D01*
X150262976Y-60433140D01*
X150331097Y-60453142D01*
G37*
G04 #@! TD.AperFunction*
M02*
